<?xml version="1.0" encoding="utf-8" standalone="no"?>
<!DOCTYPE svg PUBLIC "-//W3C//DTD SVG 1.1//EN"
  "http://www.w3.org/Graphics/SVG/1.1/DTD/svg11.dtd">
<!-- Created with matplotlib (http://matplotlib.org/) -->
<svg height="432pt" version="1.1" viewBox="0 0 576 432" width="576pt" xmlns="http://www.w3.org/2000/svg" xmlns:xlink="http://www.w3.org/1999/xlink">
 <defs>
  <style type="text/css">
*{stroke-linecap:butt;stroke-linejoin:round;stroke-miterlimit:100000;}
  </style>
 </defs>
 <g id="figure_1">
  <g id="patch_1">
   <path d="M 0 432 
L 576 432 
L 576 0 
L 0 0 
z
" style="fill:#ffffff;"/>
  </g>
  <g id="axes_1">
   <g id="patch_2">
    <path d="M 72 388.8 
L 518.4 388.8 
L 518.4 43.2 
L 72 43.2 
z
" style="fill:#ffffff;"/>
   </g>
   <g id="PolyCollection_1">
    <defs>
     <path d="M 72 -183.034831 
L 72 -174.286107 
L 80.928 -178.505516 
L 89.856 -182.660316 
L 98.784 -186.741778 
L 107.712 -190.738735 
L 116.64 -194.636259 
L 125.568 -198.414849 
L 134.496 -202.051506 
L 143.424 -205.524731 
L 152.352 -208.822771 
L 161.28 -211.948783 
L 170.208 -214.917743 
L 179.136 -217.748621 
L 188.064 -220.458419 
L 196.992 -223.059957 
L 205.92 -225.56193 
L 214.848 -227.969669 
L 223.776 -230.285903 
L 232.704 -232.511332 
L 241.632 -234.644993 
L 250.56 -236.684477 
L 259.488 -238.626011 
L 268.416 -240.464453 
L 277.344 -242.193185 
L 286.272 -243.803922 
L 295.2 -245.286403 
L 304.128 -246.627953 
L 313.056 -247.812859 
L 321.984 -248.821485 
L 330.912 -249.629008 
L 339.84 -250.203574 
L 348.768 -250.503538 
L 357.696 -250.473195 
L 366.624 -250.035883 
L 375.552 -249.082274 
L 384.48 -247.449157 
L 393.408 -244.877578 
L 402.336 -240.920386 
L 411.264 -234.701446 
L 420.192 -224.099021 
L 429.12 -200.986926 
L 438.048 -43.2 
L 446.976 -43.2 
L 455.904 -43.2 
L 464.832 -43.2 
L 473.76 -43.2 
L 482.688 -43.2 
L 491.616 -43.2 
L 500.544 -43.2 
L 509.472 -43.2 
L 509.472 -365.264243 
L 509.472 -365.264243 
L 500.544 -361.29601 
L 491.616 -357.335375 
L 482.688 -353.3824 
L 473.76 -349.437188 
L 464.832 -345.49989 
L 455.904 -341.570711 
L 446.976 -337.64991 
L 438.048 -333.737798 
L 429.12 -329.834737 
L 420.192 -325.941136 
L 411.264 -322.057438 
L 402.336 -318.184117 
L 393.408 -314.32166 
L 384.48 -310.470558 
L 375.552 -306.631282 
L 366.624 -302.804272 
L 357.696 -298.989909 
L 348.768 -295.188497 
L 339.84 -291.400235 
L 330.912 -287.625198 
L 321.984 -283.863305 
L 313.056 -280.114302 
L 304.128 -276.377742 
L 295.2 -272.652966 
L 286.272 -268.939102 
L 277.344 -265.23506 
L 268.416 -261.539552 
L 259.488 -257.851121 
L 250.56 -254.168194 
L 241.632 -250.489166 
L 232.704 -246.812511 
L 223.776 -243.136957 
L 214.848 -239.461728 
L 205.92 -235.786874 
L 196.992 -232.113772 
L 188.064 -228.44579 
L 179.136 -224.78915 
L 170.208 -221.15378 
L 161.28 -217.553434 
L 152.352 -214.003567 
L 143.424 -210.515439 
L 134.496 -207.088357 
L 125.568 -203.706645 
L 116.64 -200.344893 
L 107.712 -196.976233 
L 98.784 -193.577439 
L 89.856 -190.130086 
L 80.928 -186.619748 
L 72 -183.034831 
z
" id="mf5bd5e8d06" style="stroke:#0000ff;stroke-opacity:0.3;"/>
    </defs>
    <g clip-path="url(#p989e78ae0f)">
     <use style="fill:#0000ff;fill-opacity:0.3;stroke:#0000ff;stroke-opacity:0.3;" x="0.0" xlink:href="#mf5bd5e8d06" y="432.0"/>
    </g>
   </g>
   <g id="PolyCollection_2">
    <defs>
     <path d="M 72 -88.381419 
L 72 -77.3688 
L 80.928 -81.903109 
L 89.856 -86.399457 
L 98.784 -90.859906 
L 107.712 -95.284876 
L 116.64 -99.672424 
L 125.568 -104.019715 
L 134.496 -108.323241 
L 143.424 -112.578409 
L 152.352 -116.780073 
L 161.28 -120.921998 
L 170.208 -124.996168 
L 179.136 -128.991709 
L 188.064 -132.893557 
L 196.992 -136.681125 
L 205.92 -140.329662 
L 214.848 -143.81599 
L 223.776 -147.128156 
L 232.704 -150.270943 
L 241.632 -153.261203 
L 250.56 -156.118839 
L 259.488 -158.860794 
L 268.416 -161.49937 
L 277.344 -164.042676 
L 286.272 -166.495582 
L 295.2 -168.860509 
L 304.128 -171.138023 
L 313.056 -173.327188 
L 321.984 -175.425765 
L 330.912 -177.430305 
L 339.84 -179.336145 
L 348.768 -181.137312 
L 357.696 -182.826368 
L 366.624 -184.394146 
L 375.552 -185.829373 
L 384.48 -187.118149 
L 393.408 -188.243206 
L 402.336 -189.182877 
L 411.264 -189.909605 
L 420.192 -190.387749 
L 429.12 -190.570277 
L 438.048 -190.393538 
L 446.976 -189.768673 
L 455.904 -188.566627 
L 464.832 -186.59007 
L 473.76 -183.515513 
L 482.688 -178.75717 
L 491.616 -171.076622 
L 500.544 -157.004893 
L 509.472 -114.881729 
L 509.472 -272.119872 
L 509.472 -272.119872 
L 500.544 -268.218332 
L 491.616 -264.32603 
L 482.688 -260.443325 
L 473.76 -256.570592 
L 464.832 -252.708213 
L 455.904 -248.856563 
L 446.976 -245.015989 
L 438.048 -241.1868 
L 429.12 -237.369243 
L 420.192 -233.563486 
L 411.264 -229.769594 
L 402.336 -225.987514 
L 393.408 -222.217052 
L 384.48 -218.457854 
L 375.552 -214.709393 
L 366.624 -210.970959 
L 357.696 -207.241654 
L 348.768 -203.520394 
L 339.84 -199.805927 
L 330.912 -196.096857 
L 321.984 -192.391698 
L 313.056 -188.688925 
L 304.128 -184.987097 
L 295.2 -181.284995 
L 286.272 -177.58184 
L 277.344 -173.877606 
L 268.416 -170.17349 
L 259.488 -166.472537 
L 250.56 -162.780578 
L 241.632 -159.107242 
L 232.704 -155.466486 
L 223.776 -151.874992 
L 214.848 -148.346267 
L 205.92 -144.881572 
L 196.992 -141.465448 
L 188.064 -138.07125 
L 179.136 -134.670857 
L 170.208 -131.240569 
L 161.28 -127.76223 
L 152.352 -124.222209 
L 143.424 -120.610034 
L 134.496 -116.917337 
L 125.568 -113.137203 
L 116.64 -109.263879 
L 107.712 -105.292584 
L 98.784 -101.219736 
L 89.856 -97.043315 
L 80.928 -92.763045 
L 72 -88.381419 
z
" id="m0831fb2f6b" style="stroke:#880088;stroke-opacity:0.3;"/>
    </defs>
    <g clip-path="url(#p989e78ae0f)">
     <use style="fill:#880088;fill-opacity:0.3;stroke:#880088;stroke-opacity:0.3;" x="0.0" xlink:href="#m0831fb2f6b" y="432.0"/>
    </g>
   </g>
   <g id="PolyCollection_3">
    <defs>
     <path d="M 72 -43.2 
L 72 -43.2 
L 80.928 -43.2 
L 89.856 -43.2 
L 98.784 -43.2 
L 107.712 -43.2 
L 116.64 -43.2 
L 125.568 -43.2 
L 134.496 -43.2 
L 143.424 -43.2 
L 152.352 -43.2 
L 161.28 -43.2 
L 170.208 -43.2 
L 179.136 -43.2 
L 188.064 -43.2 
L 196.992 -43.2 
L 205.92 -43.2 
L 214.848 -43.2 
L 223.776 -43.2 
L 232.704 -43.2 
L 241.632 -43.2 
L 250.56 -43.2 
L 259.488 -43.2 
L 268.416 -43.2 
L 277.344 -43.2 
L 286.272 -43.2 
L 295.2 -43.2 
L 304.128 -43.2 
L 313.056 -43.2 
L 321.984 -43.2 
L 330.912 -43.2 
L 339.84 -43.2 
L 348.768 -43.2 
L 357.696 -43.2 
L 366.624 -46.972784 
L 375.552 -51.477331 
L 384.48 -55.934276 
L 393.408 -60.342919 
L 402.336 -64.702221 
L 411.264 -69.011461 
L 420.192 -73.269233 
L 429.12 -77.474391 
L 438.048 -81.625233 
L 446.976 -85.718699 
L 455.904 -89.749072 
L 464.832 -93.706071 
L 473.76 -97.572753 
L 482.688 -101.325572 
L 491.616 -104.940645 
L 500.544 -108.407307 
L 509.472 -111.733958 
L 509.472 -115.16852 
L 509.472 -115.16852 
L 500.544 -111.430902 
L 491.616 -107.749522 
L 482.688 -104.131846 
L 473.76 -100.566216 
L 464.832 -97.027746 
L 455.904 -93.491297 
L 446.976 -89.938053 
L 438.048 -86.355339 
L 429.12 -82.734481 
L 420.192 -79.06891 
L 411.264 -75.352929 
L 402.336 -71.580999 
L 393.408 -67.747545 
L 384.48 -63.846547 
L 375.552 -59.872058 
L 366.624 -55.818516 
L 357.696 -51.681394 
L 348.768 -47.458035 
L 339.84 -43.2 
L 330.912 -43.2 
L 321.984 -43.2 
L 313.056 -43.2 
L 304.128 -43.2 
L 295.2 -43.2 
L 286.272 -43.2 
L 277.344 -43.2 
L 268.416 -43.2 
L 259.488 -43.2 
L 250.56 -43.2 
L 241.632 -43.2 
L 232.704 -43.2 
L 223.776 -43.2 
L 214.848 -43.2 
L 205.92 -43.2 
L 196.992 -43.2 
L 188.064 -43.2 
L 179.136 -43.2 
L 170.208 -43.2 
L 161.28 -43.2 
L 152.352 -43.2 
L 143.424 -43.2 
L 134.496 -43.2 
L 125.568 -43.2 
L 116.64 -43.2 
L 107.712 -43.2 
L 98.784 -43.2 
L 89.856 -43.2 
L 80.928 -43.2 
L 72 -43.2 
z
" id="m556e2abcb2" style="stroke:#bb0000;stroke-opacity:0.3;"/>
    </defs>
    <g clip-path="url(#p989e78ae0f)">
     <use style="fill:#bb0000;fill-opacity:0.3;stroke:#bb0000;stroke-opacity:0.3;" x="0.0" xlink:href="#m556e2abcb2" y="432.0"/>
    </g>
   </g>
   <g id="PolyCollection_4">
    <defs>
     <path d="M 72 -43.2 
L 72 -43.2 
L 80.928 -43.2 
L 89.856 -43.2 
L 98.784 -43.2 
L 107.712 -43.2 
L 116.64 -43.2 
L 125.568 -43.2 
L 134.496 -43.2 
L 143.424 -43.2 
L 152.352 -43.2 
L 161.28 -43.2 
L 170.208 -43.2 
L 179.136 -43.2 
L 188.064 -43.2 
L 196.992 -43.2 
L 205.92 -43.2 
L 214.848 -43.2 
L 223.776 -43.2 
L 232.704 -43.2 
L 241.632 -43.2 
L 250.56 -43.2 
L 259.488 -43.2 
L 268.416 -43.2 
L 277.344 -43.2 
L 286.272 -43.2 
L 295.2 -43.2 
L 304.128 -43.2 
L 313.056 -43.2 
L 321.984 -43.2 
L 330.912 -43.2 
L 339.84 -43.2 
L 348.768 -43.2 
L 357.696 -43.2 
L 366.624 -43.2 
L 375.552 -43.2 
L 384.48 -43.2 
L 393.408 -43.2 
L 402.336 -43.2 
L 411.264 -43.2 
L 420.192 -43.2 
L 429.12 -43.2 
L 438.048 -43.2 
L 446.976 -43.2 
L 455.904 -43.2 
L 464.832 -43.2 
L 473.76 -43.2 
L 482.688 -43.2 
L 491.616 -43.2 
L 500.544 -43.2 
L 509.472 -43.2 
L 509.472 -43.2 
L 509.472 -43.2 
L 500.544 -43.2 
L 491.616 -43.2 
L 482.688 -43.2 
L 473.76 -43.2 
L 464.832 -43.2 
L 455.904 -43.2 
L 446.976 -43.2 
L 438.048 -43.2 
L 429.12 -43.2 
L 420.192 -43.2 
L 411.264 -43.2 
L 402.336 -43.2 
L 393.408 -43.2 
L 384.48 -43.2 
L 375.552 -43.2 
L 366.624 -43.2 
L 357.696 -43.2 
L 348.768 -43.2 
L 339.84 -43.2 
L 330.912 -43.2 
L 321.984 -43.2 
L 313.056 -43.2 
L 304.128 -43.2 
L 295.2 -43.2 
L 286.272 -43.2 
L 277.344 -43.2 
L 268.416 -43.2 
L 259.488 -43.2 
L 250.56 -43.2 
L 241.632 -43.2 
L 232.704 -43.2 
L 223.776 -43.2 
L 214.848 -43.2 
L 205.92 -43.2 
L 196.992 -43.2 
L 188.064 -43.2 
L 179.136 -43.2 
L 170.208 -43.2 
L 161.28 -43.2 
L 152.352 -43.2 
L 143.424 -43.2 
L 134.496 -43.2 
L 125.568 -43.2 
L 116.64 -43.2 
L 107.712 -43.2 
L 98.784 -43.2 
L 89.856 -43.2 
L 80.928 -43.2 
L 72 -43.2 
z
" id="m15c8c6c3f4" style="stroke:#ff0000;stroke-opacity:0.3;"/>
    </defs>
    <g clip-path="url(#p989e78ae0f)">
     <use style="fill:#ff0000;fill-opacity:0.3;stroke:#ff0000;stroke-opacity:0.3;" x="0.0" xlink:href="#m15c8c6c3f4" y="432.0"/>
    </g>
   </g>
   <g id="line2d_1">
    <path clip-path="url(#p989e78ae0f)" d="M 72 253.021931 
L 80.928 249.16403 
L 89.856 245.37305 
L 98.784 241.646237 
L 107.712 237.980796 
L 116.64 234.373926 
L 125.568 230.822796 
L 134.496 227.324549 
L 143.424 223.876318 
L 152.352 220.475202 
L 161.28 217.118278 
L 170.208 213.802594 
L 179.136 210.525175 
L 188.064 207.283014 
L 196.992 204.073083 
L 205.92 200.892331 
L 214.848 197.737685 
L 223.776 194.606057 
L 232.704 191.494354 
L 241.632 188.399486 
L 250.56 185.318373 
L 259.488 182.247965 
L 268.416 179.18525 
L 277.344 176.127271 
L 286.272 173.071141 
L 295.2 170.014063 
L 304.128 166.953339 
L 313.056 163.886394 
L 321.984 160.810781 
L 330.912 157.724205 
L 339.84 154.624527 
L 348.768 151.509777 
L 357.696 148.378165 
L 366.624 145.228085 
L 375.552 142.058116 
L 384.48 138.867031 
L 393.408 135.653789 
L 402.336 132.417533 
L 411.264 129.157588 
L 420.192 125.87345 
L 429.12 122.564777 
L 438.048 119.23138 
L 446.976 115.873205 
L 455.904 112.490327 
L 464.832 109.082931 
L 473.76 105.651298 
L 482.688 102.195796 
L 491.616 98.716859 
L 500.544 95.214981 
L 509.472 91.690702 
" style="fill:none;stroke:#0000ff;stroke-linecap:square;"/>
   </g>
   <g id="line2d_2">
    <path clip-path="url(#p989e78ae0f)" d="M 72 348.622684 
L 80.928 344.17847 
L 89.856 339.809306 
L 98.784 335.515462 
L 107.712 331.296134 
L 116.64 327.150386 
L 125.568 323.076707 
L 134.496 319.073201 
L 143.424 315.137962 
L 152.352 311.268816 
L 161.28 307.463472 
L 170.208 303.719554 
L 179.136 300.034613 
L 188.064 296.406101 
L 196.992 292.831499 
L 205.92 289.308186 
L 214.848 285.833491 
L 223.776 282.404696 
L 232.704 279.019021 
L 241.632 275.673689 
L 250.56 272.365871 
L 259.488 269.092715 
L 268.416 265.851345 
L 277.344 262.638871 
L 286.272 259.452381 
L 295.2 256.28898 
L 304.128 253.145761 
L 313.056 250.019824 
L 321.984 246.908281 
L 330.912 243.808268 
L 339.84 240.716946 
L 348.768 237.63153 
L 357.696 234.549285 
L 366.624 231.467547 
L 375.552 228.383739 
L 384.48 225.29538 
L 393.408 222.200105 
L 402.336 219.095679 
L 411.264 215.980001 
L 420.192 212.851128 
L 429.12 209.707274 
L 438.048 206.546821 
L 446.976 203.368322 
L 455.904 200.170505 
L 464.832 196.952274 
L 473.76 193.712705 
L 482.688 190.451042 
L 491.616 187.166694 
L 500.544 183.859221 
L 509.472 180.528328 
" style="fill:none;stroke:#880088;stroke-linecap:square;"/>
   </g>
   <g id="line2d_3">
    <path clip-path="url(#p989e78ae0f)" d="M 72 542.773434 
M 265.683602 433 
L 268.416 431.476596 
L 277.344 426.530815 
L 286.272 421.623602 
L 295.2 416.76581 
L 304.128 411.964907 
L 313.056 407.227132 
L 321.984 402.557214 
L 330.912 397.958258 
L 339.84 393.431034 
L 348.768 388.976446 
L 357.696 384.593349 
L 366.624 380.279693 
L 375.552 376.032806 
L 384.48 371.84965 
L 393.408 367.727033 
L 402.336 363.661784 
L 411.264 359.650659 
L 420.192 355.691081 
L 429.12 351.780496 
L 438.048 347.916643 
L 446.976 344.097552 
L 455.904 340.321538 
L 464.832 336.58717 
L 473.76 332.893217 
L 482.688 329.23851 
L 491.616 325.622075 
L 500.544 322.042842 
L 509.472 318.499667 
" style="fill:none;stroke:#bb0000;stroke-linecap:square;"/>
   </g>
   <g id="line2d_4">
    <path clip-path="url(#p989e78ae0f)" d="M 134.496 697.999531 
M 505.322217 433 
L 509.472 430.705364 
" style="fill:none;stroke:#ff0000;stroke-linecap:square;"/>
   </g>
   <g id="line2d_5">
    <path clip-path="url(#p989e78ae0f)" d="M 393.408 388.8 
L 393.408 43.2 
" style="fill:none;stroke:#000000;stroke-dasharray:6.000000,6.000000;stroke-dashoffset:0.0;"/>
   </g>
   <g id="patch_3">
    <path d="M 72 388.8 
L 518.4 388.8 
" style="fill:none;stroke:#000000;stroke-linecap:square;stroke-linejoin:miter;"/>
   </g>
   <g id="patch_4">
    <path d="M 518.4 388.8 
L 518.4 43.2 
" style="fill:none;stroke:#000000;stroke-linecap:square;stroke-linejoin:miter;"/>
   </g>
   <g id="patch_5">
    <path d="M 72 43.2 
L 518.4 43.2 
" style="fill:none;stroke:#000000;stroke-linecap:square;stroke-linejoin:miter;"/>
   </g>
   <g id="patch_6">
    <path d="M 72 388.8 
L 72 43.2 
" style="fill:none;stroke:#000000;stroke-linecap:square;stroke-linejoin:miter;"/>
   </g>
   <g id="matplotlib.axis_1">
    <g id="xtick_1">
     <g id="line2d_6">
      <path clip-path="url(#p989e78ae0f)" d="M 72 388.8 
L 72 43.2 
" style="fill:none;stroke:#000000;stroke-dasharray:1.000000,3.000000;stroke-dashoffset:0.0;stroke-width:0.5;"/>
     </g>
     <g id="line2d_7">
      <defs>
       <path d="M 0 0 
L 0 -4 
" id="m21919dd50f" style="stroke:#000000;stroke-width:0.5;"/>
      </defs>
      <g>
       <use style="stroke:#000000;stroke-width:0.5;" x="72.0" xlink:href="#m21919dd50f" y="388.8"/>
      </g>
     </g>
     <g id="line2d_8">
      <defs>
       <path d="M 0 0 
L 0 4 
" id="md485f11e37" style="stroke:#000000;stroke-width:0.5;"/>
      </defs>
      <g>
       <use style="stroke:#000000;stroke-width:0.5;" x="72.0" xlink:href="#md485f11e37" y="43.2"/>
      </g>
     </g>
     <g id="text_1">
      <!-- 21 -->
      <defs>
       <path d="M 12.40625 8.296875 
L 28.515625 8.296875 
L 28.515625 63.921875 
L 10.984375 60.40625 
L 10.984375 69.390625 
L 28.421875 72.90625 
L 38.28125 72.90625 
L 38.28125 8.296875 
L 54.390625 8.296875 
L 54.390625 0 
L 12.40625 0 
z
" id="BitstreamVeraSans-Roman-31"/>
       <path d="M 19.1875 8.296875 
L 53.609375 8.296875 
L 53.609375 0 
L 7.328125 0 
L 7.328125 8.296875 
Q 12.9375 14.109375 22.625 23.890625 
Q 32.328125 33.6875 34.8125 36.53125 
Q 39.546875 41.84375 41.421875 45.53125 
Q 43.3125 49.21875 43.3125 52.78125 
Q 43.3125 58.59375 39.234375 62.25 
Q 35.15625 65.921875 28.609375 65.921875 
Q 23.96875 65.921875 18.8125 64.3125 
Q 13.671875 62.703125 7.8125 59.421875 
L 7.8125 69.390625 
Q 13.765625 71.78125 18.9375 73 
Q 24.125 74.21875 28.421875 74.21875 
Q 39.75 74.21875 46.484375 68.546875 
Q 53.21875 62.890625 53.21875 53.421875 
Q 53.21875 48.921875 51.53125 44.890625 
Q 49.859375 40.875 45.40625 35.40625 
Q 44.1875 33.984375 37.640625 27.21875 
Q 31.109375 20.453125 19.1875 8.296875 
" id="BitstreamVeraSans-Roman-32"/>
      </defs>
      <g transform="translate(64.365 401.918125)scale(0.12 -0.12)">
       <use xlink:href="#BitstreamVeraSans-Roman-32"/>
       <use x="63.623046875" xlink:href="#BitstreamVeraSans-Roman-31"/>
      </g>
     </g>
    </g>
    <g id="xtick_2">
     <g id="line2d_9">
      <path clip-path="url(#p989e78ae0f)" d="M 161.28 388.8 
L 161.28 43.2 
" style="fill:none;stroke:#000000;stroke-dasharray:1.000000,3.000000;stroke-dashoffset:0.0;stroke-width:0.5;"/>
     </g>
     <g id="line2d_10">
      <g>
       <use style="stroke:#000000;stroke-width:0.5;" x="161.28" xlink:href="#m21919dd50f" y="388.8"/>
      </g>
     </g>
     <g id="line2d_11">
      <g>
       <use style="stroke:#000000;stroke-width:0.5;" x="161.28" xlink:href="#md485f11e37" y="43.2"/>
      </g>
     </g>
     <g id="text_2">
      <!-- 22 -->
      <g transform="translate(153.645 401.918125)scale(0.12 -0.12)">
       <use xlink:href="#BitstreamVeraSans-Roman-32"/>
       <use x="63.623046875" xlink:href="#BitstreamVeraSans-Roman-32"/>
      </g>
     </g>
    </g>
    <g id="xtick_3">
     <g id="line2d_12">
      <path clip-path="url(#p989e78ae0f)" d="M 250.56 388.8 
L 250.56 43.2 
" style="fill:none;stroke:#000000;stroke-dasharray:1.000000,3.000000;stroke-dashoffset:0.0;stroke-width:0.5;"/>
     </g>
     <g id="line2d_13">
      <g>
       <use style="stroke:#000000;stroke-width:0.5;" x="250.56" xlink:href="#m21919dd50f" y="388.8"/>
      </g>
     </g>
     <g id="line2d_14">
      <g>
       <use style="stroke:#000000;stroke-width:0.5;" x="250.56" xlink:href="#md485f11e37" y="43.2"/>
      </g>
     </g>
     <g id="text_3">
      <!-- 23 -->
      <defs>
       <path d="M 40.578125 39.3125 
Q 47.65625 37.796875 51.625 33 
Q 55.609375 28.21875 55.609375 21.1875 
Q 55.609375 10.40625 48.1875 4.484375 
Q 40.765625 -1.421875 27.09375 -1.421875 
Q 22.515625 -1.421875 17.65625 -0.515625 
Q 12.796875 0.390625 7.625 2.203125 
L 7.625 11.71875 
Q 11.71875 9.328125 16.59375 8.109375 
Q 21.484375 6.890625 26.8125 6.890625 
Q 36.078125 6.890625 40.9375 10.546875 
Q 45.796875 14.203125 45.796875 21.1875 
Q 45.796875 27.640625 41.28125 31.265625 
Q 36.765625 34.90625 28.71875 34.90625 
L 20.21875 34.90625 
L 20.21875 43.015625 
L 29.109375 43.015625 
Q 36.375 43.015625 40.234375 45.921875 
Q 44.09375 48.828125 44.09375 54.296875 
Q 44.09375 59.90625 40.109375 62.90625 
Q 36.140625 65.921875 28.71875 65.921875 
Q 24.65625 65.921875 20.015625 65.03125 
Q 15.375 64.15625 9.8125 62.3125 
L 9.8125 71.09375 
Q 15.4375 72.65625 20.34375 73.4375 
Q 25.25 74.21875 29.59375 74.21875 
Q 40.828125 74.21875 47.359375 69.109375 
Q 53.90625 64.015625 53.90625 55.328125 
Q 53.90625 49.265625 50.4375 45.09375 
Q 46.96875 40.921875 40.578125 39.3125 
" id="BitstreamVeraSans-Roman-33"/>
      </defs>
      <g transform="translate(242.925 401.918125)scale(0.12 -0.12)">
       <use xlink:href="#BitstreamVeraSans-Roman-32"/>
       <use x="63.623046875" xlink:href="#BitstreamVeraSans-Roman-33"/>
      </g>
     </g>
    </g>
    <g id="xtick_4">
     <g id="line2d_15">
      <path clip-path="url(#p989e78ae0f)" d="M 339.84 388.8 
L 339.84 43.2 
" style="fill:none;stroke:#000000;stroke-dasharray:1.000000,3.000000;stroke-dashoffset:0.0;stroke-width:0.5;"/>
     </g>
     <g id="line2d_16">
      <g>
       <use style="stroke:#000000;stroke-width:0.5;" x="339.84" xlink:href="#m21919dd50f" y="388.8"/>
      </g>
     </g>
     <g id="line2d_17">
      <g>
       <use style="stroke:#000000;stroke-width:0.5;" x="339.84" xlink:href="#md485f11e37" y="43.2"/>
      </g>
     </g>
     <g id="text_4">
      <!-- 24 -->
      <defs>
       <path d="M 37.796875 64.3125 
L 12.890625 25.390625 
L 37.796875 25.390625 
z
M 35.203125 72.90625 
L 47.609375 72.90625 
L 47.609375 25.390625 
L 58.015625 25.390625 
L 58.015625 17.1875 
L 47.609375 17.1875 
L 47.609375 0 
L 37.796875 0 
L 37.796875 17.1875 
L 4.890625 17.1875 
L 4.890625 26.703125 
z
" id="BitstreamVeraSans-Roman-34"/>
      </defs>
      <g transform="translate(332.205 401.918125)scale(0.12 -0.12)">
       <use xlink:href="#BitstreamVeraSans-Roman-32"/>
       <use x="63.623046875" xlink:href="#BitstreamVeraSans-Roman-34"/>
      </g>
     </g>
    </g>
    <g id="xtick_5">
     <g id="line2d_18">
      <path clip-path="url(#p989e78ae0f)" d="M 429.12 388.8 
L 429.12 43.2 
" style="fill:none;stroke:#000000;stroke-dasharray:1.000000,3.000000;stroke-dashoffset:0.0;stroke-width:0.5;"/>
     </g>
     <g id="line2d_19">
      <g>
       <use style="stroke:#000000;stroke-width:0.5;" x="429.12" xlink:href="#m21919dd50f" y="388.8"/>
      </g>
     </g>
     <g id="line2d_20">
      <g>
       <use style="stroke:#000000;stroke-width:0.5;" x="429.12" xlink:href="#md485f11e37" y="43.2"/>
      </g>
     </g>
     <g id="text_5">
      <!-- 25 -->
      <defs>
       <path d="M 10.796875 72.90625 
L 49.515625 72.90625 
L 49.515625 64.59375 
L 19.828125 64.59375 
L 19.828125 46.734375 
Q 21.96875 47.46875 24.109375 47.828125 
Q 26.265625 48.1875 28.421875 48.1875 
Q 40.625 48.1875 47.75 41.5 
Q 54.890625 34.8125 54.890625 23.390625 
Q 54.890625 11.625 47.5625 5.09375 
Q 40.234375 -1.421875 26.90625 -1.421875 
Q 22.3125 -1.421875 17.546875 -0.640625 
Q 12.796875 0.140625 7.71875 1.703125 
L 7.71875 11.625 
Q 12.109375 9.234375 16.796875 8.0625 
Q 21.484375 6.890625 26.703125 6.890625 
Q 35.15625 6.890625 40.078125 11.328125 
Q 45.015625 15.765625 45.015625 23.390625 
Q 45.015625 31 40.078125 35.4375 
Q 35.15625 39.890625 26.703125 39.890625 
Q 22.75 39.890625 18.8125 39.015625 
Q 14.890625 38.140625 10.796875 36.28125 
z
" id="BitstreamVeraSans-Roman-35"/>
      </defs>
      <g transform="translate(421.485 401.918125)scale(0.12 -0.12)">
       <use xlink:href="#BitstreamVeraSans-Roman-32"/>
       <use x="63.623046875" xlink:href="#BitstreamVeraSans-Roman-35"/>
      </g>
     </g>
    </g>
    <g id="xtick_6">
     <g id="line2d_21">
      <path clip-path="url(#p989e78ae0f)" d="M 518.4 388.8 
L 518.4 43.2 
" style="fill:none;stroke:#000000;stroke-dasharray:1.000000,3.000000;stroke-dashoffset:0.0;stroke-width:0.5;"/>
     </g>
     <g id="line2d_22">
      <g>
       <use style="stroke:#000000;stroke-width:0.5;" x="518.4" xlink:href="#m21919dd50f" y="388.8"/>
      </g>
     </g>
     <g id="line2d_23">
      <g>
       <use style="stroke:#000000;stroke-width:0.5;" x="518.4" xlink:href="#md485f11e37" y="43.2"/>
      </g>
     </g>
     <g id="text_6">
      <!-- 26 -->
      <defs>
       <path d="M 33.015625 40.375 
Q 26.375 40.375 22.484375 35.828125 
Q 18.609375 31.296875 18.609375 23.390625 
Q 18.609375 15.53125 22.484375 10.953125 
Q 26.375 6.390625 33.015625 6.390625 
Q 39.65625 6.390625 43.53125 10.953125 
Q 47.40625 15.53125 47.40625 23.390625 
Q 47.40625 31.296875 43.53125 35.828125 
Q 39.65625 40.375 33.015625 40.375 
M 52.59375 71.296875 
L 52.59375 62.3125 
Q 48.875 64.0625 45.09375 64.984375 
Q 41.3125 65.921875 37.59375 65.921875 
Q 27.828125 65.921875 22.671875 59.328125 
Q 17.53125 52.734375 16.796875 39.40625 
Q 19.671875 43.65625 24.015625 45.921875 
Q 28.375 48.1875 33.59375 48.1875 
Q 44.578125 48.1875 50.953125 41.515625 
Q 57.328125 34.859375 57.328125 23.390625 
Q 57.328125 12.15625 50.6875 5.359375 
Q 44.046875 -1.421875 33.015625 -1.421875 
Q 20.359375 -1.421875 13.671875 8.265625 
Q 6.984375 17.96875 6.984375 36.375 
Q 6.984375 53.65625 15.1875 63.9375 
Q 23.390625 74.21875 37.203125 74.21875 
Q 40.921875 74.21875 44.703125 73.484375 
Q 48.484375 72.75 52.59375 71.296875 
" id="BitstreamVeraSans-Roman-36"/>
      </defs>
      <g transform="translate(510.765 401.918125)scale(0.12 -0.12)">
       <use xlink:href="#BitstreamVeraSans-Roman-32"/>
       <use x="63.623046875" xlink:href="#BitstreamVeraSans-Roman-36"/>
      </g>
     </g>
    </g>
    <g id="text_7">
     <!-- Limiting depth in LSST-z -->
     <defs>
      <path d="M 9.421875 54.6875 
L 18.40625 54.6875 
L 18.40625 0 
L 9.421875 0 
z
M 9.421875 75.984375 
L 18.40625 75.984375 
L 18.40625 64.59375 
L 9.421875 64.59375 
z
" id="BitstreamVeraSans-Roman-69"/>
      <path d="M 56.203125 29.59375 
L 56.203125 25.203125 
L 14.890625 25.203125 
Q 15.484375 15.921875 20.484375 11.0625 
Q 25.484375 6.203125 34.421875 6.203125 
Q 39.59375 6.203125 44.453125 7.46875 
Q 49.3125 8.734375 54.109375 11.28125 
L 54.109375 2.78125 
Q 49.265625 0.734375 44.1875 -0.34375 
Q 39.109375 -1.421875 33.890625 -1.421875 
Q 20.796875 -1.421875 13.15625 6.1875 
Q 5.515625 13.8125 5.515625 26.8125 
Q 5.515625 40.234375 12.765625 48.109375 
Q 20.015625 56 32.328125 56 
Q 43.359375 56 49.78125 48.890625 
Q 56.203125 41.796875 56.203125 29.59375 
M 47.21875 32.234375 
Q 47.125 39.59375 43.09375 43.984375 
Q 39.0625 48.390625 32.421875 48.390625 
Q 24.90625 48.390625 20.390625 44.140625 
Q 15.875 39.890625 15.1875 32.171875 
z
" id="BitstreamVeraSans-Roman-65"/>
      <path d="M 18.109375 8.203125 
L 18.109375 -20.796875 
L 9.078125 -20.796875 
L 9.078125 54.6875 
L 18.109375 54.6875 
L 18.109375 46.390625 
Q 20.953125 51.265625 25.265625 53.625 
Q 29.59375 56 35.59375 56 
Q 45.5625 56 51.78125 48.09375 
Q 58.015625 40.1875 58.015625 27.296875 
Q 58.015625 14.40625 51.78125 6.484375 
Q 45.5625 -1.421875 35.59375 -1.421875 
Q 29.59375 -1.421875 25.265625 0.953125 
Q 20.953125 3.328125 18.109375 8.203125 
M 48.6875 27.296875 
Q 48.6875 37.203125 44.609375 42.84375 
Q 40.53125 48.484375 33.40625 48.484375 
Q 26.265625 48.484375 22.1875 42.84375 
Q 18.109375 37.203125 18.109375 27.296875 
Q 18.109375 17.390625 22.1875 11.75 
Q 26.265625 6.109375 33.40625 6.109375 
Q 40.53125 6.109375 44.609375 11.75 
Q 48.6875 17.390625 48.6875 27.296875 
" id="BitstreamVeraSans-Roman-70"/>
      <path d="M 45.40625 46.390625 
L 45.40625 75.984375 
L 54.390625 75.984375 
L 54.390625 0 
L 45.40625 0 
L 45.40625 8.203125 
Q 42.578125 3.328125 38.25 0.953125 
Q 33.9375 -1.421875 27.875 -1.421875 
Q 17.96875 -1.421875 11.734375 6.484375 
Q 5.515625 14.40625 5.515625 27.296875 
Q 5.515625 40.1875 11.734375 48.09375 
Q 17.96875 56 27.875 56 
Q 33.9375 56 38.25 53.625 
Q 42.578125 51.265625 45.40625 46.390625 
M 14.796875 27.296875 
Q 14.796875 17.390625 18.875 11.75 
Q 22.953125 6.109375 30.078125 6.109375 
Q 37.203125 6.109375 41.296875 11.75 
Q 45.40625 17.390625 45.40625 27.296875 
Q 45.40625 37.203125 41.296875 42.84375 
Q 37.203125 48.484375 30.078125 48.484375 
Q 22.953125 48.484375 18.875 42.84375 
Q 14.796875 37.203125 14.796875 27.296875 
" id="BitstreamVeraSans-Roman-64"/>
      <path d="M 53.515625 70.515625 
L 53.515625 60.890625 
Q 47.90625 63.578125 42.921875 64.890625 
Q 37.9375 66.21875 33.296875 66.21875 
Q 25.25 66.21875 20.875 63.09375 
Q 16.5 59.96875 16.5 54.203125 
Q 16.5 49.359375 19.40625 46.890625 
Q 22.3125 44.4375 30.421875 42.921875 
L 36.375 41.703125 
Q 47.40625 39.59375 52.65625 34.296875 
Q 57.90625 29 57.90625 20.125 
Q 57.90625 9.515625 50.796875 4.046875 
Q 43.703125 -1.421875 29.984375 -1.421875 
Q 24.8125 -1.421875 18.96875 -0.25 
Q 13.140625 0.921875 6.890625 3.21875 
L 6.890625 13.375 
Q 12.890625 10.015625 18.65625 8.296875 
Q 24.421875 6.59375 29.984375 6.59375 
Q 38.421875 6.59375 43.015625 9.90625 
Q 47.609375 13.234375 47.609375 19.390625 
Q 47.609375 24.75 44.3125 27.78125 
Q 41.015625 30.8125 33.5 32.328125 
L 27.484375 33.5 
Q 16.453125 35.6875 11.515625 40.375 
Q 6.59375 45.0625 6.59375 53.421875 
Q 6.59375 63.09375 13.40625 68.65625 
Q 20.21875 74.21875 32.171875 74.21875 
Q 37.3125 74.21875 42.625 73.28125 
Q 47.953125 72.359375 53.515625 70.515625 
" id="BitstreamVeraSans-Roman-53"/>
      <path d="M -0.296875 72.90625 
L 61.375 72.90625 
L 61.375 64.59375 
L 35.5 64.59375 
L 35.5 0 
L 25.59375 0 
L 25.59375 64.59375 
L -0.296875 64.59375 
z
" id="BitstreamVeraSans-Roman-54"/>
      <path d="M 18.3125 70.21875 
L 18.3125 54.6875 
L 36.8125 54.6875 
L 36.8125 47.703125 
L 18.3125 47.703125 
L 18.3125 18.015625 
Q 18.3125 11.328125 20.140625 9.421875 
Q 21.96875 7.515625 27.59375 7.515625 
L 36.8125 7.515625 
L 36.8125 0 
L 27.59375 0 
Q 17.1875 0 13.234375 3.875 
Q 9.28125 7.765625 9.28125 18.015625 
L 9.28125 47.703125 
L 2.6875 47.703125 
L 2.6875 54.6875 
L 9.28125 54.6875 
L 9.28125 70.21875 
z
" id="BitstreamVeraSans-Roman-74"/>
      <path d="M 45.40625 27.984375 
Q 45.40625 37.75 41.375 43.109375 
Q 37.359375 48.484375 30.078125 48.484375 
Q 22.859375 48.484375 18.828125 43.109375 
Q 14.796875 37.75 14.796875 27.984375 
Q 14.796875 18.265625 18.828125 12.890625 
Q 22.859375 7.515625 30.078125 7.515625 
Q 37.359375 7.515625 41.375 12.890625 
Q 45.40625 18.265625 45.40625 27.984375 
M 54.390625 6.78125 
Q 54.390625 -7.171875 48.1875 -13.984375 
Q 42 -20.796875 29.203125 -20.796875 
Q 24.46875 -20.796875 20.265625 -20.09375 
Q 16.0625 -19.390625 12.109375 -17.921875 
L 12.109375 -9.1875 
Q 16.0625 -11.328125 19.921875 -12.34375 
Q 23.78125 -13.375 27.78125 -13.375 
Q 36.625 -13.375 41.015625 -8.765625 
Q 45.40625 -4.15625 45.40625 5.171875 
L 45.40625 9.625 
Q 42.625 4.78125 38.28125 2.390625 
Q 33.9375 0 27.875 0 
Q 17.828125 0 11.671875 7.65625 
Q 5.515625 15.328125 5.515625 27.984375 
Q 5.515625 40.671875 11.671875 48.328125 
Q 17.828125 56 27.875 56 
Q 33.9375 56 38.28125 53.609375 
Q 42.625 51.21875 45.40625 46.390625 
L 45.40625 54.6875 
L 54.390625 54.6875 
z
" id="BitstreamVeraSans-Roman-67"/>
      <path d="M 5.515625 54.6875 
L 48.1875 54.6875 
L 48.1875 46.484375 
L 14.40625 7.171875 
L 48.1875 7.171875 
L 48.1875 0 
L 4.296875 0 
L 4.296875 8.203125 
L 38.09375 47.515625 
L 5.515625 47.515625 
z
" id="BitstreamVeraSans-Roman-7a"/>
      <path d="M 54.890625 33.015625 
L 54.890625 0 
L 45.90625 0 
L 45.90625 32.71875 
Q 45.90625 40.484375 42.875 44.328125 
Q 39.84375 48.1875 33.796875 48.1875 
Q 26.515625 48.1875 22.3125 43.546875 
Q 18.109375 38.921875 18.109375 30.90625 
L 18.109375 0 
L 9.078125 0 
L 9.078125 75.984375 
L 18.109375 75.984375 
L 18.109375 46.1875 
Q 21.34375 51.125 25.703125 53.5625 
Q 30.078125 56 35.796875 56 
Q 45.21875 56 50.046875 50.171875 
Q 54.890625 44.34375 54.890625 33.015625 
" id="BitstreamVeraSans-Roman-68"/>
      <path d="M 54.890625 33.015625 
L 54.890625 0 
L 45.90625 0 
L 45.90625 32.71875 
Q 45.90625 40.484375 42.875 44.328125 
Q 39.84375 48.1875 33.796875 48.1875 
Q 26.515625 48.1875 22.3125 43.546875 
Q 18.109375 38.921875 18.109375 30.90625 
L 18.109375 0 
L 9.078125 0 
L 9.078125 54.6875 
L 18.109375 54.6875 
L 18.109375 46.1875 
Q 21.34375 51.125 25.703125 53.5625 
Q 30.078125 56 35.796875 56 
Q 45.21875 56 50.046875 50.171875 
Q 54.890625 44.34375 54.890625 33.015625 
" id="BitstreamVeraSans-Roman-6e"/>
      <path id="BitstreamVeraSans-Roman-20"/>
      <path d="M 9.8125 72.90625 
L 19.671875 72.90625 
L 19.671875 8.296875 
L 55.171875 8.296875 
L 55.171875 0 
L 9.8125 0 
z
" id="BitstreamVeraSans-Roman-4c"/>
      <path d="M 52 44.1875 
Q 55.375 50.25 60.0625 53.125 
Q 64.75 56 71.09375 56 
Q 79.640625 56 84.28125 50.015625 
Q 88.921875 44.046875 88.921875 33.015625 
L 88.921875 0 
L 79.890625 0 
L 79.890625 32.71875 
Q 79.890625 40.578125 77.09375 44.375 
Q 74.3125 48.1875 68.609375 48.1875 
Q 61.625 48.1875 57.5625 43.546875 
Q 53.515625 38.921875 53.515625 30.90625 
L 53.515625 0 
L 44.484375 0 
L 44.484375 32.71875 
Q 44.484375 40.625 41.703125 44.40625 
Q 38.921875 48.1875 33.109375 48.1875 
Q 26.21875 48.1875 22.15625 43.53125 
Q 18.109375 38.875 18.109375 30.90625 
L 18.109375 0 
L 9.078125 0 
L 9.078125 54.6875 
L 18.109375 54.6875 
L 18.109375 46.1875 
Q 21.1875 51.21875 25.484375 53.609375 
Q 29.78125 56 35.6875 56 
Q 41.65625 56 45.828125 52.96875 
Q 50 49.953125 52 44.1875 
" id="BitstreamVeraSans-Roman-6d"/>
      <path d="M 4.890625 31.390625 
L 31.203125 31.390625 
L 31.203125 23.390625 
L 4.890625 23.390625 
z
" id="BitstreamVeraSans-Roman-2d"/>
     </defs>
     <g transform="translate(222.4621875 418.531875)scale(0.12 -0.12)">
      <use xlink:href="#BitstreamVeraSans-Roman-4c"/>
      <use x="55.712890625" xlink:href="#BitstreamVeraSans-Roman-69"/>
      <use x="83.49609375" xlink:href="#BitstreamVeraSans-Roman-6d"/>
      <use x="180.908203125" xlink:href="#BitstreamVeraSans-Roman-69"/>
      <use x="208.69140625" xlink:href="#BitstreamVeraSans-Roman-74"/>
      <use x="247.900390625" xlink:href="#BitstreamVeraSans-Roman-69"/>
      <use x="275.68359375" xlink:href="#BitstreamVeraSans-Roman-6e"/>
      <use x="339.0625" xlink:href="#BitstreamVeraSans-Roman-67"/>
      <use x="402.5390625" xlink:href="#BitstreamVeraSans-Roman-20"/>
      <use x="434.326171875" xlink:href="#BitstreamVeraSans-Roman-64"/>
      <use x="497.802734375" xlink:href="#BitstreamVeraSans-Roman-65"/>
      <use x="559.326171875" xlink:href="#BitstreamVeraSans-Roman-70"/>
      <use x="622.802734375" xlink:href="#BitstreamVeraSans-Roman-74"/>
      <use x="662.01171875" xlink:href="#BitstreamVeraSans-Roman-68"/>
      <use x="725.390625" xlink:href="#BitstreamVeraSans-Roman-20"/>
      <use x="757.177734375" xlink:href="#BitstreamVeraSans-Roman-69"/>
      <use x="784.9609375" xlink:href="#BitstreamVeraSans-Roman-6e"/>
      <use x="848.33984375" xlink:href="#BitstreamVeraSans-Roman-20"/>
      <use x="880.126953125" xlink:href="#BitstreamVeraSans-Roman-4c"/>
      <use x="935.83984375" xlink:href="#BitstreamVeraSans-Roman-53"/>
      <use x="999.31640625" xlink:href="#BitstreamVeraSans-Roman-53"/>
      <use x="1062.79296875" xlink:href="#BitstreamVeraSans-Roman-54"/>
      <use x="1123.736328125" xlink:href="#BitstreamVeraSans-Roman-2d"/>
      <use x="1159.8203125" xlink:href="#BitstreamVeraSans-Roman-7a"/>
     </g>
    </g>
   </g>
   <g id="matplotlib.axis_2">
    <g id="ytick_1">
     <g id="line2d_24">
      <path clip-path="url(#p989e78ae0f)" d="M 72 388.8 
L 518.4 388.8 
" style="fill:none;stroke:#000000;stroke-dasharray:1.000000,3.000000;stroke-dashoffset:0.0;stroke-width:0.5;"/>
     </g>
     <g id="line2d_25">
      <defs>
       <path d="M 0 0 
L 4 0 
" id="m1eb84de4f5" style="stroke:#000000;stroke-width:0.5;"/>
      </defs>
      <g>
       <use style="stroke:#000000;stroke-width:0.5;" x="72.0" xlink:href="#m1eb84de4f5" y="388.8"/>
      </g>
     </g>
     <g id="line2d_26">
      <defs>
       <path d="M 0 0 
L -4 0 
" id="m303bbaaa32" style="stroke:#000000;stroke-width:0.5;"/>
      </defs>
      <g>
       <use style="stroke:#000000;stroke-width:0.5;" x="518.4" xlink:href="#m303bbaaa32" y="388.8"/>
      </g>
     </g>
     <g id="text_8">
      <!-- $\mathdefault{10^{0}}$ -->
      <defs>
       <path d="M 31.78125 66.40625 
Q 24.171875 66.40625 20.328125 58.90625 
Q 16.5 51.421875 16.5 36.375 
Q 16.5 21.390625 20.328125 13.890625 
Q 24.171875 6.390625 31.78125 6.390625 
Q 39.453125 6.390625 43.28125 13.890625 
Q 47.125 21.390625 47.125 36.375 
Q 47.125 51.421875 43.28125 58.90625 
Q 39.453125 66.40625 31.78125 66.40625 
M 31.78125 74.21875 
Q 44.046875 74.21875 50.515625 64.515625 
Q 56.984375 54.828125 56.984375 36.375 
Q 56.984375 17.96875 50.515625 8.265625 
Q 44.046875 -1.421875 31.78125 -1.421875 
Q 19.53125 -1.421875 13.0625 8.265625 
Q 6.59375 17.96875 6.59375 36.375 
Q 6.59375 54.828125 13.0625 64.515625 
Q 19.53125 74.21875 31.78125 74.21875 
" id="BitstreamVeraSans-Roman-30"/>
      </defs>
      <g transform="translate(45.68 392.424375)scale(0.12 -0.12)">
       <use transform="translate(0.0 0.796875)" xlink:href="#BitstreamVeraSans-Roman-31"/>
       <use transform="translate(63.623046875 0.796875)" xlink:href="#BitstreamVeraSans-Roman-30"/>
       <use transform="translate(132.75859375 48.046875)scale(0.7)" xlink:href="#BitstreamVeraSans-Roman-30"/>
      </g>
     </g>
    </g>
    <g id="ytick_2">
     <g id="line2d_27">
      <path clip-path="url(#p989e78ae0f)" d="M 72 319.68 
L 518.4 319.68 
" style="fill:none;stroke:#000000;stroke-dasharray:1.000000,3.000000;stroke-dashoffset:0.0;stroke-width:0.5;"/>
     </g>
     <g id="line2d_28">
      <g>
       <use style="stroke:#000000;stroke-width:0.5;" x="72.0" xlink:href="#m1eb84de4f5" y="319.68"/>
      </g>
     </g>
     <g id="line2d_29">
      <g>
       <use style="stroke:#000000;stroke-width:0.5;" x="518.4" xlink:href="#m303bbaaa32" y="319.68"/>
      </g>
     </g>
     <g id="text_9">
      <!-- $\mathdefault{10^{1}}$ -->
      <g transform="translate(45.68 323.244375)scale(0.12 -0.12)">
       <use transform="translate(0.0 0.7156250000000028)" xlink:href="#BitstreamVeraSans-Roman-31"/>
       <use transform="translate(63.623046875 0.7156250000000028)" xlink:href="#BitstreamVeraSans-Roman-30"/>
       <use transform="translate(132.75859375 47.965625)scale(0.7)" xlink:href="#BitstreamVeraSans-Roman-31"/>
      </g>
     </g>
    </g>
    <g id="ytick_3">
     <g id="line2d_30">
      <path clip-path="url(#p989e78ae0f)" d="M 72 250.56 
L 518.4 250.56 
" style="fill:none;stroke:#000000;stroke-dasharray:1.000000,3.000000;stroke-dashoffset:0.0;stroke-width:0.5;"/>
     </g>
     <g id="line2d_31">
      <g>
       <use style="stroke:#000000;stroke-width:0.5;" x="72.0" xlink:href="#m1eb84de4f5" y="250.56"/>
      </g>
     </g>
     <g id="line2d_32">
      <g>
       <use style="stroke:#000000;stroke-width:0.5;" x="518.4" xlink:href="#m303bbaaa32" y="250.56"/>
      </g>
     </g>
     <g id="text_10">
      <!-- $\mathdefault{10^{2}}$ -->
      <g transform="translate(45.68 254.184375)scale(0.12 -0.12)">
       <use transform="translate(0.0 0.796875)" xlink:href="#BitstreamVeraSans-Roman-31"/>
       <use transform="translate(63.623046875 0.796875)" xlink:href="#BitstreamVeraSans-Roman-30"/>
       <use transform="translate(132.75859375 48.046875)scale(0.7)" xlink:href="#BitstreamVeraSans-Roman-32"/>
      </g>
     </g>
    </g>
    <g id="ytick_4">
     <g id="line2d_33">
      <path clip-path="url(#p989e78ae0f)" d="M 72 181.44 
L 518.4 181.44 
" style="fill:none;stroke:#000000;stroke-dasharray:1.000000,3.000000;stroke-dashoffset:0.0;stroke-width:0.5;"/>
     </g>
     <g id="line2d_34">
      <g>
       <use style="stroke:#000000;stroke-width:0.5;" x="72.0" xlink:href="#m1eb84de4f5" y="181.44"/>
      </g>
     </g>
     <g id="line2d_35">
      <g>
       <use style="stroke:#000000;stroke-width:0.5;" x="518.4" xlink:href="#m303bbaaa32" y="181.44"/>
      </g>
     </g>
     <g id="text_11">
      <!-- $\mathdefault{10^{3}}$ -->
      <g transform="translate(45.68 185.064375)scale(0.12 -0.12)">
       <use transform="translate(0.0 0.796875)" xlink:href="#BitstreamVeraSans-Roman-31"/>
       <use transform="translate(63.623046875 0.796875)" xlink:href="#BitstreamVeraSans-Roman-30"/>
       <use transform="translate(132.75859375 48.046875)scale(0.7)" xlink:href="#BitstreamVeraSans-Roman-33"/>
      </g>
     </g>
    </g>
    <g id="ytick_5">
     <g id="line2d_36">
      <path clip-path="url(#p989e78ae0f)" d="M 72 112.32 
L 518.4 112.32 
" style="fill:none;stroke:#000000;stroke-dasharray:1.000000,3.000000;stroke-dashoffset:0.0;stroke-width:0.5;"/>
     </g>
     <g id="line2d_37">
      <g>
       <use style="stroke:#000000;stroke-width:0.5;" x="72.0" xlink:href="#m1eb84de4f5" y="112.32"/>
      </g>
     </g>
     <g id="line2d_38">
      <g>
       <use style="stroke:#000000;stroke-width:0.5;" x="518.4" xlink:href="#m303bbaaa32" y="112.32"/>
      </g>
     </g>
     <g id="text_12">
      <!-- $\mathdefault{10^{4}}$ -->
      <g transform="translate(45.68 115.884375)scale(0.12 -0.12)">
       <use transform="translate(0.0 0.7156250000000028)" xlink:href="#BitstreamVeraSans-Roman-31"/>
       <use transform="translate(63.623046875 0.7156250000000028)" xlink:href="#BitstreamVeraSans-Roman-30"/>
       <use transform="translate(132.75859375 47.965625)scale(0.7)" xlink:href="#BitstreamVeraSans-Roman-34"/>
      </g>
     </g>
    </g>
    <g id="ytick_6">
     <g id="line2d_39">
      <path clip-path="url(#p989e78ae0f)" d="M 72 43.2 
L 518.4 43.2 
" style="fill:none;stroke:#000000;stroke-dasharray:1.000000,3.000000;stroke-dashoffset:0.0;stroke-width:0.5;"/>
     </g>
     <g id="line2d_40">
      <g>
       <use style="stroke:#000000;stroke-width:0.5;" x="72.0" xlink:href="#m1eb84de4f5" y="43.2"/>
      </g>
     </g>
     <g id="line2d_41">
      <g>
       <use style="stroke:#000000;stroke-width:0.5;" x="518.4" xlink:href="#m303bbaaa32" y="43.2"/>
      </g>
     </g>
     <g id="text_13">
      <!-- $\mathdefault{10^{5}}$ -->
      <g transform="translate(45.68 46.764375)scale(0.12 -0.12)">
       <use transform="translate(0.0 0.7156250000000028)" xlink:href="#BitstreamVeraSans-Roman-31"/>
       <use transform="translate(63.623046875 0.7156250000000028)" xlink:href="#BitstreamVeraSans-Roman-30"/>
       <use transform="translate(132.75859375 47.965625)scale(0.7)" xlink:href="#BitstreamVeraSans-Roman-35"/>
      </g>
     </g>
    </g>
    <g id="ytick_7">
     <g id="line2d_42">
      <defs>
       <path d="M 0 0 
L 2 0 
" id="ma019f6b0eb" style="stroke:#000000;stroke-width:0.5;"/>
      </defs>
      <g>
       <use style="stroke:#000000;stroke-width:0.5;" x="72.0" xlink:href="#ma019f6b0eb" y="367.9928067"/>
      </g>
     </g>
     <g id="line2d_43">
      <defs>
       <path d="M 0 0 
L -2 0 
" id="m8f1d96f59b" style="stroke:#000000;stroke-width:0.5;"/>
      </defs>
      <g>
       <use style="stroke:#000000;stroke-width:0.5;" x="518.4" xlink:href="#m8f1d96f59b" y="367.9928067"/>
      </g>
     </g>
    </g>
    <g id="ytick_8">
     <g id="line2d_44">
      <g>
       <use style="stroke:#000000;stroke-width:0.5;" x="72.0" xlink:href="#ma019f6b0eb" y="355.821378874"/>
      </g>
     </g>
     <g id="line2d_45">
      <g>
       <use style="stroke:#000000;stroke-width:0.5;" x="518.4" xlink:href="#m8f1d96f59b" y="355.821378874"/>
      </g>
     </g>
    </g>
    <g id="ytick_9">
     <g id="line2d_46">
      <g>
       <use style="stroke:#000000;stroke-width:0.5;" x="72.0" xlink:href="#ma019f6b0eb" y="347.185613399"/>
      </g>
     </g>
     <g id="line2d_47">
      <g>
       <use style="stroke:#000000;stroke-width:0.5;" x="518.4" xlink:href="#m8f1d96f59b" y="347.185613399"/>
      </g>
     </g>
    </g>
    <g id="ytick_10">
     <g id="line2d_48">
      <g>
       <use style="stroke:#000000;stroke-width:0.5;" x="72.0" xlink:href="#ma019f6b0eb" y="340.4871933"/>
      </g>
     </g>
     <g id="line2d_49">
      <g>
       <use style="stroke:#000000;stroke-width:0.5;" x="518.4" xlink:href="#m8f1d96f59b" y="340.4871933"/>
      </g>
     </g>
    </g>
    <g id="ytick_11">
     <g id="line2d_50">
      <g>
       <use style="stroke:#000000;stroke-width:0.5;" x="72.0" xlink:href="#ma019f6b0eb" y="335.014185573"/>
      </g>
     </g>
     <g id="line2d_51">
      <g>
       <use style="stroke:#000000;stroke-width:0.5;" x="518.4" xlink:href="#m8f1d96f59b" y="335.014185573"/>
      </g>
     </g>
    </g>
    <g id="ytick_12">
     <g id="line2d_52">
      <g>
       <use style="stroke:#000000;stroke-width:0.5;" x="72.0" xlink:href="#ma019f6b0eb" y="330.386823474"/>
      </g>
     </g>
     <g id="line2d_53">
      <g>
       <use style="stroke:#000000;stroke-width:0.5;" x="518.4" xlink:href="#m8f1d96f59b" y="330.386823474"/>
      </g>
     </g>
    </g>
    <g id="ytick_13">
     <g id="line2d_54">
      <g>
       <use style="stroke:#000000;stroke-width:0.5;" x="72.0" xlink:href="#ma019f6b0eb" y="326.378420099"/>
      </g>
     </g>
     <g id="line2d_55">
      <g>
       <use style="stroke:#000000;stroke-width:0.5;" x="518.4" xlink:href="#m8f1d96f59b" y="326.378420099"/>
      </g>
     </g>
    </g>
    <g id="ytick_14">
     <g id="line2d_56">
      <g>
       <use style="stroke:#000000;stroke-width:0.5;" x="72.0" xlink:href="#ma019f6b0eb" y="322.842757748"/>
      </g>
     </g>
     <g id="line2d_57">
      <g>
       <use style="stroke:#000000;stroke-width:0.5;" x="518.4" xlink:href="#m8f1d96f59b" y="322.842757748"/>
      </g>
     </g>
    </g>
    <g id="ytick_15">
     <g id="line2d_58">
      <g>
       <use style="stroke:#000000;stroke-width:0.5;" x="72.0" xlink:href="#ma019f6b0eb" y="298.8728067"/>
      </g>
     </g>
     <g id="line2d_59">
      <g>
       <use style="stroke:#000000;stroke-width:0.5;" x="518.4" xlink:href="#m8f1d96f59b" y="298.8728067"/>
      </g>
     </g>
    </g>
    <g id="ytick_16">
     <g id="line2d_60">
      <g>
       <use style="stroke:#000000;stroke-width:0.5;" x="72.0" xlink:href="#ma019f6b0eb" y="286.701378874"/>
      </g>
     </g>
     <g id="line2d_61">
      <g>
       <use style="stroke:#000000;stroke-width:0.5;" x="518.4" xlink:href="#m8f1d96f59b" y="286.701378874"/>
      </g>
     </g>
    </g>
    <g id="ytick_17">
     <g id="line2d_62">
      <g>
       <use style="stroke:#000000;stroke-width:0.5;" x="72.0" xlink:href="#ma019f6b0eb" y="278.065613399"/>
      </g>
     </g>
     <g id="line2d_63">
      <g>
       <use style="stroke:#000000;stroke-width:0.5;" x="518.4" xlink:href="#m8f1d96f59b" y="278.065613399"/>
      </g>
     </g>
    </g>
    <g id="ytick_18">
     <g id="line2d_64">
      <g>
       <use style="stroke:#000000;stroke-width:0.5;" x="72.0" xlink:href="#ma019f6b0eb" y="271.3671933"/>
      </g>
     </g>
     <g id="line2d_65">
      <g>
       <use style="stroke:#000000;stroke-width:0.5;" x="518.4" xlink:href="#m8f1d96f59b" y="271.3671933"/>
      </g>
     </g>
    </g>
    <g id="ytick_19">
     <g id="line2d_66">
      <g>
       <use style="stroke:#000000;stroke-width:0.5;" x="72.0" xlink:href="#ma019f6b0eb" y="265.894185573"/>
      </g>
     </g>
     <g id="line2d_67">
      <g>
       <use style="stroke:#000000;stroke-width:0.5;" x="518.4" xlink:href="#m8f1d96f59b" y="265.894185573"/>
      </g>
     </g>
    </g>
    <g id="ytick_20">
     <g id="line2d_68">
      <g>
       <use style="stroke:#000000;stroke-width:0.5;" x="72.0" xlink:href="#ma019f6b0eb" y="261.266823474"/>
      </g>
     </g>
     <g id="line2d_69">
      <g>
       <use style="stroke:#000000;stroke-width:0.5;" x="518.4" xlink:href="#m8f1d96f59b" y="261.266823474"/>
      </g>
     </g>
    </g>
    <g id="ytick_21">
     <g id="line2d_70">
      <g>
       <use style="stroke:#000000;stroke-width:0.5;" x="72.0" xlink:href="#ma019f6b0eb" y="257.258420099"/>
      </g>
     </g>
     <g id="line2d_71">
      <g>
       <use style="stroke:#000000;stroke-width:0.5;" x="518.4" xlink:href="#m8f1d96f59b" y="257.258420099"/>
      </g>
     </g>
    </g>
    <g id="ytick_22">
     <g id="line2d_72">
      <g>
       <use style="stroke:#000000;stroke-width:0.5;" x="72.0" xlink:href="#ma019f6b0eb" y="253.722757748"/>
      </g>
     </g>
     <g id="line2d_73">
      <g>
       <use style="stroke:#000000;stroke-width:0.5;" x="518.4" xlink:href="#m8f1d96f59b" y="253.722757748"/>
      </g>
     </g>
    </g>
    <g id="ytick_23">
     <g id="line2d_74">
      <g>
       <use style="stroke:#000000;stroke-width:0.5;" x="72.0" xlink:href="#ma019f6b0eb" y="229.7528067"/>
      </g>
     </g>
     <g id="line2d_75">
      <g>
       <use style="stroke:#000000;stroke-width:0.5;" x="518.4" xlink:href="#m8f1d96f59b" y="229.7528067"/>
      </g>
     </g>
    </g>
    <g id="ytick_24">
     <g id="line2d_76">
      <g>
       <use style="stroke:#000000;stroke-width:0.5;" x="72.0" xlink:href="#ma019f6b0eb" y="217.581378874"/>
      </g>
     </g>
     <g id="line2d_77">
      <g>
       <use style="stroke:#000000;stroke-width:0.5;" x="518.4" xlink:href="#m8f1d96f59b" y="217.581378874"/>
      </g>
     </g>
    </g>
    <g id="ytick_25">
     <g id="line2d_78">
      <g>
       <use style="stroke:#000000;stroke-width:0.5;" x="72.0" xlink:href="#ma019f6b0eb" y="208.945613399"/>
      </g>
     </g>
     <g id="line2d_79">
      <g>
       <use style="stroke:#000000;stroke-width:0.5;" x="518.4" xlink:href="#m8f1d96f59b" y="208.945613399"/>
      </g>
     </g>
    </g>
    <g id="ytick_26">
     <g id="line2d_80">
      <g>
       <use style="stroke:#000000;stroke-width:0.5;" x="72.0" xlink:href="#ma019f6b0eb" y="202.2471933"/>
      </g>
     </g>
     <g id="line2d_81">
      <g>
       <use style="stroke:#000000;stroke-width:0.5;" x="518.4" xlink:href="#m8f1d96f59b" y="202.2471933"/>
      </g>
     </g>
    </g>
    <g id="ytick_27">
     <g id="line2d_82">
      <g>
       <use style="stroke:#000000;stroke-width:0.5;" x="72.0" xlink:href="#ma019f6b0eb" y="196.774185573"/>
      </g>
     </g>
     <g id="line2d_83">
      <g>
       <use style="stroke:#000000;stroke-width:0.5;" x="518.4" xlink:href="#m8f1d96f59b" y="196.774185573"/>
      </g>
     </g>
    </g>
    <g id="ytick_28">
     <g id="line2d_84">
      <g>
       <use style="stroke:#000000;stroke-width:0.5;" x="72.0" xlink:href="#ma019f6b0eb" y="192.146823474"/>
      </g>
     </g>
     <g id="line2d_85">
      <g>
       <use style="stroke:#000000;stroke-width:0.5;" x="518.4" xlink:href="#m8f1d96f59b" y="192.146823474"/>
      </g>
     </g>
    </g>
    <g id="ytick_29">
     <g id="line2d_86">
      <g>
       <use style="stroke:#000000;stroke-width:0.5;" x="72.0" xlink:href="#ma019f6b0eb" y="188.138420099"/>
      </g>
     </g>
     <g id="line2d_87">
      <g>
       <use style="stroke:#000000;stroke-width:0.5;" x="518.4" xlink:href="#m8f1d96f59b" y="188.138420099"/>
      </g>
     </g>
    </g>
    <g id="ytick_30">
     <g id="line2d_88">
      <g>
       <use style="stroke:#000000;stroke-width:0.5;" x="72.0" xlink:href="#ma019f6b0eb" y="184.602757748"/>
      </g>
     </g>
     <g id="line2d_89">
      <g>
       <use style="stroke:#000000;stroke-width:0.5;" x="518.4" xlink:href="#m8f1d96f59b" y="184.602757748"/>
      </g>
     </g>
    </g>
    <g id="ytick_31">
     <g id="line2d_90">
      <g>
       <use style="stroke:#000000;stroke-width:0.5;" x="72.0" xlink:href="#ma019f6b0eb" y="160.6328067"/>
      </g>
     </g>
     <g id="line2d_91">
      <g>
       <use style="stroke:#000000;stroke-width:0.5;" x="518.4" xlink:href="#m8f1d96f59b" y="160.6328067"/>
      </g>
     </g>
    </g>
    <g id="ytick_32">
     <g id="line2d_92">
      <g>
       <use style="stroke:#000000;stroke-width:0.5;" x="72.0" xlink:href="#ma019f6b0eb" y="148.461378874"/>
      </g>
     </g>
     <g id="line2d_93">
      <g>
       <use style="stroke:#000000;stroke-width:0.5;" x="518.4" xlink:href="#m8f1d96f59b" y="148.461378874"/>
      </g>
     </g>
    </g>
    <g id="ytick_33">
     <g id="line2d_94">
      <g>
       <use style="stroke:#000000;stroke-width:0.5;" x="72.0" xlink:href="#ma019f6b0eb" y="139.825613399"/>
      </g>
     </g>
     <g id="line2d_95">
      <g>
       <use style="stroke:#000000;stroke-width:0.5;" x="518.4" xlink:href="#m8f1d96f59b" y="139.825613399"/>
      </g>
     </g>
    </g>
    <g id="ytick_34">
     <g id="line2d_96">
      <g>
       <use style="stroke:#000000;stroke-width:0.5;" x="72.0" xlink:href="#ma019f6b0eb" y="133.1271933"/>
      </g>
     </g>
     <g id="line2d_97">
      <g>
       <use style="stroke:#000000;stroke-width:0.5;" x="518.4" xlink:href="#m8f1d96f59b" y="133.1271933"/>
      </g>
     </g>
    </g>
    <g id="ytick_35">
     <g id="line2d_98">
      <g>
       <use style="stroke:#000000;stroke-width:0.5;" x="72.0" xlink:href="#ma019f6b0eb" y="127.654185573"/>
      </g>
     </g>
     <g id="line2d_99">
      <g>
       <use style="stroke:#000000;stroke-width:0.5;" x="518.4" xlink:href="#m8f1d96f59b" y="127.654185573"/>
      </g>
     </g>
    </g>
    <g id="ytick_36">
     <g id="line2d_100">
      <g>
       <use style="stroke:#000000;stroke-width:0.5;" x="72.0" xlink:href="#ma019f6b0eb" y="123.026823474"/>
      </g>
     </g>
     <g id="line2d_101">
      <g>
       <use style="stroke:#000000;stroke-width:0.5;" x="518.4" xlink:href="#m8f1d96f59b" y="123.026823474"/>
      </g>
     </g>
    </g>
    <g id="ytick_37">
     <g id="line2d_102">
      <g>
       <use style="stroke:#000000;stroke-width:0.5;" x="72.0" xlink:href="#ma019f6b0eb" y="119.018420099"/>
      </g>
     </g>
     <g id="line2d_103">
      <g>
       <use style="stroke:#000000;stroke-width:0.5;" x="518.4" xlink:href="#m8f1d96f59b" y="119.018420099"/>
      </g>
     </g>
    </g>
    <g id="ytick_38">
     <g id="line2d_104">
      <g>
       <use style="stroke:#000000;stroke-width:0.5;" x="72.0" xlink:href="#ma019f6b0eb" y="115.482757748"/>
      </g>
     </g>
     <g id="line2d_105">
      <g>
       <use style="stroke:#000000;stroke-width:0.5;" x="518.4" xlink:href="#m8f1d96f59b" y="115.482757748"/>
      </g>
     </g>
    </g>
    <g id="ytick_39">
     <g id="line2d_106">
      <g>
       <use style="stroke:#000000;stroke-width:0.5;" x="72.0" xlink:href="#ma019f6b0eb" y="91.5128066997"/>
      </g>
     </g>
     <g id="line2d_107">
      <g>
       <use style="stroke:#000000;stroke-width:0.5;" x="518.4" xlink:href="#m8f1d96f59b" y="91.5128066997"/>
      </g>
     </g>
    </g>
    <g id="ytick_40">
     <g id="line2d_108">
      <g>
       <use style="stroke:#000000;stroke-width:0.5;" x="72.0" xlink:href="#ma019f6b0eb" y="79.3413788738"/>
      </g>
     </g>
     <g id="line2d_109">
      <g>
       <use style="stroke:#000000;stroke-width:0.5;" x="518.4" xlink:href="#m8f1d96f59b" y="79.3413788738"/>
      </g>
     </g>
    </g>
    <g id="ytick_41">
     <g id="line2d_110">
      <g>
       <use style="stroke:#000000;stroke-width:0.5;" x="72.0" xlink:href="#ma019f6b0eb" y="70.7056133994"/>
      </g>
     </g>
     <g id="line2d_111">
      <g>
       <use style="stroke:#000000;stroke-width:0.5;" x="518.4" xlink:href="#m8f1d96f59b" y="70.7056133994"/>
      </g>
     </g>
    </g>
    <g id="ytick_42">
     <g id="line2d_112">
      <g>
       <use style="stroke:#000000;stroke-width:0.5;" x="72.0" xlink:href="#ma019f6b0eb" y="64.0071933003"/>
      </g>
     </g>
     <g id="line2d_113">
      <g>
       <use style="stroke:#000000;stroke-width:0.5;" x="518.4" xlink:href="#m8f1d96f59b" y="64.0071933003"/>
      </g>
     </g>
    </g>
    <g id="ytick_43">
     <g id="line2d_114">
      <g>
       <use style="stroke:#000000;stroke-width:0.5;" x="72.0" xlink:href="#ma019f6b0eb" y="58.5341855735"/>
      </g>
     </g>
     <g id="line2d_115">
      <g>
       <use style="stroke:#000000;stroke-width:0.5;" x="518.4" xlink:href="#m8f1d96f59b" y="58.5341855735"/>
      </g>
     </g>
    </g>
    <g id="ytick_44">
     <g id="line2d_116">
      <g>
       <use style="stroke:#000000;stroke-width:0.5;" x="72.0" xlink:href="#ma019f6b0eb" y="53.9068234742"/>
      </g>
     </g>
     <g id="line2d_117">
      <g>
       <use style="stroke:#000000;stroke-width:0.5;" x="518.4" xlink:href="#m8f1d96f59b" y="53.9068234742"/>
      </g>
     </g>
    </g>
    <g id="ytick_45">
     <g id="line2d_118">
      <g>
       <use style="stroke:#000000;stroke-width:0.5;" x="72.0" xlink:href="#ma019f6b0eb" y="49.8984200991"/>
      </g>
     </g>
     <g id="line2d_119">
      <g>
       <use style="stroke:#000000;stroke-width:0.5;" x="518.4" xlink:href="#m8f1d96f59b" y="49.8984200991"/>
      </g>
     </g>
    </g>
    <g id="ytick_46">
     <g id="line2d_120">
      <g>
       <use style="stroke:#000000;stroke-width:0.5;" x="72.0" xlink:href="#ma019f6b0eb" y="46.3627577476"/>
      </g>
     </g>
     <g id="line2d_121">
      <g>
       <use style="stroke:#000000;stroke-width:0.5;" x="518.4" xlink:href="#m8f1d96f59b" y="46.3627577476"/>
      </g>
     </g>
    </g>
    <g id="text_14">
     <!-- # quasars detected with $M_{1450}$&lt;-18.0 (1,600 sq. deg.) -->
     <defs>
      <path d="M 34.28125 27.484375 
Q 23.390625 27.484375 19.1875 25 
Q 14.984375 22.515625 14.984375 16.5 
Q 14.984375 11.71875 18.140625 8.90625 
Q 21.296875 6.109375 26.703125 6.109375 
Q 34.1875 6.109375 38.703125 11.40625 
Q 43.21875 16.703125 43.21875 25.484375 
L 43.21875 27.484375 
z
M 52.203125 31.203125 
L 52.203125 0 
L 43.21875 0 
L 43.21875 8.296875 
Q 40.140625 3.328125 35.546875 0.953125 
Q 30.953125 -1.421875 24.3125 -1.421875 
Q 15.921875 -1.421875 10.953125 3.296875 
Q 6 8.015625 6 15.921875 
Q 6 25.140625 12.171875 29.828125 
Q 18.359375 34.515625 30.609375 34.515625 
L 43.21875 34.515625 
L 43.21875 35.40625 
Q 43.21875 41.609375 39.140625 45 
Q 35.0625 48.390625 27.6875 48.390625 
Q 23 48.390625 18.546875 47.265625 
Q 14.109375 46.140625 10.015625 43.890625 
L 10.015625 52.203125 
Q 14.9375 54.109375 19.578125 55.046875 
Q 24.21875 56 28.609375 56 
Q 40.484375 56 46.34375 49.84375 
Q 52.203125 43.703125 52.203125 31.203125 
" id="BitstreamVeraSans-Roman-61"/>
      <path d="M 2.78125 16.5 
L 2.78125 20.015625 
L 33.6875 66.109375 
Q 34.03125 66.609375 34.71875 66.609375 
L 36.1875 66.609375 
Q 37.3125 66.609375 37.3125 65.484375 
L 37.3125 20.015625 
L 47.125 20.015625 
L 47.125 16.5 
L 37.3125 16.5 
L 37.3125 6.6875 
Q 37.3125 4.640625 40.234375 4.078125 
Q 43.171875 3.515625 47.015625 3.515625 
L 47.015625 0 
L 19.484375 0 
L 19.484375 3.515625 
Q 23.34375 3.515625 26.265625 4.078125 
Q 29.203125 4.640625 29.203125 6.6875 
L 29.203125 16.5 
z
M 6.109375 20.015625 
L 29.78125 20.015625 
L 29.78125 55.421875 
z
" id="Cmr10-34"/>
      <path d="M 25 -2.203125 
Q 12.75 -2.203125 8.328125 7.875 
Q 3.90625 17.96875 3.90625 31.890625 
Q 3.90625 40.578125 5.484375 48.234375 
Q 7.078125 55.90625 11.78125 61.25 
Q 16.5 66.609375 25 66.609375 
Q 31.59375 66.609375 35.78125 63.375 
Q 39.984375 60.15625 42.1875 55.046875 
Q 44.390625 49.953125 45.1875 44.109375 
Q 46 38.28125 46 31.890625 
Q 46 23.296875 44.40625 15.796875 
Q 42.828125 8.296875 38.1875 3.046875 
Q 33.546875 -2.203125 25 -2.203125 
M 25 0.390625 
Q 30.5625 0.390625 33.296875 6.09375 
Q 36.03125 11.8125 36.671875 18.75 
Q 37.3125 25.6875 37.3125 33.5 
Q 37.3125 41.015625 36.671875 47.359375 
Q 36.03125 53.71875 33.3125 58.859375 
Q 30.609375 64.015625 25 64.015625 
Q 19.34375 64.015625 16.609375 58.828125 
Q 13.875 53.65625 13.234375 47.328125 
Q 12.59375 41.015625 12.59375 33.5 
Q 12.59375 27.9375 12.859375 23 
Q 13.140625 18.0625 14.3125 12.8125 
Q 15.484375 7.5625 18.09375 3.96875 
Q 20.703125 0.390625 25 0.390625 
" id="Cmr10-30"/>
      <path d="M 8.015625 75.875 
L 15.828125 75.875 
Q 23.140625 64.359375 26.78125 53.3125 
Q 30.421875 42.28125 30.421875 31.390625 
Q 30.421875 20.453125 26.78125 9.375 
Q 23.140625 -1.703125 15.828125 -13.1875 
L 8.015625 -13.1875 
Q 14.5 -2 17.703125 9.0625 
Q 20.90625 20.125 20.90625 31.390625 
Q 20.90625 42.671875 17.703125 53.65625 
Q 14.5 64.65625 8.015625 75.875 
" id="BitstreamVeraSans-Roman-29"/>
      <path d="M 10.6875 12.40625 
L 21 12.40625 
L 21 0 
L 10.6875 0 
z
" id="BitstreamVeraSans-Roman-2e"/>
      <path d="M 41.109375 46.296875 
Q 39.59375 47.171875 37.8125 47.578125 
Q 36.03125 48 33.890625 48 
Q 26.265625 48 22.1875 43.046875 
Q 18.109375 38.09375 18.109375 28.8125 
L 18.109375 0 
L 9.078125 0 
L 9.078125 54.6875 
L 18.109375 54.6875 
L 18.109375 46.1875 
Q 20.953125 51.171875 25.484375 53.578125 
Q 30.03125 56 36.53125 56 
Q 37.453125 56 38.578125 55.875 
Q 39.703125 55.765625 41.0625 55.515625 
z
" id="BitstreamVeraSans-Roman-72"/>
      <path d="M 9.28125 0 
L 9.28125 3.515625 
Q 21.78125 3.515625 21.78125 6.6875 
L 21.78125 59.1875 
Q 16.609375 56.6875 8.6875 56.6875 
L 8.6875 60.203125 
Q 20.953125 60.203125 27.203125 66.609375 
L 28.609375 66.609375 
Q 28.953125 66.609375 29.265625 66.328125 
Q 29.59375 66.0625 29.59375 65.71875 
L 29.59375 6.6875 
Q 29.59375 3.515625 42.09375 3.515625 
L 42.09375 0 
z
" id="Cmr10-31"/>
      <path d="M 14.796875 27.296875 
Q 14.796875 17.390625 18.875 11.75 
Q 22.953125 6.109375 30.078125 6.109375 
Q 37.203125 6.109375 41.296875 11.75 
Q 45.40625 17.390625 45.40625 27.296875 
Q 45.40625 37.203125 41.296875 42.84375 
Q 37.203125 48.484375 30.078125 48.484375 
Q 22.953125 48.484375 18.875 42.84375 
Q 14.796875 37.203125 14.796875 27.296875 
M 45.40625 8.203125 
Q 42.578125 3.328125 38.25 0.953125 
Q 33.9375 -1.421875 27.875 -1.421875 
Q 17.96875 -1.421875 11.734375 6.484375 
Q 5.515625 14.40625 5.515625 27.296875 
Q 5.515625 40.1875 11.734375 48.09375 
Q 17.96875 56 27.875 56 
Q 33.9375 56 38.25 53.625 
Q 42.578125 51.265625 45.40625 46.390625 
L 45.40625 54.6875 
L 54.390625 54.6875 
L 54.390625 -20.796875 
L 45.40625 -20.796875 
z
" id="BitstreamVeraSans-Roman-71"/>
      <path d="M 31 75.875 
Q 24.46875 64.65625 21.28125 53.65625 
Q 18.109375 42.671875 18.109375 31.390625 
Q 18.109375 20.125 21.3125 9.0625 
Q 24.515625 -2 31 -13.1875 
L 23.1875 -13.1875 
Q 15.875 -1.703125 12.234375 9.375 
Q 8.59375 20.453125 8.59375 31.390625 
Q 8.59375 42.28125 12.203125 53.3125 
Q 15.828125 64.359375 23.1875 75.875 
z
" id="BitstreamVeraSans-Roman-28"/>
      <path d="M 31.78125 34.625 
Q 24.75 34.625 20.71875 30.859375 
Q 16.703125 27.09375 16.703125 20.515625 
Q 16.703125 13.921875 20.71875 10.15625 
Q 24.75 6.390625 31.78125 6.390625 
Q 38.8125 6.390625 42.859375 10.171875 
Q 46.921875 13.96875 46.921875 20.515625 
Q 46.921875 27.09375 42.890625 30.859375 
Q 38.875 34.625 31.78125 34.625 
M 21.921875 38.8125 
Q 15.578125 40.375 12.03125 44.71875 
Q 8.5 49.078125 8.5 55.328125 
Q 8.5 64.0625 14.71875 69.140625 
Q 20.953125 74.21875 31.78125 74.21875 
Q 42.671875 74.21875 48.875 69.140625 
Q 55.078125 64.0625 55.078125 55.328125 
Q 55.078125 49.078125 51.53125 44.71875 
Q 48 40.375 41.703125 38.8125 
Q 48.828125 37.15625 52.796875 32.3125 
Q 56.78125 27.484375 56.78125 20.515625 
Q 56.78125 9.90625 50.3125 4.234375 
Q 43.84375 -1.421875 31.78125 -1.421875 
Q 19.734375 -1.421875 13.25 4.234375 
Q 6.78125 9.90625 6.78125 20.515625 
Q 6.78125 27.484375 10.78125 32.3125 
Q 14.796875 37.15625 21.921875 38.8125 
M 18.3125 54.390625 
Q 18.3125 48.734375 21.84375 45.5625 
Q 25.390625 42.390625 31.78125 42.390625 
Q 38.140625 42.390625 41.71875 45.5625 
Q 45.3125 48.734375 45.3125 54.390625 
Q 45.3125 60.0625 41.71875 63.234375 
Q 38.140625 66.40625 31.78125 66.40625 
Q 25.390625 66.40625 21.84375 63.234375 
Q 18.3125 60.0625 18.3125 54.390625 
" id="BitstreamVeraSans-Roman-38"/>
      <path d="M 8.5 21.578125 
L 8.5 54.6875 
L 17.484375 54.6875 
L 17.484375 21.921875 
Q 17.484375 14.15625 20.5 10.265625 
Q 23.53125 6.390625 29.59375 6.390625 
Q 36.859375 6.390625 41.078125 11.03125 
Q 45.3125 15.671875 45.3125 23.6875 
L 45.3125 54.6875 
L 54.296875 54.6875 
L 54.296875 0 
L 45.3125 0 
L 45.3125 8.40625 
Q 42.046875 3.421875 37.71875 1 
Q 33.40625 -1.421875 27.6875 -1.421875 
Q 18.265625 -1.421875 13.375 4.4375 
Q 8.5 10.296875 8.5 21.578125 
" id="BitstreamVeraSans-Roman-75"/>
      <path d="M 11.71875 12.40625 
L 22.015625 12.40625 
L 22.015625 4 
L 14.015625 -11.625 
L 7.71875 -11.625 
L 11.71875 4 
z
" id="BitstreamVeraSans-Roman-2c"/>
      <path d="M 5.078125 0 
Q 4.109375 0 4.109375 1.3125 
Q 4.15625 1.5625 4.296875 2.140625 
Q 4.4375 2.734375 4.6875 3.125 
Q 4.9375 3.515625 5.421875 3.515625 
Q 14.9375 3.515625 16.5 9.625 
L 29.5 61.8125 
Q 29.6875 62.796875 29.6875 63.1875 
Q 29.6875 64.265625 28.515625 64.40625 
Q 26.609375 64.796875 21.296875 64.796875 
Q 20.3125 64.796875 20.3125 66.109375 
Q 20.359375 66.359375 20.5 66.96875 
Q 20.65625 67.578125 20.921875 67.9375 
Q 21.1875 68.3125 21.578125 68.3125 
L 39.203125 68.3125 
Q 40.328125 68.3125 40.484375 67.1875 
L 48.296875 9.90625 
L 84.71875 67.1875 
Q 85.40625 68.3125 86.625 68.3125 
L 103.609375 68.3125 
Q 104.59375 68.3125 104.59375 67 
Q 104.546875 66.75 104.390625 66.140625 
Q 104.25 65.53125 103.984375 65.15625 
Q 103.71875 64.796875 103.328125 64.796875 
Q 97.21875 64.796875 94.828125 64.109375 
Q 93.5 63.671875 92.921875 61.375 
L 79.203125 6.5 
Q 79 5.515625 79 5.078125 
Q 79 4.6875 79.125 4.421875 
Q 79.25 4.15625 79.46875 4.078125 
Q 79.6875 4 80.171875 3.90625 
Q 82.078125 3.515625 87.40625 3.515625 
Q 88.375 3.515625 88.375 2.203125 
Q 88.03125 0.78125 87.828125 0.390625 
Q 87.640625 0 86.71875 0 
L 60.59375 0 
Q 59.625 0 59.625 1.3125 
Q 59.671875 1.5625 59.8125 2.171875 
Q 59.96875 2.78125 60.234375 3.140625 
Q 60.5 3.515625 60.890625 3.515625 
Q 67 3.515625 69.390625 4.203125 
Q 70.703125 4.640625 71.296875 6.890625 
L 85.6875 64.796875 
L 45.3125 1.125 
Q 44.734375 0 43.3125 0 
Q 42.046875 0 41.890625 1.125 
L 33.40625 64.015625 
L 19.671875 9.1875 
Q 19.578125 8.9375 19.53125 8.5625 
Q 19.484375 8.203125 19.390625 7.71875 
Q 19.390625 5.125 21.65625 4.3125 
Q 23.921875 3.515625 27.203125 3.515625 
Q 28.21875 3.515625 28.21875 2.203125 
Q 27.875 0.875 27.65625 0.4375 
Q 27.4375 0 26.515625 0 
z
" id="Cmmi10-4d"/>
      <path d="M 51.125 44 
L 36.921875 44 
L 32.8125 27.6875 
L 47.125 27.6875 
z
M 43.796875 71.78125 
L 38.71875 51.515625 
L 52.984375 51.515625 
L 58.109375 71.78125 
L 65.921875 71.78125 
L 60.890625 51.515625 
L 76.125 51.515625 
L 76.125 44 
L 58.984375 44 
L 54.984375 27.6875 
L 70.515625 27.6875 
L 70.515625 20.21875 
L 53.078125 20.21875 
L 48 0 
L 40.1875 0 
L 45.21875 20.21875 
L 30.90625 20.21875 
L 25.875 0 
L 18.015625 0 
L 23.09375 20.21875 
L 7.71875 20.21875 
L 7.71875 27.6875 
L 24.90625 27.6875 
L 29 44 
L 13.28125 44 
L 13.28125 51.515625 
L 30.90625 51.515625 
L 35.890625 71.78125 
z
" id="BitstreamVeraSans-Roman-23"/>
      <path d="M 8.6875 11.375 
Q 9.71875 8.453125 11.84375 6.046875 
Q 13.96875 3.65625 16.875 2.3125 
Q 19.78125 0.984375 22.90625 0.984375 
Q 30.125 0.984375 32.859375 6.59375 
Q 35.59375 12.203125 35.59375 20.21875 
Q 35.59375 23.6875 35.46875 26.046875 
Q 35.359375 28.421875 34.8125 30.609375 
Q 33.890625 34.125 31.5625 36.765625 
Q 29.25 39.40625 25.875 39.40625 
Q 22.515625 39.40625 20.09375 38.375 
Q 17.671875 37.359375 16.15625 35.984375 
Q 14.65625 34.625 13.484375 33.109375 
Q 12.3125 31.59375 12.015625 31.5 
L 10.890625 31.5 
Q 10.640625 31.5 10.265625 31.8125 
Q 9.90625 32.125 9.90625 32.421875 
L 9.90625 65.828125 
Q 9.90625 66.0625 10.21875 66.328125 
Q 10.546875 66.609375 10.890625 66.609375 
L 11.1875 66.609375 
Q 17.921875 63.375 25.484375 63.375 
Q 32.90625 63.375 39.796875 66.609375 
L 40.09375 66.609375 
Q 40.4375 66.609375 40.71875 66.359375 
Q 41.015625 66.109375 41.015625 65.828125 
L 41.015625 64.890625 
Q 41.015625 64.40625 40.828125 64.40625 
Q 37.40625 59.859375 32.25 57.3125 
Q 27.09375 54.78125 21.578125 54.78125 
Q 17.578125 54.78125 13.375 55.90625 
L 13.375 37.015625 
Q 16.703125 39.703125 19.3125 40.84375 
Q 21.921875 42 25.984375 42 
Q 31.5 42 35.859375 38.8125 
Q 40.234375 35.640625 42.578125 30.53125 
Q 44.921875 25.4375 44.921875 20.125 
Q 44.921875 14.109375 41.96875 8.984375 
Q 39.015625 3.859375 33.9375 0.828125 
Q 28.859375 -2.203125 22.90625 -2.203125 
Q 17.96875 -2.203125 13.84375 0.328125 
Q 9.71875 2.875 7.34375 7.171875 
Q 4.984375 11.46875 4.984375 16.3125 
Q 4.984375 18.5625 6.4375 19.96875 
Q 7.90625 21.390625 10.109375 21.390625 
Q 12.3125 21.390625 13.796875 19.9375 
Q 15.28125 18.5 15.28125 16.3125 
Q 15.28125 14.15625 13.796875 12.671875 
Q 12.3125 11.1875 10.109375 11.1875 
Q 9.765625 11.1875 9.328125 11.25 
Q 8.890625 11.328125 8.6875 11.375 
" id="Cmr10-35"/>
      <path d="M 73.1875 49.21875 
L 22.796875 31.296875 
L 73.1875 13.484375 
L 73.1875 4.59375 
L 10.59375 27.296875 
L 10.59375 35.40625 
L 73.1875 58.109375 
z
" id="BitstreamVeraSans-Roman-3c"/>
      <path d="M 44.28125 53.078125 
L 44.28125 44.578125 
Q 40.484375 46.53125 36.375 47.5 
Q 32.28125 48.484375 27.875 48.484375 
Q 21.1875 48.484375 17.84375 46.4375 
Q 14.5 44.390625 14.5 40.28125 
Q 14.5 37.15625 16.890625 35.375 
Q 19.28125 33.59375 26.515625 31.984375 
L 29.59375 31.296875 
Q 39.15625 29.25 43.1875 25.515625 
Q 47.21875 21.78125 47.21875 15.09375 
Q 47.21875 7.46875 41.1875 3.015625 
Q 35.15625 -1.421875 24.609375 -1.421875 
Q 20.21875 -1.421875 15.453125 -0.5625 
Q 10.6875 0.296875 5.421875 2 
L 5.421875 11.28125 
Q 10.40625 8.6875 15.234375 7.390625 
Q 20.0625 6.109375 24.8125 6.109375 
Q 31.15625 6.109375 34.5625 8.28125 
Q 37.984375 10.453125 37.984375 14.40625 
Q 37.984375 18.0625 35.515625 20.015625 
Q 33.0625 21.96875 24.703125 23.78125 
L 21.578125 24.515625 
Q 13.234375 26.265625 9.515625 29.90625 
Q 5.8125 33.546875 5.8125 39.890625 
Q 5.8125 47.609375 11.28125 51.796875 
Q 16.75 56 26.8125 56 
Q 31.78125 56 36.171875 55.265625 
Q 40.578125 54.546875 44.28125 53.078125 
" id="BitstreamVeraSans-Roman-73"/>
      <path d="M 48.78125 52.59375 
L 48.78125 44.1875 
Q 44.96875 46.296875 41.140625 47.34375 
Q 37.3125 48.390625 33.40625 48.390625 
Q 24.65625 48.390625 19.8125 42.84375 
Q 14.984375 37.3125 14.984375 27.296875 
Q 14.984375 17.28125 19.8125 11.734375 
Q 24.65625 6.203125 33.40625 6.203125 
Q 37.3125 6.203125 41.140625 7.25 
Q 44.96875 8.296875 48.78125 10.40625 
L 48.78125 2.09375 
Q 45.015625 0.34375 40.984375 -0.53125 
Q 36.96875 -1.421875 32.421875 -1.421875 
Q 20.0625 -1.421875 12.78125 6.34375 
Q 5.515625 14.109375 5.515625 27.296875 
Q 5.515625 40.671875 12.859375 48.328125 
Q 20.21875 56 33.015625 56 
Q 37.15625 56 41.109375 55.140625 
Q 45.0625 54.296875 48.78125 52.59375 
" id="BitstreamVeraSans-Roman-63"/>
      <path d="M 4.203125 54.6875 
L 13.1875 54.6875 
L 24.421875 12.015625 
L 35.59375 54.6875 
L 46.1875 54.6875 
L 57.421875 12.015625 
L 68.609375 54.6875 
L 77.59375 54.6875 
L 63.28125 0 
L 52.6875 0 
L 40.921875 44.828125 
L 29.109375 0 
L 18.5 0 
z
" id="BitstreamVeraSans-Roman-77"/>
     </defs>
     <g transform="translate(38.16 376.56)rotate(-90.0)scale(0.12 -0.12)">
      <use transform="translate(0.0 0.015625)" xlink:href="#BitstreamVeraSans-Roman-23"/>
      <use transform="translate(83.7890625 0.015625)" xlink:href="#BitstreamVeraSans-Roman-20"/>
      <use transform="translate(115.576171875 0.015625)" xlink:href="#BitstreamVeraSans-Roman-71"/>
      <use transform="translate(179.052734375 0.015625)" xlink:href="#BitstreamVeraSans-Roman-75"/>
      <use transform="translate(242.431640625 0.015625)" xlink:href="#BitstreamVeraSans-Roman-61"/>
      <use transform="translate(303.7109375 0.015625)" xlink:href="#BitstreamVeraSans-Roman-73"/>
      <use transform="translate(355.810546875 0.015625)" xlink:href="#BitstreamVeraSans-Roman-61"/>
      <use transform="translate(417.08984375 0.015625)" xlink:href="#BitstreamVeraSans-Roman-72"/>
      <use transform="translate(458.203125 0.015625)" xlink:href="#BitstreamVeraSans-Roman-73"/>
      <use transform="translate(510.302734375 0.015625)" xlink:href="#BitstreamVeraSans-Roman-20"/>
      <use transform="translate(542.08984375 0.015625)" xlink:href="#BitstreamVeraSans-Roman-64"/>
      <use transform="translate(605.56640625 0.015625)" xlink:href="#BitstreamVeraSans-Roman-65"/>
      <use transform="translate(667.08984375 0.015625)" xlink:href="#BitstreamVeraSans-Roman-74"/>
      <use transform="translate(706.298828125 0.015625)" xlink:href="#BitstreamVeraSans-Roman-65"/>
      <use transform="translate(767.822265625 0.015625)" xlink:href="#BitstreamVeraSans-Roman-63"/>
      <use transform="translate(822.802734375 0.015625)" xlink:href="#BitstreamVeraSans-Roman-74"/>
      <use transform="translate(862.01171875 0.015625)" xlink:href="#BitstreamVeraSans-Roman-65"/>
      <use transform="translate(923.53515625 0.015625)" xlink:href="#BitstreamVeraSans-Roman-64"/>
      <use transform="translate(987.01171875 0.015625)" xlink:href="#BitstreamVeraSans-Roman-20"/>
      <use transform="translate(1018.798828125 0.015625)" xlink:href="#BitstreamVeraSans-Roman-77"/>
      <use transform="translate(1100.5859375 0.015625)" xlink:href="#BitstreamVeraSans-Roman-69"/>
      <use transform="translate(1128.369140625 0.015625)" xlink:href="#BitstreamVeraSans-Roman-74"/>
      <use transform="translate(1167.578125 0.015625)" xlink:href="#BitstreamVeraSans-Roman-68"/>
      <use transform="translate(1230.95703125 0.015625)" xlink:href="#BitstreamVeraSans-Roman-20"/>
      <use transform="translate(1262.744140625 0.015625)" xlink:href="#Cmmi10-4d"/>
      <use transform="translate(1359.765625 -16.990624999999994)scale(0.7)" xlink:href="#Cmr10-31"/>
      <use transform="translate(1394.765625 -16.990624999999994)scale(0.7)" xlink:href="#Cmr10-34"/>
      <use transform="translate(1429.765625 -16.990624999999994)scale(0.7)" xlink:href="#Cmr10-35"/>
      <use transform="translate(1464.765625 -16.990624999999994)scale(0.7)" xlink:href="#Cmr10-30"/>
      <use transform="translate(1506.14296875 0.015625)" xlink:href="#BitstreamVeraSans-Roman-3c"/>
      <use transform="translate(1589.93203125 0.015625)" xlink:href="#BitstreamVeraSans-Roman-2d"/>
      <use transform="translate(1626.016015625 0.015625)" xlink:href="#BitstreamVeraSans-Roman-31"/>
      <use transform="translate(1689.6390625 0.015625)" xlink:href="#BitstreamVeraSans-Roman-38"/>
      <use transform="translate(1753.262109375 0.015625)" xlink:href="#BitstreamVeraSans-Roman-2e"/>
      <use transform="translate(1785.04921875 0.015625)" xlink:href="#BitstreamVeraSans-Roman-30"/>
      <use transform="translate(1848.672265625 0.015625)" xlink:href="#BitstreamVeraSans-Roman-20"/>
      <use transform="translate(1880.459375 0.015625)" xlink:href="#BitstreamVeraSans-Roman-28"/>
      <use transform="translate(1919.473046875 0.015625)" xlink:href="#BitstreamVeraSans-Roman-31"/>
      <use transform="translate(1983.09609375 0.015625)" xlink:href="#BitstreamVeraSans-Roman-2c"/>
      <use transform="translate(2014.883203125 0.015625)" xlink:href="#BitstreamVeraSans-Roman-36"/>
      <use transform="translate(2078.50625 0.015625)" xlink:href="#BitstreamVeraSans-Roman-30"/>
      <use transform="translate(2142.129296875 0.015625)" xlink:href="#BitstreamVeraSans-Roman-30"/>
      <use transform="translate(2205.75234375 0.015625)" xlink:href="#BitstreamVeraSans-Roman-20"/>
      <use transform="translate(2237.539453125 0.015625)" xlink:href="#BitstreamVeraSans-Roman-73"/>
      <use transform="translate(2289.6390625 0.015625)" xlink:href="#BitstreamVeraSans-Roman-71"/>
      <use transform="translate(2353.115625 0.015625)" xlink:href="#BitstreamVeraSans-Roman-2e"/>
      <use transform="translate(2384.902734375 0.015625)" xlink:href="#BitstreamVeraSans-Roman-20"/>
      <use transform="translate(2416.68984375 0.015625)" xlink:href="#BitstreamVeraSans-Roman-64"/>
      <use transform="translate(2480.16640625 0.015625)" xlink:href="#BitstreamVeraSans-Roman-65"/>
      <use transform="translate(2541.68984375 0.015625)" xlink:href="#BitstreamVeraSans-Roman-67"/>
      <use transform="translate(2605.16640625 0.015625)" xlink:href="#BitstreamVeraSans-Roman-2e"/>
      <use transform="translate(2636.953515625 0.015625)" xlink:href="#BitstreamVeraSans-Roman-29"/>
     </g>
    </g>
   </g>
   <g id="text_15">
    <!-- LSST Comm. z median $5\sigma$ depth=24.6 -->
    <defs>
     <path d="M 64.40625 67.28125 
L 64.40625 56.890625 
Q 59.421875 61.53125 53.78125 63.8125 
Q 48.140625 66.109375 41.796875 66.109375 
Q 29.296875 66.109375 22.65625 58.46875 
Q 16.015625 50.828125 16.015625 36.375 
Q 16.015625 21.96875 22.65625 14.328125 
Q 29.296875 6.6875 41.796875 6.6875 
Q 48.140625 6.6875 53.78125 8.984375 
Q 59.421875 11.28125 64.40625 15.921875 
L 64.40625 5.609375 
Q 59.234375 2.09375 53.4375 0.328125 
Q 47.65625 -1.421875 41.21875 -1.421875 
Q 24.65625 -1.421875 15.125 8.703125 
Q 5.609375 18.84375 5.609375 36.375 
Q 5.609375 53.953125 15.125 64.078125 
Q 24.65625 74.21875 41.21875 74.21875 
Q 47.75 74.21875 53.53125 72.484375 
Q 59.328125 70.75 64.40625 67.28125 
" id="BitstreamVeraSans-Roman-43"/>
     <path d="M 10.59375 45.40625 
L 73.1875 45.40625 
L 73.1875 37.203125 
L 10.59375 37.203125 
z
M 10.59375 25.484375 
L 73.1875 25.484375 
L 73.1875 17.1875 
L 10.59375 17.1875 
z
" id="BitstreamVeraSans-Roman-3d"/>
     <path d="M 30.609375 48.390625 
Q 23.390625 48.390625 19.1875 42.75 
Q 14.984375 37.109375 14.984375 27.296875 
Q 14.984375 17.484375 19.15625 11.84375 
Q 23.34375 6.203125 30.609375 6.203125 
Q 37.796875 6.203125 41.984375 11.859375 
Q 46.1875 17.53125 46.1875 27.296875 
Q 46.1875 37.015625 41.984375 42.703125 
Q 37.796875 48.390625 30.609375 48.390625 
M 30.609375 56 
Q 42.328125 56 49.015625 48.375 
Q 55.71875 40.765625 55.71875 27.296875 
Q 55.71875 13.875 49.015625 6.21875 
Q 42.328125 -1.421875 30.609375 -1.421875 
Q 18.84375 -1.421875 12.171875 6.21875 
Q 5.515625 13.875 5.515625 27.296875 
Q 5.515625 40.765625 12.171875 48.375 
Q 18.84375 56 30.609375 56 
" id="BitstreamVeraSans-Roman-6f"/>
     <path d="M 18.703125 -1.125 
Q 14.265625 -1.125 10.8125 1 
Q 7.375 3.125 5.484375 6.734375 
Q 3.609375 10.359375 3.609375 14.703125 
Q 3.609375 19.34375 5.703125 24.46875 
Q 7.8125 29.59375 11.453125 33.84375 
Q 15.09375 38.09375 19.671875 40.59375 
Q 24.265625 43.109375 29.109375 43.109375 
L 54.296875 43.109375 
Q 55.328125 43.109375 56.046875 42.421875 
Q 56.78125 41.75 56.78125 40.578125 
Q 56.78125 39.109375 55.734375 38.015625 
Q 54.6875 36.921875 53.21875 36.921875 
L 41.015625 36.921875 
Q 43.890625 32.625 43.890625 26.515625 
Q 43.890625 21.484375 41.9375 16.59375 
Q 39.984375 11.71875 36.515625 7.6875 
Q 33.0625 3.65625 28.4375 1.265625 
Q 23.828125 -1.125 18.703125 -1.125 
M 18.796875 1.515625 
Q 24.265625 1.515625 28.484375 5.78125 
Q 32.71875 10.0625 34.953125 16.234375 
Q 37.203125 22.40625 37.203125 27.6875 
Q 37.203125 31.984375 34.828125 34.453125 
Q 32.46875 36.921875 28.21875 36.921875 
Q 22.40625 36.921875 18.328125 33.015625 
Q 14.265625 29.109375 12.234375 23.1875 
Q 10.203125 17.28125 10.203125 11.8125 
Q 10.203125 7.515625 12.46875 4.515625 
Q 14.75 1.515625 18.796875 1.515625 
" id="Cmmi10-be"/>
    </defs>
    <g transform="translate(143.424 347.185613399)scale(0.12 -0.12)">
     <use transform="translate(0.0 0.015625)" xlink:href="#BitstreamVeraSans-Roman-4c"/>
     <use transform="translate(55.712890625 0.015625)" xlink:href="#BitstreamVeraSans-Roman-53"/>
     <use transform="translate(119.189453125 0.015625)" xlink:href="#BitstreamVeraSans-Roman-53"/>
     <use transform="translate(182.666015625 0.015625)" xlink:href="#BitstreamVeraSans-Roman-54"/>
     <use transform="translate(243.75 0.015625)" xlink:href="#BitstreamVeraSans-Roman-20"/>
     <use transform="translate(275.537109375 0.015625)" xlink:href="#BitstreamVeraSans-Roman-43"/>
     <use transform="translate(345.361328125 0.015625)" xlink:href="#BitstreamVeraSans-Roman-6f"/>
     <use transform="translate(406.54296875 0.015625)" xlink:href="#BitstreamVeraSans-Roman-6d"/>
     <use transform="translate(503.955078125 0.015625)" xlink:href="#BitstreamVeraSans-Roman-6d"/>
     <use transform="translate(601.3671875 0.015625)" xlink:href="#BitstreamVeraSans-Roman-2e"/>
     <use transform="translate(633.154296875 0.015625)" xlink:href="#BitstreamVeraSans-Roman-20"/>
     <use transform="translate(664.94140625 0.015625)" xlink:href="#BitstreamVeraSans-Roman-7a"/>
     <use transform="translate(717.431640625 0.015625)" xlink:href="#BitstreamVeraSans-Roman-20"/>
     <use transform="translate(749.21875 0.015625)" xlink:href="#BitstreamVeraSans-Roman-6d"/>
     <use transform="translate(846.630859375 0.015625)" xlink:href="#BitstreamVeraSans-Roman-65"/>
     <use transform="translate(908.154296875 0.015625)" xlink:href="#BitstreamVeraSans-Roman-64"/>
     <use transform="translate(971.630859375 0.015625)" xlink:href="#BitstreamVeraSans-Roman-69"/>
     <use transform="translate(999.4140625 0.015625)" xlink:href="#BitstreamVeraSans-Roman-61"/>
     <use transform="translate(1060.693359375 0.015625)" xlink:href="#BitstreamVeraSans-Roman-6e"/>
     <use transform="translate(1124.072265625 0.015625)" xlink:href="#BitstreamVeraSans-Roman-20"/>
     <use transform="translate(1155.859375 0.015625)" xlink:href="#Cmr10-35"/>
     <use transform="translate(1205.859375 0.015625)" xlink:href="#Cmmi10-be"/>
     <use transform="translate(1262.939453125 0.015625)" xlink:href="#BitstreamVeraSans-Roman-20"/>
     <use transform="translate(1294.7265625 0.015625)" xlink:href="#BitstreamVeraSans-Roman-64"/>
     <use transform="translate(1358.203125 0.015625)" xlink:href="#BitstreamVeraSans-Roman-65"/>
     <use transform="translate(1419.7265625 0.015625)" xlink:href="#BitstreamVeraSans-Roman-70"/>
     <use transform="translate(1483.203125 0.015625)" xlink:href="#BitstreamVeraSans-Roman-74"/>
     <use transform="translate(1522.412109375 0.015625)" xlink:href="#BitstreamVeraSans-Roman-68"/>
     <use transform="translate(1585.775390625 0.015625)" xlink:href="#BitstreamVeraSans-Roman-3d"/>
     <use transform="translate(1669.564453125 0.015625)" xlink:href="#BitstreamVeraSans-Roman-32"/>
     <use transform="translate(1733.1875 0.015625)" xlink:href="#BitstreamVeraSans-Roman-34"/>
     <use transform="translate(1796.810546875 0.015625)" xlink:href="#BitstreamVeraSans-Roman-2e"/>
     <use transform="translate(1828.59765625 0.015625)" xlink:href="#BitstreamVeraSans-Roman-36"/>
    </g>
   </g>
   <g id="legend_1">
    <g id="patch_7">
     <path d="M 79.2 139.266 
L 185.63175 139.266 
L 185.63175 50.4 
L 79.2 50.4 
z
" style="fill:#ffffff;stroke:#000000;stroke-linejoin:miter;"/>
    </g>
    <g id="line2d_122">
     <path d="M 89.28 62.06175 
L 109.44 62.06175 
" style="fill:none;stroke:#0000ff;stroke-linecap:square;"/>
    </g>
    <g id="line2d_123"/>
    <g id="text_16">
     <!-- z&gt;=5.0 -->
     <defs>
      <path d="M 10.59375 49.21875 
L 10.59375 58.109375 
L 73.1875 35.40625 
L 73.1875 27.296875 
L 10.59375 4.59375 
L 10.59375 13.484375 
L 60.890625 31.296875 
z
" id="BitstreamVeraSans-Roman-3e"/>
     </defs>
     <g transform="translate(125.28 67.10175)scale(0.144 -0.144)">
      <use xlink:href="#BitstreamVeraSans-Roman-7a"/>
      <use x="52.490234375" xlink:href="#BitstreamVeraSans-Roman-3e"/>
      <use x="136.279296875" xlink:href="#BitstreamVeraSans-Roman-3d"/>
      <use x="220.068359375" xlink:href="#BitstreamVeraSans-Roman-35"/>
      <use x="283.69140625" xlink:href="#BitstreamVeraSans-Roman-2e"/>
      <use x="315.478515625" xlink:href="#BitstreamVeraSans-Roman-30"/>
     </g>
    </g>
    <g id="line2d_124">
     <path d="M 89.28 83.19825 
L 109.44 83.19825 
" style="fill:none;stroke:#880088;stroke-linecap:square;"/>
    </g>
    <g id="line2d_125"/>
    <g id="text_17">
     <!-- z&gt;=6.0 -->
     <g transform="translate(125.28 88.23825)scale(0.144 -0.144)">
      <use xlink:href="#BitstreamVeraSans-Roman-7a"/>
      <use x="52.490234375" xlink:href="#BitstreamVeraSans-Roman-3e"/>
      <use x="136.279296875" xlink:href="#BitstreamVeraSans-Roman-3d"/>
      <use x="220.068359375" xlink:href="#BitstreamVeraSans-Roman-36"/>
      <use x="283.69140625" xlink:href="#BitstreamVeraSans-Roman-2e"/>
      <use x="315.478515625" xlink:href="#BitstreamVeraSans-Roman-30"/>
     </g>
    </g>
    <g id="line2d_126">
     <path d="M 89.28 104.33475 
L 109.44 104.33475 
" style="fill:none;stroke:#bb0000;stroke-linecap:square;"/>
    </g>
    <g id="line2d_127"/>
    <g id="text_18">
     <!-- z&gt;=6.5 -->
     <g transform="translate(125.28 109.37475)scale(0.144 -0.144)">
      <use xlink:href="#BitstreamVeraSans-Roman-7a"/>
      <use x="52.490234375" xlink:href="#BitstreamVeraSans-Roman-3e"/>
      <use x="136.279296875" xlink:href="#BitstreamVeraSans-Roman-3d"/>
      <use x="220.068359375" xlink:href="#BitstreamVeraSans-Roman-36"/>
      <use x="283.69140625" xlink:href="#BitstreamVeraSans-Roman-2e"/>
      <use x="315.478515625" xlink:href="#BitstreamVeraSans-Roman-35"/>
     </g>
    </g>
    <g id="line2d_128">
     <path d="M 89.28 125.47125 
L 109.44 125.47125 
" style="fill:none;stroke:#ff0000;stroke-linecap:square;"/>
    </g>
    <g id="line2d_129"/>
    <g id="text_19">
     <!-- z&gt;=7.0 -->
     <defs>
      <path d="M 8.203125 72.90625 
L 55.078125 72.90625 
L 55.078125 68.703125 
L 28.609375 0 
L 18.3125 0 
L 43.21875 64.59375 
L 8.203125 64.59375 
z
" id="BitstreamVeraSans-Roman-37"/>
     </defs>
     <g transform="translate(125.28 130.51125)scale(0.144 -0.144)">
      <use xlink:href="#BitstreamVeraSans-Roman-7a"/>
      <use x="52.490234375" xlink:href="#BitstreamVeraSans-Roman-3e"/>
      <use x="136.279296875" xlink:href="#BitstreamVeraSans-Roman-3d"/>
      <use x="220.068359375" xlink:href="#BitstreamVeraSans-Roman-37"/>
      <use x="283.69140625" xlink:href="#BitstreamVeraSans-Roman-2e"/>
      <use x="315.478515625" xlink:href="#BitstreamVeraSans-Roman-30"/>
     </g>
    </g>
   </g>
  </g>
  <g id="text_20">
   <!-- Daniel R, 2defdbb -->
   <defs>
    <path d="M 44.390625 34.1875 
Q 47.5625 33.109375 50.5625 29.59375 
Q 53.5625 26.078125 56.59375 19.921875 
L 66.609375 0 
L 56 0 
L 46.6875 18.703125 
Q 43.0625 26.03125 39.671875 28.421875 
Q 36.28125 30.8125 30.421875 30.8125 
L 19.671875 30.8125 
L 19.671875 0 
L 9.8125 0 
L 9.8125 72.90625 
L 32.078125 72.90625 
Q 44.578125 72.90625 50.734375 67.671875 
Q 56.890625 62.453125 56.890625 51.90625 
Q 56.890625 45.015625 53.6875 40.46875 
Q 50.484375 35.9375 44.390625 34.1875 
M 19.671875 64.796875 
L 19.671875 38.921875 
L 32.078125 38.921875 
Q 39.203125 38.921875 42.84375 42.21875 
Q 46.484375 45.515625 46.484375 51.90625 
Q 46.484375 58.296875 42.84375 61.546875 
Q 39.203125 64.796875 32.078125 64.796875 
z
" id="BitstreamVeraSans-Roman-52"/>
    <path d="M 19.671875 64.796875 
L 19.671875 8.109375 
L 31.59375 8.109375 
Q 46.6875 8.109375 53.6875 14.9375 
Q 60.6875 21.78125 60.6875 36.53125 
Q 60.6875 51.171875 53.6875 57.984375 
Q 46.6875 64.796875 31.59375 64.796875 
z
M 9.8125 72.90625 
L 30.078125 72.90625 
Q 51.265625 72.90625 61.171875 64.09375 
Q 71.09375 55.28125 71.09375 36.53125 
Q 71.09375 17.671875 61.125 8.828125 
Q 51.171875 0 30.078125 0 
L 9.8125 0 
z
" id="BitstreamVeraSans-Roman-44"/>
    <path d="M 48.6875 27.296875 
Q 48.6875 37.203125 44.609375 42.84375 
Q 40.53125 48.484375 33.40625 48.484375 
Q 26.265625 48.484375 22.1875 42.84375 
Q 18.109375 37.203125 18.109375 27.296875 
Q 18.109375 17.390625 22.1875 11.75 
Q 26.265625 6.109375 33.40625 6.109375 
Q 40.53125 6.109375 44.609375 11.75 
Q 48.6875 17.390625 48.6875 27.296875 
M 18.109375 46.390625 
Q 20.953125 51.265625 25.265625 53.625 
Q 29.59375 56 35.59375 56 
Q 45.5625 56 51.78125 48.09375 
Q 58.015625 40.1875 58.015625 27.296875 
Q 58.015625 14.40625 51.78125 6.484375 
Q 45.5625 -1.421875 35.59375 -1.421875 
Q 29.59375 -1.421875 25.265625 0.953125 
Q 20.953125 3.328125 18.109375 8.203125 
L 18.109375 0 
L 9.078125 0 
L 9.078125 75.984375 
L 18.109375 75.984375 
z
" id="BitstreamVeraSans-Roman-62"/>
    <path d="M 37.109375 75.984375 
L 37.109375 68.5 
L 28.515625 68.5 
Q 23.6875 68.5 21.796875 66.546875 
Q 19.921875 64.59375 19.921875 59.515625 
L 19.921875 54.6875 
L 34.71875 54.6875 
L 34.71875 47.703125 
L 19.921875 47.703125 
L 19.921875 0 
L 10.890625 0 
L 10.890625 47.703125 
L 2.296875 47.703125 
L 2.296875 54.6875 
L 10.890625 54.6875 
L 10.890625 58.5 
Q 10.890625 67.625 15.140625 71.796875 
Q 19.390625 75.984375 28.609375 75.984375 
z
" id="BitstreamVeraSans-Roman-66"/>
    <path d="M 9.421875 75.984375 
L 18.40625 75.984375 
L 18.40625 0 
L 9.421875 0 
z
" id="BitstreamVeraSans-Roman-6c"/>
   </defs>
   <g style="opacity:0.7;" transform="translate(544.798125 269.8725)rotate(-90.0)scale(0.12 -0.12)">
    <use xlink:href="#BitstreamVeraSans-Roman-44"/>
    <use x="77.001953125" xlink:href="#BitstreamVeraSans-Roman-61"/>
    <use x="138.28125" xlink:href="#BitstreamVeraSans-Roman-6e"/>
    <use x="201.66015625" xlink:href="#BitstreamVeraSans-Roman-69"/>
    <use x="229.443359375" xlink:href="#BitstreamVeraSans-Roman-65"/>
    <use x="290.966796875" xlink:href="#BitstreamVeraSans-Roman-6c"/>
    <use x="318.75" xlink:href="#BitstreamVeraSans-Roman-20"/>
    <use x="350.537109375" xlink:href="#BitstreamVeraSans-Roman-52"/>
    <use x="420.01953125" xlink:href="#BitstreamVeraSans-Roman-2c"/>
    <use x="451.806640625" xlink:href="#BitstreamVeraSans-Roman-20"/>
    <use x="483.59375" xlink:href="#BitstreamVeraSans-Roman-32"/>
    <use x="547.216796875" xlink:href="#BitstreamVeraSans-Roman-64"/>
    <use x="610.693359375" xlink:href="#BitstreamVeraSans-Roman-65"/>
    <use x="672.216796875" xlink:href="#BitstreamVeraSans-Roman-66"/>
    <use x="707.421875" xlink:href="#BitstreamVeraSans-Roman-64"/>
    <use x="770.8984375" xlink:href="#BitstreamVeraSans-Roman-62"/>
    <use x="834.375" xlink:href="#BitstreamVeraSans-Roman-62"/>
   </g>
  </g>
 </g>
 <defs>
  <clipPath id="p989e78ae0f">
   <rect height="345.6" width="446.4" x="72.0" y="43.2"/>
  </clipPath>
 </defs>
</svg>
