<?xml version="1.0" encoding="utf-8" standalone="no"?>
<!DOCTYPE svg PUBLIC "-//W3C//DTD SVG 1.1//EN"
  "http://www.w3.org/Graphics/SVG/1.1/DTD/svg11.dtd">
<!-- Created with matplotlib (http://matplotlib.org/) -->
<svg height="504pt" version="1.1" viewBox="0 0 720 504" width="720pt" xmlns="http://www.w3.org/2000/svg" xmlns:xlink="http://www.w3.org/1999/xlink">
 <defs>
  <style type="text/css">
*{stroke-linecap:butt;stroke-linejoin:round;}
  </style>
 </defs>
 <g id="figure_1">
  <g id="patch_1">
   <path d="M 0 504 
L 720 504 
L 720 0 
L 0 0 
z
" style="fill:#ffffff;"/>
  </g>
  <g id="axes_1">
   <g id="patch_2">
    <path d="M 90 448.56 
L 565.568182 448.56 
L 565.568182 60.48 
L 90 60.48 
z
" style="fill:#ffffff;"/>
   </g>
   <g id="matplotlib.axis_1">
    <g id="xtick_1">
     <g id="line2d_1">
      <path clip-path="url(#pe8516be864)" d="M 565.568182 448.56 
L 565.568182 60.48 
" style="fill:none;stroke:#b0b0b0;stroke-linecap:square;stroke-width:0.8;"/>
     </g>
     <g id="line2d_2">
      <defs>
       <path d="M 0 0 
L 0 3.5 
" id="me8390223e3" style="stroke:#000000;stroke-width:0.8;"/>
      </defs>
      <g>
       <use style="stroke:#000000;stroke-width:0.8;" x="565.568182" xlink:href="#me8390223e3" y="448.56"/>
      </g>
     </g>
     <g id="text_1">
      <!-- −29.0 -->
      <defs>
       <path d="M 10.59375 35.5 
L 73.1875 35.5 
L 73.1875 27.203125 
L 10.59375 27.203125 
z
" id="DejaVuSans-2212"/>
       <path d="M 19.1875 8.296875 
L 53.609375 8.296875 
L 53.609375 0 
L 7.328125 0 
L 7.328125 8.296875 
Q 12.9375 14.109375 22.625 23.890625 
Q 32.328125 33.6875 34.8125 36.53125 
Q 39.546875 41.84375 41.421875 45.53125 
Q 43.3125 49.21875 43.3125 52.78125 
Q 43.3125 58.59375 39.234375 62.25 
Q 35.15625 65.921875 28.609375 65.921875 
Q 23.96875 65.921875 18.8125 64.3125 
Q 13.671875 62.703125 7.8125 59.421875 
L 7.8125 69.390625 
Q 13.765625 71.78125 18.9375 73 
Q 24.125 74.21875 28.421875 74.21875 
Q 39.75 74.21875 46.484375 68.546875 
Q 53.21875 62.890625 53.21875 53.421875 
Q 53.21875 48.921875 51.53125 44.890625 
Q 49.859375 40.875 45.40625 35.40625 
Q 44.1875 33.984375 37.640625 27.21875 
Q 31.109375 20.453125 19.1875 8.296875 
z
" id="DejaVuSans-32"/>
       <path d="M 10.984375 1.515625 
L 10.984375 10.5 
Q 14.703125 8.734375 18.5 7.8125 
Q 22.3125 6.890625 25.984375 6.890625 
Q 35.75 6.890625 40.890625 13.453125 
Q 46.046875 20.015625 46.78125 33.40625 
Q 43.953125 29.203125 39.59375 26.953125 
Q 35.25 24.703125 29.984375 24.703125 
Q 19.046875 24.703125 12.671875 31.3125 
Q 6.296875 37.9375 6.296875 49.421875 
Q 6.296875 60.640625 12.9375 67.421875 
Q 19.578125 74.21875 30.609375 74.21875 
Q 43.265625 74.21875 49.921875 64.515625 
Q 56.59375 54.828125 56.59375 36.375 
Q 56.59375 19.140625 48.40625 8.859375 
Q 40.234375 -1.421875 26.421875 -1.421875 
Q 22.703125 -1.421875 18.890625 -0.6875 
Q 15.09375 0.046875 10.984375 1.515625 
z
M 30.609375 32.421875 
Q 37.25 32.421875 41.125 36.953125 
Q 45.015625 41.5 45.015625 49.421875 
Q 45.015625 57.28125 41.125 61.84375 
Q 37.25 66.40625 30.609375 66.40625 
Q 23.96875 66.40625 20.09375 61.84375 
Q 16.21875 57.28125 16.21875 49.421875 
Q 16.21875 41.5 20.09375 36.953125 
Q 23.96875 32.421875 30.609375 32.421875 
z
" id="DejaVuSans-39"/>
       <path d="M 10.6875 12.40625 
L 21 12.40625 
L 21 0 
L 10.6875 0 
z
" id="DejaVuSans-2e"/>
       <path d="M 31.78125 66.40625 
Q 24.171875 66.40625 20.328125 58.90625 
Q 16.5 51.421875 16.5 36.375 
Q 16.5 21.390625 20.328125 13.890625 
Q 24.171875 6.390625 31.78125 6.390625 
Q 39.453125 6.390625 43.28125 13.890625 
Q 47.125 21.390625 47.125 36.375 
Q 47.125 51.421875 43.28125 58.90625 
Q 39.453125 66.40625 31.78125 66.40625 
z
M 31.78125 74.21875 
Q 44.046875 74.21875 50.515625 64.515625 
Q 56.984375 54.828125 56.984375 36.375 
Q 56.984375 17.96875 50.515625 8.265625 
Q 44.046875 -1.421875 31.78125 -1.421875 
Q 19.53125 -1.421875 13.0625 8.265625 
Q 6.59375 17.96875 6.59375 36.375 
Q 6.59375 54.828125 13.0625 64.515625 
Q 19.53125 74.21875 31.78125 74.21875 
z
" id="DejaVuSans-30"/>
      </defs>
      <g transform="translate(550.245526 463.158437)scale(0.1 -0.1)">
       <use xlink:href="#DejaVuSans-2212"/>
       <use x="83.789062" xlink:href="#DejaVuSans-32"/>
       <use x="147.412109" xlink:href="#DejaVuSans-39"/>
       <use x="211.035156" xlink:href="#DejaVuSans-2e"/>
       <use x="242.822266" xlink:href="#DejaVuSans-30"/>
      </g>
     </g>
    </g>
    <g id="xtick_2">
     <g id="line2d_3">
      <path clip-path="url(#pe8516be864)" d="M 506.122159 448.56 
L 506.122159 60.48 
" style="fill:none;stroke:#b0b0b0;stroke-linecap:square;stroke-width:0.8;"/>
     </g>
     <g id="line2d_4">
      <g>
       <use style="stroke:#000000;stroke-width:0.8;" x="506.122159" xlink:href="#me8390223e3" y="448.56"/>
      </g>
     </g>
     <g id="text_2">
      <!-- −28.5 -->
      <defs>
       <path d="M 31.78125 34.625 
Q 24.75 34.625 20.71875 30.859375 
Q 16.703125 27.09375 16.703125 20.515625 
Q 16.703125 13.921875 20.71875 10.15625 
Q 24.75 6.390625 31.78125 6.390625 
Q 38.8125 6.390625 42.859375 10.171875 
Q 46.921875 13.96875 46.921875 20.515625 
Q 46.921875 27.09375 42.890625 30.859375 
Q 38.875 34.625 31.78125 34.625 
z
M 21.921875 38.8125 
Q 15.578125 40.375 12.03125 44.71875 
Q 8.5 49.078125 8.5 55.328125 
Q 8.5 64.0625 14.71875 69.140625 
Q 20.953125 74.21875 31.78125 74.21875 
Q 42.671875 74.21875 48.875 69.140625 
Q 55.078125 64.0625 55.078125 55.328125 
Q 55.078125 49.078125 51.53125 44.71875 
Q 48 40.375 41.703125 38.8125 
Q 48.828125 37.15625 52.796875 32.3125 
Q 56.78125 27.484375 56.78125 20.515625 
Q 56.78125 9.90625 50.3125 4.234375 
Q 43.84375 -1.421875 31.78125 -1.421875 
Q 19.734375 -1.421875 13.25 4.234375 
Q 6.78125 9.90625 6.78125 20.515625 
Q 6.78125 27.484375 10.78125 32.3125 
Q 14.796875 37.15625 21.921875 38.8125 
z
M 18.3125 54.390625 
Q 18.3125 48.734375 21.84375 45.5625 
Q 25.390625 42.390625 31.78125 42.390625 
Q 38.140625 42.390625 41.71875 45.5625 
Q 45.3125 48.734375 45.3125 54.390625 
Q 45.3125 60.0625 41.71875 63.234375 
Q 38.140625 66.40625 31.78125 66.40625 
Q 25.390625 66.40625 21.84375 63.234375 
Q 18.3125 60.0625 18.3125 54.390625 
z
" id="DejaVuSans-38"/>
       <path d="M 10.796875 72.90625 
L 49.515625 72.90625 
L 49.515625 64.59375 
L 19.828125 64.59375 
L 19.828125 46.734375 
Q 21.96875 47.46875 24.109375 47.828125 
Q 26.265625 48.1875 28.421875 48.1875 
Q 40.625 48.1875 47.75 41.5 
Q 54.890625 34.8125 54.890625 23.390625 
Q 54.890625 11.625 47.5625 5.09375 
Q 40.234375 -1.421875 26.90625 -1.421875 
Q 22.3125 -1.421875 17.546875 -0.640625 
Q 12.796875 0.140625 7.71875 1.703125 
L 7.71875 11.625 
Q 12.109375 9.234375 16.796875 8.0625 
Q 21.484375 6.890625 26.703125 6.890625 
Q 35.15625 6.890625 40.078125 11.328125 
Q 45.015625 15.765625 45.015625 23.390625 
Q 45.015625 31 40.078125 35.4375 
Q 35.15625 39.890625 26.703125 39.890625 
Q 22.75 39.890625 18.8125 39.015625 
Q 14.890625 38.140625 10.796875 36.28125 
z
" id="DejaVuSans-35"/>
      </defs>
      <g transform="translate(490.799503 463.158437)scale(0.1 -0.1)">
       <use xlink:href="#DejaVuSans-2212"/>
       <use x="83.789062" xlink:href="#DejaVuSans-32"/>
       <use x="147.412109" xlink:href="#DejaVuSans-38"/>
       <use x="211.035156" xlink:href="#DejaVuSans-2e"/>
       <use x="242.822266" xlink:href="#DejaVuSans-35"/>
      </g>
     </g>
    </g>
    <g id="xtick_3">
     <g id="line2d_5">
      <path clip-path="url(#pe8516be864)" d="M 446.676136 448.56 
L 446.676136 60.48 
" style="fill:none;stroke:#b0b0b0;stroke-linecap:square;stroke-width:0.8;"/>
     </g>
     <g id="line2d_6">
      <g>
       <use style="stroke:#000000;stroke-width:0.8;" x="446.676136" xlink:href="#me8390223e3" y="448.56"/>
      </g>
     </g>
     <g id="text_3">
      <!-- −28.0 -->
      <g transform="translate(431.35348 463.158437)scale(0.1 -0.1)">
       <use xlink:href="#DejaVuSans-2212"/>
       <use x="83.789062" xlink:href="#DejaVuSans-32"/>
       <use x="147.412109" xlink:href="#DejaVuSans-38"/>
       <use x="211.035156" xlink:href="#DejaVuSans-2e"/>
       <use x="242.822266" xlink:href="#DejaVuSans-30"/>
      </g>
     </g>
    </g>
    <g id="xtick_4">
     <g id="line2d_7">
      <path clip-path="url(#pe8516be864)" d="M 387.230114 448.56 
L 387.230114 60.48 
" style="fill:none;stroke:#b0b0b0;stroke-linecap:square;stroke-width:0.8;"/>
     </g>
     <g id="line2d_8">
      <g>
       <use style="stroke:#000000;stroke-width:0.8;" x="387.230114" xlink:href="#me8390223e3" y="448.56"/>
      </g>
     </g>
     <g id="text_4">
      <!-- −27.5 -->
      <defs>
       <path d="M 8.203125 72.90625 
L 55.078125 72.90625 
L 55.078125 68.703125 
L 28.609375 0 
L 18.3125 0 
L 43.21875 64.59375 
L 8.203125 64.59375 
z
" id="DejaVuSans-37"/>
      </defs>
      <g transform="translate(371.907457 463.158437)scale(0.1 -0.1)">
       <use xlink:href="#DejaVuSans-2212"/>
       <use x="83.789062" xlink:href="#DejaVuSans-32"/>
       <use x="147.412109" xlink:href="#DejaVuSans-37"/>
       <use x="211.035156" xlink:href="#DejaVuSans-2e"/>
       <use x="242.822266" xlink:href="#DejaVuSans-35"/>
      </g>
     </g>
    </g>
    <g id="xtick_5">
     <g id="line2d_9">
      <path clip-path="url(#pe8516be864)" d="M 327.784091 448.56 
L 327.784091 60.48 
" style="fill:none;stroke:#b0b0b0;stroke-linecap:square;stroke-width:0.8;"/>
     </g>
     <g id="line2d_10">
      <g>
       <use style="stroke:#000000;stroke-width:0.8;" x="327.784091" xlink:href="#me8390223e3" y="448.56"/>
      </g>
     </g>
     <g id="text_5">
      <!-- −27.0 -->
      <g transform="translate(312.461435 463.158437)scale(0.1 -0.1)">
       <use xlink:href="#DejaVuSans-2212"/>
       <use x="83.789062" xlink:href="#DejaVuSans-32"/>
       <use x="147.412109" xlink:href="#DejaVuSans-37"/>
       <use x="211.035156" xlink:href="#DejaVuSans-2e"/>
       <use x="242.822266" xlink:href="#DejaVuSans-30"/>
      </g>
     </g>
    </g>
    <g id="xtick_6">
     <g id="line2d_11">
      <path clip-path="url(#pe8516be864)" d="M 268.338068 448.56 
L 268.338068 60.48 
" style="fill:none;stroke:#b0b0b0;stroke-linecap:square;stroke-width:0.8;"/>
     </g>
     <g id="line2d_12">
      <g>
       <use style="stroke:#000000;stroke-width:0.8;" x="268.338068" xlink:href="#me8390223e3" y="448.56"/>
      </g>
     </g>
     <g id="text_6">
      <!-- −26.5 -->
      <defs>
       <path d="M 33.015625 40.375 
Q 26.375 40.375 22.484375 35.828125 
Q 18.609375 31.296875 18.609375 23.390625 
Q 18.609375 15.53125 22.484375 10.953125 
Q 26.375 6.390625 33.015625 6.390625 
Q 39.65625 6.390625 43.53125 10.953125 
Q 47.40625 15.53125 47.40625 23.390625 
Q 47.40625 31.296875 43.53125 35.828125 
Q 39.65625 40.375 33.015625 40.375 
z
M 52.59375 71.296875 
L 52.59375 62.3125 
Q 48.875 64.0625 45.09375 64.984375 
Q 41.3125 65.921875 37.59375 65.921875 
Q 27.828125 65.921875 22.671875 59.328125 
Q 17.53125 52.734375 16.796875 39.40625 
Q 19.671875 43.65625 24.015625 45.921875 
Q 28.375 48.1875 33.59375 48.1875 
Q 44.578125 48.1875 50.953125 41.515625 
Q 57.328125 34.859375 57.328125 23.390625 
Q 57.328125 12.15625 50.6875 5.359375 
Q 44.046875 -1.421875 33.015625 -1.421875 
Q 20.359375 -1.421875 13.671875 8.265625 
Q 6.984375 17.96875 6.984375 36.375 
Q 6.984375 53.65625 15.1875 63.9375 
Q 23.390625 74.21875 37.203125 74.21875 
Q 40.921875 74.21875 44.703125 73.484375 
Q 48.484375 72.75 52.59375 71.296875 
z
" id="DejaVuSans-36"/>
      </defs>
      <g transform="translate(253.015412 463.158437)scale(0.1 -0.1)">
       <use xlink:href="#DejaVuSans-2212"/>
       <use x="83.789062" xlink:href="#DejaVuSans-32"/>
       <use x="147.412109" xlink:href="#DejaVuSans-36"/>
       <use x="211.035156" xlink:href="#DejaVuSans-2e"/>
       <use x="242.822266" xlink:href="#DejaVuSans-35"/>
      </g>
     </g>
    </g>
    <g id="xtick_7">
     <g id="line2d_13">
      <path clip-path="url(#pe8516be864)" d="M 208.892045 448.56 
L 208.892045 60.48 
" style="fill:none;stroke:#b0b0b0;stroke-linecap:square;stroke-width:0.8;"/>
     </g>
     <g id="line2d_14">
      <g>
       <use style="stroke:#000000;stroke-width:0.8;" x="208.892045" xlink:href="#me8390223e3" y="448.56"/>
      </g>
     </g>
     <g id="text_7">
      <!-- −26.0 -->
      <g transform="translate(193.569389 463.158437)scale(0.1 -0.1)">
       <use xlink:href="#DejaVuSans-2212"/>
       <use x="83.789062" xlink:href="#DejaVuSans-32"/>
       <use x="147.412109" xlink:href="#DejaVuSans-36"/>
       <use x="211.035156" xlink:href="#DejaVuSans-2e"/>
       <use x="242.822266" xlink:href="#DejaVuSans-30"/>
      </g>
     </g>
    </g>
    <g id="xtick_8">
     <g id="line2d_15">
      <path clip-path="url(#pe8516be864)" d="M 149.446023 448.56 
L 149.446023 60.48 
" style="fill:none;stroke:#b0b0b0;stroke-linecap:square;stroke-width:0.8;"/>
     </g>
     <g id="line2d_16">
      <g>
       <use style="stroke:#000000;stroke-width:0.8;" x="149.446023" xlink:href="#me8390223e3" y="448.56"/>
      </g>
     </g>
     <g id="text_8">
      <!-- −25.5 -->
      <g transform="translate(134.123366 463.158437)scale(0.1 -0.1)">
       <use xlink:href="#DejaVuSans-2212"/>
       <use x="83.789062" xlink:href="#DejaVuSans-32"/>
       <use x="147.412109" xlink:href="#DejaVuSans-35"/>
       <use x="211.035156" xlink:href="#DejaVuSans-2e"/>
       <use x="242.822266" xlink:href="#DejaVuSans-35"/>
      </g>
     </g>
    </g>
    <g id="xtick_9">
     <g id="line2d_17">
      <path clip-path="url(#pe8516be864)" d="M 90 448.56 
L 90 60.48 
" style="fill:none;stroke:#b0b0b0;stroke-linecap:square;stroke-width:0.8;"/>
     </g>
     <g id="line2d_18">
      <g>
       <use style="stroke:#000000;stroke-width:0.8;" x="90" xlink:href="#me8390223e3" y="448.56"/>
      </g>
     </g>
     <g id="text_9">
      <!-- −25.0 -->
      <g transform="translate(74.677344 463.158437)scale(0.1 -0.1)">
       <use xlink:href="#DejaVuSans-2212"/>
       <use x="83.789062" xlink:href="#DejaVuSans-32"/>
       <use x="147.412109" xlink:href="#DejaVuSans-35"/>
       <use x="211.035156" xlink:href="#DejaVuSans-2e"/>
       <use x="242.822266" xlink:href="#DejaVuSans-30"/>
      </g>
     </g>
    </g>
    <g id="text_10">
     <!-- M_1450 -->
     <defs>
      <path d="M 9.8125 72.90625 
L 24.515625 72.90625 
L 43.109375 23.296875 
L 61.8125 72.90625 
L 76.515625 72.90625 
L 76.515625 0 
L 66.890625 0 
L 66.890625 64.015625 
L 48.09375 14.015625 
L 38.1875 14.015625 
L 19.390625 64.015625 
L 19.390625 0 
L 9.8125 0 
z
" id="DejaVuSans-4d"/>
      <path d="M 50.984375 -16.609375 
L 50.984375 -23.578125 
L -0.984375 -23.578125 
L -0.984375 -16.609375 
z
" id="DejaVuSans-5f"/>
      <path d="M 12.40625 8.296875 
L 28.515625 8.296875 
L 28.515625 63.921875 
L 10.984375 60.40625 
L 10.984375 69.390625 
L 28.421875 72.90625 
L 38.28125 72.90625 
L 38.28125 8.296875 
L 54.390625 8.296875 
L 54.390625 0 
L 12.40625 0 
z
" id="DejaVuSans-31"/>
      <path d="M 37.796875 64.3125 
L 12.890625 25.390625 
L 37.796875 25.390625 
z
M 35.203125 72.90625 
L 47.609375 72.90625 
L 47.609375 25.390625 
L 58.015625 25.390625 
L 58.015625 17.1875 
L 47.609375 17.1875 
L 47.609375 0 
L 37.796875 0 
L 37.796875 17.1875 
L 4.890625 17.1875 
L 4.890625 26.703125 
z
" id="DejaVuSans-34"/>
     </defs>
     <g transform="translate(308.245028 476.66)scale(0.1 -0.1)">
      <use xlink:href="#DejaVuSans-4d"/>
      <use x="86.279297" xlink:href="#DejaVuSans-5f"/>
      <use x="136.279297" xlink:href="#DejaVuSans-31"/>
      <use x="199.902344" xlink:href="#DejaVuSans-34"/>
      <use x="263.525391" xlink:href="#DejaVuSans-35"/>
      <use x="327.148438" xlink:href="#DejaVuSans-30"/>
     </g>
    </g>
   </g>
   <g id="matplotlib.axis_2">
    <g id="ytick_1">
     <g id="line2d_19">
      <path clip-path="url(#pe8516be864)" d="M 90 420.567471 
L 565.568182 420.567471 
" style="fill:none;stroke:#b0b0b0;stroke-linecap:square;stroke-width:0.8;"/>
     </g>
     <g id="line2d_20">
      <defs>
       <path d="M 0 0 
L -3.5 0 
" id="mcf9ca8ab94" style="stroke:#000000;stroke-width:0.8;"/>
      </defs>
      <g>
       <use style="stroke:#000000;stroke-width:0.8;" x="90" xlink:href="#mcf9ca8ab94" y="420.567471"/>
      </g>
     </g>
     <g id="text_11">
      <!-- $\mathdefault{10^{-12}}$ -->
      <g transform="translate(55.1 424.36669)scale(0.1 -0.1)">
       <use transform="translate(0 0.765625)" xlink:href="#DejaVuSans-31"/>
       <use transform="translate(63.623047 0.765625)" xlink:href="#DejaVuSans-30"/>
       <use transform="translate(128.203125 39.046875)scale(0.7)" xlink:href="#DejaVuSans-2212"/>
       <use transform="translate(186.855469 39.046875)scale(0.7)" xlink:href="#DejaVuSans-31"/>
       <use transform="translate(231.391602 39.046875)scale(0.7)" xlink:href="#DejaVuSans-32"/>
      </g>
     </g>
    </g>
    <g id="ytick_2">
     <g id="line2d_21">
      <path clip-path="url(#pe8516be864)" d="M 90 354.742934 
L 565.568182 354.742934 
" style="fill:none;stroke:#b0b0b0;stroke-linecap:square;stroke-width:0.8;"/>
     </g>
     <g id="line2d_22">
      <g>
       <use style="stroke:#000000;stroke-width:0.8;" x="90" xlink:href="#mcf9ca8ab94" y="354.742934"/>
      </g>
     </g>
     <g id="text_12">
      <!-- $\mathdefault{10^{-11}}$ -->
      <g transform="translate(55.1 358.542153)scale(0.1 -0.1)">
       <use transform="translate(0 0.684375)" xlink:href="#DejaVuSans-31"/>
       <use transform="translate(63.623047 0.684375)" xlink:href="#DejaVuSans-30"/>
       <use transform="translate(128.203125 38.965625)scale(0.7)" xlink:href="#DejaVuSans-2212"/>
       <use transform="translate(186.855469 38.965625)scale(0.7)" xlink:href="#DejaVuSans-31"/>
       <use transform="translate(231.391602 38.965625)scale(0.7)" xlink:href="#DejaVuSans-31"/>
      </g>
     </g>
    </g>
    <g id="ytick_3">
     <g id="line2d_23">
      <path clip-path="url(#pe8516be864)" d="M 90 288.918398 
L 565.568182 288.918398 
" style="fill:none;stroke:#b0b0b0;stroke-linecap:square;stroke-width:0.8;"/>
     </g>
     <g id="line2d_24">
      <g>
       <use style="stroke:#000000;stroke-width:0.8;" x="90" xlink:href="#mcf9ca8ab94" y="288.918398"/>
      </g>
     </g>
     <g id="text_13">
      <!-- $\mathdefault{10^{-10}}$ -->
      <g transform="translate(55.1 292.717616)scale(0.1 -0.1)">
       <use transform="translate(0 0.765625)" xlink:href="#DejaVuSans-31"/>
       <use transform="translate(63.623047 0.765625)" xlink:href="#DejaVuSans-30"/>
       <use transform="translate(128.203125 39.046875)scale(0.7)" xlink:href="#DejaVuSans-2212"/>
       <use transform="translate(186.855469 39.046875)scale(0.7)" xlink:href="#DejaVuSans-31"/>
       <use transform="translate(231.391602 39.046875)scale(0.7)" xlink:href="#DejaVuSans-30"/>
      </g>
     </g>
    </g>
    <g id="ytick_4">
     <g id="line2d_25">
      <path clip-path="url(#pe8516be864)" d="M 90 223.093861 
L 565.568182 223.093861 
" style="fill:none;stroke:#b0b0b0;stroke-linecap:square;stroke-width:0.8;"/>
     </g>
     <g id="line2d_26">
      <g>
       <use style="stroke:#000000;stroke-width:0.8;" x="90" xlink:href="#mcf9ca8ab94" y="223.093861"/>
      </g>
     </g>
     <g id="text_14">
      <!-- $\mathdefault{10^{-9}}$ -->
      <g transform="translate(59.5 226.89308)scale(0.1 -0.1)">
       <use transform="translate(0 0.765625)" xlink:href="#DejaVuSans-31"/>
       <use transform="translate(63.623047 0.765625)" xlink:href="#DejaVuSans-30"/>
       <use transform="translate(128.203125 39.046875)scale(0.7)" xlink:href="#DejaVuSans-2212"/>
       <use transform="translate(186.855469 39.046875)scale(0.7)" xlink:href="#DejaVuSans-39"/>
      </g>
     </g>
    </g>
    <g id="ytick_5">
     <g id="line2d_27">
      <path clip-path="url(#pe8516be864)" d="M 90 157.269324 
L 565.568182 157.269324 
" style="fill:none;stroke:#b0b0b0;stroke-linecap:square;stroke-width:0.8;"/>
     </g>
     <g id="line2d_28">
      <g>
       <use style="stroke:#000000;stroke-width:0.8;" x="90" xlink:href="#mcf9ca8ab94" y="157.269324"/>
      </g>
     </g>
     <g id="text_15">
      <!-- $\mathdefault{10^{-8}}$ -->
      <g transform="translate(59.5 161.068543)scale(0.1 -0.1)">
       <use transform="translate(0 0.765625)" xlink:href="#DejaVuSans-31"/>
       <use transform="translate(63.623047 0.765625)" xlink:href="#DejaVuSans-30"/>
       <use transform="translate(128.203125 39.046875)scale(0.7)" xlink:href="#DejaVuSans-2212"/>
       <use transform="translate(186.855469 39.046875)scale(0.7)" xlink:href="#DejaVuSans-38"/>
      </g>
     </g>
    </g>
    <g id="ytick_6">
     <g id="line2d_29">
      <path clip-path="url(#pe8516be864)" d="M 90 91.444787 
L 565.568182 91.444787 
" style="fill:none;stroke:#b0b0b0;stroke-linecap:square;stroke-width:0.8;"/>
     </g>
     <g id="line2d_30">
      <g>
       <use style="stroke:#000000;stroke-width:0.8;" x="90" xlink:href="#mcf9ca8ab94" y="91.444787"/>
      </g>
     </g>
     <g id="text_16">
      <!-- $\mathdefault{10^{-7}}$ -->
      <g transform="translate(59.5 95.244006)scale(0.1 -0.1)">
       <use transform="translate(0 0.684375)" xlink:href="#DejaVuSans-31"/>
       <use transform="translate(63.623047 0.684375)" xlink:href="#DejaVuSans-30"/>
       <use transform="translate(128.203125 38.965625)scale(0.7)" xlink:href="#DejaVuSans-2212"/>
       <use transform="translate(186.855469 38.965625)scale(0.7)" xlink:href="#DejaVuSans-37"/>
      </g>
     </g>
    </g>
    <g id="ytick_7">
     <g id="line2d_31">
      <defs>
       <path d="M 0 0 
L -2 0 
" id="m6608c11ff4" style="stroke:#000000;stroke-width:0.6;"/>
      </defs>
      <g>
       <use style="stroke:#000000;stroke-width:0.6;" x="90" xlink:href="#m6608c11ff4" y="446.761688"/>
      </g>
     </g>
    </g>
    <g id="ytick_8">
     <g id="line2d_32">
      <g>
       <use style="stroke:#000000;stroke-width:0.6;" x="90" xlink:href="#m6608c11ff4" y="440.382631"/>
      </g>
     </g>
    </g>
    <g id="ytick_9">
     <g id="line2d_33">
      <g>
       <use style="stroke:#000000;stroke-width:0.6;" x="90" xlink:href="#m6608c11ff4" y="435.170562"/>
      </g>
     </g>
    </g>
    <g id="ytick_10">
     <g id="line2d_34">
      <g>
       <use style="stroke:#000000;stroke-width:0.6;" x="90" xlink:href="#m6608c11ff4" y="430.763821"/>
      </g>
     </g>
    </g>
    <g id="ytick_11">
     <g id="line2d_35">
      <g>
       <use style="stroke:#000000;stroke-width:0.6;" x="90" xlink:href="#m6608c11ff4" y="426.946528"/>
      </g>
     </g>
    </g>
    <g id="ytick_12">
     <g id="line2d_36">
      <g>
       <use style="stroke:#000000;stroke-width:0.6;" x="90" xlink:href="#m6608c11ff4" y="423.579437"/>
      </g>
     </g>
    </g>
    <g id="ytick_13">
     <g id="line2d_37">
      <g>
       <use style="stroke:#000000;stroke-width:0.6;" x="90" xlink:href="#m6608c11ff4" y="400.752311"/>
      </g>
     </g>
    </g>
    <g id="ytick_14">
     <g id="line2d_38">
      <g>
       <use style="stroke:#000000;stroke-width:0.6;" x="90" xlink:href="#m6608c11ff4" y="389.161186"/>
      </g>
     </g>
    </g>
    <g id="ytick_15">
     <g id="line2d_39">
      <g>
       <use style="stroke:#000000;stroke-width:0.6;" x="90" xlink:href="#m6608c11ff4" y="380.937151"/>
      </g>
     </g>
    </g>
    <g id="ytick_16">
     <g id="line2d_40">
      <g>
       <use style="stroke:#000000;stroke-width:0.6;" x="90" xlink:href="#m6608c11ff4" y="374.558094"/>
      </g>
     </g>
    </g>
    <g id="ytick_17">
     <g id="line2d_41">
      <g>
       <use style="stroke:#000000;stroke-width:0.6;" x="90" xlink:href="#m6608c11ff4" y="369.346026"/>
      </g>
     </g>
    </g>
    <g id="ytick_18">
     <g id="line2d_42">
      <g>
       <use style="stroke:#000000;stroke-width:0.6;" x="90" xlink:href="#m6608c11ff4" y="364.939284"/>
      </g>
     </g>
    </g>
    <g id="ytick_19">
     <g id="line2d_43">
      <g>
       <use style="stroke:#000000;stroke-width:0.6;" x="90" xlink:href="#m6608c11ff4" y="361.121991"/>
      </g>
     </g>
    </g>
    <g id="ytick_20">
     <g id="line2d_44">
      <g>
       <use style="stroke:#000000;stroke-width:0.6;" x="90" xlink:href="#m6608c11ff4" y="357.7549"/>
      </g>
     </g>
    </g>
    <g id="ytick_21">
     <g id="line2d_45">
      <g>
       <use style="stroke:#000000;stroke-width:0.6;" x="90" xlink:href="#m6608c11ff4" y="334.927774"/>
      </g>
     </g>
    </g>
    <g id="ytick_22">
     <g id="line2d_46">
      <g>
       <use style="stroke:#000000;stroke-width:0.6;" x="90" xlink:href="#m6608c11ff4" y="323.336649"/>
      </g>
     </g>
    </g>
    <g id="ytick_23">
     <g id="line2d_47">
      <g>
       <use style="stroke:#000000;stroke-width:0.6;" x="90" xlink:href="#m6608c11ff4" y="315.112614"/>
      </g>
     </g>
    </g>
    <g id="ytick_24">
     <g id="line2d_48">
      <g>
       <use style="stroke:#000000;stroke-width:0.6;" x="90" xlink:href="#m6608c11ff4" y="308.733558"/>
      </g>
     </g>
    </g>
    <g id="ytick_25">
     <g id="line2d_49">
      <g>
       <use style="stroke:#000000;stroke-width:0.6;" x="90" xlink:href="#m6608c11ff4" y="303.521489"/>
      </g>
     </g>
    </g>
    <g id="ytick_26">
     <g id="line2d_50">
      <g>
       <use style="stroke:#000000;stroke-width:0.6;" x="90" xlink:href="#m6608c11ff4" y="299.114747"/>
      </g>
     </g>
    </g>
    <g id="ytick_27">
     <g id="line2d_51">
      <g>
       <use style="stroke:#000000;stroke-width:0.6;" x="90" xlink:href="#m6608c11ff4" y="295.297454"/>
      </g>
     </g>
    </g>
    <g id="ytick_28">
     <g id="line2d_52">
      <g>
       <use style="stroke:#000000;stroke-width:0.6;" x="90" xlink:href="#m6608c11ff4" y="291.930363"/>
      </g>
     </g>
    </g>
    <g id="ytick_29">
     <g id="line2d_53">
      <g>
       <use style="stroke:#000000;stroke-width:0.6;" x="90" xlink:href="#m6608c11ff4" y="269.103238"/>
      </g>
     </g>
    </g>
    <g id="ytick_30">
     <g id="line2d_54">
      <g>
       <use style="stroke:#000000;stroke-width:0.6;" x="90" xlink:href="#m6608c11ff4" y="257.512112"/>
      </g>
     </g>
    </g>
    <g id="ytick_31">
     <g id="line2d_55">
      <g>
       <use style="stroke:#000000;stroke-width:0.6;" x="90" xlink:href="#m6608c11ff4" y="249.288078"/>
      </g>
     </g>
    </g>
    <g id="ytick_32">
     <g id="line2d_56">
      <g>
       <use style="stroke:#000000;stroke-width:0.6;" x="90" xlink:href="#m6608c11ff4" y="242.909021"/>
      </g>
     </g>
    </g>
    <g id="ytick_33">
     <g id="line2d_57">
      <g>
       <use style="stroke:#000000;stroke-width:0.6;" x="90" xlink:href="#m6608c11ff4" y="237.696952"/>
      </g>
     </g>
    </g>
    <g id="ytick_34">
     <g id="line2d_58">
      <g>
       <use style="stroke:#000000;stroke-width:0.6;" x="90" xlink:href="#m6608c11ff4" y="233.290211"/>
      </g>
     </g>
    </g>
    <g id="ytick_35">
     <g id="line2d_59">
      <g>
       <use style="stroke:#000000;stroke-width:0.6;" x="90" xlink:href="#m6608c11ff4" y="229.472918"/>
      </g>
     </g>
    </g>
    <g id="ytick_36">
     <g id="line2d_60">
      <g>
       <use style="stroke:#000000;stroke-width:0.6;" x="90" xlink:href="#m6608c11ff4" y="226.105827"/>
      </g>
     </g>
    </g>
    <g id="ytick_37">
     <g id="line2d_61">
      <g>
       <use style="stroke:#000000;stroke-width:0.6;" x="90" xlink:href="#m6608c11ff4" y="203.278701"/>
      </g>
     </g>
    </g>
    <g id="ytick_38">
     <g id="line2d_62">
      <g>
       <use style="stroke:#000000;stroke-width:0.6;" x="90" xlink:href="#m6608c11ff4" y="191.687575"/>
      </g>
     </g>
    </g>
    <g id="ytick_39">
     <g id="line2d_63">
      <g>
       <use style="stroke:#000000;stroke-width:0.6;" x="90" xlink:href="#m6608c11ff4" y="183.463541"/>
      </g>
     </g>
    </g>
    <g id="ytick_40">
     <g id="line2d_64">
      <g>
       <use style="stroke:#000000;stroke-width:0.6;" x="90" xlink:href="#m6608c11ff4" y="177.084484"/>
      </g>
     </g>
    </g>
    <g id="ytick_41">
     <g id="line2d_65">
      <g>
       <use style="stroke:#000000;stroke-width:0.6;" x="90" xlink:href="#m6608c11ff4" y="171.872415"/>
      </g>
     </g>
    </g>
    <g id="ytick_42">
     <g id="line2d_66">
      <g>
       <use style="stroke:#000000;stroke-width:0.6;" x="90" xlink:href="#m6608c11ff4" y="167.465674"/>
      </g>
     </g>
    </g>
    <g id="ytick_43">
     <g id="line2d_67">
      <g>
       <use style="stroke:#000000;stroke-width:0.6;" x="90" xlink:href="#m6608c11ff4" y="163.648381"/>
      </g>
     </g>
    </g>
    <g id="ytick_44">
     <g id="line2d_68">
      <g>
       <use style="stroke:#000000;stroke-width:0.6;" x="90" xlink:href="#m6608c11ff4" y="160.28129"/>
      </g>
     </g>
    </g>
    <g id="ytick_45">
     <g id="line2d_69">
      <g>
       <use style="stroke:#000000;stroke-width:0.6;" x="90" xlink:href="#m6608c11ff4" y="137.454164"/>
      </g>
     </g>
    </g>
    <g id="ytick_46">
     <g id="line2d_70">
      <g>
       <use style="stroke:#000000;stroke-width:0.6;" x="90" xlink:href="#m6608c11ff4" y="125.863039"/>
      </g>
     </g>
    </g>
    <g id="ytick_47">
     <g id="line2d_71">
      <g>
       <use style="stroke:#000000;stroke-width:0.6;" x="90" xlink:href="#m6608c11ff4" y="117.639004"/>
      </g>
     </g>
    </g>
    <g id="ytick_48">
     <g id="line2d_72">
      <g>
       <use style="stroke:#000000;stroke-width:0.6;" x="90" xlink:href="#m6608c11ff4" y="111.259947"/>
      </g>
     </g>
    </g>
    <g id="ytick_49">
     <g id="line2d_73">
      <g>
       <use style="stroke:#000000;stroke-width:0.6;" x="90" xlink:href="#m6608c11ff4" y="106.047879"/>
      </g>
     </g>
    </g>
    <g id="ytick_50">
     <g id="line2d_74">
      <g>
       <use style="stroke:#000000;stroke-width:0.6;" x="90" xlink:href="#m6608c11ff4" y="101.641137"/>
      </g>
     </g>
    </g>
    <g id="ytick_51">
     <g id="line2d_75">
      <g>
       <use style="stroke:#000000;stroke-width:0.6;" x="90" xlink:href="#m6608c11ff4" y="97.823844"/>
      </g>
     </g>
    </g>
    <g id="ytick_52">
     <g id="line2d_76">
      <g>
       <use style="stroke:#000000;stroke-width:0.6;" x="90" xlink:href="#m6608c11ff4" y="94.456753"/>
      </g>
     </g>
    </g>
    <g id="ytick_53">
     <g id="line2d_77">
      <g>
       <use style="stroke:#000000;stroke-width:0.6;" x="90" xlink:href="#m6608c11ff4" y="71.629627"/>
      </g>
     </g>
    </g>
    <g id="ytick_54">
     <g id="line2d_78">
      <g>
       <use style="stroke:#000000;stroke-width:0.6;" x="90" xlink:href="#m6608c11ff4" y="60.038502"/>
      </g>
     </g>
    </g>
    <g id="text_17">
     <!-- Phi(M_1450) (Mpc^-3 mag^-1) -->
     <defs>
      <path d="M 19.671875 64.796875 
L 19.671875 37.40625 
L 32.078125 37.40625 
Q 38.96875 37.40625 42.71875 40.96875 
Q 46.484375 44.53125 46.484375 51.125 
Q 46.484375 57.671875 42.71875 61.234375 
Q 38.96875 64.796875 32.078125 64.796875 
z
M 9.8125 72.90625 
L 32.078125 72.90625 
Q 44.34375 72.90625 50.609375 67.359375 
Q 56.890625 61.8125 56.890625 51.125 
Q 56.890625 40.328125 50.609375 34.8125 
Q 44.34375 29.296875 32.078125 29.296875 
L 19.671875 29.296875 
L 19.671875 0 
L 9.8125 0 
z
" id="DejaVuSans-50"/>
      <path d="M 54.890625 33.015625 
L 54.890625 0 
L 45.90625 0 
L 45.90625 32.71875 
Q 45.90625 40.484375 42.875 44.328125 
Q 39.84375 48.1875 33.796875 48.1875 
Q 26.515625 48.1875 22.3125 43.546875 
Q 18.109375 38.921875 18.109375 30.90625 
L 18.109375 0 
L 9.078125 0 
L 9.078125 75.984375 
L 18.109375 75.984375 
L 18.109375 46.1875 
Q 21.34375 51.125 25.703125 53.5625 
Q 30.078125 56 35.796875 56 
Q 45.21875 56 50.046875 50.171875 
Q 54.890625 44.34375 54.890625 33.015625 
z
" id="DejaVuSans-68"/>
      <path d="M 9.421875 54.6875 
L 18.40625 54.6875 
L 18.40625 0 
L 9.421875 0 
z
M 9.421875 75.984375 
L 18.40625 75.984375 
L 18.40625 64.59375 
L 9.421875 64.59375 
z
" id="DejaVuSans-69"/>
      <path d="M 31 75.875 
Q 24.46875 64.65625 21.28125 53.65625 
Q 18.109375 42.671875 18.109375 31.390625 
Q 18.109375 20.125 21.3125 9.0625 
Q 24.515625 -2 31 -13.1875 
L 23.1875 -13.1875 
Q 15.875 -1.703125 12.234375 9.375 
Q 8.59375 20.453125 8.59375 31.390625 
Q 8.59375 42.28125 12.203125 53.3125 
Q 15.828125 64.359375 23.1875 75.875 
z
" id="DejaVuSans-28"/>
      <path d="M 8.015625 75.875 
L 15.828125 75.875 
Q 23.140625 64.359375 26.78125 53.3125 
Q 30.421875 42.28125 30.421875 31.390625 
Q 30.421875 20.453125 26.78125 9.375 
Q 23.140625 -1.703125 15.828125 -13.1875 
L 8.015625 -13.1875 
Q 14.5 -2 17.703125 9.0625 
Q 20.90625 20.125 20.90625 31.390625 
Q 20.90625 42.671875 17.703125 53.65625 
Q 14.5 64.65625 8.015625 75.875 
z
" id="DejaVuSans-29"/>
      <path id="DejaVuSans-20"/>
      <path d="M 18.109375 8.203125 
L 18.109375 -20.796875 
L 9.078125 -20.796875 
L 9.078125 54.6875 
L 18.109375 54.6875 
L 18.109375 46.390625 
Q 20.953125 51.265625 25.265625 53.625 
Q 29.59375 56 35.59375 56 
Q 45.5625 56 51.78125 48.09375 
Q 58.015625 40.1875 58.015625 27.296875 
Q 58.015625 14.40625 51.78125 6.484375 
Q 45.5625 -1.421875 35.59375 -1.421875 
Q 29.59375 -1.421875 25.265625 0.953125 
Q 20.953125 3.328125 18.109375 8.203125 
z
M 48.6875 27.296875 
Q 48.6875 37.203125 44.609375 42.84375 
Q 40.53125 48.484375 33.40625 48.484375 
Q 26.265625 48.484375 22.1875 42.84375 
Q 18.109375 37.203125 18.109375 27.296875 
Q 18.109375 17.390625 22.1875 11.75 
Q 26.265625 6.109375 33.40625 6.109375 
Q 40.53125 6.109375 44.609375 11.75 
Q 48.6875 17.390625 48.6875 27.296875 
z
" id="DejaVuSans-70"/>
      <path d="M 48.78125 52.59375 
L 48.78125 44.1875 
Q 44.96875 46.296875 41.140625 47.34375 
Q 37.3125 48.390625 33.40625 48.390625 
Q 24.65625 48.390625 19.8125 42.84375 
Q 14.984375 37.3125 14.984375 27.296875 
Q 14.984375 17.28125 19.8125 11.734375 
Q 24.65625 6.203125 33.40625 6.203125 
Q 37.3125 6.203125 41.140625 7.25 
Q 44.96875 8.296875 48.78125 10.40625 
L 48.78125 2.09375 
Q 45.015625 0.34375 40.984375 -0.53125 
Q 36.96875 -1.421875 32.421875 -1.421875 
Q 20.0625 -1.421875 12.78125 6.34375 
Q 5.515625 14.109375 5.515625 27.296875 
Q 5.515625 40.671875 12.859375 48.328125 
Q 20.21875 56 33.015625 56 
Q 37.15625 56 41.109375 55.140625 
Q 45.0625 54.296875 48.78125 52.59375 
z
" id="DejaVuSans-63"/>
      <path d="M 46.6875 72.90625 
L 73.1875 45.703125 
L 63.375 45.703125 
L 41.890625 64.984375 
L 20.40625 45.703125 
L 10.59375 45.703125 
L 37.109375 72.90625 
z
" id="DejaVuSans-5e"/>
      <path d="M 4.890625 31.390625 
L 31.203125 31.390625 
L 31.203125 23.390625 
L 4.890625 23.390625 
z
" id="DejaVuSans-2d"/>
      <path d="M 40.578125 39.3125 
Q 47.65625 37.796875 51.625 33 
Q 55.609375 28.21875 55.609375 21.1875 
Q 55.609375 10.40625 48.1875 4.484375 
Q 40.765625 -1.421875 27.09375 -1.421875 
Q 22.515625 -1.421875 17.65625 -0.515625 
Q 12.796875 0.390625 7.625 2.203125 
L 7.625 11.71875 
Q 11.71875 9.328125 16.59375 8.109375 
Q 21.484375 6.890625 26.8125 6.890625 
Q 36.078125 6.890625 40.9375 10.546875 
Q 45.796875 14.203125 45.796875 21.1875 
Q 45.796875 27.640625 41.28125 31.265625 
Q 36.765625 34.90625 28.71875 34.90625 
L 20.21875 34.90625 
L 20.21875 43.015625 
L 29.109375 43.015625 
Q 36.375 43.015625 40.234375 45.921875 
Q 44.09375 48.828125 44.09375 54.296875 
Q 44.09375 59.90625 40.109375 62.90625 
Q 36.140625 65.921875 28.71875 65.921875 
Q 24.65625 65.921875 20.015625 65.03125 
Q 15.375 64.15625 9.8125 62.3125 
L 9.8125 71.09375 
Q 15.4375 72.65625 20.34375 73.4375 
Q 25.25 74.21875 29.59375 74.21875 
Q 40.828125 74.21875 47.359375 69.109375 
Q 53.90625 64.015625 53.90625 55.328125 
Q 53.90625 49.265625 50.4375 45.09375 
Q 46.96875 40.921875 40.578125 39.3125 
z
" id="DejaVuSans-33"/>
      <path d="M 52 44.1875 
Q 55.375 50.25 60.0625 53.125 
Q 64.75 56 71.09375 56 
Q 79.640625 56 84.28125 50.015625 
Q 88.921875 44.046875 88.921875 33.015625 
L 88.921875 0 
L 79.890625 0 
L 79.890625 32.71875 
Q 79.890625 40.578125 77.09375 44.375 
Q 74.3125 48.1875 68.609375 48.1875 
Q 61.625 48.1875 57.5625 43.546875 
Q 53.515625 38.921875 53.515625 30.90625 
L 53.515625 0 
L 44.484375 0 
L 44.484375 32.71875 
Q 44.484375 40.625 41.703125 44.40625 
Q 38.921875 48.1875 33.109375 48.1875 
Q 26.21875 48.1875 22.15625 43.53125 
Q 18.109375 38.875 18.109375 30.90625 
L 18.109375 0 
L 9.078125 0 
L 9.078125 54.6875 
L 18.109375 54.6875 
L 18.109375 46.1875 
Q 21.1875 51.21875 25.484375 53.609375 
Q 29.78125 56 35.6875 56 
Q 41.65625 56 45.828125 52.96875 
Q 50 49.953125 52 44.1875 
z
" id="DejaVuSans-6d"/>
      <path d="M 34.28125 27.484375 
Q 23.390625 27.484375 19.1875 25 
Q 14.984375 22.515625 14.984375 16.5 
Q 14.984375 11.71875 18.140625 8.90625 
Q 21.296875 6.109375 26.703125 6.109375 
Q 34.1875 6.109375 38.703125 11.40625 
Q 43.21875 16.703125 43.21875 25.484375 
L 43.21875 27.484375 
z
M 52.203125 31.203125 
L 52.203125 0 
L 43.21875 0 
L 43.21875 8.296875 
Q 40.140625 3.328125 35.546875 0.953125 
Q 30.953125 -1.421875 24.3125 -1.421875 
Q 15.921875 -1.421875 10.953125 3.296875 
Q 6 8.015625 6 15.921875 
Q 6 25.140625 12.171875 29.828125 
Q 18.359375 34.515625 30.609375 34.515625 
L 43.21875 34.515625 
L 43.21875 35.40625 
Q 43.21875 41.609375 39.140625 45 
Q 35.0625 48.390625 27.6875 48.390625 
Q 23 48.390625 18.546875 47.265625 
Q 14.109375 46.140625 10.015625 43.890625 
L 10.015625 52.203125 
Q 14.9375 54.109375 19.578125 55.046875 
Q 24.21875 56 28.609375 56 
Q 40.484375 56 46.34375 49.84375 
Q 52.203125 43.703125 52.203125 31.203125 
z
" id="DejaVuSans-61"/>
      <path d="M 45.40625 27.984375 
Q 45.40625 37.75 41.375 43.109375 
Q 37.359375 48.484375 30.078125 48.484375 
Q 22.859375 48.484375 18.828125 43.109375 
Q 14.796875 37.75 14.796875 27.984375 
Q 14.796875 18.265625 18.828125 12.890625 
Q 22.859375 7.515625 30.078125 7.515625 
Q 37.359375 7.515625 41.375 12.890625 
Q 45.40625 18.265625 45.40625 27.984375 
z
M 54.390625 6.78125 
Q 54.390625 -7.171875 48.1875 -13.984375 
Q 42 -20.796875 29.203125 -20.796875 
Q 24.46875 -20.796875 20.265625 -20.09375 
Q 16.0625 -19.390625 12.109375 -17.921875 
L 12.109375 -9.1875 
Q 16.0625 -11.328125 19.921875 -12.34375 
Q 23.78125 -13.375 27.78125 -13.375 
Q 36.625 -13.375 41.015625 -8.765625 
Q 45.40625 -4.15625 45.40625 5.171875 
L 45.40625 9.625 
Q 42.625 4.78125 38.28125 2.390625 
Q 33.9375 0 27.875 0 
Q 17.828125 0 11.671875 7.65625 
Q 5.515625 15.328125 5.515625 27.984375 
Q 5.515625 40.671875 11.671875 48.328125 
Q 17.828125 56 27.875 56 
Q 33.9375 56 38.28125 53.609375 
Q 42.625 51.21875 45.40625 46.390625 
L 45.40625 54.6875 
L 54.390625 54.6875 
z
" id="DejaVuSans-67"/>
     </defs>
     <g transform="translate(48.742187 332.309062)rotate(-90)scale(0.1 -0.1)">
      <use xlink:href="#DejaVuSans-50"/>
      <use x="60.302734" xlink:href="#DejaVuSans-68"/>
      <use x="123.681641" xlink:href="#DejaVuSans-69"/>
      <use x="151.464844" xlink:href="#DejaVuSans-28"/>
      <use x="190.478516" xlink:href="#DejaVuSans-4d"/>
      <use x="276.757812" xlink:href="#DejaVuSans-5f"/>
      <use x="326.757812" xlink:href="#DejaVuSans-31"/>
      <use x="390.380859" xlink:href="#DejaVuSans-34"/>
      <use x="454.003906" xlink:href="#DejaVuSans-35"/>
      <use x="517.626953" xlink:href="#DejaVuSans-30"/>
      <use x="581.25" xlink:href="#DejaVuSans-29"/>
      <use x="620.263672" xlink:href="#DejaVuSans-20"/>
      <use x="652.050781" xlink:href="#DejaVuSans-28"/>
      <use x="691.064453" xlink:href="#DejaVuSans-4d"/>
      <use x="777.34375" xlink:href="#DejaVuSans-70"/>
      <use x="840.820312" xlink:href="#DejaVuSans-63"/>
      <use x="895.800781" xlink:href="#DejaVuSans-5e"/>
      <use x="979.589844" xlink:href="#DejaVuSans-2d"/>
      <use x="1015.673828" xlink:href="#DejaVuSans-33"/>
      <use x="1079.296875" xlink:href="#DejaVuSans-20"/>
      <use x="1111.083984" xlink:href="#DejaVuSans-6d"/>
      <use x="1208.496094" xlink:href="#DejaVuSans-61"/>
      <use x="1269.775391" xlink:href="#DejaVuSans-67"/>
      <use x="1333.251953" xlink:href="#DejaVuSans-5e"/>
      <use x="1417.041016" xlink:href="#DejaVuSans-2d"/>
      <use x="1453.125" xlink:href="#DejaVuSans-31"/>
      <use x="1516.748047" xlink:href="#DejaVuSans-29"/>
     </g>
    </g>
   </g>
   <g id="line2d_79">
    <path clip-path="url(#pe8516be864)" d="M 90 107.598088 
L 99.705473 110.004956 
L 109.410946 112.481069 
L 119.116419 115.026459 
L 128.821892 117.640821 
L 138.527365 120.323523 
L 148.232839 123.073616 
L 157.938312 125.889852 
L 167.643785 128.770705 
L 177.349258 131.714402 
L 187.054731 134.71895 
L 196.760204 137.782168 
L 206.465677 140.901724 
L 216.17115 144.075163 
L 225.876623 147.299946 
L 235.582096 150.573477 
L 245.28757 153.893133 
L 254.993043 157.256292 
L 264.698516 160.660357 
L 274.403989 164.102776 
L 284.109462 167.581059 
L 293.814935 171.092794 
L 303.520408 174.635658 
L 313.225881 178.207427 
L 322.931354 181.805981 
L 332.636827 185.429308 
L 342.342301 189.07551 
L 352.047774 192.742799 
L 361.753247 196.429497 
L 371.45872 200.134038 
L 381.164193 203.854959 
L 390.869666 207.590901 
L 400.575139 211.340603 
L 410.280612 215.1029 
L 419.986085 218.876711 
L 429.691558 222.661043 
L 439.397032 226.454979 
L 449.102505 230.257679 
L 458.807978 234.068369 
L 468.513451 237.88634 
L 478.218924 241.710942 
L 487.924397 245.541582 
L 497.62987 249.377716 
L 507.335343 253.218848 
L 517.040816 257.064525 
L 526.746289 260.914333 
L 536.451763 264.767895 
L 546.157236 268.624868 
L 555.862709 272.48494 
L 565.568182 276.347825 
" style="fill:none;stroke:#0000ff;stroke-linecap:square;stroke-width:1.5;"/>
   </g>
   <g id="line2d_80">
    <path clip-path="url(#pe8516be864)" d="M 90 78.12 
L 99.705473 80.957938 
L 109.410946 83.828516 
L 119.116419 86.731806 
L 128.821892 89.667802 
L 138.527365 92.636427 
L 148.232839 95.637528 
L 157.938312 98.670881 
L 167.643785 101.736189 
L 177.349258 104.833089 
L 187.054731 107.961153 
L 196.760204 111.119892 
L 206.465677 114.308757 
L 216.17115 117.527152 
L 225.876623 120.774428 
L 235.582096 124.049897 
L 245.28757 127.35283 
L 254.993043 130.682469 
L 264.698516 134.038024 
L 274.403989 137.418688 
L 284.109462 140.823632 
L 293.814935 144.252016 
L 303.520408 147.702994 
L 313.225881 151.175714 
L 322.931354 154.669324 
L 332.636827 158.182977 
L 342.342301 161.715833 
L 352.047774 165.267064 
L 361.753247 168.835853 
L 371.45872 172.421399 
L 381.164193 176.022921 
L 390.869666 179.639654 
L 400.575139 183.270857 
L 410.280612 186.915809 
L 419.986085 190.573815 
L 429.691558 194.244202 
L 439.397032 197.926321 
L 449.102505 201.619549 
L 458.807978 205.323288 
L 468.513451 209.036965 
L 478.218924 212.76003 
L 487.924397 216.491959 
L 497.62987 220.232253 
L 507.335343 223.980434 
L 517.040816 227.73605 
L 526.746289 231.498668 
L 536.451763 235.26788 
L 546.157236 239.043298 
L 555.862709 242.824553 
L 565.568182 246.611297 
" style="fill:none;stroke:#0000ff;stroke-dasharray:5.55,2.4;stroke-dashoffset:0;stroke-width:1.5;"/>
   </g>
   <g id="line2d_81">
    <path clip-path="url(#pe8516be864)" d="M 90 138.53562 
L 99.705473 140.942488 
L 109.410946 143.418602 
L 119.116419 145.963991 
L 128.821892 148.578354 
L 138.527365 151.261056 
L 148.232839 154.011149 
L 157.938312 156.827384 
L 167.643785 159.708237 
L 177.349258 162.651934 
L 187.054731 165.656482 
L 196.760204 168.7197 
L 206.465677 171.839256 
L 216.17115 175.012696 
L 225.876623 178.237479 
L 235.582096 181.511009 
L 245.28757 184.830665 
L 254.993043 188.193824 
L 264.698516 191.59789 
L 274.403989 195.040308 
L 284.109462 198.518591 
L 293.814935 202.030326 
L 303.520408 205.57319 
L 313.225881 209.144959 
L 322.931354 212.743513 
L 332.636827 216.366841 
L 342.342301 220.013043 
L 352.047774 223.680331 
L 361.753247 227.36703 
L 371.45872 231.07157 
L 381.164193 234.792491 
L 390.869666 238.528433 
L 400.575139 242.278136 
L 410.280612 246.040432 
L 419.986085 249.814243 
L 429.691558 253.598575 
L 439.397032 257.392512 
L 449.102505 261.195211 
L 458.807978 265.005901 
L 468.513451 268.823872 
L 478.218924 272.648474 
L 487.924397 276.479115 
L 497.62987 280.315249 
L 507.335343 284.156381 
L 517.040816 288.002057 
L 526.746289 291.851865 
L 536.451763 295.705427 
L 546.157236 299.5624 
L 555.862709 303.422472 
L 565.568182 307.285357 
" style="fill:none;stroke:#4400bb;stroke-linecap:square;stroke-width:1.5;"/>
   </g>
   <g id="line2d_82">
    <path clip-path="url(#pe8516be864)" d="M 90 124.197176 
L 99.705473 127.035114 
L 109.410946 129.905692 
L 119.116419 132.808981 
L 128.821892 135.744978 
L 138.527365 138.713603 
L 148.232839 141.714704 
L 157.938312 144.748057 
L 167.643785 147.813365 
L 177.349258 150.910265 
L 187.054731 154.038329 
L 196.760204 157.197067 
L 206.465677 160.385933 
L 216.17115 163.604328 
L 225.876623 166.851604 
L 235.582096 170.127073 
L 245.28757 173.430006 
L 254.993043 176.759644 
L 264.698516 180.1152 
L 274.403989 183.495863 
L 284.109462 186.900807 
L 293.814935 190.329192 
L 303.520408 193.78017 
L 313.225881 197.25289 
L 322.931354 200.746499 
L 332.636827 204.260153 
L 342.342301 207.793009 
L 352.047774 211.34424 
L 361.753247 214.913029 
L 371.45872 218.498575 
L 381.164193 222.100096 
L 390.869666 225.71683 
L 400.575139 229.348032 
L 410.280612 232.992985 
L 419.986085 236.650991 
L 429.691558 240.321378 
L 439.397032 244.003497 
L 449.102505 247.696725 
L 458.807978 251.400464 
L 468.513451 255.114141 
L 478.218924 258.837206 
L 487.924397 262.569135 
L 497.62987 266.309429 
L 507.335343 270.05761 
L 517.040816 273.813225 
L 526.746289 277.575844 
L 536.451763 281.345056 
L 546.157236 285.120473 
L 555.862709 288.901729 
L 565.568182 292.688473 
" style="fill:none;stroke:#4400bb;stroke-dasharray:5.55,2.4;stroke-dashoffset:0;stroke-width:1.5;"/>
   </g>
   <g id="line2d_83">
    <path clip-path="url(#pe8516be864)" d="M 90 169.473152 
L 99.705473 171.88002 
L 109.410946 174.356134 
L 119.116419 176.901524 
L 128.821892 179.515886 
L 138.527365 182.198588 
L 148.232839 184.948681 
L 157.938312 187.764916 
L 167.643785 190.645769 
L 177.349258 193.589466 
L 187.054731 196.594014 
L 196.760204 199.657233 
L 206.465677 202.776788 
L 216.17115 205.950228 
L 225.876623 209.175011 
L 235.582096 212.448542 
L 245.28757 215.768197 
L 254.993043 219.131357 
L 264.698516 222.535422 
L 274.403989 225.977841 
L 284.109462 229.456123 
L 293.814935 232.967858 
L 303.520408 236.510722 
L 313.225881 240.082491 
L 322.931354 243.681045 
L 332.636827 247.304373 
L 342.342301 250.950575 
L 352.047774 254.617863 
L 361.753247 258.304562 
L 371.45872 262.009102 
L 381.164193 265.730023 
L 390.869666 269.465965 
L 400.575139 273.215668 
L 410.280612 276.977964 
L 419.986085 280.751775 
L 429.691558 284.536107 
L 439.397032 288.330044 
L 449.102505 292.132744 
L 458.807978 295.943433 
L 468.513451 299.761404 
L 478.218924 303.586007 
L 487.924397 307.416647 
L 497.62987 311.252781 
L 507.335343 315.093913 
L 517.040816 318.939589 
L 526.746289 322.789397 
L 536.451763 326.642959 
L 546.157236 330.499933 
L 555.862709 334.360004 
L 565.568182 338.222889 
" style="fill:none;stroke:#880088;stroke-linecap:square;stroke-width:1.5;"/>
   </g>
   <g id="line2d_84">
    <path clip-path="url(#pe8516be864)" d="M 90 170.274351 
L 99.705473 173.11229 
L 109.410946 175.982868 
L 119.116419 178.886157 
L 128.821892 181.822153 
L 138.527365 184.790778 
L 148.232839 187.79188 
L 157.938312 190.825232 
L 167.643785 193.890541 
L 177.349258 196.987441 
L 187.054731 200.115505 
L 196.760204 203.274243 
L 206.465677 206.463109 
L 216.17115 209.681503 
L 225.876623 212.92878 
L 235.582096 216.204248 
L 245.28757 219.507182 
L 254.993043 222.83682 
L 264.698516 226.192376 
L 274.403989 229.573039 
L 284.109462 232.977983 
L 293.814935 236.406368 
L 303.520408 239.857346 
L 313.225881 243.330065 
L 322.931354 246.823675 
L 332.636827 250.337328 
L 342.342301 253.870185 
L 352.047774 257.421416 
L 361.753247 260.990204 
L 371.45872 264.575751 
L 381.164193 268.177272 
L 390.869666 271.794005 
L 400.575139 275.425208 
L 410.280612 279.070161 
L 419.986085 282.728167 
L 429.691558 286.398553 
L 439.397032 290.080672 
L 449.102505 293.773901 
L 458.807978 297.47764 
L 468.513451 301.191316 
L 478.218924 304.914381 
L 487.924397 308.646311 
L 497.62987 312.386604 
L 507.335343 316.134786 
L 517.040816 319.890401 
L 526.746289 323.653019 
L 536.451763 327.422232 
L 546.157236 331.197649 
L 555.862709 334.978904 
L 565.568182 338.765649 
" style="fill:none;stroke:#880088;stroke-dasharray:5.55,2.4;stroke-dashoffset:0;stroke-width:1.5;"/>
   </g>
   <g id="line2d_85">
    <path clip-path="url(#pe8516be864)" d="M 90 200.410684 
L 99.705473 202.817553 
L 109.410946 205.293666 
L 119.116419 207.839056 
L 128.821892 210.453418 
L 138.527365 213.13612 
L 148.232839 215.886213 
L 157.938312 218.702448 
L 167.643785 221.583302 
L 177.349258 224.526999 
L 187.054731 227.531546 
L 196.760204 230.594765 
L 206.465677 233.714321 
L 216.17115 236.88776 
L 225.876623 240.112543 
L 235.582096 243.386074 
L 245.28757 246.70573 
L 254.993043 250.068889 
L 264.698516 253.472954 
L 274.403989 256.915373 
L 284.109462 260.393656 
L 293.814935 263.905391 
L 303.520408 267.448255 
L 313.225881 271.020024 
L 322.931354 274.618577 
L 332.636827 278.241905 
L 342.342301 281.888107 
L 352.047774 285.555396 
L 361.753247 289.242094 
L 371.45872 292.946634 
L 381.164193 296.667555 
L 390.869666 300.403498 
L 400.575139 304.1532 
L 410.280612 307.915496 
L 419.986085 311.689308 
L 429.691558 315.473639 
L 439.397032 319.267576 
L 449.102505 323.070276 
L 458.807978 326.880966 
L 468.513451 330.698936 
L 478.218924 334.523539 
L 487.924397 338.354179 
L 497.62987 342.190313 
L 507.335343 346.031445 
L 517.040816 349.877122 
L 526.746289 353.726929 
L 536.451763 357.580492 
L 546.157236 361.437465 
L 555.862709 365.297536 
L 565.568182 369.160422 
" style="fill:none;stroke:#bb0044;stroke-linecap:square;stroke-width:1.5;"/>
   </g>
   <g id="line2d_86">
    <path clip-path="url(#pe8516be864)" d="M 90 216.351527 
L 99.705473 219.189465 
L 109.410946 222.060044 
L 119.116419 224.963333 
L 128.821892 227.899329 
L 138.527365 230.867954 
L 148.232839 233.869055 
L 157.938312 236.902408 
L 167.643785 239.967716 
L 177.349258 243.064617 
L 187.054731 246.192681 
L 196.760204 249.351419 
L 206.465677 252.540285 
L 216.17115 255.758679 
L 225.876623 259.005956 
L 235.582096 262.281424 
L 245.28757 265.584358 
L 254.993043 268.913996 
L 264.698516 272.269551 
L 274.403989 275.650215 
L 284.109462 279.055159 
L 293.814935 282.483544 
L 303.520408 285.934521 
L 313.225881 289.407241 
L 322.931354 292.900851 
L 332.636827 296.414504 
L 342.342301 299.947361 
L 352.047774 303.498591 
L 361.753247 307.06738 
L 371.45872 310.652927 
L 381.164193 314.254448 
L 390.869666 317.871181 
L 400.575139 321.502384 
L 410.280612 325.147337 
L 419.986085 328.805342 
L 429.691558 332.475729 
L 439.397032 336.157848 
L 449.102505 339.851076 
L 458.807978 343.554816 
L 468.513451 347.268492 
L 478.218924 350.991557 
L 487.924397 354.723486 
L 497.62987 358.46378 
L 507.335343 362.211961 
L 517.040816 365.967577 
L 526.746289 369.730195 
L 536.451763 373.499407 
L 546.157236 377.274825 
L 555.862709 381.05608 
L 565.568182 384.842824 
" style="fill:none;stroke:#bb0044;stroke-dasharray:5.55,2.4;stroke-dashoffset:0;stroke-width:1.5;"/>
   </g>
   <g id="line2d_87">
    <path clip-path="url(#pe8516be864)" d="M 90 231.348217 
L 99.705473 233.755085 
L 109.410946 236.231198 
L 119.116419 238.776588 
L 128.821892 241.39095 
L 138.527365 244.073653 
L 148.232839 246.823745 
L 157.938312 249.639981 
L 167.643785 252.520834 
L 177.349258 255.464531 
L 187.054731 258.469079 
L 196.760204 261.532297 
L 206.465677 264.651853 
L 216.17115 267.825292 
L 225.876623 271.050075 
L 235.582096 274.323606 
L 245.28757 277.643262 
L 254.993043 281.006421 
L 264.698516 284.410486 
L 274.403989 287.852905 
L 284.109462 291.331188 
L 293.814935 294.842923 
L 303.520408 298.385787 
L 313.225881 301.957556 
L 322.931354 305.55611 
L 332.636827 309.179437 
L 342.342301 312.825639 
L 352.047774 316.492928 
L 361.753247 320.179626 
L 371.45872 323.884167 
L 381.164193 327.605088 
L 390.869666 331.34103 
L 400.575139 335.090733 
L 410.280612 338.853029 
L 419.986085 342.62684 
L 429.691558 346.411172 
L 439.397032 350.205108 
L 449.102505 354.007808 
L 458.807978 357.818498 
L 468.513451 361.636469 
L 478.218924 365.461071 
L 487.924397 369.291711 
L 497.62987 373.127845 
L 507.335343 376.968977 
L 517.040816 380.814654 
L 526.746289 384.664462 
L 536.451763 388.518024 
L 546.157236 392.374997 
L 555.862709 396.235069 
L 565.568182 400.097954 
" style="fill:none;stroke:#ff0000;stroke-linecap:square;stroke-width:1.5;"/>
   </g>
   <g id="line2d_88">
    <path clip-path="url(#pe8516be864)" d="M 90 262.428703 
L 99.705473 265.266641 
L 109.410946 268.137219 
L 119.116419 271.040508 
L 128.821892 273.976505 
L 138.527365 276.94513 
L 148.232839 279.946231 
L 157.938312 282.979584 
L 167.643785 286.044892 
L 177.349258 289.141792 
L 187.054731 292.269856 
L 196.760204 295.428594 
L 206.465677 298.61746 
L 216.17115 301.835855 
L 225.876623 305.083131 
L 235.582096 308.3586 
L 245.28757 311.661533 
L 254.993043 314.991171 
L 264.698516 318.346727 
L 274.403989 321.727391 
L 284.109462 325.132334 
L 293.814935 328.560719 
L 303.520408 332.011697 
L 313.225881 335.484417 
L 322.931354 338.978027 
L 332.636827 342.49168 
L 342.342301 346.024536 
L 352.047774 349.575767 
L 361.753247 353.144556 
L 371.45872 356.730102 
L 381.164193 360.331624 
L 390.869666 363.948357 
L 400.575139 367.57956 
L 410.280612 371.224512 
L 419.986085 374.882518 
L 429.691558 378.552905 
L 439.397032 382.235024 
L 449.102505 385.928252 
L 458.807978 389.631991 
L 468.513451 393.345668 
L 478.218924 397.068733 
L 487.924397 400.800662 
L 497.62987 404.540956 
L 507.335343 408.289137 
L 517.040816 412.044752 
L 526.746289 415.807371 
L 536.451763 419.576583 
L 546.157236 423.352001 
L 555.862709 427.133256 
L 565.568182 430.92 
" style="fill:none;stroke:#ff0000;stroke-dasharray:5.55,2.4;stroke-dashoffset:0;stroke-width:1.5;"/>
   </g>
   <g id="line2d_89">
    <path clip-path="url(#pe8516be864)" d="M 90 128.786177 
L 99.705473 131.081208 
L 109.410946 133.388912 
L 119.116419 135.711214 
L 128.821892 138.050317 
L 138.527365 140.408731 
L 148.232839 142.789315 
L 157.938312 145.195307 
L 167.643785 147.630368 
L 177.349258 150.098619 
L 187.054731 152.604678 
L 196.760204 155.153689 
L 206.465677 157.751349 
L 216.17115 160.403925 
L 225.876623 163.118253 
L 235.582096 165.901717 
L 245.28757 168.762212 
L 254.993043 171.708073 
L 264.698516 174.747973 
L 274.403989 177.890783 
L 284.109462 181.145408 
L 293.814935 184.520573 
L 303.520408 188.024598 
L 313.225881 191.665137 
L 322.931354 195.448931 
L 332.636827 199.381555 
L 342.342301 203.467205 
L 352.047774 207.708522 
L 361.753247 212.106484 
L 371.45872 216.660359 
L 381.164193 221.367743 
L 390.869666 226.224655 
L 400.575139 231.225708 
L 410.280612 236.364317 
L 419.986085 241.632941 
L 429.691558 247.023344 
L 439.397032 252.526842 
L 449.102505 258.134545 
L 458.807978 263.837564 
L 468.513451 269.627188 
L 478.218924 275.495027 
L 487.924397 281.433117 
L 497.62987 287.433995 
L 507.335343 293.490746 
L 517.040816 299.597019 
L 526.746289 305.747036 
L 536.451763 311.935573 
L 546.157236 318.157937 
L 555.862709 324.40994 
L 565.568182 330.687854 
" style="fill:none;stroke:#000000;stroke-dasharray:5.55,2.4;stroke-dashoffset:0;stroke-width:1.5;"/>
   </g>
   <g id="line2d_90">
    <path clip-path="url(#pe8516be864)" d="M 90 127.378771 
L 99.705473 129.509701 
L 109.410946 131.648128 
L 119.116419 133.795257 
L 128.821892 135.952478 
L 138.527365 138.121395 
L 148.232839 140.303858 
L 157.938312 142.50199 
L 167.643785 144.718232 
L 177.349258 146.955376 
L 187.054731 149.216608 
L 196.760204 151.505555 
L 206.465677 153.826327 
L 216.17115 156.183563 
L 225.876623 158.582468 
L 235.582096 161.028854 
L 245.28757 163.529164 
L 254.993043 166.090482 
L 264.698516 168.720529 
L 274.403989 171.42763 
L 284.109462 174.220654 
L 293.814935 177.108916 
L 303.520408 180.102038 
L 313.225881 183.209772 
L 322.931354 186.441775 
L 332.636827 189.807353 
L 342.342301 193.315174 
L 352.047774 196.972973 
L 361.753247 200.787255 
L 371.45872 204.763037 
L 381.164193 208.903628 
L 390.869666 213.210482 
L 400.575139 217.683132 
L 410.280612 222.319209 
L 419.986085 227.114555 
L 429.691558 232.0634 
L 439.397032 237.158607 
L 449.102505 242.391951 
L 458.807978 247.754418 
L 468.513451 253.236498 
L 478.218924 258.828457 
L 487.924397 264.520581 
L 497.62987 270.303377 
L 507.335343 276.167733 
L 517.040816 282.105032 
L 526.746289 288.107238 
L 536.451763 294.166935 
L 546.157236 300.277351 
L 555.862709 306.432353 
L 565.568182 312.626426 
" style="fill:none;stroke:#000000;stroke-linecap:square;stroke-width:1.5;"/>
   </g>
   <g id="patch_3">
    <path d="M 90 448.56 
L 90 60.48 
" style="fill:none;stroke:#000000;stroke-linecap:square;stroke-linejoin:miter;stroke-width:0.8;"/>
   </g>
   <g id="patch_4">
    <path d="M 565.568182 448.56 
L 565.568182 60.48 
" style="fill:none;stroke:#000000;stroke-linecap:square;stroke-linejoin:miter;stroke-width:0.8;"/>
   </g>
   <g id="patch_5">
    <path d="M 90 448.56 
L 565.568182 448.56 
" style="fill:none;stroke:#000000;stroke-linecap:square;stroke-linejoin:miter;stroke-width:0.8;"/>
   </g>
   <g id="patch_6">
    <path d="M 90 60.48 
L 565.568182 60.48 
" style="fill:none;stroke:#000000;stroke-linecap:square;stroke-linejoin:miter;stroke-width:0.8;"/>
   </g>
   <g id="legend_1">
    <g id="patch_7">
     <path d="M 97 443.56 
L 452.84375 443.56 
Q 454.84375 443.56 454.84375 441.56 
L 454.84375 383.8475 
Q 454.84375 381.8475 452.84375 381.8475 
L 97 381.8475 
Q 95 381.8475 95 383.8475 
L 95 441.56 
Q 95 443.56 97 443.56 
z
" style="fill:#ffffff;opacity:0.8;stroke:#cccccc;stroke-linejoin:miter;"/>
    </g>
    <g id="line2d_91">
     <path d="M 99 389.945938 
L 119 389.945938 
" style="fill:none;stroke:#0000ff;stroke-linecap:square;stroke-width:1.5;"/>
    </g>
    <g id="line2d_92"/>
    <g id="text_18">
     <!-- Willott+2018 QLF (-1.50, -2.81, -25.13, 1.14e-8, -0.47) -->
     <defs>
      <path d="M 3.328125 72.90625 
L 13.28125 72.90625 
L 28.609375 11.28125 
L 43.890625 72.90625 
L 54.984375 72.90625 
L 70.3125 11.28125 
L 85.59375 72.90625 
L 95.609375 72.90625 
L 77.296875 0 
L 64.890625 0 
L 49.515625 63.28125 
L 33.984375 0 
L 21.578125 0 
z
" id="DejaVuSans-57"/>
      <path d="M 9.421875 75.984375 
L 18.40625 75.984375 
L 18.40625 0 
L 9.421875 0 
z
" id="DejaVuSans-6c"/>
      <path d="M 30.609375 48.390625 
Q 23.390625 48.390625 19.1875 42.75 
Q 14.984375 37.109375 14.984375 27.296875 
Q 14.984375 17.484375 19.15625 11.84375 
Q 23.34375 6.203125 30.609375 6.203125 
Q 37.796875 6.203125 41.984375 11.859375 
Q 46.1875 17.53125 46.1875 27.296875 
Q 46.1875 37.015625 41.984375 42.703125 
Q 37.796875 48.390625 30.609375 48.390625 
z
M 30.609375 56 
Q 42.328125 56 49.015625 48.375 
Q 55.71875 40.765625 55.71875 27.296875 
Q 55.71875 13.875 49.015625 6.21875 
Q 42.328125 -1.421875 30.609375 -1.421875 
Q 18.84375 -1.421875 12.171875 6.21875 
Q 5.515625 13.875 5.515625 27.296875 
Q 5.515625 40.765625 12.171875 48.375 
Q 18.84375 56 30.609375 56 
z
" id="DejaVuSans-6f"/>
      <path d="M 18.3125 70.21875 
L 18.3125 54.6875 
L 36.8125 54.6875 
L 36.8125 47.703125 
L 18.3125 47.703125 
L 18.3125 18.015625 
Q 18.3125 11.328125 20.140625 9.421875 
Q 21.96875 7.515625 27.59375 7.515625 
L 36.8125 7.515625 
L 36.8125 0 
L 27.59375 0 
Q 17.1875 0 13.234375 3.875 
Q 9.28125 7.765625 9.28125 18.015625 
L 9.28125 47.703125 
L 2.6875 47.703125 
L 2.6875 54.6875 
L 9.28125 54.6875 
L 9.28125 70.21875 
z
" id="DejaVuSans-74"/>
      <path d="M 46 62.703125 
L 46 35.5 
L 73.1875 35.5 
L 73.1875 27.203125 
L 46 27.203125 
L 46 0 
L 37.796875 0 
L 37.796875 27.203125 
L 10.59375 27.203125 
L 10.59375 35.5 
L 37.796875 35.5 
L 37.796875 62.703125 
z
" id="DejaVuSans-2b"/>
      <path d="M 39.40625 66.21875 
Q 28.65625 66.21875 22.328125 58.203125 
Q 16.015625 50.203125 16.015625 36.375 
Q 16.015625 22.609375 22.328125 14.59375 
Q 28.65625 6.59375 39.40625 6.59375 
Q 50.140625 6.59375 56.421875 14.59375 
Q 62.703125 22.609375 62.703125 36.375 
Q 62.703125 50.203125 56.421875 58.203125 
Q 50.140625 66.21875 39.40625 66.21875 
z
M 53.21875 1.3125 
L 66.21875 -12.890625 
L 54.296875 -12.890625 
L 43.5 -1.21875 
Q 41.890625 -1.3125 41.03125 -1.359375 
Q 40.1875 -1.421875 39.40625 -1.421875 
Q 24.03125 -1.421875 14.8125 8.859375 
Q 5.609375 19.140625 5.609375 36.375 
Q 5.609375 53.65625 14.8125 63.9375 
Q 24.03125 74.21875 39.40625 74.21875 
Q 54.734375 74.21875 63.90625 63.9375 
Q 73.09375 53.65625 73.09375 36.375 
Q 73.09375 23.6875 67.984375 14.640625 
Q 62.890625 5.609375 53.21875 1.3125 
z
" id="DejaVuSans-51"/>
      <path d="M 9.8125 72.90625 
L 19.671875 72.90625 
L 19.671875 8.296875 
L 55.171875 8.296875 
L 55.171875 0 
L 9.8125 0 
z
" id="DejaVuSans-4c"/>
      <path d="M 9.8125 72.90625 
L 51.703125 72.90625 
L 51.703125 64.59375 
L 19.671875 64.59375 
L 19.671875 43.109375 
L 48.578125 43.109375 
L 48.578125 34.8125 
L 19.671875 34.8125 
L 19.671875 0 
L 9.8125 0 
z
" id="DejaVuSans-46"/>
      <path d="M 11.71875 12.40625 
L 22.015625 12.40625 
L 22.015625 4 
L 14.015625 -11.625 
L 7.71875 -11.625 
L 11.71875 4 
z
" id="DejaVuSans-2c"/>
      <path d="M 56.203125 29.59375 
L 56.203125 25.203125 
L 14.890625 25.203125 
Q 15.484375 15.921875 20.484375 11.0625 
Q 25.484375 6.203125 34.421875 6.203125 
Q 39.59375 6.203125 44.453125 7.46875 
Q 49.3125 8.734375 54.109375 11.28125 
L 54.109375 2.78125 
Q 49.265625 0.734375 44.1875 -0.34375 
Q 39.109375 -1.421875 33.890625 -1.421875 
Q 20.796875 -1.421875 13.15625 6.1875 
Q 5.515625 13.8125 5.515625 26.8125 
Q 5.515625 40.234375 12.765625 48.109375 
Q 20.015625 56 32.328125 56 
Q 43.359375 56 49.78125 48.890625 
Q 56.203125 41.796875 56.203125 29.59375 
z
M 47.21875 32.234375 
Q 47.125 39.59375 43.09375 43.984375 
Q 39.0625 48.390625 32.421875 48.390625 
Q 24.90625 48.390625 20.390625 44.140625 
Q 15.875 39.890625 15.1875 32.171875 
z
" id="DejaVuSans-65"/>
     </defs>
     <g transform="translate(127 393.445938)scale(0.1 -0.1)">
      <use xlink:href="#DejaVuSans-57"/>
      <use x="98.845703" xlink:href="#DejaVuSans-69"/>
      <use x="126.628906" xlink:href="#DejaVuSans-6c"/>
      <use x="154.412109" xlink:href="#DejaVuSans-6c"/>
      <use x="182.195312" xlink:href="#DejaVuSans-6f"/>
      <use x="243.376953" xlink:href="#DejaVuSans-74"/>
      <use x="282.585938" xlink:href="#DejaVuSans-74"/>
      <use x="321.794922" xlink:href="#DejaVuSans-2b"/>
      <use x="405.583984" xlink:href="#DejaVuSans-32"/>
      <use x="469.207031" xlink:href="#DejaVuSans-30"/>
      <use x="532.830078" xlink:href="#DejaVuSans-31"/>
      <use x="596.453125" xlink:href="#DejaVuSans-38"/>
      <use x="660.076172" xlink:href="#DejaVuSans-20"/>
      <use x="691.863281" xlink:href="#DejaVuSans-51"/>
      <use x="770.574219" xlink:href="#DejaVuSans-4c"/>
      <use x="826.287109" xlink:href="#DejaVuSans-46"/>
      <use x="883.806641" xlink:href="#DejaVuSans-20"/>
      <use x="915.59375" xlink:href="#DejaVuSans-28"/>
      <use x="954.607422" xlink:href="#DejaVuSans-2d"/>
      <use x="990.691406" xlink:href="#DejaVuSans-31"/>
      <use x="1054.314453" xlink:href="#DejaVuSans-2e"/>
      <use x="1086.101562" xlink:href="#DejaVuSans-35"/>
      <use x="1149.724609" xlink:href="#DejaVuSans-30"/>
      <use x="1213.347656" xlink:href="#DejaVuSans-2c"/>
      <use x="1245.134766" xlink:href="#DejaVuSans-20"/>
      <use x="1276.921875" xlink:href="#DejaVuSans-2d"/>
      <use x="1313.005859" xlink:href="#DejaVuSans-32"/>
      <use x="1376.628906" xlink:href="#DejaVuSans-2e"/>
      <use x="1408.416016" xlink:href="#DejaVuSans-38"/>
      <use x="1472.039062" xlink:href="#DejaVuSans-31"/>
      <use x="1535.662109" xlink:href="#DejaVuSans-2c"/>
      <use x="1567.449219" xlink:href="#DejaVuSans-20"/>
      <use x="1599.236328" xlink:href="#DejaVuSans-2d"/>
      <use x="1635.320312" xlink:href="#DejaVuSans-32"/>
      <use x="1698.943359" xlink:href="#DejaVuSans-35"/>
      <use x="1762.566406" xlink:href="#DejaVuSans-2e"/>
      <use x="1794.353516" xlink:href="#DejaVuSans-31"/>
      <use x="1857.976562" xlink:href="#DejaVuSans-33"/>
      <use x="1921.599609" xlink:href="#DejaVuSans-2c"/>
      <use x="1953.386719" xlink:href="#DejaVuSans-20"/>
      <use x="1985.173828" xlink:href="#DejaVuSans-31"/>
      <use x="2048.796875" xlink:href="#DejaVuSans-2e"/>
      <use x="2080.583984" xlink:href="#DejaVuSans-31"/>
      <use x="2144.207031" xlink:href="#DejaVuSans-34"/>
      <use x="2207.830078" xlink:href="#DejaVuSans-65"/>
      <use x="2269.353516" xlink:href="#DejaVuSans-2d"/>
      <use x="2305.4375" xlink:href="#DejaVuSans-38"/>
      <use x="2369.060547" xlink:href="#DejaVuSans-2c"/>
      <use x="2400.847656" xlink:href="#DejaVuSans-20"/>
      <use x="2432.634766" xlink:href="#DejaVuSans-2d"/>
      <use x="2468.71875" xlink:href="#DejaVuSans-30"/>
      <use x="2532.341797" xlink:href="#DejaVuSans-2e"/>
      <use x="2564.128906" xlink:href="#DejaVuSans-34"/>
      <use x="2627.751953" xlink:href="#DejaVuSans-37"/>
      <use x="2691.375" xlink:href="#DejaVuSans-29"/>
     </g>
    </g>
    <g id="line2d_93">
     <path d="M 99 404.624063 
L 119 404.624063 
" style="fill:none;stroke:#0000ff;stroke-dasharray:5.55,2.4;stroke-dashoffset:0;stroke-width:1.5;"/>
    </g>
    <g id="line2d_94"/>
    <g id="text_19">
     <!-- Jiang+2016 QLF (-1.90, -2.80, -25.20, 9.93e-9, -0.70) -->
     <defs>
      <path d="M 9.8125 72.90625 
L 19.671875 72.90625 
L 19.671875 5.078125 
Q 19.671875 -8.109375 14.671875 -14.0625 
Q 9.671875 -20.015625 -1.421875 -20.015625 
L -5.171875 -20.015625 
L -5.171875 -11.71875 
L -2.09375 -11.71875 
Q 4.4375 -11.71875 7.125 -8.046875 
Q 9.8125 -4.390625 9.8125 5.078125 
z
" id="DejaVuSans-4a"/>
      <path d="M 54.890625 33.015625 
L 54.890625 0 
L 45.90625 0 
L 45.90625 32.71875 
Q 45.90625 40.484375 42.875 44.328125 
Q 39.84375 48.1875 33.796875 48.1875 
Q 26.515625 48.1875 22.3125 43.546875 
Q 18.109375 38.921875 18.109375 30.90625 
L 18.109375 0 
L 9.078125 0 
L 9.078125 54.6875 
L 18.109375 54.6875 
L 18.109375 46.1875 
Q 21.34375 51.125 25.703125 53.5625 
Q 30.078125 56 35.796875 56 
Q 45.21875 56 50.046875 50.171875 
Q 54.890625 44.34375 54.890625 33.015625 
z
" id="DejaVuSans-6e"/>
     </defs>
     <g transform="translate(127 408.124063)scale(0.1 -0.1)">
      <use xlink:href="#DejaVuSans-4a"/>
      <use x="29.492188" xlink:href="#DejaVuSans-69"/>
      <use x="57.275391" xlink:href="#DejaVuSans-61"/>
      <use x="118.554688" xlink:href="#DejaVuSans-6e"/>
      <use x="181.933594" xlink:href="#DejaVuSans-67"/>
      <use x="245.410156" xlink:href="#DejaVuSans-2b"/>
      <use x="329.199219" xlink:href="#DejaVuSans-32"/>
      <use x="392.822266" xlink:href="#DejaVuSans-30"/>
      <use x="456.445312" xlink:href="#DejaVuSans-31"/>
      <use x="520.068359" xlink:href="#DejaVuSans-36"/>
      <use x="583.691406" xlink:href="#DejaVuSans-20"/>
      <use x="615.478516" xlink:href="#DejaVuSans-51"/>
      <use x="694.189453" xlink:href="#DejaVuSans-4c"/>
      <use x="749.902344" xlink:href="#DejaVuSans-46"/>
      <use x="807.421875" xlink:href="#DejaVuSans-20"/>
      <use x="839.208984" xlink:href="#DejaVuSans-28"/>
      <use x="878.222656" xlink:href="#DejaVuSans-2d"/>
      <use x="914.306641" xlink:href="#DejaVuSans-31"/>
      <use x="977.929688" xlink:href="#DejaVuSans-2e"/>
      <use x="1009.716797" xlink:href="#DejaVuSans-39"/>
      <use x="1073.339844" xlink:href="#DejaVuSans-30"/>
      <use x="1136.962891" xlink:href="#DejaVuSans-2c"/>
      <use x="1168.75" xlink:href="#DejaVuSans-20"/>
      <use x="1200.537109" xlink:href="#DejaVuSans-2d"/>
      <use x="1236.621094" xlink:href="#DejaVuSans-32"/>
      <use x="1300.244141" xlink:href="#DejaVuSans-2e"/>
      <use x="1332.03125" xlink:href="#DejaVuSans-38"/>
      <use x="1395.654297" xlink:href="#DejaVuSans-30"/>
      <use x="1459.277344" xlink:href="#DejaVuSans-2c"/>
      <use x="1491.064453" xlink:href="#DejaVuSans-20"/>
      <use x="1522.851562" xlink:href="#DejaVuSans-2d"/>
      <use x="1558.935547" xlink:href="#DejaVuSans-32"/>
      <use x="1622.558594" xlink:href="#DejaVuSans-35"/>
      <use x="1686.181641" xlink:href="#DejaVuSans-2e"/>
      <use x="1717.96875" xlink:href="#DejaVuSans-32"/>
      <use x="1781.591797" xlink:href="#DejaVuSans-30"/>
      <use x="1845.214844" xlink:href="#DejaVuSans-2c"/>
      <use x="1877.001953" xlink:href="#DejaVuSans-20"/>
      <use x="1908.789062" xlink:href="#DejaVuSans-39"/>
      <use x="1972.412109" xlink:href="#DejaVuSans-2e"/>
      <use x="2004.199219" xlink:href="#DejaVuSans-39"/>
      <use x="2067.822266" xlink:href="#DejaVuSans-33"/>
      <use x="2131.445312" xlink:href="#DejaVuSans-65"/>
      <use x="2192.96875" xlink:href="#DejaVuSans-2d"/>
      <use x="2229.052734" xlink:href="#DejaVuSans-39"/>
      <use x="2292.675781" xlink:href="#DejaVuSans-2c"/>
      <use x="2324.462891" xlink:href="#DejaVuSans-20"/>
      <use x="2356.25" xlink:href="#DejaVuSans-2d"/>
      <use x="2392.333984" xlink:href="#DejaVuSans-30"/>
      <use x="2455.957031" xlink:href="#DejaVuSans-2e"/>
      <use x="2487.744141" xlink:href="#DejaVuSans-37"/>
      <use x="2551.367188" xlink:href="#DejaVuSans-30"/>
      <use x="2614.990234" xlink:href="#DejaVuSans-29"/>
     </g>
    </g>
    <g id="line2d_95">
     <path d="M 99 419.302188 
L 119 419.302188 
" style="fill:none;stroke:#000000;stroke-dasharray:5.55,2.4;stroke-dashoffset:0;stroke-width:1.5;"/>
    </g>
    <g id="line2d_96"/>
    <g id="text_20">
     <!-- z = 5.00 (McGreer+2013): (-1.97, -4.00, -27.47, 1.148e-9, -0.47) -->
     <defs>
      <path d="M 5.515625 54.6875 
L 48.1875 54.6875 
L 48.1875 46.484375 
L 14.40625 7.171875 
L 48.1875 7.171875 
L 48.1875 0 
L 4.296875 0 
L 4.296875 8.203125 
L 38.09375 47.515625 
L 5.515625 47.515625 
z
" id="DejaVuSans-7a"/>
      <path d="M 10.59375 45.40625 
L 73.1875 45.40625 
L 73.1875 37.203125 
L 10.59375 37.203125 
z
M 10.59375 25.484375 
L 73.1875 25.484375 
L 73.1875 17.1875 
L 10.59375 17.1875 
z
" id="DejaVuSans-3d"/>
      <path d="M 59.515625 10.40625 
L 59.515625 29.984375 
L 43.40625 29.984375 
L 43.40625 38.09375 
L 69.28125 38.09375 
L 69.28125 6.78125 
Q 63.578125 2.734375 56.6875 0.65625 
Q 49.8125 -1.421875 42 -1.421875 
Q 24.90625 -1.421875 15.25 8.5625 
Q 5.609375 18.5625 5.609375 36.375 
Q 5.609375 54.25 15.25 64.234375 
Q 24.90625 74.21875 42 74.21875 
Q 49.125 74.21875 55.546875 72.453125 
Q 61.96875 70.703125 67.390625 67.28125 
L 67.390625 56.78125 
Q 61.921875 61.421875 55.765625 63.765625 
Q 49.609375 66.109375 42.828125 66.109375 
Q 29.4375 66.109375 22.71875 58.640625 
Q 16.015625 51.171875 16.015625 36.375 
Q 16.015625 21.625 22.71875 14.15625 
Q 29.4375 6.6875 42.828125 6.6875 
Q 48.046875 6.6875 52.140625 7.59375 
Q 56.25 8.5 59.515625 10.40625 
z
" id="DejaVuSans-47"/>
      <path d="M 41.109375 46.296875 
Q 39.59375 47.171875 37.8125 47.578125 
Q 36.03125 48 33.890625 48 
Q 26.265625 48 22.1875 43.046875 
Q 18.109375 38.09375 18.109375 28.8125 
L 18.109375 0 
L 9.078125 0 
L 9.078125 54.6875 
L 18.109375 54.6875 
L 18.109375 46.1875 
Q 20.953125 51.171875 25.484375 53.578125 
Q 30.03125 56 36.53125 56 
Q 37.453125 56 38.578125 55.875 
Q 39.703125 55.765625 41.0625 55.515625 
z
" id="DejaVuSans-72"/>
      <path d="M 11.71875 12.40625 
L 22.015625 12.40625 
L 22.015625 0 
L 11.71875 0 
z
M 11.71875 51.703125 
L 22.015625 51.703125 
L 22.015625 39.3125 
L 11.71875 39.3125 
z
" id="DejaVuSans-3a"/>
     </defs>
     <g transform="translate(127 422.802188)scale(0.1 -0.1)">
      <use xlink:href="#DejaVuSans-7a"/>
      <use x="52.490234" xlink:href="#DejaVuSans-20"/>
      <use x="84.277344" xlink:href="#DejaVuSans-3d"/>
      <use x="168.066406" xlink:href="#DejaVuSans-20"/>
      <use x="199.853516" xlink:href="#DejaVuSans-35"/>
      <use x="263.476562" xlink:href="#DejaVuSans-2e"/>
      <use x="295.263672" xlink:href="#DejaVuSans-30"/>
      <use x="358.886719" xlink:href="#DejaVuSans-30"/>
      <use x="422.509766" xlink:href="#DejaVuSans-20"/>
      <use x="454.296875" xlink:href="#DejaVuSans-28"/>
      <use x="493.310547" xlink:href="#DejaVuSans-4d"/>
      <use x="579.589844" xlink:href="#DejaVuSans-63"/>
      <use x="634.570312" xlink:href="#DejaVuSans-47"/>
      <use x="712.060547" xlink:href="#DejaVuSans-72"/>
      <use x="753.142578" xlink:href="#DejaVuSans-65"/>
      <use x="814.666016" xlink:href="#DejaVuSans-65"/>
      <use x="876.189453" xlink:href="#DejaVuSans-72"/>
      <use x="917.302734" xlink:href="#DejaVuSans-2b"/>
      <use x="1001.091797" xlink:href="#DejaVuSans-32"/>
      <use x="1064.714844" xlink:href="#DejaVuSans-30"/>
      <use x="1128.337891" xlink:href="#DejaVuSans-31"/>
      <use x="1191.960938" xlink:href="#DejaVuSans-33"/>
      <use x="1255.583984" xlink:href="#DejaVuSans-29"/>
      <use x="1294.597656" xlink:href="#DejaVuSans-3a"/>
      <use x="1328.289062" xlink:href="#DejaVuSans-20"/>
      <use x="1360.076172" xlink:href="#DejaVuSans-28"/>
      <use x="1399.089844" xlink:href="#DejaVuSans-2d"/>
      <use x="1435.173828" xlink:href="#DejaVuSans-31"/>
      <use x="1498.796875" xlink:href="#DejaVuSans-2e"/>
      <use x="1530.583984" xlink:href="#DejaVuSans-39"/>
      <use x="1594.207031" xlink:href="#DejaVuSans-37"/>
      <use x="1657.830078" xlink:href="#DejaVuSans-2c"/>
      <use x="1689.617188" xlink:href="#DejaVuSans-20"/>
      <use x="1721.404297" xlink:href="#DejaVuSans-2d"/>
      <use x="1757.488281" xlink:href="#DejaVuSans-34"/>
      <use x="1821.111328" xlink:href="#DejaVuSans-2e"/>
      <use x="1852.898438" xlink:href="#DejaVuSans-30"/>
      <use x="1916.521484" xlink:href="#DejaVuSans-30"/>
      <use x="1980.144531" xlink:href="#DejaVuSans-2c"/>
      <use x="2011.931641" xlink:href="#DejaVuSans-20"/>
      <use x="2043.71875" xlink:href="#DejaVuSans-2d"/>
      <use x="2079.802734" xlink:href="#DejaVuSans-32"/>
      <use x="2143.425781" xlink:href="#DejaVuSans-37"/>
      <use x="2207.048828" xlink:href="#DejaVuSans-2e"/>
      <use x="2238.835938" xlink:href="#DejaVuSans-34"/>
      <use x="2302.458984" xlink:href="#DejaVuSans-37"/>
      <use x="2366.082031" xlink:href="#DejaVuSans-2c"/>
      <use x="2397.869141" xlink:href="#DejaVuSans-20"/>
      <use x="2429.65625" xlink:href="#DejaVuSans-31"/>
      <use x="2493.279297" xlink:href="#DejaVuSans-2e"/>
      <use x="2525.066406" xlink:href="#DejaVuSans-31"/>
      <use x="2588.689453" xlink:href="#DejaVuSans-34"/>
      <use x="2652.3125" xlink:href="#DejaVuSans-38"/>
      <use x="2715.935547" xlink:href="#DejaVuSans-65"/>
      <use x="2777.458984" xlink:href="#DejaVuSans-2d"/>
      <use x="2813.542969" xlink:href="#DejaVuSans-39"/>
      <use x="2877.166016" xlink:href="#DejaVuSans-2c"/>
      <use x="2908.953125" xlink:href="#DejaVuSans-20"/>
      <use x="2940.740234" xlink:href="#DejaVuSans-2d"/>
      <use x="2976.824219" xlink:href="#DejaVuSans-30"/>
      <use x="3040.447266" xlink:href="#DejaVuSans-2e"/>
      <use x="3072.234375" xlink:href="#DejaVuSans-34"/>
      <use x="3135.857422" xlink:href="#DejaVuSans-37"/>
      <use x="3199.480469" xlink:href="#DejaVuSans-29"/>
     </g>
    </g>
    <g id="line2d_97">
     <path d="M 99 433.980313 
L 119 433.980313 
" style="fill:none;stroke:#000000;stroke-linecap:square;stroke-width:1.5;"/>
    </g>
    <g id="line2d_98"/>
    <g id="text_21">
     <!-- z = 5.00 (McGreer+2018): (-1.97, -4.00, -27.47, 1.148e-9, -0.47) -->
     <g transform="translate(127 437.480313)scale(0.1 -0.1)">
      <use xlink:href="#DejaVuSans-7a"/>
      <use x="52.490234" xlink:href="#DejaVuSans-20"/>
      <use x="84.277344" xlink:href="#DejaVuSans-3d"/>
      <use x="168.066406" xlink:href="#DejaVuSans-20"/>
      <use x="199.853516" xlink:href="#DejaVuSans-35"/>
      <use x="263.476562" xlink:href="#DejaVuSans-2e"/>
      <use x="295.263672" xlink:href="#DejaVuSans-30"/>
      <use x="358.886719" xlink:href="#DejaVuSans-30"/>
      <use x="422.509766" xlink:href="#DejaVuSans-20"/>
      <use x="454.296875" xlink:href="#DejaVuSans-28"/>
      <use x="493.310547" xlink:href="#DejaVuSans-4d"/>
      <use x="579.589844" xlink:href="#DejaVuSans-63"/>
      <use x="634.570312" xlink:href="#DejaVuSans-47"/>
      <use x="712.060547" xlink:href="#DejaVuSans-72"/>
      <use x="753.142578" xlink:href="#DejaVuSans-65"/>
      <use x="814.666016" xlink:href="#DejaVuSans-65"/>
      <use x="876.189453" xlink:href="#DejaVuSans-72"/>
      <use x="917.302734" xlink:href="#DejaVuSans-2b"/>
      <use x="1001.091797" xlink:href="#DejaVuSans-32"/>
      <use x="1064.714844" xlink:href="#DejaVuSans-30"/>
      <use x="1128.337891" xlink:href="#DejaVuSans-31"/>
      <use x="1191.960938" xlink:href="#DejaVuSans-38"/>
      <use x="1255.583984" xlink:href="#DejaVuSans-29"/>
      <use x="1294.597656" xlink:href="#DejaVuSans-3a"/>
      <use x="1328.289062" xlink:href="#DejaVuSans-20"/>
      <use x="1360.076172" xlink:href="#DejaVuSans-28"/>
      <use x="1399.089844" xlink:href="#DejaVuSans-2d"/>
      <use x="1435.173828" xlink:href="#DejaVuSans-31"/>
      <use x="1498.796875" xlink:href="#DejaVuSans-2e"/>
      <use x="1530.583984" xlink:href="#DejaVuSans-39"/>
      <use x="1594.207031" xlink:href="#DejaVuSans-37"/>
      <use x="1657.830078" xlink:href="#DejaVuSans-2c"/>
      <use x="1689.617188" xlink:href="#DejaVuSans-20"/>
      <use x="1721.404297" xlink:href="#DejaVuSans-2d"/>
      <use x="1757.488281" xlink:href="#DejaVuSans-34"/>
      <use x="1821.111328" xlink:href="#DejaVuSans-2e"/>
      <use x="1852.898438" xlink:href="#DejaVuSans-30"/>
      <use x="1916.521484" xlink:href="#DejaVuSans-30"/>
      <use x="1980.144531" xlink:href="#DejaVuSans-2c"/>
      <use x="2011.931641" xlink:href="#DejaVuSans-20"/>
      <use x="2043.71875" xlink:href="#DejaVuSans-2d"/>
      <use x="2079.802734" xlink:href="#DejaVuSans-32"/>
      <use x="2143.425781" xlink:href="#DejaVuSans-37"/>
      <use x="2207.048828" xlink:href="#DejaVuSans-2e"/>
      <use x="2238.835938" xlink:href="#DejaVuSans-34"/>
      <use x="2302.458984" xlink:href="#DejaVuSans-37"/>
      <use x="2366.082031" xlink:href="#DejaVuSans-2c"/>
      <use x="2397.869141" xlink:href="#DejaVuSans-20"/>
      <use x="2429.65625" xlink:href="#DejaVuSans-31"/>
      <use x="2493.279297" xlink:href="#DejaVuSans-2e"/>
      <use x="2525.066406" xlink:href="#DejaVuSans-31"/>
      <use x="2588.689453" xlink:href="#DejaVuSans-34"/>
      <use x="2652.3125" xlink:href="#DejaVuSans-38"/>
      <use x="2715.935547" xlink:href="#DejaVuSans-65"/>
      <use x="2777.458984" xlink:href="#DejaVuSans-2d"/>
      <use x="2813.542969" xlink:href="#DejaVuSans-39"/>
      <use x="2877.166016" xlink:href="#DejaVuSans-2c"/>
      <use x="2908.953125" xlink:href="#DejaVuSans-20"/>
      <use x="2940.740234" xlink:href="#DejaVuSans-2d"/>
      <use x="2976.824219" xlink:href="#DejaVuSans-30"/>
      <use x="3040.447266" xlink:href="#DejaVuSans-2e"/>
      <use x="3072.234375" xlink:href="#DejaVuSans-34"/>
      <use x="3135.857422" xlink:href="#DejaVuSans-37"/>
      <use x="3199.480469" xlink:href="#DejaVuSans-29"/>
     </g>
    </g>
   </g>
  </g>
  <g id="axes_2">
   <g id="patch_8">
    <path clip-path="url(#p7b3d4b5086)" d="M 616.295455 448.56 
L 616.295455 370.944 
L 616.295455 138.096 
L 616.295455 60.48 
L 648 60.48 
L 648 138.096 
L 648 370.944 
L 648 448.56 
z
" style="fill:#ffffff;stroke:#ffffff;stroke-linejoin:miter;stroke-width:0.01;"/>
   </g>
   <g id="QuadMesh_1">
    <path clip-path="url(#p7b3d4b5086)" d="M 616.295455 448.56 
L 648 448.56 
L 648 370.944 
L 616.295455 370.944 
L 616.295455 448.56 
" style="fill:#0000ff;"/>
    <path clip-path="url(#p7b3d4b5086)" d="M 616.295455 370.944 
L 648 370.944 
L 648 293.328 
L 616.295455 293.328 
L 616.295455 370.944 
" style="fill:#4400bb;"/>
    <path clip-path="url(#p7b3d4b5086)" d="M 616.295455 293.328 
L 648 293.328 
L 648 215.712 
L 616.295455 215.712 
L 616.295455 293.328 
" style="fill:#880088;"/>
    <path clip-path="url(#p7b3d4b5086)" d="M 616.295455 215.712 
L 648 215.712 
L 648 138.096 
L 616.295455 138.096 
L 616.295455 215.712 
" style="fill:#bb0044;"/>
    <path clip-path="url(#p7b3d4b5086)" d="M 616.295455 138.096 
L 648 138.096 
L 648 60.48 
L 616.295455 60.48 
L 616.295455 138.096 
" style="fill:#ff0000;"/>
   </g>
   <g id="matplotlib.axis_3"/>
   <g id="matplotlib.axis_4">
    <g id="ytick_55">
     <g id="line2d_99">
      <defs>
       <path d="M 0 0 
L 3.5 0 
" id="mebde438b62" style="stroke:#000000;stroke-width:0.8;"/>
      </defs>
      <g>
       <use style="stroke:#000000;stroke-width:0.8;" x="648" xlink:href="#mebde438b62" y="409.752"/>
      </g>
     </g>
     <g id="text_22">
      <!-- 4 -->
      <g transform="translate(655 413.551219)scale(0.1 -0.1)">
       <use xlink:href="#DejaVuSans-34"/>
      </g>
     </g>
    </g>
    <g id="ytick_56">
     <g id="line2d_100">
      <g>
       <use style="stroke:#000000;stroke-width:0.8;" x="648" xlink:href="#mebde438b62" y="332.136"/>
      </g>
     </g>
     <g id="text_23">
      <!-- 5 -->
      <g transform="translate(655 335.935219)scale(0.1 -0.1)">
       <use xlink:href="#DejaVuSans-35"/>
      </g>
     </g>
    </g>
    <g id="ytick_57">
     <g id="line2d_101">
      <g>
       <use style="stroke:#000000;stroke-width:0.8;" x="648" xlink:href="#mebde438b62" y="254.52"/>
      </g>
     </g>
     <g id="text_24">
      <!-- 6 -->
      <g transform="translate(655 258.319219)scale(0.1 -0.1)">
       <use xlink:href="#DejaVuSans-36"/>
      </g>
     </g>
    </g>
    <g id="ytick_58">
     <g id="line2d_102">
      <g>
       <use style="stroke:#000000;stroke-width:0.8;" x="648" xlink:href="#mebde438b62" y="176.904"/>
      </g>
     </g>
     <g id="text_25">
      <!-- 7 -->
      <g transform="translate(655 180.703219)scale(0.1 -0.1)">
       <use xlink:href="#DejaVuSans-37"/>
      </g>
     </g>
    </g>
    <g id="ytick_59">
     <g id="line2d_103">
      <g>
       <use style="stroke:#000000;stroke-width:0.8;" x="648" xlink:href="#mebde438b62" y="99.288"/>
      </g>
     </g>
     <g id="text_26">
      <!-- 8 -->
      <g transform="translate(655 103.087219)scale(0.1 -0.1)">
       <use xlink:href="#DejaVuSans-38"/>
      </g>
     </g>
    </g>
   </g>
   <g id="patch_9">
    <path d="M 616.295455 448.56 
L 616.295455 370.944 
L 616.295455 138.096 
L 616.295455 60.48 
L 648 60.48 
L 648 138.096 
L 648 370.944 
L 648 448.56 
z
" style="fill:none;stroke:#000000;stroke-linejoin:miter;stroke-width:0.8;"/>
   </g>
   <g id="text_27">
    <!-- z -->
    <g transform="translate(628.998665 54.48)scale(0.12 -0.12)">
     <use xlink:href="#DejaVuSans-7a"/>
    </g>
   </g>
  </g>
  <g id="text_28">
   <!-- richardgmcmahon, ca532f1 -->
   <defs>
    <path d="M 45.40625 46.390625 
L 45.40625 75.984375 
L 54.390625 75.984375 
L 54.390625 0 
L 45.40625 0 
L 45.40625 8.203125 
Q 42.578125 3.328125 38.25 0.953125 
Q 33.9375 -1.421875 27.875 -1.421875 
Q 17.96875 -1.421875 11.734375 6.484375 
Q 5.515625 14.40625 5.515625 27.296875 
Q 5.515625 40.1875 11.734375 48.09375 
Q 17.96875 56 27.875 56 
Q 33.9375 56 38.25 53.625 
Q 42.578125 51.265625 45.40625 46.390625 
z
M 14.796875 27.296875 
Q 14.796875 17.390625 18.875 11.75 
Q 22.953125 6.109375 30.078125 6.109375 
Q 37.203125 6.109375 41.296875 11.75 
Q 45.40625 17.390625 45.40625 27.296875 
Q 45.40625 37.203125 41.296875 42.84375 
Q 37.203125 48.484375 30.078125 48.484375 
Q 22.953125 48.484375 18.875 42.84375 
Q 14.796875 37.203125 14.796875 27.296875 
z
" id="DejaVuSans-64"/>
    <path d="M 37.109375 75.984375 
L 37.109375 68.5 
L 28.515625 68.5 
Q 23.6875 68.5 21.796875 66.546875 
Q 19.921875 64.59375 19.921875 59.515625 
L 19.921875 54.6875 
L 34.71875 54.6875 
L 34.71875 47.703125 
L 19.921875 47.703125 
L 19.921875 0 
L 10.890625 0 
L 10.890625 47.703125 
L 2.296875 47.703125 
L 2.296875 54.6875 
L 10.890625 54.6875 
L 10.890625 58.5 
Q 10.890625 67.625 15.140625 71.796875 
Q 19.390625 75.984375 28.609375 75.984375 
z
" id="DejaVuSans-66"/>
   </defs>
   <g style="opacity:0.7;" transform="translate(677.198438 336.619531)rotate(-90)scale(0.1 -0.1)">
    <use xlink:href="#DejaVuSans-72"/>
    <use x="41.113281" xlink:href="#DejaVuSans-69"/>
    <use x="68.896484" xlink:href="#DejaVuSans-63"/>
    <use x="123.876953" xlink:href="#DejaVuSans-68"/>
    <use x="187.255859" xlink:href="#DejaVuSans-61"/>
    <use x="248.535156" xlink:href="#DejaVuSans-72"/>
    <use x="289.632812" xlink:href="#DejaVuSans-64"/>
    <use x="353.109375" xlink:href="#DejaVuSans-67"/>
    <use x="416.585938" xlink:href="#DejaVuSans-6d"/>
    <use x="513.998047" xlink:href="#DejaVuSans-63"/>
    <use x="568.978516" xlink:href="#DejaVuSans-6d"/>
    <use x="666.390625" xlink:href="#DejaVuSans-61"/>
    <use x="727.669922" xlink:href="#DejaVuSans-68"/>
    <use x="791.048828" xlink:href="#DejaVuSans-6f"/>
    <use x="852.230469" xlink:href="#DejaVuSans-6e"/>
    <use x="915.609375" xlink:href="#DejaVuSans-2c"/>
    <use x="947.396484" xlink:href="#DejaVuSans-20"/>
    <use x="979.183594" xlink:href="#DejaVuSans-63"/>
    <use x="1034.164062" xlink:href="#DejaVuSans-61"/>
    <use x="1095.443359" xlink:href="#DejaVuSans-35"/>
    <use x="1159.066406" xlink:href="#DejaVuSans-33"/>
    <use x="1222.689453" xlink:href="#DejaVuSans-32"/>
    <use x="1286.3125" xlink:href="#DejaVuSans-66"/>
    <use x="1321.517578" xlink:href="#DejaVuSans-31"/>
   </g>
   <!--  Using Willott QLF with k=-0.4700 -->
   <defs>
    <path d="M 8.6875 72.90625 
L 18.609375 72.90625 
L 18.609375 28.609375 
Q 18.609375 16.890625 22.84375 11.734375 
Q 27.09375 6.59375 36.625 6.59375 
Q 46.09375 6.59375 50.34375 11.734375 
Q 54.59375 16.890625 54.59375 28.609375 
L 54.59375 72.90625 
L 64.5 72.90625 
L 64.5 27.390625 
Q 64.5 13.140625 57.4375 5.859375 
Q 50.390625 -1.421875 36.625 -1.421875 
Q 22.796875 -1.421875 15.734375 5.859375 
Q 8.6875 13.140625 8.6875 27.390625 
z
" id="DejaVuSans-55"/>
    <path d="M 44.28125 53.078125 
L 44.28125 44.578125 
Q 40.484375 46.53125 36.375 47.5 
Q 32.28125 48.484375 27.875 48.484375 
Q 21.1875 48.484375 17.84375 46.4375 
Q 14.5 44.390625 14.5 40.28125 
Q 14.5 37.15625 16.890625 35.375 
Q 19.28125 33.59375 26.515625 31.984375 
L 29.59375 31.296875 
Q 39.15625 29.25 43.1875 25.515625 
Q 47.21875 21.78125 47.21875 15.09375 
Q 47.21875 7.46875 41.1875 3.015625 
Q 35.15625 -1.421875 24.609375 -1.421875 
Q 20.21875 -1.421875 15.453125 -0.5625 
Q 10.6875 0.296875 5.421875 2 
L 5.421875 11.28125 
Q 10.40625 8.6875 15.234375 7.390625 
Q 20.0625 6.109375 24.8125 6.109375 
Q 31.15625 6.109375 34.5625 8.28125 
Q 37.984375 10.453125 37.984375 14.40625 
Q 37.984375 18.0625 35.515625 20.015625 
Q 33.0625 21.96875 24.703125 23.78125 
L 21.578125 24.515625 
Q 13.234375 26.265625 9.515625 29.90625 
Q 5.8125 33.546875 5.8125 39.890625 
Q 5.8125 47.609375 11.28125 51.796875 
Q 16.75 56 26.8125 56 
Q 31.78125 56 36.171875 55.265625 
Q 40.578125 54.546875 44.28125 53.078125 
z
" id="DejaVuSans-73"/>
    <path d="M 4.203125 54.6875 
L 13.1875 54.6875 
L 24.421875 12.015625 
L 35.59375 54.6875 
L 46.1875 54.6875 
L 57.421875 12.015625 
L 68.609375 54.6875 
L 77.59375 54.6875 
L 63.28125 0 
L 52.6875 0 
L 40.921875 44.828125 
L 29.109375 0 
L 18.5 0 
z
" id="DejaVuSans-77"/>
    <path d="M 9.078125 75.984375 
L 18.109375 75.984375 
L 18.109375 31.109375 
L 44.921875 54.6875 
L 56.390625 54.6875 
L 27.390625 29.109375 
L 57.625 0 
L 45.90625 0 
L 18.109375 26.703125 
L 18.109375 0 
L 9.078125 0 
z
" id="DejaVuSans-6b"/>
   </defs>
   <g style="opacity:0.7;" transform="translate(688.39625 336.619531)rotate(-90)scale(0.1 -0.1)">
    <use xlink:href="#DejaVuSans-20"/>
    <use x="31.787109" xlink:href="#DejaVuSans-55"/>
    <use x="104.980469" xlink:href="#DejaVuSans-73"/>
    <use x="157.080078" xlink:href="#DejaVuSans-69"/>
    <use x="184.863281" xlink:href="#DejaVuSans-6e"/>
    <use x="248.242188" xlink:href="#DejaVuSans-67"/>
    <use x="311.71875" xlink:href="#DejaVuSans-20"/>
    <use x="343.505859" xlink:href="#DejaVuSans-57"/>
    <use x="442.351562" xlink:href="#DejaVuSans-69"/>
    <use x="470.134766" xlink:href="#DejaVuSans-6c"/>
    <use x="497.917969" xlink:href="#DejaVuSans-6c"/>
    <use x="525.701172" xlink:href="#DejaVuSans-6f"/>
    <use x="586.882812" xlink:href="#DejaVuSans-74"/>
    <use x="626.091797" xlink:href="#DejaVuSans-74"/>
    <use x="665.300781" xlink:href="#DejaVuSans-20"/>
    <use x="697.087891" xlink:href="#DejaVuSans-51"/>
    <use x="775.798828" xlink:href="#DejaVuSans-4c"/>
    <use x="831.511719" xlink:href="#DejaVuSans-46"/>
    <use x="889.03125" xlink:href="#DejaVuSans-20"/>
    <use x="920.818359" xlink:href="#DejaVuSans-77"/>
    <use x="1002.605469" xlink:href="#DejaVuSans-69"/>
    <use x="1030.388672" xlink:href="#DejaVuSans-74"/>
    <use x="1069.597656" xlink:href="#DejaVuSans-68"/>
    <use x="1132.976562" xlink:href="#DejaVuSans-20"/>
    <use x="1164.763672" xlink:href="#DejaVuSans-6b"/>
    <use x="1222.673828" xlink:href="#DejaVuSans-3d"/>
    <use x="1306.462891" xlink:href="#DejaVuSans-2d"/>
    <use x="1342.546875" xlink:href="#DejaVuSans-30"/>
    <use x="1406.169922" xlink:href="#DejaVuSans-2e"/>
    <use x="1437.957031" xlink:href="#DejaVuSans-34"/>
    <use x="1501.580078" xlink:href="#DejaVuSans-37"/>
    <use x="1565.203125" xlink:href="#DejaVuSans-30"/>
    <use x="1628.826172" xlink:href="#DejaVuSans-30"/>
   </g>
  </g>
 </g>
 <defs>
  <clipPath id="pe8516be864">
   <rect height="388.08" width="475.568182" x="90" y="60.48"/>
  </clipPath>
  <clipPath id="p7b3d4b5086">
   <rect height="388.08" width="31.704545" x="616.295455" y="60.48"/>
  </clipPath>
 </defs>
</svg>
