<?xml version="1.0" encoding="utf-8" standalone="no"?>
<!DOCTYPE svg PUBLIC "-//W3C//DTD SVG 1.1//EN"
  "http://www.w3.org/Graphics/SVG/1.1/DTD/svg11.dtd">
<!-- Created with matplotlib (http://matplotlib.org/) -->
<svg height="504pt" version="1.1" viewBox="0 0 720 504" width="720pt" xmlns="http://www.w3.org/2000/svg" xmlns:xlink="http://www.w3.org/1999/xlink">
 <defs>
  <style type="text/css">
*{stroke-linecap:butt;stroke-linejoin:round;stroke-miterlimit:100000;}
  </style>
 </defs>
 <g id="figure_1">
  <g id="patch_1">
   <path d="M 0 504 
L 720 504 
L 720 0 
L 0 0 
z
" style="fill:#ffffff;"/>
  </g>
  <g id="axes_1">
   <g id="patch_2">
    <path d="M 90 453.6 
L 565.568182 453.6 
L 565.568182 50.4 
L 90 50.4 
z
" style="fill:#ffffff;"/>
   </g>
   <g id="line2d_1">
    <path clip-path="url(#pfe2eb6eedc)" d="M 90 55.406229 
L 99.705473 56.942824 
L 109.410946 58.483093 
L 119.116419 60.028633 
L 128.821892 61.581724 
L 138.527365 63.145621 
L 148.232839 64.724956 
L 157.938312 66.326288 
L 167.643785 67.95885 
L 177.349258 69.635523 
L 187.054731 71.374054 
L 196.760204 73.19845 
L 206.465677 75.140376 
L 216.17115 77.240125 
L 225.876623 79.546451 
L 235.582096 82.114319 
L 245.28757 84.99974 
L 254.993043 88.251735 
L 264.698516 91.903064 
L 274.403989 95.962888 
L 284.109462 100.414565 
L 293.814935 105.21961 
L 303.520408 110.325974 
L 313.225881 115.677233 
L 322.931354 121.219862 
L 332.636827 126.907485 
L 342.342301 132.702411 
L 352.047774 138.575369 
L 361.753247 144.504352 
L 371.45872 150.473193 
L 381.164193 156.470203 
L 390.869666 162.487032 
L 400.575139 168.517756 
L 410.280612 174.558202 
L 419.986085 180.605438 
L 429.691558 186.657412 
L 439.397032 192.712689 
L 449.102505 198.770267 
L 458.807978 204.829448 
L 468.513451 210.889745 
L 478.218924 216.950819 
L 487.924397 223.012434 
L 497.62987 229.074426 
L 507.335343 235.136679 
L 517.040816 241.199115 
L 526.746289 247.261678 
L 536.451763 253.324329 
L 546.157236 259.387042 
L 555.862709 265.449797 
L 565.568182 271.512582 
" style="fill:none;stroke:#0000ff;stroke-dasharray:3.000000,5.000000,1.000000,5.000000;stroke-dashoffset:0.0;"/>
   </g>
   <g id="line2d_2">
    <path clip-path="url(#pfe2eb6eedc)" d="M 90 209.989821 
L 99.705473 211.518673 
L 109.410946 213.047799 
L 119.116419 214.577305 
L 128.821892 216.107344 
L 138.527365 217.638125 
L 148.232839 219.169943 
L 157.938312 220.703208 
L 167.643785 222.238491 
L 177.349258 223.776589 
L 187.054731 225.318611 
L 196.760204 226.866101 
L 206.465677 228.421201 
L 216.17115 229.98688 
L 225.876623 231.56724 
L 235.582096 233.167924 
L 245.28757 234.796654 
L 254.993043 236.463902 
L 264.698516 238.183722 
L 274.403989 239.974683 
L 284.109462 241.860801 
L 293.814935 243.872245 
L 303.520408 246.045439 
L 313.225881 248.422015 
L 322.931354 251.046114 
L 332.636827 253.959792 
L 342.342301 257.197024 
L 352.047774 260.777739 
L 361.753247 264.703855 
L 371.45872 268.958879 
L 381.164193 273.511242 
L 390.869666 278.320017 
L 400.575139 283.341057 
L 410.280612 288.531939 
L 419.986085 293.855053 
L 429.691558 299.278937 
L 439.397032 304.778368 
L 449.102505 310.333747 
L 458.807978 315.930179 
L 468.513451 321.556535 
L 478.218924 327.204596 
L 487.924397 332.868344 
L 497.62987 338.5434 
L 507.335343 344.226594 
L 517.040816 349.915636 
L 526.746289 355.608875 
L 536.451763 361.305126 
L 546.157236 367.003537 
L 555.862709 372.703495 
L 565.568182 378.404563 
" style="fill:none;stroke:#0000ff;stroke-linecap:square;"/>
   </g>
   <g id="line2d_3">
    <path clip-path="url(#pfe2eb6eedc)" d="M 90 165.950223 
L 99.705473 168.708766 
L 109.410946 171.469233 
L 119.116419 174.232093 
L 128.821892 176.997929 
L 138.527365 179.767465 
L 148.232839 182.541595 
L 157.938312 185.321429 
L 167.643785 188.108336 
L 177.349258 190.904004 
L 187.054731 193.71051 
L 196.760204 196.530397 
L 206.465677 199.366773 
L 216.17115 202.223409 
L 225.876623 205.104861 
L 235.582096 208.016588 
L 245.28757 210.965066 
L 254.993043 213.957898 
L 264.698516 217.003876 
L 274.403989 220.112993 
L 284.109462 223.296365 
L 293.814935 226.566031 
L 303.520408 229.934605 
L 313.225881 233.414766 
L 322.931354 237.018594 
L 332.636827 240.756802 
L 342.342301 244.637938 
L 352.047774 248.667677 
L 361.753247 252.848311 
L 371.45872 257.178536 
L 381.164193 261.653575 
L 390.869666 266.26561 
L 400.575139 271.00445 
L 410.280612 275.858314 
L 419.986085 280.814616 
L 429.691558 285.860667 
L 439.397032 290.984225 
L 449.102505 296.173895 
L 458.807978 301.419359 
L 468.513451 306.711491 
L 478.218924 312.042364 
L 487.924397 317.405197 
L 497.62987 322.794263 
L 507.335343 328.204767 
L 517.040816 333.632733 
L 526.746289 339.07488 
L 536.451763 344.528518 
L 546.157236 349.991451 
L 555.862709 355.461889 
L 565.568182 360.938382 
" style="fill:none;stroke:#0000ff;stroke-dasharray:6.000000,6.000000;stroke-dashoffset:0.0;"/>
   </g>
   <g id="line2d_4">
    <path clip-path="url(#pfe2eb6eedc)" d="M 90 68.942229 
L 99.705473 70.478824 
L 109.410946 72.019093 
L 119.116419 73.564633 
L 128.821892 75.117724 
L 138.527365 76.681621 
L 148.232839 78.260956 
L 157.938312 79.862288 
L 167.643785 81.49485 
L 177.349258 83.171523 
L 187.054731 84.910054 
L 196.760204 86.73445 
L 206.465677 88.676376 
L 216.17115 90.776125 
L 225.876623 93.082451 
L 235.582096 95.650319 
L 245.28757 98.53574 
L 254.993043 101.787735 
L 264.698516 105.439064 
L 274.403989 109.498888 
L 284.109462 113.950565 
L 293.814935 118.75561 
L 303.520408 123.861974 
L 313.225881 129.213233 
L 322.931354 134.755862 
L 332.636827 140.443485 
L 342.342301 146.238411 
L 352.047774 152.111369 
L 361.753247 158.040352 
L 371.45872 164.009193 
L 381.164193 170.006203 
L 390.869666 176.023032 
L 400.575139 182.053756 
L 410.280612 188.094202 
L 419.986085 194.141438 
L 429.691558 200.193412 
L 439.397032 206.248689 
L 449.102505 212.306267 
L 458.807978 218.365448 
L 468.513451 224.425745 
L 478.218924 230.486819 
L 487.924397 236.548434 
L 497.62987 242.610426 
L 507.335343 248.672679 
L 517.040816 254.735115 
L 526.746289 260.797678 
L 536.451763 266.860329 
L 546.157236 272.923042 
L 555.862709 278.985797 
L 565.568182 285.048582 
" style="fill:none;stroke:#4400bb;stroke-dasharray:3.000000,5.000000,1.000000,5.000000;stroke-dashoffset:0.0;"/>
   </g>
   <g id="line2d_5">
    <path clip-path="url(#pfe2eb6eedc)" d="M 90 223.525821 
L 99.705473 225.054673 
L 109.410946 226.583799 
L 119.116419 228.113305 
L 128.821892 229.643344 
L 138.527365 231.174125 
L 148.232839 232.705943 
L 157.938312 234.239208 
L 167.643785 235.774491 
L 177.349258 237.312589 
L 187.054731 238.854611 
L 196.760204 240.402101 
L 206.465677 241.957201 
L 216.17115 243.52288 
L 225.876623 245.10324 
L 235.582096 246.703924 
L 245.28757 248.332654 
L 254.993043 249.999902 
L 264.698516 251.719722 
L 274.403989 253.510683 
L 284.109462 255.396801 
L 293.814935 257.408245 
L 303.520408 259.581439 
L 313.225881 261.958015 
L 322.931354 264.582114 
L 332.636827 267.495792 
L 342.342301 270.733024 
L 352.047774 274.313739 
L 361.753247 278.239855 
L 371.45872 282.494879 
L 381.164193 287.047242 
L 390.869666 291.856017 
L 400.575139 296.877057 
L 410.280612 302.067939 
L 419.986085 307.391053 
L 429.691558 312.814937 
L 439.397032 318.314368 
L 449.102505 323.869747 
L 458.807978 329.466179 
L 468.513451 335.092535 
L 478.218924 340.740596 
L 487.924397 346.404344 
L 497.62987 352.0794 
L 507.335343 357.762594 
L 517.040816 363.451636 
L 526.746289 369.144875 
L 536.451763 374.841126 
L 546.157236 380.539537 
L 555.862709 386.239495 
L 565.568182 391.940563 
" style="fill:none;stroke:#4400bb;stroke-linecap:square;"/>
   </g>
   <g id="line2d_6">
    <path clip-path="url(#pfe2eb6eedc)" d="M 90 186.110223 
L 99.705473 188.868766 
L 109.410946 191.629233 
L 119.116419 194.392093 
L 128.821892 197.157929 
L 138.527365 199.927465 
L 148.232839 202.701595 
L 157.938312 205.481429 
L 167.643785 208.268336 
L 177.349258 211.064004 
L 187.054731 213.87051 
L 196.760204 216.690397 
L 206.465677 219.526773 
L 216.17115 222.383409 
L 225.876623 225.264861 
L 235.582096 228.176588 
L 245.28757 231.125066 
L 254.993043 234.117898 
L 264.698516 237.163876 
L 274.403989 240.272993 
L 284.109462 243.456365 
L 293.814935 246.726031 
L 303.520408 250.094605 
L 313.225881 253.574766 
L 322.931354 257.178594 
L 332.636827 260.916802 
L 342.342301 264.797938 
L 352.047774 268.827677 
L 361.753247 273.008311 
L 371.45872 277.338536 
L 381.164193 281.813575 
L 390.869666 286.42561 
L 400.575139 291.16445 
L 410.280612 296.018314 
L 419.986085 300.974616 
L 429.691558 306.020667 
L 439.397032 311.144225 
L 449.102505 316.333895 
L 458.807978 321.579359 
L 468.513451 326.871491 
L 478.218924 332.202364 
L 487.924397 337.565197 
L 497.62987 342.954263 
L 507.335343 348.364767 
L 517.040816 353.792733 
L 526.746289 359.23488 
L 536.451763 364.688518 
L 546.157236 370.151451 
L 555.862709 375.621889 
L 565.568182 381.098382 
" style="fill:none;stroke:#4400bb;stroke-dasharray:6.000000,6.000000;stroke-dashoffset:0.0;"/>
   </g>
   <g id="line2d_7">
    <path clip-path="url(#pfe2eb6eedc)" d="M 90 82.478229 
L 99.705473 84.014824 
L 109.410946 85.555093 
L 119.116419 87.100633 
L 128.821892 88.653724 
L 138.527365 90.217621 
L 148.232839 91.796956 
L 157.938312 93.398288 
L 167.643785 95.03085 
L 177.349258 96.707523 
L 187.054731 98.446054 
L 196.760204 100.27045 
L 206.465677 102.212376 
L 216.17115 104.312125 
L 225.876623 106.618451 
L 235.582096 109.186319 
L 245.28757 112.07174 
L 254.993043 115.323735 
L 264.698516 118.975064 
L 274.403989 123.034888 
L 284.109462 127.486565 
L 293.814935 132.29161 
L 303.520408 137.397974 
L 313.225881 142.749233 
L 322.931354 148.291862 
L 332.636827 153.979485 
L 342.342301 159.774411 
L 352.047774 165.647369 
L 361.753247 171.576352 
L 371.45872 177.545193 
L 381.164193 183.542203 
L 390.869666 189.559032 
L 400.575139 195.589756 
L 410.280612 201.630202 
L 419.986085 207.677438 
L 429.691558 213.729412 
L 439.397032 219.784689 
L 449.102505 225.842267 
L 458.807978 231.901448 
L 468.513451 237.961745 
L 478.218924 244.022819 
L 487.924397 250.084434 
L 497.62987 256.146426 
L 507.335343 262.208679 
L 517.040816 268.271115 
L 526.746289 274.333678 
L 536.451763 280.396329 
L 546.157236 286.459042 
L 555.862709 292.521797 
L 565.568182 298.584582 
" style="fill:none;stroke:#880088;stroke-dasharray:3.000000,5.000000,1.000000,5.000000;stroke-dashoffset:0.0;"/>
   </g>
   <g id="line2d_8">
    <path clip-path="url(#pfe2eb6eedc)" d="M 90 237.061821 
L 99.705473 238.590673 
L 109.410946 240.119799 
L 119.116419 241.649305 
L 128.821892 243.179344 
L 138.527365 244.710125 
L 148.232839 246.241943 
L 157.938312 247.775208 
L 167.643785 249.310491 
L 177.349258 250.848589 
L 187.054731 252.390611 
L 196.760204 253.938101 
L 206.465677 255.493201 
L 216.17115 257.05888 
L 225.876623 258.63924 
L 235.582096 260.239924 
L 245.28757 261.868654 
L 254.993043 263.535902 
L 264.698516 265.255722 
L 274.403989 267.046683 
L 284.109462 268.932801 
L 293.814935 270.944245 
L 303.520408 273.117439 
L 313.225881 275.494015 
L 322.931354 278.118114 
L 332.636827 281.031792 
L 342.342301 284.269024 
L 352.047774 287.849739 
L 361.753247 291.775855 
L 371.45872 296.030879 
L 381.164193 300.583242 
L 390.869666 305.392017 
L 400.575139 310.413057 
L 410.280612 315.603939 
L 419.986085 320.927053 
L 429.691558 326.350937 
L 439.397032 331.850368 
L 449.102505 337.405747 
L 458.807978 343.002179 
L 468.513451 348.628535 
L 478.218924 354.276596 
L 487.924397 359.940344 
L 497.62987 365.6154 
L 507.335343 371.298594 
L 517.040816 376.987636 
L 526.746289 382.680875 
L 536.451763 388.377126 
L 546.157236 394.075537 
L 555.862709 399.775495 
L 565.568182 405.476563 
" style="fill:none;stroke:#880088;stroke-linecap:square;"/>
   </g>
   <g id="line2d_9">
    <path clip-path="url(#pfe2eb6eedc)" d="M 90 206.270223 
L 99.705473 209.028766 
L 109.410946 211.789233 
L 119.116419 214.552093 
L 128.821892 217.317929 
L 138.527365 220.087465 
L 148.232839 222.861595 
L 157.938312 225.641429 
L 167.643785 228.428336 
L 177.349258 231.224004 
L 187.054731 234.03051 
L 196.760204 236.850397 
L 206.465677 239.686773 
L 216.17115 242.543409 
L 225.876623 245.424861 
L 235.582096 248.336588 
L 245.28757 251.285066 
L 254.993043 254.277898 
L 264.698516 257.323876 
L 274.403989 260.432993 
L 284.109462 263.616365 
L 293.814935 266.886031 
L 303.520408 270.254605 
L 313.225881 273.734766 
L 322.931354 277.338594 
L 332.636827 281.076802 
L 342.342301 284.957938 
L 352.047774 288.987677 
L 361.753247 293.168311 
L 371.45872 297.498536 
L 381.164193 301.973575 
L 390.869666 306.58561 
L 400.575139 311.32445 
L 410.280612 316.178314 
L 419.986085 321.134616 
L 429.691558 326.180667 
L 439.397032 331.304225 
L 449.102505 336.493895 
L 458.807978 341.739359 
L 468.513451 347.031491 
L 478.218924 352.362364 
L 487.924397 357.725197 
L 497.62987 363.114263 
L 507.335343 368.524767 
L 517.040816 373.952733 
L 526.746289 379.39488 
L 536.451763 384.848518 
L 546.157236 390.311451 
L 555.862709 395.781889 
L 565.568182 401.258382 
" style="fill:none;stroke:#880088;stroke-dasharray:6.000000,6.000000;stroke-dashoffset:0.0;"/>
   </g>
   <g id="line2d_10">
    <path clip-path="url(#pfe2eb6eedc)" d="M 90 96.014229 
L 99.705473 97.550824 
L 109.410946 99.091093 
L 119.116419 100.636633 
L 128.821892 102.189724 
L 138.527365 103.753621 
L 148.232839 105.332956 
L 157.938312 106.934288 
L 167.643785 108.56685 
L 177.349258 110.243523 
L 187.054731 111.982054 
L 196.760204 113.80645 
L 206.465677 115.748376 
L 216.17115 117.848125 
L 225.876623 120.154451 
L 235.582096 122.722319 
L 245.28757 125.60774 
L 254.993043 128.859735 
L 264.698516 132.511064 
L 274.403989 136.570888 
L 284.109462 141.022565 
L 293.814935 145.82761 
L 303.520408 150.933974 
L 313.225881 156.285233 
L 322.931354 161.827862 
L 332.636827 167.515485 
L 342.342301 173.310411 
L 352.047774 179.183369 
L 361.753247 185.112352 
L 371.45872 191.081193 
L 381.164193 197.078203 
L 390.869666 203.095032 
L 400.575139 209.125756 
L 410.280612 215.166202 
L 419.986085 221.213438 
L 429.691558 227.265412 
L 439.397032 233.320689 
L 449.102505 239.378267 
L 458.807978 245.437448 
L 468.513451 251.497745 
L 478.218924 257.558819 
L 487.924397 263.620434 
L 497.62987 269.682426 
L 507.335343 275.744679 
L 517.040816 281.807115 
L 526.746289 287.869678 
L 536.451763 293.932329 
L 546.157236 299.995042 
L 555.862709 306.057797 
L 565.568182 312.120582 
" style="fill:none;stroke:#bb0044;stroke-dasharray:3.000000,5.000000,1.000000,5.000000;stroke-dashoffset:0.0;"/>
   </g>
   <g id="line2d_11">
    <path clip-path="url(#pfe2eb6eedc)" d="M 90 250.597821 
L 99.705473 252.126673 
L 109.410946 253.655799 
L 119.116419 255.185305 
L 128.821892 256.715344 
L 138.527365 258.246125 
L 148.232839 259.777943 
L 157.938312 261.311208 
L 167.643785 262.846491 
L 177.349258 264.384589 
L 187.054731 265.926611 
L 196.760204 267.474101 
L 206.465677 269.029201 
L 216.17115 270.59488 
L 225.876623 272.17524 
L 235.582096 273.775924 
L 245.28757 275.404654 
L 254.993043 277.071902 
L 264.698516 278.791722 
L 274.403989 280.582683 
L 284.109462 282.468801 
L 293.814935 284.480245 
L 303.520408 286.653439 
L 313.225881 289.030015 
L 322.931354 291.654114 
L 332.636827 294.567792 
L 342.342301 297.805024 
L 352.047774 301.385739 
L 361.753247 305.311855 
L 371.45872 309.566879 
L 381.164193 314.119242 
L 390.869666 318.928017 
L 400.575139 323.949057 
L 410.280612 329.139939 
L 419.986085 334.463053 
L 429.691558 339.886937 
L 439.397032 345.386368 
L 449.102505 350.941747 
L 458.807978 356.538179 
L 468.513451 362.164535 
L 478.218924 367.812596 
L 487.924397 373.476344 
L 497.62987 379.1514 
L 507.335343 384.834594 
L 517.040816 390.523636 
L 526.746289 396.216875 
L 536.451763 401.913126 
L 546.157236 407.611537 
L 555.862709 413.311495 
L 565.568182 419.012563 
" style="fill:none;stroke:#bb0044;stroke-linecap:square;"/>
   </g>
   <g id="line2d_12">
    <path clip-path="url(#pfe2eb6eedc)" d="M 90 226.430223 
L 99.705473 229.188766 
L 109.410946 231.949233 
L 119.116419 234.712093 
L 128.821892 237.477929 
L 138.527365 240.247465 
L 148.232839 243.021595 
L 157.938312 245.801429 
L 167.643785 248.588336 
L 177.349258 251.384004 
L 187.054731 254.19051 
L 196.760204 257.010397 
L 206.465677 259.846773 
L 216.17115 262.703409 
L 225.876623 265.584861 
L 235.582096 268.496588 
L 245.28757 271.445066 
L 254.993043 274.437898 
L 264.698516 277.483876 
L 274.403989 280.592993 
L 284.109462 283.776365 
L 293.814935 287.046031 
L 303.520408 290.414605 
L 313.225881 293.894766 
L 322.931354 297.498594 
L 332.636827 301.236802 
L 342.342301 305.117938 
L 352.047774 309.147677 
L 361.753247 313.328311 
L 371.45872 317.658536 
L 381.164193 322.133575 
L 390.869666 326.74561 
L 400.575139 331.48445 
L 410.280612 336.338314 
L 419.986085 341.294616 
L 429.691558 346.340667 
L 439.397032 351.464225 
L 449.102505 356.653895 
L 458.807978 361.899359 
L 468.513451 367.191491 
L 478.218924 372.522364 
L 487.924397 377.885197 
L 497.62987 383.274263 
L 507.335343 388.684767 
L 517.040816 394.112733 
L 526.746289 399.55488 
L 536.451763 405.008518 
L 546.157236 410.471451 
L 555.862709 415.941889 
L 565.568182 421.418382 
" style="fill:none;stroke:#bb0044;stroke-dasharray:6.000000,6.000000;stroke-dashoffset:0.0;"/>
   </g>
   <g id="line2d_13">
    <path clip-path="url(#pfe2eb6eedc)" d="M 90 109.550229 
L 99.705473 111.086824 
L 109.410946 112.627093 
L 119.116419 114.172633 
L 128.821892 115.725724 
L 138.527365 117.289621 
L 148.232839 118.868956 
L 157.938312 120.470288 
L 167.643785 122.10285 
L 177.349258 123.779523 
L 187.054731 125.518054 
L 196.760204 127.34245 
L 206.465677 129.284376 
L 216.17115 131.384125 
L 225.876623 133.690451 
L 235.582096 136.258319 
L 245.28757 139.14374 
L 254.993043 142.395735 
L 264.698516 146.047064 
L 274.403989 150.106888 
L 284.109462 154.558565 
L 293.814935 159.36361 
L 303.520408 164.469974 
L 313.225881 169.821233 
L 322.931354 175.363862 
L 332.636827 181.051485 
L 342.342301 186.846411 
L 352.047774 192.719369 
L 361.753247 198.648352 
L 371.45872 204.617193 
L 381.164193 210.614203 
L 390.869666 216.631032 
L 400.575139 222.661756 
L 410.280612 228.702202 
L 419.986085 234.749438 
L 429.691558 240.801412 
L 439.397032 246.856689 
L 449.102505 252.914267 
L 458.807978 258.973448 
L 468.513451 265.033745 
L 478.218924 271.094819 
L 487.924397 277.156434 
L 497.62987 283.218426 
L 507.335343 289.280679 
L 517.040816 295.343115 
L 526.746289 301.405678 
L 536.451763 307.468329 
L 546.157236 313.531042 
L 555.862709 319.593797 
L 565.568182 325.656582 
" style="fill:none;stroke:#ff0000;stroke-dasharray:3.000000,5.000000,1.000000,5.000000;stroke-dashoffset:0.0;"/>
   </g>
   <g id="line2d_14">
    <path clip-path="url(#pfe2eb6eedc)" d="M 90 264.133821 
L 99.705473 265.662673 
L 109.410946 267.191799 
L 119.116419 268.721305 
L 128.821892 270.251344 
L 138.527365 271.782125 
L 148.232839 273.313943 
L 157.938312 274.847208 
L 167.643785 276.382491 
L 177.349258 277.920589 
L 187.054731 279.462611 
L 196.760204 281.010101 
L 206.465677 282.565201 
L 216.17115 284.13088 
L 225.876623 285.71124 
L 235.582096 287.311924 
L 245.28757 288.940654 
L 254.993043 290.607902 
L 264.698516 292.327722 
L 274.403989 294.118683 
L 284.109462 296.004801 
L 293.814935 298.016245 
L 303.520408 300.189439 
L 313.225881 302.566015 
L 322.931354 305.190114 
L 332.636827 308.103792 
L 342.342301 311.341024 
L 352.047774 314.921739 
L 361.753247 318.847855 
L 371.45872 323.102879 
L 381.164193 327.655242 
L 390.869666 332.464017 
L 400.575139 337.485057 
L 410.280612 342.675939 
L 419.986085 347.999053 
L 429.691558 353.422937 
L 439.397032 358.922368 
L 449.102505 364.477747 
L 458.807978 370.074179 
L 468.513451 375.700535 
L 478.218924 381.348596 
L 487.924397 387.012344 
L 497.62987 392.6874 
L 507.335343 398.370594 
L 517.040816 404.059636 
L 526.746289 409.752875 
L 536.451763 415.449126 
L 546.157236 421.147537 
L 555.862709 426.847495 
L 565.568182 432.548563 
" style="fill:none;stroke:#ff0000;stroke-linecap:square;"/>
   </g>
   <g id="line2d_15">
    <path clip-path="url(#pfe2eb6eedc)" d="M 90 246.590223 
L 99.705473 249.348766 
L 109.410946 252.109233 
L 119.116419 254.872093 
L 128.821892 257.637929 
L 138.527365 260.407465 
L 148.232839 263.181595 
L 157.938312 265.961429 
L 167.643785 268.748336 
L 177.349258 271.544004 
L 187.054731 274.35051 
L 196.760204 277.170397 
L 206.465677 280.006773 
L 216.17115 282.863409 
L 225.876623 285.744861 
L 235.582096 288.656588 
L 245.28757 291.605066 
L 254.993043 294.597898 
L 264.698516 297.643876 
L 274.403989 300.752993 
L 284.109462 303.936365 
L 293.814935 307.206031 
L 303.520408 310.574605 
L 313.225881 314.054766 
L 322.931354 317.658594 
L 332.636827 321.396802 
L 342.342301 325.277938 
L 352.047774 329.307677 
L 361.753247 333.488311 
L 371.45872 337.818536 
L 381.164193 342.293575 
L 390.869666 346.90561 
L 400.575139 351.64445 
L 410.280612 356.498314 
L 419.986085 361.454616 
L 429.691558 366.500667 
L 439.397032 371.624225 
L 449.102505 376.813895 
L 458.807978 382.059359 
L 468.513451 387.351491 
L 478.218924 392.682364 
L 487.924397 398.045197 
L 497.62987 403.434263 
L 507.335343 408.844767 
L 517.040816 414.272733 
L 526.746289 419.71488 
L 536.451763 425.168518 
L 546.157236 430.631451 
L 555.862709 436.101889 
L 565.568182 441.578382 
" style="fill:none;stroke:#ff0000;stroke-dasharray:6.000000,6.000000;stroke-dashoffset:0.0;"/>
   </g>
   <g id="patch_3">
    <path d="M 90 453.6 
L 565.568182 453.6 
" style="fill:none;stroke:#000000;stroke-linecap:square;stroke-linejoin:miter;"/>
   </g>
   <g id="patch_4">
    <path d="M 90 453.6 
L 90 50.4 
" style="fill:none;stroke:#000000;stroke-linecap:square;stroke-linejoin:miter;"/>
   </g>
   <g id="patch_5">
    <path d="M 90 50.4 
L 565.568182 50.4 
" style="fill:none;stroke:#000000;stroke-linecap:square;stroke-linejoin:miter;"/>
   </g>
   <g id="patch_6">
    <path d="M 565.568182 453.6 
L 565.568182 50.4 
" style="fill:none;stroke:#000000;stroke-linecap:square;stroke-linejoin:miter;"/>
   </g>
   <g id="matplotlib.axis_1">
    <g id="xtick_1">
     <g id="line2d_16">
      <path clip-path="url(#pfe2eb6eedc)" d="M 528.986014 453.6 
L 528.986014 50.4 
" style="fill:none;stroke:#000000;stroke-dasharray:1.000000,3.000000;stroke-dashoffset:0.0;stroke-width:0.5;"/>
     </g>
     <g id="line2d_17">
      <defs>
       <path d="M 0 0 
L 0 -4 
" id="m6e1fc3257f" style="stroke:#000000;stroke-width:0.5;"/>
      </defs>
      <g>
       <use style="stroke:#000000;stroke-width:0.5;" x="528.986013986" xlink:href="#m6e1fc3257f" y="453.6"/>
      </g>
     </g>
     <g id="line2d_18">
      <defs>
       <path d="M 0 0 
L 0 4 
" id="m74f929b975" style="stroke:#000000;stroke-width:0.5;"/>
      </defs>
      <g>
       <use style="stroke:#000000;stroke-width:0.5;" x="528.986013986" xlink:href="#m74f929b975" y="50.4"/>
      </g>
     </g>
     <g id="text_1">
      <!-- −30 -->
      <defs>
       <path d="M 31.78125 66.40625 
Q 24.171875 66.40625 20.328125 58.90625 
Q 16.5 51.421875 16.5 36.375 
Q 16.5 21.390625 20.328125 13.890625 
Q 24.171875 6.390625 31.78125 6.390625 
Q 39.453125 6.390625 43.28125 13.890625 
Q 47.125 21.390625 47.125 36.375 
Q 47.125 51.421875 43.28125 58.90625 
Q 39.453125 66.40625 31.78125 66.40625 
M 31.78125 74.21875 
Q 44.046875 74.21875 50.515625 64.515625 
Q 56.984375 54.828125 56.984375 36.375 
Q 56.984375 17.96875 50.515625 8.265625 
Q 44.046875 -1.421875 31.78125 -1.421875 
Q 19.53125 -1.421875 13.0625 8.265625 
Q 6.59375 17.96875 6.59375 36.375 
Q 6.59375 54.828125 13.0625 64.515625 
Q 19.53125 74.21875 31.78125 74.21875 
" id="BitstreamVeraSans-Roman-30"/>
       <path d="M 40.578125 39.3125 
Q 47.65625 37.796875 51.625 33 
Q 55.609375 28.21875 55.609375 21.1875 
Q 55.609375 10.40625 48.1875 4.484375 
Q 40.765625 -1.421875 27.09375 -1.421875 
Q 22.515625 -1.421875 17.65625 -0.515625 
Q 12.796875 0.390625 7.625 2.203125 
L 7.625 11.71875 
Q 11.71875 9.328125 16.59375 8.109375 
Q 21.484375 6.890625 26.8125 6.890625 
Q 36.078125 6.890625 40.9375 10.546875 
Q 45.796875 14.203125 45.796875 21.1875 
Q 45.796875 27.640625 41.28125 31.265625 
Q 36.765625 34.90625 28.71875 34.90625 
L 20.21875 34.90625 
L 20.21875 43.015625 
L 29.109375 43.015625 
Q 36.375 43.015625 40.234375 45.921875 
Q 44.09375 48.828125 44.09375 54.296875 
Q 44.09375 59.90625 40.109375 62.90625 
Q 36.140625 65.921875 28.71875 65.921875 
Q 24.65625 65.921875 20.015625 65.03125 
Q 15.375 64.15625 9.8125 62.3125 
L 9.8125 71.09375 
Q 15.4375 72.65625 20.34375 73.4375 
Q 25.25 74.21875 29.59375 74.21875 
Q 40.828125 74.21875 47.359375 69.109375 
Q 53.90625 64.015625 53.90625 55.328125 
Q 53.90625 49.265625 50.4375 45.09375 
Q 46.96875 40.921875 40.578125 39.3125 
" id="BitstreamVeraSans-Roman-33"/>
       <path d="M 10.59375 35.5 
L 73.1875 35.5 
L 73.1875 27.203125 
L 10.59375 27.203125 
z
" id="BitstreamVeraSans-Roman-2212"/>
      </defs>
      <g transform="translate(516.323201486 466.718125)scale(0.12 -0.12)">
       <use xlink:href="#BitstreamVeraSans-Roman-2212"/>
       <use x="83.7890625" xlink:href="#BitstreamVeraSans-Roman-33"/>
       <use x="147.412109375" xlink:href="#BitstreamVeraSans-Roman-30"/>
      </g>
     </g>
    </g>
    <g id="xtick_2">
     <g id="line2d_19">
      <path clip-path="url(#pfe2eb6eedc)" d="M 455.821678 453.6 
L 455.821678 50.4 
" style="fill:none;stroke:#000000;stroke-dasharray:1.000000,3.000000;stroke-dashoffset:0.0;stroke-width:0.5;"/>
     </g>
     <g id="line2d_20">
      <g>
       <use style="stroke:#000000;stroke-width:0.5;" x="455.821678322" xlink:href="#m6e1fc3257f" y="453.6"/>
      </g>
     </g>
     <g id="line2d_21">
      <g>
       <use style="stroke:#000000;stroke-width:0.5;" x="455.821678322" xlink:href="#m74f929b975" y="50.4"/>
      </g>
     </g>
     <g id="text_2">
      <!-- −28 -->
      <defs>
       <path d="M 31.78125 34.625 
Q 24.75 34.625 20.71875 30.859375 
Q 16.703125 27.09375 16.703125 20.515625 
Q 16.703125 13.921875 20.71875 10.15625 
Q 24.75 6.390625 31.78125 6.390625 
Q 38.8125 6.390625 42.859375 10.171875 
Q 46.921875 13.96875 46.921875 20.515625 
Q 46.921875 27.09375 42.890625 30.859375 
Q 38.875 34.625 31.78125 34.625 
M 21.921875 38.8125 
Q 15.578125 40.375 12.03125 44.71875 
Q 8.5 49.078125 8.5 55.328125 
Q 8.5 64.0625 14.71875 69.140625 
Q 20.953125 74.21875 31.78125 74.21875 
Q 42.671875 74.21875 48.875 69.140625 
Q 55.078125 64.0625 55.078125 55.328125 
Q 55.078125 49.078125 51.53125 44.71875 
Q 48 40.375 41.703125 38.8125 
Q 48.828125 37.15625 52.796875 32.3125 
Q 56.78125 27.484375 56.78125 20.515625 
Q 56.78125 9.90625 50.3125 4.234375 
Q 43.84375 -1.421875 31.78125 -1.421875 
Q 19.734375 -1.421875 13.25 4.234375 
Q 6.78125 9.90625 6.78125 20.515625 
Q 6.78125 27.484375 10.78125 32.3125 
Q 14.796875 37.15625 21.921875 38.8125 
M 18.3125 54.390625 
Q 18.3125 48.734375 21.84375 45.5625 
Q 25.390625 42.390625 31.78125 42.390625 
Q 38.140625 42.390625 41.71875 45.5625 
Q 45.3125 48.734375 45.3125 54.390625 
Q 45.3125 60.0625 41.71875 63.234375 
Q 38.140625 66.40625 31.78125 66.40625 
Q 25.390625 66.40625 21.84375 63.234375 
Q 18.3125 60.0625 18.3125 54.390625 
" id="BitstreamVeraSans-Roman-38"/>
       <path d="M 19.1875 8.296875 
L 53.609375 8.296875 
L 53.609375 0 
L 7.328125 0 
L 7.328125 8.296875 
Q 12.9375 14.109375 22.625 23.890625 
Q 32.328125 33.6875 34.8125 36.53125 
Q 39.546875 41.84375 41.421875 45.53125 
Q 43.3125 49.21875 43.3125 52.78125 
Q 43.3125 58.59375 39.234375 62.25 
Q 35.15625 65.921875 28.609375 65.921875 
Q 23.96875 65.921875 18.8125 64.3125 
Q 13.671875 62.703125 7.8125 59.421875 
L 7.8125 69.390625 
Q 13.765625 71.78125 18.9375 73 
Q 24.125 74.21875 28.421875 74.21875 
Q 39.75 74.21875 46.484375 68.546875 
Q 53.21875 62.890625 53.21875 53.421875 
Q 53.21875 48.921875 51.53125 44.890625 
Q 49.859375 40.875 45.40625 35.40625 
Q 44.1875 33.984375 37.640625 27.21875 
Q 31.109375 20.453125 19.1875 8.296875 
" id="BitstreamVeraSans-Roman-32"/>
      </defs>
      <g transform="translate(443.158865822 466.718125)scale(0.12 -0.12)">
       <use xlink:href="#BitstreamVeraSans-Roman-2212"/>
       <use x="83.7890625" xlink:href="#BitstreamVeraSans-Roman-32"/>
       <use x="147.412109375" xlink:href="#BitstreamVeraSans-Roman-38"/>
      </g>
     </g>
    </g>
    <g id="xtick_3">
     <g id="line2d_22">
      <path clip-path="url(#pfe2eb6eedc)" d="M 382.657343 453.6 
L 382.657343 50.4 
" style="fill:none;stroke:#000000;stroke-dasharray:1.000000,3.000000;stroke-dashoffset:0.0;stroke-width:0.5;"/>
     </g>
     <g id="line2d_23">
      <g>
       <use style="stroke:#000000;stroke-width:0.5;" x="382.657342657" xlink:href="#m6e1fc3257f" y="453.6"/>
      </g>
     </g>
     <g id="line2d_24">
      <g>
       <use style="stroke:#000000;stroke-width:0.5;" x="382.657342657" xlink:href="#m74f929b975" y="50.4"/>
      </g>
     </g>
     <g id="text_3">
      <!-- −26 -->
      <defs>
       <path d="M 33.015625 40.375 
Q 26.375 40.375 22.484375 35.828125 
Q 18.609375 31.296875 18.609375 23.390625 
Q 18.609375 15.53125 22.484375 10.953125 
Q 26.375 6.390625 33.015625 6.390625 
Q 39.65625 6.390625 43.53125 10.953125 
Q 47.40625 15.53125 47.40625 23.390625 
Q 47.40625 31.296875 43.53125 35.828125 
Q 39.65625 40.375 33.015625 40.375 
M 52.59375 71.296875 
L 52.59375 62.3125 
Q 48.875 64.0625 45.09375 64.984375 
Q 41.3125 65.921875 37.59375 65.921875 
Q 27.828125 65.921875 22.671875 59.328125 
Q 17.53125 52.734375 16.796875 39.40625 
Q 19.671875 43.65625 24.015625 45.921875 
Q 28.375 48.1875 33.59375 48.1875 
Q 44.578125 48.1875 50.953125 41.515625 
Q 57.328125 34.859375 57.328125 23.390625 
Q 57.328125 12.15625 50.6875 5.359375 
Q 44.046875 -1.421875 33.015625 -1.421875 
Q 20.359375 -1.421875 13.671875 8.265625 
Q 6.984375 17.96875 6.984375 36.375 
Q 6.984375 53.65625 15.1875 63.9375 
Q 23.390625 74.21875 37.203125 74.21875 
Q 40.921875 74.21875 44.703125 73.484375 
Q 48.484375 72.75 52.59375 71.296875 
" id="BitstreamVeraSans-Roman-36"/>
      </defs>
      <g transform="translate(369.994530157 466.718125)scale(0.12 -0.12)">
       <use xlink:href="#BitstreamVeraSans-Roman-2212"/>
       <use x="83.7890625" xlink:href="#BitstreamVeraSans-Roman-32"/>
       <use x="147.412109375" xlink:href="#BitstreamVeraSans-Roman-36"/>
      </g>
     </g>
    </g>
    <g id="xtick_4">
     <g id="line2d_25">
      <path clip-path="url(#pfe2eb6eedc)" d="M 309.493007 453.6 
L 309.493007 50.4 
" style="fill:none;stroke:#000000;stroke-dasharray:1.000000,3.000000;stroke-dashoffset:0.0;stroke-width:0.5;"/>
     </g>
     <g id="line2d_26">
      <g>
       <use style="stroke:#000000;stroke-width:0.5;" x="309.493006993" xlink:href="#m6e1fc3257f" y="453.6"/>
      </g>
     </g>
     <g id="line2d_27">
      <g>
       <use style="stroke:#000000;stroke-width:0.5;" x="309.493006993" xlink:href="#m74f929b975" y="50.4"/>
      </g>
     </g>
     <g id="text_4">
      <!-- −24 -->
      <defs>
       <path d="M 37.796875 64.3125 
L 12.890625 25.390625 
L 37.796875 25.390625 
z
M 35.203125 72.90625 
L 47.609375 72.90625 
L 47.609375 25.390625 
L 58.015625 25.390625 
L 58.015625 17.1875 
L 47.609375 17.1875 
L 47.609375 0 
L 37.796875 0 
L 37.796875 17.1875 
L 4.890625 17.1875 
L 4.890625 26.703125 
z
" id="BitstreamVeraSans-Roman-34"/>
      </defs>
      <g transform="translate(296.830194493 466.718125)scale(0.12 -0.12)">
       <use xlink:href="#BitstreamVeraSans-Roman-2212"/>
       <use x="83.7890625" xlink:href="#BitstreamVeraSans-Roman-32"/>
       <use x="147.412109375" xlink:href="#BitstreamVeraSans-Roman-34"/>
      </g>
     </g>
    </g>
    <g id="xtick_5">
     <g id="line2d_28">
      <path clip-path="url(#pfe2eb6eedc)" d="M 236.328671 453.6 
L 236.328671 50.4 
" style="fill:none;stroke:#000000;stroke-dasharray:1.000000,3.000000;stroke-dashoffset:0.0;stroke-width:0.5;"/>
     </g>
     <g id="line2d_29">
      <g>
       <use style="stroke:#000000;stroke-width:0.5;" x="236.328671329" xlink:href="#m6e1fc3257f" y="453.6"/>
      </g>
     </g>
     <g id="line2d_30">
      <g>
       <use style="stroke:#000000;stroke-width:0.5;" x="236.328671329" xlink:href="#m74f929b975" y="50.4"/>
      </g>
     </g>
     <g id="text_5">
      <!-- −22 -->
      <g transform="translate(223.665858829 466.718125)scale(0.12 -0.12)">
       <use xlink:href="#BitstreamVeraSans-Roman-2212"/>
       <use x="83.7890625" xlink:href="#BitstreamVeraSans-Roman-32"/>
       <use x="147.412109375" xlink:href="#BitstreamVeraSans-Roman-32"/>
      </g>
     </g>
    </g>
    <g id="xtick_6">
     <g id="line2d_31">
      <path clip-path="url(#pfe2eb6eedc)" d="M 163.164336 453.6 
L 163.164336 50.4 
" style="fill:none;stroke:#000000;stroke-dasharray:1.000000,3.000000;stroke-dashoffset:0.0;stroke-width:0.5;"/>
     </g>
     <g id="line2d_32">
      <g>
       <use style="stroke:#000000;stroke-width:0.5;" x="163.164335664" xlink:href="#m6e1fc3257f" y="453.6"/>
      </g>
     </g>
     <g id="line2d_33">
      <g>
       <use style="stroke:#000000;stroke-width:0.5;" x="163.164335664" xlink:href="#m74f929b975" y="50.4"/>
      </g>
     </g>
     <g id="text_6">
      <!-- −20 -->
      <g transform="translate(150.501523164 466.718125)scale(0.12 -0.12)">
       <use xlink:href="#BitstreamVeraSans-Roman-2212"/>
       <use x="83.7890625" xlink:href="#BitstreamVeraSans-Roman-32"/>
       <use x="147.412109375" xlink:href="#BitstreamVeraSans-Roman-30"/>
      </g>
     </g>
    </g>
    <g id="xtick_7">
     <g id="line2d_34">
      <path clip-path="url(#pfe2eb6eedc)" d="M 90 453.6 
L 90 50.4 
" style="fill:none;stroke:#000000;stroke-dasharray:1.000000,3.000000;stroke-dashoffset:0.0;stroke-width:0.5;"/>
     </g>
     <g id="line2d_35">
      <g>
       <use style="stroke:#000000;stroke-width:0.5;" x="90.0" xlink:href="#m6e1fc3257f" y="453.6"/>
      </g>
     </g>
     <g id="line2d_36">
      <g>
       <use style="stroke:#000000;stroke-width:0.5;" x="90.0" xlink:href="#m74f929b975" y="50.4"/>
      </g>
     </g>
     <g id="text_7">
      <!-- −18 -->
      <defs>
       <path d="M 12.40625 8.296875 
L 28.515625 8.296875 
L 28.515625 63.921875 
L 10.984375 60.40625 
L 10.984375 69.390625 
L 28.421875 72.90625 
L 38.28125 72.90625 
L 38.28125 8.296875 
L 54.390625 8.296875 
L 54.390625 0 
L 12.40625 0 
z
" id="BitstreamVeraSans-Roman-31"/>
      </defs>
      <g transform="translate(77.3371875 466.718125)scale(0.12 -0.12)">
       <use xlink:href="#BitstreamVeraSans-Roman-2212"/>
       <use x="83.7890625" xlink:href="#BitstreamVeraSans-Roman-31"/>
       <use x="147.412109375" xlink:href="#BitstreamVeraSans-Roman-38"/>
      </g>
     </g>
    </g>
    <g id="text_8">
     <!-- M_1450 -->
     <defs>
      <path d="M 10.796875 72.90625 
L 49.515625 72.90625 
L 49.515625 64.59375 
L 19.828125 64.59375 
L 19.828125 46.734375 
Q 21.96875 47.46875 24.109375 47.828125 
Q 26.265625 48.1875 28.421875 48.1875 
Q 40.625 48.1875 47.75 41.5 
Q 54.890625 34.8125 54.890625 23.390625 
Q 54.890625 11.625 47.5625 5.09375 
Q 40.234375 -1.421875 26.90625 -1.421875 
Q 22.3125 -1.421875 17.546875 -0.640625 
Q 12.796875 0.140625 7.71875 1.703125 
L 7.71875 11.625 
Q 12.109375 9.234375 16.796875 8.0625 
Q 21.484375 6.890625 26.703125 6.890625 
Q 35.15625 6.890625 40.078125 11.328125 
Q 45.015625 15.765625 45.015625 23.390625 
Q 45.015625 31 40.078125 35.4375 
Q 35.15625 39.890625 26.703125 39.890625 
Q 22.75 39.890625 18.8125 39.015625 
Q 14.890625 38.140625 10.796875 36.28125 
z
" id="BitstreamVeraSans-Roman-35"/>
      <path d="M 9.8125 72.90625 
L 24.515625 72.90625 
L 43.109375 23.296875 
L 61.8125 72.90625 
L 76.515625 72.90625 
L 76.515625 0 
L 66.890625 0 
L 66.890625 64.015625 
L 48.09375 14.015625 
L 38.1875 14.015625 
L 19.390625 64.015625 
L 19.390625 0 
L 9.8125 0 
z
" id="BitstreamVeraSans-Roman-4d"/>
      <path d="M 50.984375 -16.609375 
L 50.984375 -23.578125 
L -0.984375 -23.578125 
L -0.984375 -16.609375 
z
" id="BitstreamVeraSans-Roman-5f"/>
     </defs>
     <g transform="translate(304.337215909 483.12)scale(0.12 -0.12)">
      <use xlink:href="#BitstreamVeraSans-Roman-4d"/>
      <use x="86.279296875" xlink:href="#BitstreamVeraSans-Roman-5f"/>
      <use x="136.279296875" xlink:href="#BitstreamVeraSans-Roman-31"/>
      <use x="199.90234375" xlink:href="#BitstreamVeraSans-Roman-34"/>
      <use x="263.525390625" xlink:href="#BitstreamVeraSans-Roman-35"/>
      <use x="327.1484375" xlink:href="#BitstreamVeraSans-Roman-30"/>
     </g>
    </g>
   </g>
   <g id="matplotlib.axis_2">
    <g id="ytick_1">
     <g id="line2d_37">
      <path clip-path="url(#pfe2eb6eedc)" d="M 90 453.6 
L 565.568182 453.6 
" style="fill:none;stroke:#000000;stroke-dasharray:1.000000,3.000000;stroke-dashoffset:0.0;stroke-width:0.5;"/>
     </g>
     <g id="line2d_38">
      <defs>
       <path d="M 0 0 
L 4 0 
" id="m17b90b23c1" style="stroke:#000000;stroke-width:0.5;"/>
      </defs>
      <g>
       <use style="stroke:#000000;stroke-width:0.5;" x="90.0" xlink:href="#m17b90b23c1" y="453.6"/>
      </g>
     </g>
     <g id="line2d_39">
      <defs>
       <path d="M 0 0 
L -4 0 
" id="m920f7de52d" style="stroke:#000000;stroke-width:0.5;"/>
      </defs>
      <g>
       <use style="stroke:#000000;stroke-width:0.5;" x="565.568181818" xlink:href="#m920f7de52d" y="453.6"/>
      </g>
     </g>
     <g id="text_9">
      <!-- $\mathdefault{10^{-14}}$ -->
      <defs>
       <path d="M 4.890625 31.390625 
L 31.203125 31.390625 
L 31.203125 23.390625 
L 4.890625 23.390625 
z
" id="BitstreamVeraSans-Roman-2d"/>
      </defs>
      <g transform="translate(55.4 457.164375)scale(0.12 -0.12)">
       <use transform="translate(0.0 0.7156250000000028)" xlink:href="#BitstreamVeraSans-Roman-31"/>
       <use transform="translate(63.623046875 0.7156250000000028)" xlink:href="#BitstreamVeraSans-Roman-30"/>
       <use transform="translate(132.75859375 47.965625)scale(0.7)" xlink:href="#BitstreamVeraSans-Roman-2d"/>
       <use transform="translate(158.0173828125 47.965625)scale(0.7)" xlink:href="#BitstreamVeraSans-Roman-31"/>
       <use transform="translate(202.553515625 47.965625)scale(0.7)" xlink:href="#BitstreamVeraSans-Roman-34"/>
      </g>
     </g>
    </g>
    <g id="ytick_2">
     <g id="line2d_40">
      <path clip-path="url(#pfe2eb6eedc)" d="M 90 424.8 
L 565.568182 424.8 
" style="fill:none;stroke:#000000;stroke-dasharray:1.000000,3.000000;stroke-dashoffset:0.0;stroke-width:0.5;"/>
     </g>
     <g id="line2d_41">
      <g>
       <use style="stroke:#000000;stroke-width:0.5;" x="90.0" xlink:href="#m17b90b23c1" y="424.8"/>
      </g>
     </g>
     <g id="line2d_42">
      <g>
       <use style="stroke:#000000;stroke-width:0.5;" x="565.568181818" xlink:href="#m920f7de52d" y="424.8"/>
      </g>
     </g>
     <g id="text_10">
      <!-- $\mathdefault{10^{-13}}$ -->
      <g transform="translate(55.4 428.424375)scale(0.12 -0.12)">
       <use transform="translate(0.0 0.796875)" xlink:href="#BitstreamVeraSans-Roman-31"/>
       <use transform="translate(63.623046875 0.796875)" xlink:href="#BitstreamVeraSans-Roman-30"/>
       <use transform="translate(132.75859375 48.046875)scale(0.7)" xlink:href="#BitstreamVeraSans-Roman-2d"/>
       <use transform="translate(158.0173828125 48.046875)scale(0.7)" xlink:href="#BitstreamVeraSans-Roman-31"/>
       <use transform="translate(202.553515625 48.046875)scale(0.7)" xlink:href="#BitstreamVeraSans-Roman-33"/>
      </g>
     </g>
    </g>
    <g id="ytick_3">
     <g id="line2d_43">
      <path clip-path="url(#pfe2eb6eedc)" d="M 90 396 
L 565.568182 396 
" style="fill:none;stroke:#000000;stroke-dasharray:1.000000,3.000000;stroke-dashoffset:0.0;stroke-width:0.5;"/>
     </g>
     <g id="line2d_44">
      <g>
       <use style="stroke:#000000;stroke-width:0.5;" x="90.0" xlink:href="#m17b90b23c1" y="396.0"/>
      </g>
     </g>
     <g id="line2d_45">
      <g>
       <use style="stroke:#000000;stroke-width:0.5;" x="565.568181818" xlink:href="#m920f7de52d" y="396.0"/>
      </g>
     </g>
     <g id="text_11">
      <!-- $\mathdefault{10^{-12}}$ -->
      <g transform="translate(55.4 399.624375)scale(0.12 -0.12)">
       <use transform="translate(0.0 0.796875)" xlink:href="#BitstreamVeraSans-Roman-31"/>
       <use transform="translate(63.623046875 0.796875)" xlink:href="#BitstreamVeraSans-Roman-30"/>
       <use transform="translate(132.75859375 48.046875)scale(0.7)" xlink:href="#BitstreamVeraSans-Roman-2d"/>
       <use transform="translate(158.0173828125 48.046875)scale(0.7)" xlink:href="#BitstreamVeraSans-Roman-31"/>
       <use transform="translate(202.553515625 48.046875)scale(0.7)" xlink:href="#BitstreamVeraSans-Roman-32"/>
      </g>
     </g>
    </g>
    <g id="ytick_4">
     <g id="line2d_46">
      <path clip-path="url(#pfe2eb6eedc)" d="M 90 367.2 
L 565.568182 367.2 
" style="fill:none;stroke:#000000;stroke-dasharray:1.000000,3.000000;stroke-dashoffset:0.0;stroke-width:0.5;"/>
     </g>
     <g id="line2d_47">
      <g>
       <use style="stroke:#000000;stroke-width:0.5;" x="90.0" xlink:href="#m17b90b23c1" y="367.2"/>
      </g>
     </g>
     <g id="line2d_48">
      <g>
       <use style="stroke:#000000;stroke-width:0.5;" x="565.568181818" xlink:href="#m920f7de52d" y="367.2"/>
      </g>
     </g>
     <g id="text_12">
      <!-- $\mathdefault{10^{-11}}$ -->
      <g transform="translate(55.4 370.764375)scale(0.12 -0.12)">
       <use transform="translate(0.0 0.7156250000000028)" xlink:href="#BitstreamVeraSans-Roman-31"/>
       <use transform="translate(63.623046875 0.7156250000000028)" xlink:href="#BitstreamVeraSans-Roman-30"/>
       <use transform="translate(132.75859375 47.965625)scale(0.7)" xlink:href="#BitstreamVeraSans-Roman-2d"/>
       <use transform="translate(158.0173828125 47.965625)scale(0.7)" xlink:href="#BitstreamVeraSans-Roman-31"/>
       <use transform="translate(202.553515625 47.965625)scale(0.7)" xlink:href="#BitstreamVeraSans-Roman-31"/>
      </g>
     </g>
    </g>
    <g id="ytick_5">
     <g id="line2d_49">
      <path clip-path="url(#pfe2eb6eedc)" d="M 90 338.4 
L 565.568182 338.4 
" style="fill:none;stroke:#000000;stroke-dasharray:1.000000,3.000000;stroke-dashoffset:0.0;stroke-width:0.5;"/>
     </g>
     <g id="line2d_50">
      <g>
       <use style="stroke:#000000;stroke-width:0.5;" x="90.0" xlink:href="#m17b90b23c1" y="338.4"/>
      </g>
     </g>
     <g id="line2d_51">
      <g>
       <use style="stroke:#000000;stroke-width:0.5;" x="565.568181818" xlink:href="#m920f7de52d" y="338.4"/>
      </g>
     </g>
     <g id="text_13">
      <!-- $\mathdefault{10^{-10}}$ -->
      <g transform="translate(55.4 342.024375)scale(0.12 -0.12)">
       <use transform="translate(0.0 0.796875)" xlink:href="#BitstreamVeraSans-Roman-31"/>
       <use transform="translate(63.623046875 0.796875)" xlink:href="#BitstreamVeraSans-Roman-30"/>
       <use transform="translate(132.75859375 48.046875)scale(0.7)" xlink:href="#BitstreamVeraSans-Roman-2d"/>
       <use transform="translate(158.0173828125 48.046875)scale(0.7)" xlink:href="#BitstreamVeraSans-Roman-31"/>
       <use transform="translate(202.553515625 48.046875)scale(0.7)" xlink:href="#BitstreamVeraSans-Roman-30"/>
      </g>
     </g>
    </g>
    <g id="ytick_6">
     <g id="line2d_52">
      <path clip-path="url(#pfe2eb6eedc)" d="M 90 309.6 
L 565.568182 309.6 
" style="fill:none;stroke:#000000;stroke-dasharray:1.000000,3.000000;stroke-dashoffset:0.0;stroke-width:0.5;"/>
     </g>
     <g id="line2d_53">
      <g>
       <use style="stroke:#000000;stroke-width:0.5;" x="90.0" xlink:href="#m17b90b23c1" y="309.6"/>
      </g>
     </g>
     <g id="line2d_54">
      <g>
       <use style="stroke:#000000;stroke-width:0.5;" x="565.568181818" xlink:href="#m920f7de52d" y="309.6"/>
      </g>
     </g>
     <g id="text_14">
      <!-- $\mathdefault{10^{-9}}$ -->
      <defs>
       <path d="M 10.984375 1.515625 
L 10.984375 10.5 
Q 14.703125 8.734375 18.5 7.8125 
Q 22.3125 6.890625 25.984375 6.890625 
Q 35.75 6.890625 40.890625 13.453125 
Q 46.046875 20.015625 46.78125 33.40625 
Q 43.953125 29.203125 39.59375 26.953125 
Q 35.25 24.703125 29.984375 24.703125 
Q 19.046875 24.703125 12.671875 31.3125 
Q 6.296875 37.9375 6.296875 49.421875 
Q 6.296875 60.640625 12.9375 67.421875 
Q 19.578125 74.21875 30.609375 74.21875 
Q 43.265625 74.21875 49.921875 64.515625 
Q 56.59375 54.828125 56.59375 36.375 
Q 56.59375 19.140625 48.40625 8.859375 
Q 40.234375 -1.421875 26.421875 -1.421875 
Q 22.703125 -1.421875 18.890625 -0.6875 
Q 15.09375 0.046875 10.984375 1.515625 
M 30.609375 32.421875 
Q 37.25 32.421875 41.125 36.953125 
Q 45.015625 41.5 45.015625 49.421875 
Q 45.015625 57.28125 41.125 61.84375 
Q 37.25 66.40625 30.609375 66.40625 
Q 23.96875 66.40625 20.09375 61.84375 
Q 16.21875 57.28125 16.21875 49.421875 
Q 16.21875 41.5 20.09375 36.953125 
Q 23.96875 32.421875 30.609375 32.421875 
" id="BitstreamVeraSans-Roman-39"/>
      </defs>
      <g transform="translate(60.68 313.224375)scale(0.12 -0.12)">
       <use transform="translate(0.0 0.796875)" xlink:href="#BitstreamVeraSans-Roman-31"/>
       <use transform="translate(63.623046875 0.796875)" xlink:href="#BitstreamVeraSans-Roman-30"/>
       <use transform="translate(132.75859375 48.046875)scale(0.7)" xlink:href="#BitstreamVeraSans-Roman-2d"/>
       <use transform="translate(158.0173828125 48.046875)scale(0.7)" xlink:href="#BitstreamVeraSans-Roman-39"/>
      </g>
     </g>
    </g>
    <g id="ytick_7">
     <g id="line2d_55">
      <path clip-path="url(#pfe2eb6eedc)" d="M 90 280.8 
L 565.568182 280.8 
" style="fill:none;stroke:#000000;stroke-dasharray:1.000000,3.000000;stroke-dashoffset:0.0;stroke-width:0.5;"/>
     </g>
     <g id="line2d_56">
      <g>
       <use style="stroke:#000000;stroke-width:0.5;" x="90.0" xlink:href="#m17b90b23c1" y="280.8"/>
      </g>
     </g>
     <g id="line2d_57">
      <g>
       <use style="stroke:#000000;stroke-width:0.5;" x="565.568181818" xlink:href="#m920f7de52d" y="280.8"/>
      </g>
     </g>
     <g id="text_15">
      <!-- $\mathdefault{10^{-8}}$ -->
      <g transform="translate(60.68 284.424375)scale(0.12 -0.12)">
       <use transform="translate(0.0 0.796875)" xlink:href="#BitstreamVeraSans-Roman-31"/>
       <use transform="translate(63.623046875 0.796875)" xlink:href="#BitstreamVeraSans-Roman-30"/>
       <use transform="translate(132.75859375 48.046875)scale(0.7)" xlink:href="#BitstreamVeraSans-Roman-2d"/>
       <use transform="translate(158.0173828125 48.046875)scale(0.7)" xlink:href="#BitstreamVeraSans-Roman-38"/>
      </g>
     </g>
    </g>
    <g id="ytick_8">
     <g id="line2d_58">
      <path clip-path="url(#pfe2eb6eedc)" d="M 90 252 
L 565.568182 252 
" style="fill:none;stroke:#000000;stroke-dasharray:1.000000,3.000000;stroke-dashoffset:0.0;stroke-width:0.5;"/>
     </g>
     <g id="line2d_59">
      <g>
       <use style="stroke:#000000;stroke-width:0.5;" x="90.0" xlink:href="#m17b90b23c1" y="252.0"/>
      </g>
     </g>
     <g id="line2d_60">
      <g>
       <use style="stroke:#000000;stroke-width:0.5;" x="565.568181818" xlink:href="#m920f7de52d" y="252.0"/>
      </g>
     </g>
     <g id="text_16">
      <!-- $\mathdefault{10^{-7}}$ -->
      <defs>
       <path d="M 8.203125 72.90625 
L 55.078125 72.90625 
L 55.078125 68.703125 
L 28.609375 0 
L 18.3125 0 
L 43.21875 64.59375 
L 8.203125 64.59375 
z
" id="BitstreamVeraSans-Roman-37"/>
      </defs>
      <g transform="translate(60.68 255.564375)scale(0.12 -0.12)">
       <use transform="translate(0.0 0.7156250000000028)" xlink:href="#BitstreamVeraSans-Roman-31"/>
       <use transform="translate(63.623046875 0.7156250000000028)" xlink:href="#BitstreamVeraSans-Roman-30"/>
       <use transform="translate(132.75859375 47.965625)scale(0.7)" xlink:href="#BitstreamVeraSans-Roman-2d"/>
       <use transform="translate(158.0173828125 47.965625)scale(0.7)" xlink:href="#BitstreamVeraSans-Roman-37"/>
      </g>
     </g>
    </g>
    <g id="ytick_9">
     <g id="line2d_61">
      <path clip-path="url(#pfe2eb6eedc)" d="M 90 223.2 
L 565.568182 223.2 
" style="fill:none;stroke:#000000;stroke-dasharray:1.000000,3.000000;stroke-dashoffset:0.0;stroke-width:0.5;"/>
     </g>
     <g id="line2d_62">
      <g>
       <use style="stroke:#000000;stroke-width:0.5;" x="90.0" xlink:href="#m17b90b23c1" y="223.2"/>
      </g>
     </g>
     <g id="line2d_63">
      <g>
       <use style="stroke:#000000;stroke-width:0.5;" x="565.568181818" xlink:href="#m920f7de52d" y="223.2"/>
      </g>
     </g>
     <g id="text_17">
      <!-- $\mathdefault{10^{-6}}$ -->
      <g transform="translate(60.68 226.824375)scale(0.12 -0.12)">
       <use transform="translate(0.0 0.796875)" xlink:href="#BitstreamVeraSans-Roman-31"/>
       <use transform="translate(63.623046875 0.796875)" xlink:href="#BitstreamVeraSans-Roman-30"/>
       <use transform="translate(132.75859375 48.046875)scale(0.7)" xlink:href="#BitstreamVeraSans-Roman-2d"/>
       <use transform="translate(158.0173828125 48.046875)scale(0.7)" xlink:href="#BitstreamVeraSans-Roman-36"/>
      </g>
     </g>
    </g>
    <g id="ytick_10">
     <g id="line2d_64">
      <path clip-path="url(#pfe2eb6eedc)" d="M 90 194.4 
L 565.568182 194.4 
" style="fill:none;stroke:#000000;stroke-dasharray:1.000000,3.000000;stroke-dashoffset:0.0;stroke-width:0.5;"/>
     </g>
     <g id="line2d_65">
      <g>
       <use style="stroke:#000000;stroke-width:0.5;" x="90.0" xlink:href="#m17b90b23c1" y="194.4"/>
      </g>
     </g>
     <g id="line2d_66">
      <g>
       <use style="stroke:#000000;stroke-width:0.5;" x="565.568181818" xlink:href="#m920f7de52d" y="194.4"/>
      </g>
     </g>
     <g id="text_18">
      <!-- $\mathdefault{10^{-5}}$ -->
      <g transform="translate(60.68 197.964375)scale(0.12 -0.12)">
       <use transform="translate(0.0 0.7156250000000028)" xlink:href="#BitstreamVeraSans-Roman-31"/>
       <use transform="translate(63.623046875 0.7156250000000028)" xlink:href="#BitstreamVeraSans-Roman-30"/>
       <use transform="translate(132.75859375 47.965625)scale(0.7)" xlink:href="#BitstreamVeraSans-Roman-2d"/>
       <use transform="translate(158.0173828125 47.965625)scale(0.7)" xlink:href="#BitstreamVeraSans-Roman-35"/>
      </g>
     </g>
    </g>
    <g id="ytick_11">
     <g id="line2d_67">
      <path clip-path="url(#pfe2eb6eedc)" d="M 90 165.6 
L 565.568182 165.6 
" style="fill:none;stroke:#000000;stroke-dasharray:1.000000,3.000000;stroke-dashoffset:0.0;stroke-width:0.5;"/>
     </g>
     <g id="line2d_68">
      <g>
       <use style="stroke:#000000;stroke-width:0.5;" x="90.0" xlink:href="#m17b90b23c1" y="165.6"/>
      </g>
     </g>
     <g id="line2d_69">
      <g>
       <use style="stroke:#000000;stroke-width:0.5;" x="565.568181818" xlink:href="#m920f7de52d" y="165.6"/>
      </g>
     </g>
     <g id="text_19">
      <!-- $\mathdefault{10^{-4}}$ -->
      <g transform="translate(60.68 169.164375)scale(0.12 -0.12)">
       <use transform="translate(0.0 0.7156250000000028)" xlink:href="#BitstreamVeraSans-Roman-31"/>
       <use transform="translate(63.623046875 0.7156250000000028)" xlink:href="#BitstreamVeraSans-Roman-30"/>
       <use transform="translate(132.75859375 47.965625)scale(0.7)" xlink:href="#BitstreamVeraSans-Roman-2d"/>
       <use transform="translate(158.0173828125 47.965625)scale(0.7)" xlink:href="#BitstreamVeraSans-Roman-34"/>
      </g>
     </g>
    </g>
    <g id="ytick_12">
     <g id="line2d_70">
      <path clip-path="url(#pfe2eb6eedc)" d="M 90 136.8 
L 565.568182 136.8 
" style="fill:none;stroke:#000000;stroke-dasharray:1.000000,3.000000;stroke-dashoffset:0.0;stroke-width:0.5;"/>
     </g>
     <g id="line2d_71">
      <g>
       <use style="stroke:#000000;stroke-width:0.5;" x="90.0" xlink:href="#m17b90b23c1" y="136.8"/>
      </g>
     </g>
     <g id="line2d_72">
      <g>
       <use style="stroke:#000000;stroke-width:0.5;" x="565.568181818" xlink:href="#m920f7de52d" y="136.8"/>
      </g>
     </g>
     <g id="text_20">
      <!-- $\mathdefault{10^{-3}}$ -->
      <g transform="translate(60.68 140.424375)scale(0.12 -0.12)">
       <use transform="translate(0.0 0.796875)" xlink:href="#BitstreamVeraSans-Roman-31"/>
       <use transform="translate(63.623046875 0.796875)" xlink:href="#BitstreamVeraSans-Roman-30"/>
       <use transform="translate(132.75859375 48.046875)scale(0.7)" xlink:href="#BitstreamVeraSans-Roman-2d"/>
       <use transform="translate(158.0173828125 48.046875)scale(0.7)" xlink:href="#BitstreamVeraSans-Roman-33"/>
      </g>
     </g>
    </g>
    <g id="ytick_13">
     <g id="line2d_73">
      <path clip-path="url(#pfe2eb6eedc)" d="M 90 108 
L 565.568182 108 
" style="fill:none;stroke:#000000;stroke-dasharray:1.000000,3.000000;stroke-dashoffset:0.0;stroke-width:0.5;"/>
     </g>
     <g id="line2d_74">
      <g>
       <use style="stroke:#000000;stroke-width:0.5;" x="90.0" xlink:href="#m17b90b23c1" y="108.0"/>
      </g>
     </g>
     <g id="line2d_75">
      <g>
       <use style="stroke:#000000;stroke-width:0.5;" x="565.568181818" xlink:href="#m920f7de52d" y="108.0"/>
      </g>
     </g>
     <g id="text_21">
      <!-- $\mathdefault{10^{-2}}$ -->
      <g transform="translate(60.68 111.624375)scale(0.12 -0.12)">
       <use transform="translate(0.0 0.796875)" xlink:href="#BitstreamVeraSans-Roman-31"/>
       <use transform="translate(63.623046875 0.796875)" xlink:href="#BitstreamVeraSans-Roman-30"/>
       <use transform="translate(132.75859375 48.046875)scale(0.7)" xlink:href="#BitstreamVeraSans-Roman-2d"/>
       <use transform="translate(158.0173828125 48.046875)scale(0.7)" xlink:href="#BitstreamVeraSans-Roman-32"/>
      </g>
     </g>
    </g>
    <g id="ytick_14">
     <g id="line2d_76">
      <path clip-path="url(#pfe2eb6eedc)" d="M 90 79.2 
L 565.568182 79.2 
" style="fill:none;stroke:#000000;stroke-dasharray:1.000000,3.000000;stroke-dashoffset:0.0;stroke-width:0.5;"/>
     </g>
     <g id="line2d_77">
      <g>
       <use style="stroke:#000000;stroke-width:0.5;" x="90.0" xlink:href="#m17b90b23c1" y="79.2"/>
      </g>
     </g>
     <g id="line2d_78">
      <g>
       <use style="stroke:#000000;stroke-width:0.5;" x="565.568181818" xlink:href="#m920f7de52d" y="79.2"/>
      </g>
     </g>
     <g id="text_22">
      <!-- $\mathdefault{10^{-1}}$ -->
      <g transform="translate(60.68 82.764375)scale(0.12 -0.12)">
       <use transform="translate(0.0 0.7156250000000028)" xlink:href="#BitstreamVeraSans-Roman-31"/>
       <use transform="translate(63.623046875 0.7156250000000028)" xlink:href="#BitstreamVeraSans-Roman-30"/>
       <use transform="translate(132.75859375 47.965625)scale(0.7)" xlink:href="#BitstreamVeraSans-Roman-2d"/>
       <use transform="translate(158.0173828125 47.965625)scale(0.7)" xlink:href="#BitstreamVeraSans-Roman-31"/>
      </g>
     </g>
    </g>
    <g id="ytick_15">
     <g id="line2d_79">
      <path clip-path="url(#pfe2eb6eedc)" d="M 90 50.4 
L 565.568182 50.4 
" style="fill:none;stroke:#000000;stroke-dasharray:1.000000,3.000000;stroke-dashoffset:0.0;stroke-width:0.5;"/>
     </g>
     <g id="line2d_80">
      <g>
       <use style="stroke:#000000;stroke-width:0.5;" x="90.0" xlink:href="#m17b90b23c1" y="50.4"/>
      </g>
     </g>
     <g id="line2d_81">
      <g>
       <use style="stroke:#000000;stroke-width:0.5;" x="565.568181818" xlink:href="#m920f7de52d" y="50.4"/>
      </g>
     </g>
     <g id="text_23">
      <!-- $\mathdefault{10^{0}}$ -->
      <g transform="translate(63.68 54.024375)scale(0.12 -0.12)">
       <use transform="translate(0.0 0.796875)" xlink:href="#BitstreamVeraSans-Roman-31"/>
       <use transform="translate(63.623046875 0.796875)" xlink:href="#BitstreamVeraSans-Roman-30"/>
       <use transform="translate(132.75859375 48.046875)scale(0.7)" xlink:href="#BitstreamVeraSans-Roman-30"/>
      </g>
     </g>
    </g>
    <g id="ytick_16">
     <g id="line2d_82">
      <defs>
       <path d="M 0 0 
L 2 0 
" id="m3405119e89" style="stroke:#000000;stroke-width:0.5;"/>
      </defs>
      <g>
       <use style="stroke:#000000;stroke-width:0.5;" x="90.0" xlink:href="#m3405119e89" y="453.6"/>
      </g>
     </g>
     <g id="line2d_83">
      <defs>
       <path d="M 0 0 
L -2 0 
" id="m6fcf863dd1" style="stroke:#000000;stroke-width:0.5;"/>
      </defs>
      <g>
       <use style="stroke:#000000;stroke-width:0.5;" x="565.568181818" xlink:href="#m6fcf863dd1" y="453.6"/>
      </g>
     </g>
    </g>
    <g id="ytick_17">
     <g id="line2d_84">
      <g>
       <use style="stroke:#000000;stroke-width:0.5;" x="90.0" xlink:href="#m3405119e89" y="424.8"/>
      </g>
     </g>
     <g id="line2d_85">
      <g>
       <use style="stroke:#000000;stroke-width:0.5;" x="565.568181818" xlink:href="#m6fcf863dd1" y="424.8"/>
      </g>
     </g>
    </g>
    <g id="ytick_18">
     <g id="line2d_86">
      <g>
       <use style="stroke:#000000;stroke-width:0.5;" x="90.0" xlink:href="#m3405119e89" y="396.0"/>
      </g>
     </g>
     <g id="line2d_87">
      <g>
       <use style="stroke:#000000;stroke-width:0.5;" x="565.568181818" xlink:href="#m6fcf863dd1" y="396.0"/>
      </g>
     </g>
    </g>
    <g id="ytick_19">
     <g id="line2d_88">
      <g>
       <use style="stroke:#000000;stroke-width:0.5;" x="90.0" xlink:href="#m3405119e89" y="367.2"/>
      </g>
     </g>
     <g id="line2d_89">
      <g>
       <use style="stroke:#000000;stroke-width:0.5;" x="565.568181818" xlink:href="#m6fcf863dd1" y="367.2"/>
      </g>
     </g>
    </g>
    <g id="ytick_20">
     <g id="line2d_90">
      <g>
       <use style="stroke:#000000;stroke-width:0.5;" x="90.0" xlink:href="#m3405119e89" y="338.4"/>
      </g>
     </g>
     <g id="line2d_91">
      <g>
       <use style="stroke:#000000;stroke-width:0.5;" x="565.568181818" xlink:href="#m6fcf863dd1" y="338.4"/>
      </g>
     </g>
    </g>
    <g id="ytick_21">
     <g id="line2d_92">
      <g>
       <use style="stroke:#000000;stroke-width:0.5;" x="90.0" xlink:href="#m3405119e89" y="309.6"/>
      </g>
     </g>
     <g id="line2d_93">
      <g>
       <use style="stroke:#000000;stroke-width:0.5;" x="565.568181818" xlink:href="#m6fcf863dd1" y="309.6"/>
      </g>
     </g>
    </g>
    <g id="ytick_22">
     <g id="line2d_94">
      <g>
       <use style="stroke:#000000;stroke-width:0.5;" x="90.0" xlink:href="#m3405119e89" y="280.8"/>
      </g>
     </g>
     <g id="line2d_95">
      <g>
       <use style="stroke:#000000;stroke-width:0.5;" x="565.568181818" xlink:href="#m6fcf863dd1" y="280.8"/>
      </g>
     </g>
    </g>
    <g id="ytick_23">
     <g id="line2d_96">
      <g>
       <use style="stroke:#000000;stroke-width:0.5;" x="90.0" xlink:href="#m3405119e89" y="252.0"/>
      </g>
     </g>
     <g id="line2d_97">
      <g>
       <use style="stroke:#000000;stroke-width:0.5;" x="565.568181818" xlink:href="#m6fcf863dd1" y="252.0"/>
      </g>
     </g>
    </g>
    <g id="ytick_24">
     <g id="line2d_98">
      <g>
       <use style="stroke:#000000;stroke-width:0.5;" x="90.0" xlink:href="#m3405119e89" y="223.2"/>
      </g>
     </g>
     <g id="line2d_99">
      <g>
       <use style="stroke:#000000;stroke-width:0.5;" x="565.568181818" xlink:href="#m6fcf863dd1" y="223.2"/>
      </g>
     </g>
    </g>
    <g id="ytick_25">
     <g id="line2d_100">
      <g>
       <use style="stroke:#000000;stroke-width:0.5;" x="90.0" xlink:href="#m3405119e89" y="194.4"/>
      </g>
     </g>
     <g id="line2d_101">
      <g>
       <use style="stroke:#000000;stroke-width:0.5;" x="565.568181818" xlink:href="#m6fcf863dd1" y="194.4"/>
      </g>
     </g>
    </g>
    <g id="ytick_26">
     <g id="line2d_102">
      <g>
       <use style="stroke:#000000;stroke-width:0.5;" x="90.0" xlink:href="#m3405119e89" y="165.6"/>
      </g>
     </g>
     <g id="line2d_103">
      <g>
       <use style="stroke:#000000;stroke-width:0.5;" x="565.568181818" xlink:href="#m6fcf863dd1" y="165.6"/>
      </g>
     </g>
    </g>
    <g id="ytick_27">
     <g id="line2d_104">
      <g>
       <use style="stroke:#000000;stroke-width:0.5;" x="90.0" xlink:href="#m3405119e89" y="136.8"/>
      </g>
     </g>
     <g id="line2d_105">
      <g>
       <use style="stroke:#000000;stroke-width:0.5;" x="565.568181818" xlink:href="#m6fcf863dd1" y="136.8"/>
      </g>
     </g>
    </g>
    <g id="ytick_28">
     <g id="line2d_106">
      <g>
       <use style="stroke:#000000;stroke-width:0.5;" x="90.0" xlink:href="#m3405119e89" y="108.0"/>
      </g>
     </g>
     <g id="line2d_107">
      <g>
       <use style="stroke:#000000;stroke-width:0.5;" x="565.568181818" xlink:href="#m6fcf863dd1" y="108.0"/>
      </g>
     </g>
    </g>
    <g id="ytick_29">
     <g id="line2d_108">
      <g>
       <use style="stroke:#000000;stroke-width:0.5;" x="90.0" xlink:href="#m3405119e89" y="79.2"/>
      </g>
     </g>
     <g id="line2d_109">
      <g>
       <use style="stroke:#000000;stroke-width:0.5;" x="565.568181818" xlink:href="#m6fcf863dd1" y="79.2"/>
      </g>
     </g>
    </g>
    <g id="ytick_30">
     <g id="line2d_110">
      <g>
       <use style="stroke:#000000;stroke-width:0.5;" x="90.0" xlink:href="#m3405119e89" y="50.4"/>
      </g>
     </g>
     <g id="line2d_111">
      <g>
       <use style="stroke:#000000;stroke-width:0.5;" x="565.568181818" xlink:href="#m6fcf863dd1" y="50.4"/>
      </g>
     </g>
    </g>
    <g id="text_24">
     <!-- Phi(M_1450) (Mpc^-3 mag^-1) -->
     <defs>
      <path d="M 9.421875 54.6875 
L 18.40625 54.6875 
L 18.40625 0 
L 9.421875 0 
z
M 9.421875 75.984375 
L 18.40625 75.984375 
L 18.40625 64.59375 
L 9.421875 64.59375 
z
" id="BitstreamVeraSans-Roman-69"/>
      <path d="M 46.6875 72.90625 
L 73.1875 45.703125 
L 63.375 45.703125 
L 41.890625 64.984375 
L 20.40625 45.703125 
L 10.59375 45.703125 
L 37.109375 72.90625 
z
" id="BitstreamVeraSans-Roman-5e"/>
      <path d="M 19.671875 64.796875 
L 19.671875 37.40625 
L 32.078125 37.40625 
Q 38.96875 37.40625 42.71875 40.96875 
Q 46.484375 44.53125 46.484375 51.125 
Q 46.484375 57.671875 42.71875 61.234375 
Q 38.96875 64.796875 32.078125 64.796875 
z
M 9.8125 72.90625 
L 32.078125 72.90625 
Q 44.34375 72.90625 50.609375 67.359375 
Q 56.890625 61.8125 56.890625 51.125 
Q 56.890625 40.328125 50.609375 34.8125 
Q 44.34375 29.296875 32.078125 29.296875 
L 19.671875 29.296875 
L 19.671875 0 
L 9.8125 0 
z
" id="BitstreamVeraSans-Roman-50"/>
      <path d="M 31 75.875 
Q 24.46875 64.65625 21.28125 53.65625 
Q 18.109375 42.671875 18.109375 31.390625 
Q 18.109375 20.125 21.3125 9.0625 
Q 24.515625 -2 31 -13.1875 
L 23.1875 -13.1875 
Q 15.875 -1.703125 12.234375 9.375 
Q 8.59375 20.453125 8.59375 31.390625 
Q 8.59375 42.28125 12.203125 53.3125 
Q 15.828125 64.359375 23.1875 75.875 
z
" id="BitstreamVeraSans-Roman-28"/>
      <path d="M 45.40625 27.984375 
Q 45.40625 37.75 41.375 43.109375 
Q 37.359375 48.484375 30.078125 48.484375 
Q 22.859375 48.484375 18.828125 43.109375 
Q 14.796875 37.75 14.796875 27.984375 
Q 14.796875 18.265625 18.828125 12.890625 
Q 22.859375 7.515625 30.078125 7.515625 
Q 37.359375 7.515625 41.375 12.890625 
Q 45.40625 18.265625 45.40625 27.984375 
M 54.390625 6.78125 
Q 54.390625 -7.171875 48.1875 -13.984375 
Q 42 -20.796875 29.203125 -20.796875 
Q 24.46875 -20.796875 20.265625 -20.09375 
Q 16.0625 -19.390625 12.109375 -17.921875 
L 12.109375 -9.1875 
Q 16.0625 -11.328125 19.921875 -12.34375 
Q 23.78125 -13.375 27.78125 -13.375 
Q 36.625 -13.375 41.015625 -8.765625 
Q 45.40625 -4.15625 45.40625 5.171875 
L 45.40625 9.625 
Q 42.625 4.78125 38.28125 2.390625 
Q 33.9375 0 27.875 0 
Q 17.828125 0 11.671875 7.65625 
Q 5.515625 15.328125 5.515625 27.984375 
Q 5.515625 40.671875 11.671875 48.328125 
Q 17.828125 56 27.875 56 
Q 33.9375 56 38.28125 53.609375 
Q 42.625 51.21875 45.40625 46.390625 
L 45.40625 54.6875 
L 54.390625 54.6875 
z
" id="BitstreamVeraSans-Roman-67"/>
      <path d="M 48.78125 52.59375 
L 48.78125 44.1875 
Q 44.96875 46.296875 41.140625 47.34375 
Q 37.3125 48.390625 33.40625 48.390625 
Q 24.65625 48.390625 19.8125 42.84375 
Q 14.984375 37.3125 14.984375 27.296875 
Q 14.984375 17.28125 19.8125 11.734375 
Q 24.65625 6.203125 33.40625 6.203125 
Q 37.3125 6.203125 41.140625 7.25 
Q 44.96875 8.296875 48.78125 10.40625 
L 48.78125 2.09375 
Q 45.015625 0.34375 40.984375 -0.53125 
Q 36.96875 -1.421875 32.421875 -1.421875 
Q 20.0625 -1.421875 12.78125 6.34375 
Q 5.515625 14.109375 5.515625 27.296875 
Q 5.515625 40.671875 12.859375 48.328125 
Q 20.21875 56 33.015625 56 
Q 37.15625 56 41.109375 55.140625 
Q 45.0625 54.296875 48.78125 52.59375 
" id="BitstreamVeraSans-Roman-63"/>
      <path d="M 8.015625 75.875 
L 15.828125 75.875 
Q 23.140625 64.359375 26.78125 53.3125 
Q 30.421875 42.28125 30.421875 31.390625 
Q 30.421875 20.453125 26.78125 9.375 
Q 23.140625 -1.703125 15.828125 -13.1875 
L 8.015625 -13.1875 
Q 14.5 -2 17.703125 9.0625 
Q 20.90625 20.125 20.90625 31.390625 
Q 20.90625 42.671875 17.703125 53.65625 
Q 14.5 64.65625 8.015625 75.875 
" id="BitstreamVeraSans-Roman-29"/>
      <path id="BitstreamVeraSans-Roman-20"/>
      <path d="M 54.890625 33.015625 
L 54.890625 0 
L 45.90625 0 
L 45.90625 32.71875 
Q 45.90625 40.484375 42.875 44.328125 
Q 39.84375 48.1875 33.796875 48.1875 
Q 26.515625 48.1875 22.3125 43.546875 
Q 18.109375 38.921875 18.109375 30.90625 
L 18.109375 0 
L 9.078125 0 
L 9.078125 75.984375 
L 18.109375 75.984375 
L 18.109375 46.1875 
Q 21.34375 51.125 25.703125 53.5625 
Q 30.078125 56 35.796875 56 
Q 45.21875 56 50.046875 50.171875 
Q 54.890625 44.34375 54.890625 33.015625 
" id="BitstreamVeraSans-Roman-68"/>
      <path d="M 18.109375 8.203125 
L 18.109375 -20.796875 
L 9.078125 -20.796875 
L 9.078125 54.6875 
L 18.109375 54.6875 
L 18.109375 46.390625 
Q 20.953125 51.265625 25.265625 53.625 
Q 29.59375 56 35.59375 56 
Q 45.5625 56 51.78125 48.09375 
Q 58.015625 40.1875 58.015625 27.296875 
Q 58.015625 14.40625 51.78125 6.484375 
Q 45.5625 -1.421875 35.59375 -1.421875 
Q 29.59375 -1.421875 25.265625 0.953125 
Q 20.953125 3.328125 18.109375 8.203125 
M 48.6875 27.296875 
Q 48.6875 37.203125 44.609375 42.84375 
Q 40.53125 48.484375 33.40625 48.484375 
Q 26.265625 48.484375 22.1875 42.84375 
Q 18.109375 37.203125 18.109375 27.296875 
Q 18.109375 17.390625 22.1875 11.75 
Q 26.265625 6.109375 33.40625 6.109375 
Q 40.53125 6.109375 44.609375 11.75 
Q 48.6875 17.390625 48.6875 27.296875 
" id="BitstreamVeraSans-Roman-70"/>
      <path d="M 52 44.1875 
Q 55.375 50.25 60.0625 53.125 
Q 64.75 56 71.09375 56 
Q 79.640625 56 84.28125 50.015625 
Q 88.921875 44.046875 88.921875 33.015625 
L 88.921875 0 
L 79.890625 0 
L 79.890625 32.71875 
Q 79.890625 40.578125 77.09375 44.375 
Q 74.3125 48.1875 68.609375 48.1875 
Q 61.625 48.1875 57.5625 43.546875 
Q 53.515625 38.921875 53.515625 30.90625 
L 53.515625 0 
L 44.484375 0 
L 44.484375 32.71875 
Q 44.484375 40.625 41.703125 44.40625 
Q 38.921875 48.1875 33.109375 48.1875 
Q 26.21875 48.1875 22.15625 43.53125 
Q 18.109375 38.875 18.109375 30.90625 
L 18.109375 0 
L 9.078125 0 
L 9.078125 54.6875 
L 18.109375 54.6875 
L 18.109375 46.1875 
Q 21.1875 51.21875 25.484375 53.609375 
Q 29.78125 56 35.6875 56 
Q 41.65625 56 45.828125 52.96875 
Q 50 49.953125 52 44.1875 
" id="BitstreamVeraSans-Roman-6d"/>
      <path d="M 34.28125 27.484375 
Q 23.390625 27.484375 19.1875 25 
Q 14.984375 22.515625 14.984375 16.5 
Q 14.984375 11.71875 18.140625 8.90625 
Q 21.296875 6.109375 26.703125 6.109375 
Q 34.1875 6.109375 38.703125 11.40625 
Q 43.21875 16.703125 43.21875 25.484375 
L 43.21875 27.484375 
z
M 52.203125 31.203125 
L 52.203125 0 
L 43.21875 0 
L 43.21875 8.296875 
Q 40.140625 3.328125 35.546875 0.953125 
Q 30.953125 -1.421875 24.3125 -1.421875 
Q 15.921875 -1.421875 10.953125 3.296875 
Q 6 8.015625 6 15.921875 
Q 6 25.140625 12.171875 29.828125 
Q 18.359375 34.515625 30.609375 34.515625 
L 43.21875 34.515625 
L 43.21875 35.40625 
Q 43.21875 41.609375 39.140625 45 
Q 35.0625 48.390625 27.6875 48.390625 
Q 23 48.390625 18.546875 47.265625 
Q 14.109375 46.140625 10.015625 43.890625 
L 10.015625 52.203125 
Q 14.9375 54.109375 19.578125 55.046875 
Q 24.21875 56 28.609375 56 
Q 40.484375 56 46.34375 49.84375 
Q 52.203125 43.703125 52.203125 31.203125 
" id="BitstreamVeraSans-Roman-61"/>
     </defs>
     <g transform="translate(47.570625 345.346875)rotate(-90.0)scale(0.12 -0.12)">
      <use xlink:href="#BitstreamVeraSans-Roman-50"/>
      <use x="60.302734375" xlink:href="#BitstreamVeraSans-Roman-68"/>
      <use x="123.681640625" xlink:href="#BitstreamVeraSans-Roman-69"/>
      <use x="151.46484375" xlink:href="#BitstreamVeraSans-Roman-28"/>
      <use x="190.478515625" xlink:href="#BitstreamVeraSans-Roman-4d"/>
      <use x="276.7578125" xlink:href="#BitstreamVeraSans-Roman-5f"/>
      <use x="326.7578125" xlink:href="#BitstreamVeraSans-Roman-31"/>
      <use x="390.380859375" xlink:href="#BitstreamVeraSans-Roman-34"/>
      <use x="454.00390625" xlink:href="#BitstreamVeraSans-Roman-35"/>
      <use x="517.626953125" xlink:href="#BitstreamVeraSans-Roman-30"/>
      <use x="581.25" xlink:href="#BitstreamVeraSans-Roman-29"/>
      <use x="620.263671875" xlink:href="#BitstreamVeraSans-Roman-20"/>
      <use x="652.05078125" xlink:href="#BitstreamVeraSans-Roman-28"/>
      <use x="691.064453125" xlink:href="#BitstreamVeraSans-Roman-4d"/>
      <use x="777.34375" xlink:href="#BitstreamVeraSans-Roman-70"/>
      <use x="840.8203125" xlink:href="#BitstreamVeraSans-Roman-63"/>
      <use x="895.80078125" xlink:href="#BitstreamVeraSans-Roman-5e"/>
      <use x="979.58984375" xlink:href="#BitstreamVeraSans-Roman-2d"/>
      <use x="1015.673828125" xlink:href="#BitstreamVeraSans-Roman-33"/>
      <use x="1079.296875" xlink:href="#BitstreamVeraSans-Roman-20"/>
      <use x="1111.083984375" xlink:href="#BitstreamVeraSans-Roman-6d"/>
      <use x="1208.49609375" xlink:href="#BitstreamVeraSans-Roman-61"/>
      <use x="1269.775390625" xlink:href="#BitstreamVeraSans-Roman-67"/>
      <use x="1333.251953125" xlink:href="#BitstreamVeraSans-Roman-5e"/>
      <use x="1417.041015625" xlink:href="#BitstreamVeraSans-Roman-2d"/>
      <use x="1453.125" xlink:href="#BitstreamVeraSans-Roman-31"/>
      <use x="1516.748046875" xlink:href="#BitstreamVeraSans-Roman-29"/>
     </g>
    </g>
   </g>
   <g id="legend_1">
    <g id="patch_7">
     <path d="M 317.120932 125.3295 
L 558.368182 125.3295 
L 558.368182 57.6 
L 317.120932 57.6 
z
" style="fill:#ffffff;stroke:#000000;stroke-linejoin:miter;"/>
    </g>
    <g id="line2d_112">
     <path d="M 327.200932 69.26175 
L 347.360932 69.26175 
" style="fill:none;stroke:#0000ff;stroke-dasharray:3.000000,5.000000,1.000000,5.000000;stroke-dashoffset:0.0;"/>
    </g>
    <g id="line2d_113"/>
    <g id="text_25">
     <!-- Willott et al. QLF (avg) -->
     <defs>
      <path d="M 9.421875 75.984375 
L 18.40625 75.984375 
L 18.40625 0 
L 9.421875 0 
z
" id="BitstreamVeraSans-Roman-6c"/>
      <path d="M 10.6875 12.40625 
L 21 12.40625 
L 21 0 
L 10.6875 0 
z
" id="BitstreamVeraSans-Roman-2e"/>
      <path d="M 39.40625 66.21875 
Q 28.65625 66.21875 22.328125 58.203125 
Q 16.015625 50.203125 16.015625 36.375 
Q 16.015625 22.609375 22.328125 14.59375 
Q 28.65625 6.59375 39.40625 6.59375 
Q 50.140625 6.59375 56.421875 14.59375 
Q 62.703125 22.609375 62.703125 36.375 
Q 62.703125 50.203125 56.421875 58.203125 
Q 50.140625 66.21875 39.40625 66.21875 
M 53.21875 1.3125 
L 66.21875 -12.890625 
L 54.296875 -12.890625 
L 43.5 -1.21875 
Q 41.890625 -1.3125 41.03125 -1.359375 
Q 40.1875 -1.421875 39.40625 -1.421875 
Q 24.03125 -1.421875 14.8125 8.859375 
Q 5.609375 19.140625 5.609375 36.375 
Q 5.609375 53.65625 14.8125 63.9375 
Q 24.03125 74.21875 39.40625 74.21875 
Q 54.734375 74.21875 63.90625 63.9375 
Q 73.09375 53.65625 73.09375 36.375 
Q 73.09375 23.6875 67.984375 14.640625 
Q 62.890625 5.609375 53.21875 1.3125 
" id="BitstreamVeraSans-Roman-51"/>
      <path d="M 18.3125 70.21875 
L 18.3125 54.6875 
L 36.8125 54.6875 
L 36.8125 47.703125 
L 18.3125 47.703125 
L 18.3125 18.015625 
Q 18.3125 11.328125 20.140625 9.421875 
Q 21.96875 7.515625 27.59375 7.515625 
L 36.8125 7.515625 
L 36.8125 0 
L 27.59375 0 
Q 17.1875 0 13.234375 3.875 
Q 9.28125 7.765625 9.28125 18.015625 
L 9.28125 47.703125 
L 2.6875 47.703125 
L 2.6875 54.6875 
L 9.28125 54.6875 
L 9.28125 70.21875 
z
" id="BitstreamVeraSans-Roman-74"/>
      <path d="M 9.8125 72.90625 
L 19.671875 72.90625 
L 19.671875 8.296875 
L 55.171875 8.296875 
L 55.171875 0 
L 9.8125 0 
z
" id="BitstreamVeraSans-Roman-4c"/>
      <path d="M 2.984375 54.6875 
L 12.5 54.6875 
L 29.59375 8.796875 
L 46.6875 54.6875 
L 56.203125 54.6875 
L 35.6875 0 
L 23.484375 0 
z
" id="BitstreamVeraSans-Roman-76"/>
      <path d="M 9.8125 72.90625 
L 51.703125 72.90625 
L 51.703125 64.59375 
L 19.671875 64.59375 
L 19.671875 43.109375 
L 48.578125 43.109375 
L 48.578125 34.8125 
L 19.671875 34.8125 
L 19.671875 0 
L 9.8125 0 
z
" id="BitstreamVeraSans-Roman-46"/>
      <path d="M 3.328125 72.90625 
L 13.28125 72.90625 
L 28.609375 11.28125 
L 43.890625 72.90625 
L 54.984375 72.90625 
L 70.3125 11.28125 
L 85.59375 72.90625 
L 95.609375 72.90625 
L 77.296875 0 
L 64.890625 0 
L 49.515625 63.28125 
L 33.984375 0 
L 21.578125 0 
z
" id="BitstreamVeraSans-Roman-57"/>
      <path d="M 30.609375 48.390625 
Q 23.390625 48.390625 19.1875 42.75 
Q 14.984375 37.109375 14.984375 27.296875 
Q 14.984375 17.484375 19.15625 11.84375 
Q 23.34375 6.203125 30.609375 6.203125 
Q 37.796875 6.203125 41.984375 11.859375 
Q 46.1875 17.53125 46.1875 27.296875 
Q 46.1875 37.015625 41.984375 42.703125 
Q 37.796875 48.390625 30.609375 48.390625 
M 30.609375 56 
Q 42.328125 56 49.015625 48.375 
Q 55.71875 40.765625 55.71875 27.296875 
Q 55.71875 13.875 49.015625 6.21875 
Q 42.328125 -1.421875 30.609375 -1.421875 
Q 18.84375 -1.421875 12.171875 6.21875 
Q 5.515625 13.875 5.515625 27.296875 
Q 5.515625 40.765625 12.171875 48.375 
Q 18.84375 56 30.609375 56 
" id="BitstreamVeraSans-Roman-6f"/>
      <path d="M 56.203125 29.59375 
L 56.203125 25.203125 
L 14.890625 25.203125 
Q 15.484375 15.921875 20.484375 11.0625 
Q 25.484375 6.203125 34.421875 6.203125 
Q 39.59375 6.203125 44.453125 7.46875 
Q 49.3125 8.734375 54.109375 11.28125 
L 54.109375 2.78125 
Q 49.265625 0.734375 44.1875 -0.34375 
Q 39.109375 -1.421875 33.890625 -1.421875 
Q 20.796875 -1.421875 13.15625 6.1875 
Q 5.515625 13.8125 5.515625 26.8125 
Q 5.515625 40.234375 12.765625 48.109375 
Q 20.015625 56 32.328125 56 
Q 43.359375 56 49.78125 48.890625 
Q 56.203125 41.796875 56.203125 29.59375 
M 47.21875 32.234375 
Q 47.125 39.59375 43.09375 43.984375 
Q 39.0625 48.390625 32.421875 48.390625 
Q 24.90625 48.390625 20.390625 44.140625 
Q 15.875 39.890625 15.1875 32.171875 
z
" id="BitstreamVeraSans-Roman-65"/>
     </defs>
     <g transform="translate(363.200931818 74.30175)scale(0.144 -0.144)">
      <use xlink:href="#BitstreamVeraSans-Roman-57"/>
      <use x="98.845703125" xlink:href="#BitstreamVeraSans-Roman-69"/>
      <use x="126.62890625" xlink:href="#BitstreamVeraSans-Roman-6c"/>
      <use x="154.412109375" xlink:href="#BitstreamVeraSans-Roman-6c"/>
      <use x="182.1953125" xlink:href="#BitstreamVeraSans-Roman-6f"/>
      <use x="243.376953125" xlink:href="#BitstreamVeraSans-Roman-74"/>
      <use x="282.5859375" xlink:href="#BitstreamVeraSans-Roman-74"/>
      <use x="321.794921875" xlink:href="#BitstreamVeraSans-Roman-20"/>
      <use x="353.58203125" xlink:href="#BitstreamVeraSans-Roman-65"/>
      <use x="415.10546875" xlink:href="#BitstreamVeraSans-Roman-74"/>
      <use x="454.314453125" xlink:href="#BitstreamVeraSans-Roman-20"/>
      <use x="486.1015625" xlink:href="#BitstreamVeraSans-Roman-61"/>
      <use x="547.380859375" xlink:href="#BitstreamVeraSans-Roman-6c"/>
      <use x="575.1640625" xlink:href="#BitstreamVeraSans-Roman-2e"/>
      <use x="606.951171875" xlink:href="#BitstreamVeraSans-Roman-20"/>
      <use x="638.73828125" xlink:href="#BitstreamVeraSans-Roman-51"/>
      <use x="717.44921875" xlink:href="#BitstreamVeraSans-Roman-4c"/>
      <use x="773.162109375" xlink:href="#BitstreamVeraSans-Roman-46"/>
      <use x="830.681640625" xlink:href="#BitstreamVeraSans-Roman-20"/>
      <use x="862.46875" xlink:href="#BitstreamVeraSans-Roman-28"/>
      <use x="901.482421875" xlink:href="#BitstreamVeraSans-Roman-61"/>
      <use x="962.76171875" xlink:href="#BitstreamVeraSans-Roman-76"/>
      <use x="1021.94140625" xlink:href="#BitstreamVeraSans-Roman-67"/>
      <use x="1085.41796875" xlink:href="#BitstreamVeraSans-Roman-29"/>
     </g>
    </g>
    <g id="line2d_114">
     <path d="M 327.200932 90.39825 
L 347.360932 90.39825 
" style="fill:none;stroke:#0000ff;stroke-linecap:square;"/>
    </g>
    <g id="line2d_115"/>
    <g id="text_26">
     <!-- Willott et al. QLF (median) -->
     <defs>
      <path d="M 54.890625 33.015625 
L 54.890625 0 
L 45.90625 0 
L 45.90625 32.71875 
Q 45.90625 40.484375 42.875 44.328125 
Q 39.84375 48.1875 33.796875 48.1875 
Q 26.515625 48.1875 22.3125 43.546875 
Q 18.109375 38.921875 18.109375 30.90625 
L 18.109375 0 
L 9.078125 0 
L 9.078125 54.6875 
L 18.109375 54.6875 
L 18.109375 46.1875 
Q 21.34375 51.125 25.703125 53.5625 
Q 30.078125 56 35.796875 56 
Q 45.21875 56 50.046875 50.171875 
Q 54.890625 44.34375 54.890625 33.015625 
" id="BitstreamVeraSans-Roman-6e"/>
      <path d="M 45.40625 46.390625 
L 45.40625 75.984375 
L 54.390625 75.984375 
L 54.390625 0 
L 45.40625 0 
L 45.40625 8.203125 
Q 42.578125 3.328125 38.25 0.953125 
Q 33.9375 -1.421875 27.875 -1.421875 
Q 17.96875 -1.421875 11.734375 6.484375 
Q 5.515625 14.40625 5.515625 27.296875 
Q 5.515625 40.1875 11.734375 48.09375 
Q 17.96875 56 27.875 56 
Q 33.9375 56 38.25 53.625 
Q 42.578125 51.265625 45.40625 46.390625 
M 14.796875 27.296875 
Q 14.796875 17.390625 18.875 11.75 
Q 22.953125 6.109375 30.078125 6.109375 
Q 37.203125 6.109375 41.296875 11.75 
Q 45.40625 17.390625 45.40625 27.296875 
Q 45.40625 37.203125 41.296875 42.84375 
Q 37.203125 48.484375 30.078125 48.484375 
Q 22.953125 48.484375 18.875 42.84375 
Q 14.796875 37.203125 14.796875 27.296875 
" id="BitstreamVeraSans-Roman-64"/>
     </defs>
     <g transform="translate(363.200931818 95.43825)scale(0.144 -0.144)">
      <use xlink:href="#BitstreamVeraSans-Roman-57"/>
      <use x="98.845703125" xlink:href="#BitstreamVeraSans-Roman-69"/>
      <use x="126.62890625" xlink:href="#BitstreamVeraSans-Roman-6c"/>
      <use x="154.412109375" xlink:href="#BitstreamVeraSans-Roman-6c"/>
      <use x="182.1953125" xlink:href="#BitstreamVeraSans-Roman-6f"/>
      <use x="243.376953125" xlink:href="#BitstreamVeraSans-Roman-74"/>
      <use x="282.5859375" xlink:href="#BitstreamVeraSans-Roman-74"/>
      <use x="321.794921875" xlink:href="#BitstreamVeraSans-Roman-20"/>
      <use x="353.58203125" xlink:href="#BitstreamVeraSans-Roman-65"/>
      <use x="415.10546875" xlink:href="#BitstreamVeraSans-Roman-74"/>
      <use x="454.314453125" xlink:href="#BitstreamVeraSans-Roman-20"/>
      <use x="486.1015625" xlink:href="#BitstreamVeraSans-Roman-61"/>
      <use x="547.380859375" xlink:href="#BitstreamVeraSans-Roman-6c"/>
      <use x="575.1640625" xlink:href="#BitstreamVeraSans-Roman-2e"/>
      <use x="606.951171875" xlink:href="#BitstreamVeraSans-Roman-20"/>
      <use x="638.73828125" xlink:href="#BitstreamVeraSans-Roman-51"/>
      <use x="717.44921875" xlink:href="#BitstreamVeraSans-Roman-4c"/>
      <use x="773.162109375" xlink:href="#BitstreamVeraSans-Roman-46"/>
      <use x="830.681640625" xlink:href="#BitstreamVeraSans-Roman-20"/>
      <use x="862.46875" xlink:href="#BitstreamVeraSans-Roman-28"/>
      <use x="901.482421875" xlink:href="#BitstreamVeraSans-Roman-6d"/>
      <use x="998.89453125" xlink:href="#BitstreamVeraSans-Roman-65"/>
      <use x="1060.41796875" xlink:href="#BitstreamVeraSans-Roman-64"/>
      <use x="1123.89453125" xlink:href="#BitstreamVeraSans-Roman-69"/>
      <use x="1151.677734375" xlink:href="#BitstreamVeraSans-Roman-61"/>
      <use x="1212.95703125" xlink:href="#BitstreamVeraSans-Roman-6e"/>
      <use x="1276.3359375" xlink:href="#BitstreamVeraSans-Roman-29"/>
     </g>
    </g>
    <g id="line2d_116">
     <path d="M 327.200932 111.53475 
L 347.360932 111.53475 
" style="fill:none;stroke:#0000ff;stroke-dasharray:6.000000,6.000000;stroke-dashoffset:0.0;"/>
    </g>
    <g id="line2d_117"/>
    <g id="text_27">
     <!-- Jiang et al. QLF -->
     <defs>
      <path d="M 9.8125 72.90625 
L 19.671875 72.90625 
L 19.671875 5.078125 
Q 19.671875 -8.109375 14.671875 -14.0625 
Q 9.671875 -20.015625 -1.421875 -20.015625 
L -5.171875 -20.015625 
L -5.171875 -11.71875 
L -2.09375 -11.71875 
Q 4.4375 -11.71875 7.125 -8.046875 
Q 9.8125 -4.390625 9.8125 5.078125 
z
" id="BitstreamVeraSans-Roman-4a"/>
     </defs>
     <g transform="translate(363.200931818 116.57475)scale(0.144 -0.144)">
      <use xlink:href="#BitstreamVeraSans-Roman-4a"/>
      <use x="29.4921875" xlink:href="#BitstreamVeraSans-Roman-69"/>
      <use x="57.275390625" xlink:href="#BitstreamVeraSans-Roman-61"/>
      <use x="118.5546875" xlink:href="#BitstreamVeraSans-Roman-6e"/>
      <use x="181.93359375" xlink:href="#BitstreamVeraSans-Roman-67"/>
      <use x="245.41015625" xlink:href="#BitstreamVeraSans-Roman-20"/>
      <use x="277.197265625" xlink:href="#BitstreamVeraSans-Roman-65"/>
      <use x="338.720703125" xlink:href="#BitstreamVeraSans-Roman-74"/>
      <use x="377.9296875" xlink:href="#BitstreamVeraSans-Roman-20"/>
      <use x="409.716796875" xlink:href="#BitstreamVeraSans-Roman-61"/>
      <use x="470.99609375" xlink:href="#BitstreamVeraSans-Roman-6c"/>
      <use x="498.779296875" xlink:href="#BitstreamVeraSans-Roman-2e"/>
      <use x="530.56640625" xlink:href="#BitstreamVeraSans-Roman-20"/>
      <use x="562.353515625" xlink:href="#BitstreamVeraSans-Roman-51"/>
      <use x="641.064453125" xlink:href="#BitstreamVeraSans-Roman-4c"/>
      <use x="696.77734375" xlink:href="#BitstreamVeraSans-Roman-46"/>
     </g>
    </g>
   </g>
  </g>
  <g id="axes_2">
   <g id="patch_8">
    <path clip-path="url(#pec6683e7c3)" d="M 616.295455 453.6 
L 616.295455 372.96 
L 616.295455 131.04 
L 616.295455 50.4 
L 648 50.4 
L 648 131.04 
L 648 372.96 
L 648 453.6 
z
" style="fill:#ffffff;stroke:#ffffff;stroke-linejoin:miter;stroke-width:0.01;"/>
   </g>
   <g id="QuadMesh_1">
    <path clip-path="url(#pec6683e7c3)" d="M 616.295455 453.6 
L 648 453.6 
L 648 372.96 
L 616.295455 372.96 
L 616.295455 453.6 
" style="fill:#0000ff;"/>
    <path clip-path="url(#pec6683e7c3)" d="M 616.295455 372.96 
L 648 372.96 
L 648 292.32 
L 616.295455 292.32 
L 616.295455 372.96 
" style="fill:#4400bb;"/>
    <path clip-path="url(#pec6683e7c3)" d="M 616.295455 292.32 
L 648 292.32 
L 648 211.68 
L 616.295455 211.68 
L 616.295455 292.32 
" style="fill:#880088;"/>
    <path clip-path="url(#pec6683e7c3)" d="M 616.295455 211.68 
L 648 211.68 
L 648 131.04 
L 616.295455 131.04 
L 616.295455 211.68 
" style="fill:#bb0044;"/>
    <path clip-path="url(#pec6683e7c3)" d="M 616.295455 131.04 
L 648 131.04 
L 648 50.4 
L 616.295455 50.4 
L 616.295455 131.04 
" style="fill:#ff0000;"/>
   </g>
   <g id="patch_9">
    <path d="M 616.295455 453.6 
L 616.295455 372.96 
L 616.295455 131.04 
L 616.295455 50.4 
L 648 50.4 
L 648 131.04 
L 648 372.96 
L 648 453.6 
L 616.295455 453.6 
z
" style="fill:none;stroke:#000000;stroke-linejoin:miter;"/>
   </g>
   <g id="matplotlib.axis_3"/>
   <g id="matplotlib.axis_4">
    <g id="ytick_31">
     <g id="line2d_118">
      <g>
       <use style="stroke:#000000;stroke-width:0.5;" x="648.0" xlink:href="#m920f7de52d" y="413.28"/>
      </g>
     </g>
     <g id="text_28">
      <!-- 4 -->
      <g transform="translate(652.0 416.59125)scale(0.12 -0.12)">
       <use xlink:href="#BitstreamVeraSans-Roman-34"/>
      </g>
     </g>
    </g>
    <g id="ytick_32">
     <g id="line2d_119">
      <g>
       <use style="stroke:#000000;stroke-width:0.5;" x="648.0" xlink:href="#m920f7de52d" y="332.64"/>
      </g>
     </g>
     <g id="text_29">
      <!-- 5 -->
      <g transform="translate(652.0 335.95125)scale(0.12 -0.12)">
       <use xlink:href="#BitstreamVeraSans-Roman-35"/>
      </g>
     </g>
    </g>
    <g id="ytick_33">
     <g id="line2d_120">
      <g>
       <use style="stroke:#000000;stroke-width:0.5;" x="648.0" xlink:href="#m920f7de52d" y="252.0"/>
      </g>
     </g>
     <g id="text_30">
      <!-- 6 -->
      <g transform="translate(652.0 255.31125)scale(0.12 -0.12)">
       <use xlink:href="#BitstreamVeraSans-Roman-36"/>
      </g>
     </g>
    </g>
    <g id="ytick_34">
     <g id="line2d_121">
      <g>
       <use style="stroke:#000000;stroke-width:0.5;" x="648.0" xlink:href="#m920f7de52d" y="171.36"/>
      </g>
     </g>
     <g id="text_31">
      <!-- 7 -->
      <g transform="translate(652.0 174.67125)scale(0.12 -0.12)">
       <use xlink:href="#BitstreamVeraSans-Roman-37"/>
      </g>
     </g>
    </g>
    <g id="ytick_35">
     <g id="line2d_122">
      <g>
       <use style="stroke:#000000;stroke-width:0.5;" x="648.0" xlink:href="#m920f7de52d" y="90.72"/>
      </g>
     </g>
     <g id="text_32">
      <!-- 8 -->
      <g transform="translate(652.0 94.03125)scale(0.12 -0.12)">
       <use xlink:href="#BitstreamVeraSans-Roman-38"/>
      </g>
     </g>
    </g>
   </g>
   <g id="text_33">
    <!-- z -->
    <defs>
     <path d="M 5.515625 54.6875 
L 48.1875 54.6875 
L 48.1875 46.484375 
L 14.40625 7.171875 
L 48.1875 7.171875 
L 48.1875 0 
L 4.296875 0 
L 4.296875 8.203125 
L 38.09375 47.515625 
L 5.515625 47.515625 
z
" id="BitstreamVeraSans-Roman-7a"/>
    </defs>
    <g transform="translate(628.368852273 45.4)scale(0.144 -0.144)">
     <use xlink:href="#BitstreamVeraSans-Roman-7a"/>
    </g>
   </g>
  </g>
 </g>
 <defs>
  <clipPath id="pec6683e7c3">
   <rect height="403.2" width="31.7045454545" x="616.295454545" y="50.4"/>
  </clipPath>
  <clipPath id="pfe2eb6eedc">
   <rect height="403.2" width="475.568181818" x="90.0" y="50.4"/>
  </clipPath>
 </defs>
</svg>
