<?xml version="1.0" encoding="utf-8" standalone="no"?>
<!DOCTYPE svg PUBLIC "-//W3C//DTD SVG 1.1//EN"
  "http://www.w3.org/Graphics/SVG/1.1/DTD/svg11.dtd">
<!-- Created with matplotlib (http://matplotlib.org/) -->
<svg height="504pt" version="1.1" viewBox="0 0 720 504" width="720pt" xmlns="http://www.w3.org/2000/svg" xmlns:xlink="http://www.w3.org/1999/xlink">
 <defs>
  <style type="text/css">
*{stroke-linecap:butt;stroke-linejoin:round;}
  </style>
 </defs>
 <g id="figure_1">
  <g id="patch_1">
   <path d="M 0 504 
L 720 504 
L 720 0 
L 0 0 
z
" style="fill:#ffffff;"/>
  </g>
  <g id="axes_1">
   <g id="patch_2">
    <path d="M 90 448.56 
L 565.568182 448.56 
L 565.568182 60.48 
L 90 60.48 
z
" style="fill:#ffffff;"/>
   </g>
   <g id="matplotlib.axis_1">
    <g id="xtick_1">
     <g id="line2d_1">
      <path clip-path="url(#p28bad199fd)" d="M 565.568182 448.56 
L 565.568182 60.48 
" style="fill:none;stroke:#b0b0b0;stroke-linecap:square;stroke-width:0.8;"/>
     </g>
     <g id="line2d_2">
      <defs>
       <path d="M 0 0 
L 0 3.5 
" id="mfcbc028e7f" style="stroke:#000000;stroke-width:0.8;"/>
      </defs>
      <g>
       <use style="stroke:#000000;stroke-width:0.8;" x="565.568182" xlink:href="#mfcbc028e7f" y="448.56"/>
      </g>
     </g>
     <g id="text_1">
      <!-- −29.0 -->
      <defs>
       <path d="M 10.59375 35.5 
L 73.1875 35.5 
L 73.1875 27.203125 
L 10.59375 27.203125 
z
" id="DejaVuSans-2212"/>
       <path d="M 19.1875 8.296875 
L 53.609375 8.296875 
L 53.609375 0 
L 7.328125 0 
L 7.328125 8.296875 
Q 12.9375 14.109375 22.625 23.890625 
Q 32.328125 33.6875 34.8125 36.53125 
Q 39.546875 41.84375 41.421875 45.53125 
Q 43.3125 49.21875 43.3125 52.78125 
Q 43.3125 58.59375 39.234375 62.25 
Q 35.15625 65.921875 28.609375 65.921875 
Q 23.96875 65.921875 18.8125 64.3125 
Q 13.671875 62.703125 7.8125 59.421875 
L 7.8125 69.390625 
Q 13.765625 71.78125 18.9375 73 
Q 24.125 74.21875 28.421875 74.21875 
Q 39.75 74.21875 46.484375 68.546875 
Q 53.21875 62.890625 53.21875 53.421875 
Q 53.21875 48.921875 51.53125 44.890625 
Q 49.859375 40.875 45.40625 35.40625 
Q 44.1875 33.984375 37.640625 27.21875 
Q 31.109375 20.453125 19.1875 8.296875 
z
" id="DejaVuSans-32"/>
       <path d="M 10.984375 1.515625 
L 10.984375 10.5 
Q 14.703125 8.734375 18.5 7.8125 
Q 22.3125 6.890625 25.984375 6.890625 
Q 35.75 6.890625 40.890625 13.453125 
Q 46.046875 20.015625 46.78125 33.40625 
Q 43.953125 29.203125 39.59375 26.953125 
Q 35.25 24.703125 29.984375 24.703125 
Q 19.046875 24.703125 12.671875 31.3125 
Q 6.296875 37.9375 6.296875 49.421875 
Q 6.296875 60.640625 12.9375 67.421875 
Q 19.578125 74.21875 30.609375 74.21875 
Q 43.265625 74.21875 49.921875 64.515625 
Q 56.59375 54.828125 56.59375 36.375 
Q 56.59375 19.140625 48.40625 8.859375 
Q 40.234375 -1.421875 26.421875 -1.421875 
Q 22.703125 -1.421875 18.890625 -0.6875 
Q 15.09375 0.046875 10.984375 1.515625 
z
M 30.609375 32.421875 
Q 37.25 32.421875 41.125 36.953125 
Q 45.015625 41.5 45.015625 49.421875 
Q 45.015625 57.28125 41.125 61.84375 
Q 37.25 66.40625 30.609375 66.40625 
Q 23.96875 66.40625 20.09375 61.84375 
Q 16.21875 57.28125 16.21875 49.421875 
Q 16.21875 41.5 20.09375 36.953125 
Q 23.96875 32.421875 30.609375 32.421875 
z
" id="DejaVuSans-39"/>
       <path d="M 10.6875 12.40625 
L 21 12.40625 
L 21 0 
L 10.6875 0 
z
" id="DejaVuSans-2e"/>
       <path d="M 31.78125 66.40625 
Q 24.171875 66.40625 20.328125 58.90625 
Q 16.5 51.421875 16.5 36.375 
Q 16.5 21.390625 20.328125 13.890625 
Q 24.171875 6.390625 31.78125 6.390625 
Q 39.453125 6.390625 43.28125 13.890625 
Q 47.125 21.390625 47.125 36.375 
Q 47.125 51.421875 43.28125 58.90625 
Q 39.453125 66.40625 31.78125 66.40625 
z
M 31.78125 74.21875 
Q 44.046875 74.21875 50.515625 64.515625 
Q 56.984375 54.828125 56.984375 36.375 
Q 56.984375 17.96875 50.515625 8.265625 
Q 44.046875 -1.421875 31.78125 -1.421875 
Q 19.53125 -1.421875 13.0625 8.265625 
Q 6.59375 17.96875 6.59375 36.375 
Q 6.59375 54.828125 13.0625 64.515625 
Q 19.53125 74.21875 31.78125 74.21875 
z
" id="DejaVuSans-30"/>
      </defs>
      <g transform="translate(550.245526 463.158437)scale(0.1 -0.1)">
       <use xlink:href="#DejaVuSans-2212"/>
       <use x="83.789062" xlink:href="#DejaVuSans-32"/>
       <use x="147.412109" xlink:href="#DejaVuSans-39"/>
       <use x="211.035156" xlink:href="#DejaVuSans-2e"/>
       <use x="242.822266" xlink:href="#DejaVuSans-30"/>
      </g>
     </g>
    </g>
    <g id="xtick_2">
     <g id="line2d_3">
      <path clip-path="url(#p28bad199fd)" d="M 506.122159 448.56 
L 506.122159 60.48 
" style="fill:none;stroke:#b0b0b0;stroke-linecap:square;stroke-width:0.8;"/>
     </g>
     <g id="line2d_4">
      <g>
       <use style="stroke:#000000;stroke-width:0.8;" x="506.122159" xlink:href="#mfcbc028e7f" y="448.56"/>
      </g>
     </g>
     <g id="text_2">
      <!-- −28.5 -->
      <defs>
       <path d="M 31.78125 34.625 
Q 24.75 34.625 20.71875 30.859375 
Q 16.703125 27.09375 16.703125 20.515625 
Q 16.703125 13.921875 20.71875 10.15625 
Q 24.75 6.390625 31.78125 6.390625 
Q 38.8125 6.390625 42.859375 10.171875 
Q 46.921875 13.96875 46.921875 20.515625 
Q 46.921875 27.09375 42.890625 30.859375 
Q 38.875 34.625 31.78125 34.625 
z
M 21.921875 38.8125 
Q 15.578125 40.375 12.03125 44.71875 
Q 8.5 49.078125 8.5 55.328125 
Q 8.5 64.0625 14.71875 69.140625 
Q 20.953125 74.21875 31.78125 74.21875 
Q 42.671875 74.21875 48.875 69.140625 
Q 55.078125 64.0625 55.078125 55.328125 
Q 55.078125 49.078125 51.53125 44.71875 
Q 48 40.375 41.703125 38.8125 
Q 48.828125 37.15625 52.796875 32.3125 
Q 56.78125 27.484375 56.78125 20.515625 
Q 56.78125 9.90625 50.3125 4.234375 
Q 43.84375 -1.421875 31.78125 -1.421875 
Q 19.734375 -1.421875 13.25 4.234375 
Q 6.78125 9.90625 6.78125 20.515625 
Q 6.78125 27.484375 10.78125 32.3125 
Q 14.796875 37.15625 21.921875 38.8125 
z
M 18.3125 54.390625 
Q 18.3125 48.734375 21.84375 45.5625 
Q 25.390625 42.390625 31.78125 42.390625 
Q 38.140625 42.390625 41.71875 45.5625 
Q 45.3125 48.734375 45.3125 54.390625 
Q 45.3125 60.0625 41.71875 63.234375 
Q 38.140625 66.40625 31.78125 66.40625 
Q 25.390625 66.40625 21.84375 63.234375 
Q 18.3125 60.0625 18.3125 54.390625 
z
" id="DejaVuSans-38"/>
       <path d="M 10.796875 72.90625 
L 49.515625 72.90625 
L 49.515625 64.59375 
L 19.828125 64.59375 
L 19.828125 46.734375 
Q 21.96875 47.46875 24.109375 47.828125 
Q 26.265625 48.1875 28.421875 48.1875 
Q 40.625 48.1875 47.75 41.5 
Q 54.890625 34.8125 54.890625 23.390625 
Q 54.890625 11.625 47.5625 5.09375 
Q 40.234375 -1.421875 26.90625 -1.421875 
Q 22.3125 -1.421875 17.546875 -0.640625 
Q 12.796875 0.140625 7.71875 1.703125 
L 7.71875 11.625 
Q 12.109375 9.234375 16.796875 8.0625 
Q 21.484375 6.890625 26.703125 6.890625 
Q 35.15625 6.890625 40.078125 11.328125 
Q 45.015625 15.765625 45.015625 23.390625 
Q 45.015625 31 40.078125 35.4375 
Q 35.15625 39.890625 26.703125 39.890625 
Q 22.75 39.890625 18.8125 39.015625 
Q 14.890625 38.140625 10.796875 36.28125 
z
" id="DejaVuSans-35"/>
      </defs>
      <g transform="translate(490.799503 463.158437)scale(0.1 -0.1)">
       <use xlink:href="#DejaVuSans-2212"/>
       <use x="83.789062" xlink:href="#DejaVuSans-32"/>
       <use x="147.412109" xlink:href="#DejaVuSans-38"/>
       <use x="211.035156" xlink:href="#DejaVuSans-2e"/>
       <use x="242.822266" xlink:href="#DejaVuSans-35"/>
      </g>
     </g>
    </g>
    <g id="xtick_3">
     <g id="line2d_5">
      <path clip-path="url(#p28bad199fd)" d="M 446.676136 448.56 
L 446.676136 60.48 
" style="fill:none;stroke:#b0b0b0;stroke-linecap:square;stroke-width:0.8;"/>
     </g>
     <g id="line2d_6">
      <g>
       <use style="stroke:#000000;stroke-width:0.8;" x="446.676136" xlink:href="#mfcbc028e7f" y="448.56"/>
      </g>
     </g>
     <g id="text_3">
      <!-- −28.0 -->
      <g transform="translate(431.35348 463.158437)scale(0.1 -0.1)">
       <use xlink:href="#DejaVuSans-2212"/>
       <use x="83.789062" xlink:href="#DejaVuSans-32"/>
       <use x="147.412109" xlink:href="#DejaVuSans-38"/>
       <use x="211.035156" xlink:href="#DejaVuSans-2e"/>
       <use x="242.822266" xlink:href="#DejaVuSans-30"/>
      </g>
     </g>
    </g>
    <g id="xtick_4">
     <g id="line2d_7">
      <path clip-path="url(#p28bad199fd)" d="M 387.230114 448.56 
L 387.230114 60.48 
" style="fill:none;stroke:#b0b0b0;stroke-linecap:square;stroke-width:0.8;"/>
     </g>
     <g id="line2d_8">
      <g>
       <use style="stroke:#000000;stroke-width:0.8;" x="387.230114" xlink:href="#mfcbc028e7f" y="448.56"/>
      </g>
     </g>
     <g id="text_4">
      <!-- −27.5 -->
      <defs>
       <path d="M 8.203125 72.90625 
L 55.078125 72.90625 
L 55.078125 68.703125 
L 28.609375 0 
L 18.3125 0 
L 43.21875 64.59375 
L 8.203125 64.59375 
z
" id="DejaVuSans-37"/>
      </defs>
      <g transform="translate(371.907457 463.158437)scale(0.1 -0.1)">
       <use xlink:href="#DejaVuSans-2212"/>
       <use x="83.789062" xlink:href="#DejaVuSans-32"/>
       <use x="147.412109" xlink:href="#DejaVuSans-37"/>
       <use x="211.035156" xlink:href="#DejaVuSans-2e"/>
       <use x="242.822266" xlink:href="#DejaVuSans-35"/>
      </g>
     </g>
    </g>
    <g id="xtick_5">
     <g id="line2d_9">
      <path clip-path="url(#p28bad199fd)" d="M 327.784091 448.56 
L 327.784091 60.48 
" style="fill:none;stroke:#b0b0b0;stroke-linecap:square;stroke-width:0.8;"/>
     </g>
     <g id="line2d_10">
      <g>
       <use style="stroke:#000000;stroke-width:0.8;" x="327.784091" xlink:href="#mfcbc028e7f" y="448.56"/>
      </g>
     </g>
     <g id="text_5">
      <!-- −27.0 -->
      <g transform="translate(312.461435 463.158437)scale(0.1 -0.1)">
       <use xlink:href="#DejaVuSans-2212"/>
       <use x="83.789062" xlink:href="#DejaVuSans-32"/>
       <use x="147.412109" xlink:href="#DejaVuSans-37"/>
       <use x="211.035156" xlink:href="#DejaVuSans-2e"/>
       <use x="242.822266" xlink:href="#DejaVuSans-30"/>
      </g>
     </g>
    </g>
    <g id="xtick_6">
     <g id="line2d_11">
      <path clip-path="url(#p28bad199fd)" d="M 268.338068 448.56 
L 268.338068 60.48 
" style="fill:none;stroke:#b0b0b0;stroke-linecap:square;stroke-width:0.8;"/>
     </g>
     <g id="line2d_12">
      <g>
       <use style="stroke:#000000;stroke-width:0.8;" x="268.338068" xlink:href="#mfcbc028e7f" y="448.56"/>
      </g>
     </g>
     <g id="text_6">
      <!-- −26.5 -->
      <defs>
       <path d="M 33.015625 40.375 
Q 26.375 40.375 22.484375 35.828125 
Q 18.609375 31.296875 18.609375 23.390625 
Q 18.609375 15.53125 22.484375 10.953125 
Q 26.375 6.390625 33.015625 6.390625 
Q 39.65625 6.390625 43.53125 10.953125 
Q 47.40625 15.53125 47.40625 23.390625 
Q 47.40625 31.296875 43.53125 35.828125 
Q 39.65625 40.375 33.015625 40.375 
z
M 52.59375 71.296875 
L 52.59375 62.3125 
Q 48.875 64.0625 45.09375 64.984375 
Q 41.3125 65.921875 37.59375 65.921875 
Q 27.828125 65.921875 22.671875 59.328125 
Q 17.53125 52.734375 16.796875 39.40625 
Q 19.671875 43.65625 24.015625 45.921875 
Q 28.375 48.1875 33.59375 48.1875 
Q 44.578125 48.1875 50.953125 41.515625 
Q 57.328125 34.859375 57.328125 23.390625 
Q 57.328125 12.15625 50.6875 5.359375 
Q 44.046875 -1.421875 33.015625 -1.421875 
Q 20.359375 -1.421875 13.671875 8.265625 
Q 6.984375 17.96875 6.984375 36.375 
Q 6.984375 53.65625 15.1875 63.9375 
Q 23.390625 74.21875 37.203125 74.21875 
Q 40.921875 74.21875 44.703125 73.484375 
Q 48.484375 72.75 52.59375 71.296875 
z
" id="DejaVuSans-36"/>
      </defs>
      <g transform="translate(253.015412 463.158437)scale(0.1 -0.1)">
       <use xlink:href="#DejaVuSans-2212"/>
       <use x="83.789062" xlink:href="#DejaVuSans-32"/>
       <use x="147.412109" xlink:href="#DejaVuSans-36"/>
       <use x="211.035156" xlink:href="#DejaVuSans-2e"/>
       <use x="242.822266" xlink:href="#DejaVuSans-35"/>
      </g>
     </g>
    </g>
    <g id="xtick_7">
     <g id="line2d_13">
      <path clip-path="url(#p28bad199fd)" d="M 208.892045 448.56 
L 208.892045 60.48 
" style="fill:none;stroke:#b0b0b0;stroke-linecap:square;stroke-width:0.8;"/>
     </g>
     <g id="line2d_14">
      <g>
       <use style="stroke:#000000;stroke-width:0.8;" x="208.892045" xlink:href="#mfcbc028e7f" y="448.56"/>
      </g>
     </g>
     <g id="text_7">
      <!-- −26.0 -->
      <g transform="translate(193.569389 463.158437)scale(0.1 -0.1)">
       <use xlink:href="#DejaVuSans-2212"/>
       <use x="83.789062" xlink:href="#DejaVuSans-32"/>
       <use x="147.412109" xlink:href="#DejaVuSans-36"/>
       <use x="211.035156" xlink:href="#DejaVuSans-2e"/>
       <use x="242.822266" xlink:href="#DejaVuSans-30"/>
      </g>
     </g>
    </g>
    <g id="xtick_8">
     <g id="line2d_15">
      <path clip-path="url(#p28bad199fd)" d="M 149.446023 448.56 
L 149.446023 60.48 
" style="fill:none;stroke:#b0b0b0;stroke-linecap:square;stroke-width:0.8;"/>
     </g>
     <g id="line2d_16">
      <g>
       <use style="stroke:#000000;stroke-width:0.8;" x="149.446023" xlink:href="#mfcbc028e7f" y="448.56"/>
      </g>
     </g>
     <g id="text_8">
      <!-- −25.5 -->
      <g transform="translate(134.123366 463.158437)scale(0.1 -0.1)">
       <use xlink:href="#DejaVuSans-2212"/>
       <use x="83.789062" xlink:href="#DejaVuSans-32"/>
       <use x="147.412109" xlink:href="#DejaVuSans-35"/>
       <use x="211.035156" xlink:href="#DejaVuSans-2e"/>
       <use x="242.822266" xlink:href="#DejaVuSans-35"/>
      </g>
     </g>
    </g>
    <g id="xtick_9">
     <g id="line2d_17">
      <path clip-path="url(#p28bad199fd)" d="M 90 448.56 
L 90 60.48 
" style="fill:none;stroke:#b0b0b0;stroke-linecap:square;stroke-width:0.8;"/>
     </g>
     <g id="line2d_18">
      <g>
       <use style="stroke:#000000;stroke-width:0.8;" x="90" xlink:href="#mfcbc028e7f" y="448.56"/>
      </g>
     </g>
     <g id="text_9">
      <!-- −25.0 -->
      <g transform="translate(74.677344 463.158437)scale(0.1 -0.1)">
       <use xlink:href="#DejaVuSans-2212"/>
       <use x="83.789062" xlink:href="#DejaVuSans-32"/>
       <use x="147.412109" xlink:href="#DejaVuSans-35"/>
       <use x="211.035156" xlink:href="#DejaVuSans-2e"/>
       <use x="242.822266" xlink:href="#DejaVuSans-30"/>
      </g>
     </g>
    </g>
    <g id="text_10">
     <!-- M_1450 -->
     <defs>
      <path d="M 9.8125 72.90625 
L 24.515625 72.90625 
L 43.109375 23.296875 
L 61.8125 72.90625 
L 76.515625 72.90625 
L 76.515625 0 
L 66.890625 0 
L 66.890625 64.015625 
L 48.09375 14.015625 
L 38.1875 14.015625 
L 19.390625 64.015625 
L 19.390625 0 
L 9.8125 0 
z
" id="DejaVuSans-4d"/>
      <path d="M 50.984375 -16.609375 
L 50.984375 -23.578125 
L -0.984375 -23.578125 
L -0.984375 -16.609375 
z
" id="DejaVuSans-5f"/>
      <path d="M 12.40625 8.296875 
L 28.515625 8.296875 
L 28.515625 63.921875 
L 10.984375 60.40625 
L 10.984375 69.390625 
L 28.421875 72.90625 
L 38.28125 72.90625 
L 38.28125 8.296875 
L 54.390625 8.296875 
L 54.390625 0 
L 12.40625 0 
z
" id="DejaVuSans-31"/>
      <path d="M 37.796875 64.3125 
L 12.890625 25.390625 
L 37.796875 25.390625 
z
M 35.203125 72.90625 
L 47.609375 72.90625 
L 47.609375 25.390625 
L 58.015625 25.390625 
L 58.015625 17.1875 
L 47.609375 17.1875 
L 47.609375 0 
L 37.796875 0 
L 37.796875 17.1875 
L 4.890625 17.1875 
L 4.890625 26.703125 
z
" id="DejaVuSans-34"/>
     </defs>
     <g transform="translate(308.245028 476.66)scale(0.1 -0.1)">
      <use xlink:href="#DejaVuSans-4d"/>
      <use x="86.279297" xlink:href="#DejaVuSans-5f"/>
      <use x="136.279297" xlink:href="#DejaVuSans-31"/>
      <use x="199.902344" xlink:href="#DejaVuSans-34"/>
      <use x="263.525391" xlink:href="#DejaVuSans-35"/>
      <use x="327.148438" xlink:href="#DejaVuSans-30"/>
     </g>
    </g>
   </g>
   <g id="matplotlib.axis_2">
    <g id="ytick_1">
     <g id="line2d_19">
      <path clip-path="url(#p28bad199fd)" d="M 90 363.448664 
L 565.568182 363.448664 
" style="fill:none;stroke:#b0b0b0;stroke-linecap:square;stroke-width:0.8;"/>
     </g>
     <g id="line2d_20">
      <defs>
       <path d="M 0 0 
L -3.5 0 
" id="mc7e2cc00f1" style="stroke:#000000;stroke-width:0.8;"/>
      </defs>
      <g>
       <use style="stroke:#000000;stroke-width:0.8;" x="90" xlink:href="#mc7e2cc00f1" y="363.448664"/>
      </g>
     </g>
     <g id="text_11">
      <!-- $\mathdefault{10^{-10}}$ -->
      <g transform="translate(55.1 367.247883)scale(0.1 -0.1)">
       <use transform="translate(0 0.765625)" xlink:href="#DejaVuSans-31"/>
       <use transform="translate(63.623047 0.765625)" xlink:href="#DejaVuSans-30"/>
       <use transform="translate(128.203125 39.046875)scale(0.7)" xlink:href="#DejaVuSans-2212"/>
       <use transform="translate(186.855469 39.046875)scale(0.7)" xlink:href="#DejaVuSans-31"/>
       <use transform="translate(231.391602 39.046875)scale(0.7)" xlink:href="#DejaVuSans-30"/>
      </g>
     </g>
    </g>
    <g id="ytick_2">
     <g id="line2d_21">
      <path clip-path="url(#p28bad199fd)" d="M 90 274.351084 
L 565.568182 274.351084 
" style="fill:none;stroke:#b0b0b0;stroke-linecap:square;stroke-width:0.8;"/>
     </g>
     <g id="line2d_22">
      <g>
       <use style="stroke:#000000;stroke-width:0.8;" x="90" xlink:href="#mc7e2cc00f1" y="274.351084"/>
      </g>
     </g>
     <g id="text_12">
      <!-- $\mathdefault{10^{-9}}$ -->
      <g transform="translate(59.5 278.150303)scale(0.1 -0.1)">
       <use transform="translate(0 0.765625)" xlink:href="#DejaVuSans-31"/>
       <use transform="translate(63.623047 0.765625)" xlink:href="#DejaVuSans-30"/>
       <use transform="translate(128.203125 39.046875)scale(0.7)" xlink:href="#DejaVuSans-2212"/>
       <use transform="translate(186.855469 39.046875)scale(0.7)" xlink:href="#DejaVuSans-39"/>
      </g>
     </g>
    </g>
    <g id="ytick_3">
     <g id="line2d_23">
      <path clip-path="url(#p28bad199fd)" d="M 90 185.253504 
L 565.568182 185.253504 
" style="fill:none;stroke:#b0b0b0;stroke-linecap:square;stroke-width:0.8;"/>
     </g>
     <g id="line2d_24">
      <g>
       <use style="stroke:#000000;stroke-width:0.8;" x="90" xlink:href="#mc7e2cc00f1" y="185.253504"/>
      </g>
     </g>
     <g id="text_13">
      <!-- $\mathdefault{10^{-8}}$ -->
      <g transform="translate(59.5 189.052723)scale(0.1 -0.1)">
       <use transform="translate(0 0.765625)" xlink:href="#DejaVuSans-31"/>
       <use transform="translate(63.623047 0.765625)" xlink:href="#DejaVuSans-30"/>
       <use transform="translate(128.203125 39.046875)scale(0.7)" xlink:href="#DejaVuSans-2212"/>
       <use transform="translate(186.855469 39.046875)scale(0.7)" xlink:href="#DejaVuSans-38"/>
      </g>
     </g>
    </g>
    <g id="ytick_4">
     <g id="line2d_25">
      <path clip-path="url(#p28bad199fd)" d="M 90 96.155924 
L 565.568182 96.155924 
" style="fill:none;stroke:#b0b0b0;stroke-linecap:square;stroke-width:0.8;"/>
     </g>
     <g id="line2d_26">
      <g>
       <use style="stroke:#000000;stroke-width:0.8;" x="90" xlink:href="#mc7e2cc00f1" y="96.155924"/>
      </g>
     </g>
     <g id="text_14">
      <!-- $\mathdefault{10^{-7}}$ -->
      <g transform="translate(59.5 99.955142)scale(0.1 -0.1)">
       <use transform="translate(0 0.684375)" xlink:href="#DejaVuSans-31"/>
       <use transform="translate(63.623047 0.684375)" xlink:href="#DejaVuSans-30"/>
       <use transform="translate(128.203125 38.965625)scale(0.7)" xlink:href="#DejaVuSans-2212"/>
       <use transform="translate(186.855469 38.965625)scale(0.7)" xlink:href="#DejaVuSans-37"/>
      </g>
     </g>
    </g>
    <g id="ytick_5">
     <g id="line2d_27">
      <defs>
       <path d="M 0 0 
L -2 0 
" id="m0888a29bd3" style="stroke:#000000;stroke-width:0.6;"/>
      </defs>
      <g>
       <use style="stroke:#000000;stroke-width:0.6;" x="90" xlink:href="#m0888a29bd3" y="425.7252"/>
      </g>
     </g>
    </g>
    <g id="ytick_6">
     <g id="line2d_28">
      <g>
       <use style="stroke:#000000;stroke-width:0.6;" x="90" xlink:href="#m0888a29bd3" y="410.035895"/>
      </g>
     </g>
    </g>
    <g id="ytick_7">
     <g id="line2d_29">
      <g>
       <use style="stroke:#000000;stroke-width:0.6;" x="90" xlink:href="#m0888a29bd3" y="398.904156"/>
      </g>
     </g>
    </g>
    <g id="ytick_8">
     <g id="line2d_30">
      <g>
       <use style="stroke:#000000;stroke-width:0.6;" x="90" xlink:href="#m0888a29bd3" y="390.269708"/>
      </g>
     </g>
    </g>
    <g id="ytick_9">
     <g id="line2d_31">
      <g>
       <use style="stroke:#000000;stroke-width:0.6;" x="90" xlink:href="#m0888a29bd3" y="383.214851"/>
      </g>
     </g>
    </g>
    <g id="ytick_10">
     <g id="line2d_32">
      <g>
       <use style="stroke:#000000;stroke-width:0.6;" x="90" xlink:href="#m0888a29bd3" y="377.250054"/>
      </g>
     </g>
    </g>
    <g id="ytick_11">
     <g id="line2d_33">
      <g>
       <use style="stroke:#000000;stroke-width:0.6;" x="90" xlink:href="#m0888a29bd3" y="372.083112"/>
      </g>
     </g>
    </g>
    <g id="ytick_12">
     <g id="line2d_34">
      <g>
       <use style="stroke:#000000;stroke-width:0.6;" x="90" xlink:href="#m0888a29bd3" y="367.525546"/>
      </g>
     </g>
    </g>
    <g id="ytick_13">
     <g id="line2d_35">
      <g>
       <use style="stroke:#000000;stroke-width:0.6;" x="90" xlink:href="#m0888a29bd3" y="336.62762"/>
      </g>
     </g>
    </g>
    <g id="ytick_14">
     <g id="line2d_36">
      <g>
       <use style="stroke:#000000;stroke-width:0.6;" x="90" xlink:href="#m0888a29bd3" y="320.938315"/>
      </g>
     </g>
    </g>
    <g id="ytick_15">
     <g id="line2d_37">
      <g>
       <use style="stroke:#000000;stroke-width:0.6;" x="90" xlink:href="#m0888a29bd3" y="309.806576"/>
      </g>
     </g>
    </g>
    <g id="ytick_16">
     <g id="line2d_38">
      <g>
       <use style="stroke:#000000;stroke-width:0.6;" x="90" xlink:href="#m0888a29bd3" y="301.172128"/>
      </g>
     </g>
    </g>
    <g id="ytick_17">
     <g id="line2d_39">
      <g>
       <use style="stroke:#000000;stroke-width:0.6;" x="90" xlink:href="#m0888a29bd3" y="294.117271"/>
      </g>
     </g>
    </g>
    <g id="ytick_18">
     <g id="line2d_40">
      <g>
       <use style="stroke:#000000;stroke-width:0.6;" x="90" xlink:href="#m0888a29bd3" y="288.152474"/>
      </g>
     </g>
    </g>
    <g id="ytick_19">
     <g id="line2d_41">
      <g>
       <use style="stroke:#000000;stroke-width:0.6;" x="90" xlink:href="#m0888a29bd3" y="282.985532"/>
      </g>
     </g>
    </g>
    <g id="ytick_20">
     <g id="line2d_42">
      <g>
       <use style="stroke:#000000;stroke-width:0.6;" x="90" xlink:href="#m0888a29bd3" y="278.427966"/>
      </g>
     </g>
    </g>
    <g id="ytick_21">
     <g id="line2d_43">
      <g>
       <use style="stroke:#000000;stroke-width:0.6;" x="90" xlink:href="#m0888a29bd3" y="247.53004"/>
      </g>
     </g>
    </g>
    <g id="ytick_22">
     <g id="line2d_44">
      <g>
       <use style="stroke:#000000;stroke-width:0.6;" x="90" xlink:href="#m0888a29bd3" y="231.840735"/>
      </g>
     </g>
    </g>
    <g id="ytick_23">
     <g id="line2d_45">
      <g>
       <use style="stroke:#000000;stroke-width:0.6;" x="90" xlink:href="#m0888a29bd3" y="220.708996"/>
      </g>
     </g>
    </g>
    <g id="ytick_24">
     <g id="line2d_46">
      <g>
       <use style="stroke:#000000;stroke-width:0.6;" x="90" xlink:href="#m0888a29bd3" y="212.074548"/>
      </g>
     </g>
    </g>
    <g id="ytick_25">
     <g id="line2d_47">
      <g>
       <use style="stroke:#000000;stroke-width:0.6;" x="90" xlink:href="#m0888a29bd3" y="205.019691"/>
      </g>
     </g>
    </g>
    <g id="ytick_26">
     <g id="line2d_48">
      <g>
       <use style="stroke:#000000;stroke-width:0.6;" x="90" xlink:href="#m0888a29bd3" y="199.054894"/>
      </g>
     </g>
    </g>
    <g id="ytick_27">
     <g id="line2d_49">
      <g>
       <use style="stroke:#000000;stroke-width:0.6;" x="90" xlink:href="#m0888a29bd3" y="193.887951"/>
      </g>
     </g>
    </g>
    <g id="ytick_28">
     <g id="line2d_50">
      <g>
       <use style="stroke:#000000;stroke-width:0.6;" x="90" xlink:href="#m0888a29bd3" y="189.330385"/>
      </g>
     </g>
    </g>
    <g id="ytick_29">
     <g id="line2d_51">
      <g>
       <use style="stroke:#000000;stroke-width:0.6;" x="90" xlink:href="#m0888a29bd3" y="158.43246"/>
      </g>
     </g>
    </g>
    <g id="ytick_30">
     <g id="line2d_52">
      <g>
       <use style="stroke:#000000;stroke-width:0.6;" x="90" xlink:href="#m0888a29bd3" y="142.743155"/>
      </g>
     </g>
    </g>
    <g id="ytick_31">
     <g id="line2d_53">
      <g>
       <use style="stroke:#000000;stroke-width:0.6;" x="90" xlink:href="#m0888a29bd3" y="131.611415"/>
      </g>
     </g>
    </g>
    <g id="ytick_32">
     <g id="line2d_54">
      <g>
       <use style="stroke:#000000;stroke-width:0.6;" x="90" xlink:href="#m0888a29bd3" y="122.976968"/>
      </g>
     </g>
    </g>
    <g id="ytick_33">
     <g id="line2d_55">
      <g>
       <use style="stroke:#000000;stroke-width:0.6;" x="90" xlink:href="#m0888a29bd3" y="115.92211"/>
      </g>
     </g>
    </g>
    <g id="ytick_34">
     <g id="line2d_56">
      <g>
       <use style="stroke:#000000;stroke-width:0.6;" x="90" xlink:href="#m0888a29bd3" y="109.957313"/>
      </g>
     </g>
    </g>
    <g id="ytick_35">
     <g id="line2d_57">
      <g>
       <use style="stroke:#000000;stroke-width:0.6;" x="90" xlink:href="#m0888a29bd3" y="104.790371"/>
      </g>
     </g>
    </g>
    <g id="ytick_36">
     <g id="line2d_58">
      <g>
       <use style="stroke:#000000;stroke-width:0.6;" x="90" xlink:href="#m0888a29bd3" y="100.232805"/>
      </g>
     </g>
    </g>
    <g id="ytick_37">
     <g id="line2d_59">
      <g>
       <use style="stroke:#000000;stroke-width:0.6;" x="90" xlink:href="#m0888a29bd3" y="69.334879"/>
      </g>
     </g>
    </g>
    <g id="text_15">
     <!-- Phi(M_1450) (Mpc^-3 mag^-1) -->
     <defs>
      <path d="M 19.671875 64.796875 
L 19.671875 37.40625 
L 32.078125 37.40625 
Q 38.96875 37.40625 42.71875 40.96875 
Q 46.484375 44.53125 46.484375 51.125 
Q 46.484375 57.671875 42.71875 61.234375 
Q 38.96875 64.796875 32.078125 64.796875 
z
M 9.8125 72.90625 
L 32.078125 72.90625 
Q 44.34375 72.90625 50.609375 67.359375 
Q 56.890625 61.8125 56.890625 51.125 
Q 56.890625 40.328125 50.609375 34.8125 
Q 44.34375 29.296875 32.078125 29.296875 
L 19.671875 29.296875 
L 19.671875 0 
L 9.8125 0 
z
" id="DejaVuSans-50"/>
      <path d="M 54.890625 33.015625 
L 54.890625 0 
L 45.90625 0 
L 45.90625 32.71875 
Q 45.90625 40.484375 42.875 44.328125 
Q 39.84375 48.1875 33.796875 48.1875 
Q 26.515625 48.1875 22.3125 43.546875 
Q 18.109375 38.921875 18.109375 30.90625 
L 18.109375 0 
L 9.078125 0 
L 9.078125 75.984375 
L 18.109375 75.984375 
L 18.109375 46.1875 
Q 21.34375 51.125 25.703125 53.5625 
Q 30.078125 56 35.796875 56 
Q 45.21875 56 50.046875 50.171875 
Q 54.890625 44.34375 54.890625 33.015625 
z
" id="DejaVuSans-68"/>
      <path d="M 9.421875 54.6875 
L 18.40625 54.6875 
L 18.40625 0 
L 9.421875 0 
z
M 9.421875 75.984375 
L 18.40625 75.984375 
L 18.40625 64.59375 
L 9.421875 64.59375 
z
" id="DejaVuSans-69"/>
      <path d="M 31 75.875 
Q 24.46875 64.65625 21.28125 53.65625 
Q 18.109375 42.671875 18.109375 31.390625 
Q 18.109375 20.125 21.3125 9.0625 
Q 24.515625 -2 31 -13.1875 
L 23.1875 -13.1875 
Q 15.875 -1.703125 12.234375 9.375 
Q 8.59375 20.453125 8.59375 31.390625 
Q 8.59375 42.28125 12.203125 53.3125 
Q 15.828125 64.359375 23.1875 75.875 
z
" id="DejaVuSans-28"/>
      <path d="M 8.015625 75.875 
L 15.828125 75.875 
Q 23.140625 64.359375 26.78125 53.3125 
Q 30.421875 42.28125 30.421875 31.390625 
Q 30.421875 20.453125 26.78125 9.375 
Q 23.140625 -1.703125 15.828125 -13.1875 
L 8.015625 -13.1875 
Q 14.5 -2 17.703125 9.0625 
Q 20.90625 20.125 20.90625 31.390625 
Q 20.90625 42.671875 17.703125 53.65625 
Q 14.5 64.65625 8.015625 75.875 
z
" id="DejaVuSans-29"/>
      <path id="DejaVuSans-20"/>
      <path d="M 18.109375 8.203125 
L 18.109375 -20.796875 
L 9.078125 -20.796875 
L 9.078125 54.6875 
L 18.109375 54.6875 
L 18.109375 46.390625 
Q 20.953125 51.265625 25.265625 53.625 
Q 29.59375 56 35.59375 56 
Q 45.5625 56 51.78125 48.09375 
Q 58.015625 40.1875 58.015625 27.296875 
Q 58.015625 14.40625 51.78125 6.484375 
Q 45.5625 -1.421875 35.59375 -1.421875 
Q 29.59375 -1.421875 25.265625 0.953125 
Q 20.953125 3.328125 18.109375 8.203125 
z
M 48.6875 27.296875 
Q 48.6875 37.203125 44.609375 42.84375 
Q 40.53125 48.484375 33.40625 48.484375 
Q 26.265625 48.484375 22.1875 42.84375 
Q 18.109375 37.203125 18.109375 27.296875 
Q 18.109375 17.390625 22.1875 11.75 
Q 26.265625 6.109375 33.40625 6.109375 
Q 40.53125 6.109375 44.609375 11.75 
Q 48.6875 17.390625 48.6875 27.296875 
z
" id="DejaVuSans-70"/>
      <path d="M 48.78125 52.59375 
L 48.78125 44.1875 
Q 44.96875 46.296875 41.140625 47.34375 
Q 37.3125 48.390625 33.40625 48.390625 
Q 24.65625 48.390625 19.8125 42.84375 
Q 14.984375 37.3125 14.984375 27.296875 
Q 14.984375 17.28125 19.8125 11.734375 
Q 24.65625 6.203125 33.40625 6.203125 
Q 37.3125 6.203125 41.140625 7.25 
Q 44.96875 8.296875 48.78125 10.40625 
L 48.78125 2.09375 
Q 45.015625 0.34375 40.984375 -0.53125 
Q 36.96875 -1.421875 32.421875 -1.421875 
Q 20.0625 -1.421875 12.78125 6.34375 
Q 5.515625 14.109375 5.515625 27.296875 
Q 5.515625 40.671875 12.859375 48.328125 
Q 20.21875 56 33.015625 56 
Q 37.15625 56 41.109375 55.140625 
Q 45.0625 54.296875 48.78125 52.59375 
z
" id="DejaVuSans-63"/>
      <path d="M 46.6875 72.90625 
L 73.1875 45.703125 
L 63.375 45.703125 
L 41.890625 64.984375 
L 20.40625 45.703125 
L 10.59375 45.703125 
L 37.109375 72.90625 
z
" id="DejaVuSans-5e"/>
      <path d="M 4.890625 31.390625 
L 31.203125 31.390625 
L 31.203125 23.390625 
L 4.890625 23.390625 
z
" id="DejaVuSans-2d"/>
      <path d="M 40.578125 39.3125 
Q 47.65625 37.796875 51.625 33 
Q 55.609375 28.21875 55.609375 21.1875 
Q 55.609375 10.40625 48.1875 4.484375 
Q 40.765625 -1.421875 27.09375 -1.421875 
Q 22.515625 -1.421875 17.65625 -0.515625 
Q 12.796875 0.390625 7.625 2.203125 
L 7.625 11.71875 
Q 11.71875 9.328125 16.59375 8.109375 
Q 21.484375 6.890625 26.8125 6.890625 
Q 36.078125 6.890625 40.9375 10.546875 
Q 45.796875 14.203125 45.796875 21.1875 
Q 45.796875 27.640625 41.28125 31.265625 
Q 36.765625 34.90625 28.71875 34.90625 
L 20.21875 34.90625 
L 20.21875 43.015625 
L 29.109375 43.015625 
Q 36.375 43.015625 40.234375 45.921875 
Q 44.09375 48.828125 44.09375 54.296875 
Q 44.09375 59.90625 40.109375 62.90625 
Q 36.140625 65.921875 28.71875 65.921875 
Q 24.65625 65.921875 20.015625 65.03125 
Q 15.375 64.15625 9.8125 62.3125 
L 9.8125 71.09375 
Q 15.4375 72.65625 20.34375 73.4375 
Q 25.25 74.21875 29.59375 74.21875 
Q 40.828125 74.21875 47.359375 69.109375 
Q 53.90625 64.015625 53.90625 55.328125 
Q 53.90625 49.265625 50.4375 45.09375 
Q 46.96875 40.921875 40.578125 39.3125 
z
" id="DejaVuSans-33"/>
      <path d="M 52 44.1875 
Q 55.375 50.25 60.0625 53.125 
Q 64.75 56 71.09375 56 
Q 79.640625 56 84.28125 50.015625 
Q 88.921875 44.046875 88.921875 33.015625 
L 88.921875 0 
L 79.890625 0 
L 79.890625 32.71875 
Q 79.890625 40.578125 77.09375 44.375 
Q 74.3125 48.1875 68.609375 48.1875 
Q 61.625 48.1875 57.5625 43.546875 
Q 53.515625 38.921875 53.515625 30.90625 
L 53.515625 0 
L 44.484375 0 
L 44.484375 32.71875 
Q 44.484375 40.625 41.703125 44.40625 
Q 38.921875 48.1875 33.109375 48.1875 
Q 26.21875 48.1875 22.15625 43.53125 
Q 18.109375 38.875 18.109375 30.90625 
L 18.109375 0 
L 9.078125 0 
L 9.078125 54.6875 
L 18.109375 54.6875 
L 18.109375 46.1875 
Q 21.1875 51.21875 25.484375 53.609375 
Q 29.78125 56 35.6875 56 
Q 41.65625 56 45.828125 52.96875 
Q 50 49.953125 52 44.1875 
z
" id="DejaVuSans-6d"/>
      <path d="M 34.28125 27.484375 
Q 23.390625 27.484375 19.1875 25 
Q 14.984375 22.515625 14.984375 16.5 
Q 14.984375 11.71875 18.140625 8.90625 
Q 21.296875 6.109375 26.703125 6.109375 
Q 34.1875 6.109375 38.703125 11.40625 
Q 43.21875 16.703125 43.21875 25.484375 
L 43.21875 27.484375 
z
M 52.203125 31.203125 
L 52.203125 0 
L 43.21875 0 
L 43.21875 8.296875 
Q 40.140625 3.328125 35.546875 0.953125 
Q 30.953125 -1.421875 24.3125 -1.421875 
Q 15.921875 -1.421875 10.953125 3.296875 
Q 6 8.015625 6 15.921875 
Q 6 25.140625 12.171875 29.828125 
Q 18.359375 34.515625 30.609375 34.515625 
L 43.21875 34.515625 
L 43.21875 35.40625 
Q 43.21875 41.609375 39.140625 45 
Q 35.0625 48.390625 27.6875 48.390625 
Q 23 48.390625 18.546875 47.265625 
Q 14.109375 46.140625 10.015625 43.890625 
L 10.015625 52.203125 
Q 14.9375 54.109375 19.578125 55.046875 
Q 24.21875 56 28.609375 56 
Q 40.484375 56 46.34375 49.84375 
Q 52.203125 43.703125 52.203125 31.203125 
z
" id="DejaVuSans-61"/>
      <path d="M 45.40625 27.984375 
Q 45.40625 37.75 41.375 43.109375 
Q 37.359375 48.484375 30.078125 48.484375 
Q 22.859375 48.484375 18.828125 43.109375 
Q 14.796875 37.75 14.796875 27.984375 
Q 14.796875 18.265625 18.828125 12.890625 
Q 22.859375 7.515625 30.078125 7.515625 
Q 37.359375 7.515625 41.375 12.890625 
Q 45.40625 18.265625 45.40625 27.984375 
z
M 54.390625 6.78125 
Q 54.390625 -7.171875 48.1875 -13.984375 
Q 42 -20.796875 29.203125 -20.796875 
Q 24.46875 -20.796875 20.265625 -20.09375 
Q 16.0625 -19.390625 12.109375 -17.921875 
L 12.109375 -9.1875 
Q 16.0625 -11.328125 19.921875 -12.34375 
Q 23.78125 -13.375 27.78125 -13.375 
Q 36.625 -13.375 41.015625 -8.765625 
Q 45.40625 -4.15625 45.40625 5.171875 
L 45.40625 9.625 
Q 42.625 4.78125 38.28125 2.390625 
Q 33.9375 0 27.875 0 
Q 17.828125 0 11.671875 7.65625 
Q 5.515625 15.328125 5.515625 27.984375 
Q 5.515625 40.671875 11.671875 48.328125 
Q 17.828125 56 27.875 56 
Q 33.9375 56 38.28125 53.609375 
Q 42.625 51.21875 45.40625 46.390625 
L 45.40625 54.6875 
L 54.390625 54.6875 
z
" id="DejaVuSans-67"/>
     </defs>
     <g transform="translate(48.742187 332.309062)rotate(-90)scale(0.1 -0.1)">
      <use xlink:href="#DejaVuSans-50"/>
      <use x="60.302734" xlink:href="#DejaVuSans-68"/>
      <use x="123.681641" xlink:href="#DejaVuSans-69"/>
      <use x="151.464844" xlink:href="#DejaVuSans-28"/>
      <use x="190.478516" xlink:href="#DejaVuSans-4d"/>
      <use x="276.757812" xlink:href="#DejaVuSans-5f"/>
      <use x="326.757812" xlink:href="#DejaVuSans-31"/>
      <use x="390.380859" xlink:href="#DejaVuSans-34"/>
      <use x="454.003906" xlink:href="#DejaVuSans-35"/>
      <use x="517.626953" xlink:href="#DejaVuSans-30"/>
      <use x="581.25" xlink:href="#DejaVuSans-29"/>
      <use x="620.263672" xlink:href="#DejaVuSans-20"/>
      <use x="652.050781" xlink:href="#DejaVuSans-28"/>
      <use x="691.064453" xlink:href="#DejaVuSans-4d"/>
      <use x="777.34375" xlink:href="#DejaVuSans-70"/>
      <use x="840.820312" xlink:href="#DejaVuSans-63"/>
      <use x="895.800781" xlink:href="#DejaVuSans-5e"/>
      <use x="979.589844" xlink:href="#DejaVuSans-2d"/>
      <use x="1015.673828" xlink:href="#DejaVuSans-33"/>
      <use x="1079.296875" xlink:href="#DejaVuSans-20"/>
      <use x="1111.083984" xlink:href="#DejaVuSans-6d"/>
      <use x="1208.496094" xlink:href="#DejaVuSans-61"/>
      <use x="1269.775391" xlink:href="#DejaVuSans-67"/>
      <use x="1333.251953" xlink:href="#DejaVuSans-5e"/>
      <use x="1417.041016" xlink:href="#DejaVuSans-2d"/>
      <use x="1453.125" xlink:href="#DejaVuSans-31"/>
      <use x="1516.748047" xlink:href="#DejaVuSans-29"/>
     </g>
    </g>
   </g>
   <g id="line2d_60">
    <path clip-path="url(#p28bad199fd)" d="M 90 118.020414 
L 99.705473 121.278259 
L 109.410946 124.629832 
L 119.116419 128.075174 
L 128.821892 131.613875 
L 138.527365 135.245078 
L 148.232839 138.967499 
L 157.938312 142.779448 
L 167.643785 146.678861 
L 177.349258 150.663336 
L 187.054731 154.730178 
L 196.760204 158.876433 
L 206.465677 163.098945 
L 216.17115 167.394391 
L 225.876623 171.759335 
L 235.582096 176.190261 
L 245.28757 180.68362 
L 254.993043 185.235864 
L 264.698516 189.843477 
L 274.403989 194.503003 
L 284.109462 199.211074 
L 293.814935 203.964424 
L 303.520408 208.75991 
L 313.225881 213.59452 
L 322.931354 218.465385 
L 332.636827 223.369783 
L 342.342301 228.305143 
L 352.047774 233.269045 
L 361.753247 238.259219 
L 371.45872 243.273544 
L 381.164193 248.31004 
L 390.869666 253.366869 
L 400.575139 258.442323 
L 410.280612 263.534824 
L 419.986085 268.642911 
L 429.691558 273.765238 
L 439.397032 278.900565 
L 449.102505 284.047755 
L 458.807978 289.205759 
L 468.513451 294.373618 
L 478.218924 299.550454 
L 487.924397 304.735463 
L 497.62987 309.927907 
L 507.335343 315.127117 
L 517.040816 320.332478 
L 526.746289 325.543431 
L 536.451763 330.759465 
L 546.157236 335.980117 
L 555.862709 341.204963 
L 565.568182 346.433617 
" style="fill:none;stroke:#0000ff;stroke-linecap:square;stroke-width:1.5;"/>
   </g>
   <g id="line2d_61">
    <path clip-path="url(#p28bad199fd)" d="M 90 78.12 
L 99.705473 81.961325 
L 109.410946 85.84683 
L 119.116419 89.776611 
L 128.821892 93.750664 
L 138.527365 97.768881 
L 148.232839 101.831058 
L 157.938312 105.936888 
L 167.643785 110.085972 
L 177.349258 114.277818 
L 187.054731 118.511846 
L 196.760204 122.787394 
L 206.465677 127.103721 
L 216.17115 131.460017 
L 225.876623 135.855406 
L 235.582096 140.288955 
L 245.28757 144.75968 
L 254.993043 149.266551 
L 264.698516 153.808503 
L 274.403989 158.38444 
L 284.109462 162.993242 
L 293.814935 167.633773 
L 303.520408 172.304885 
L 313.225881 177.005425 
L 322.931354 181.734242 
L 332.636827 186.490189 
L 342.342301 191.272129 
L 352.047774 196.078939 
L 361.753247 200.909516 
L 371.45872 205.762774 
L 381.164193 210.637656 
L 390.869666 215.533128 
L 400.575139 220.448186 
L 410.280612 225.381854 
L 419.986085 230.333192 
L 429.691558 235.301287 
L 439.397032 240.285263 
L 449.102505 245.284275 
L 458.807978 250.297515 
L 468.513451 255.324206 
L 478.218924 260.363605 
L 487.924397 265.415002 
L 497.62987 270.477721 
L 507.335343 275.551116 
L 517.040816 280.634573 
L 526.746289 285.72751 
L 536.451763 290.829372 
L 546.157236 295.939633 
L 555.862709 301.057795 
L 565.568182 306.183388 
" style="fill:none;stroke:#0000ff;stroke-dasharray:5.55,2.4;stroke-dashoffset:0;stroke-width:1.5;"/>
   </g>
   <g id="line2d_62">
    <path clip-path="url(#p28bad199fd)" d="M 90 159.896277 
L 99.705473 163.154122 
L 109.410946 166.505695 
L 119.116419 169.951037 
L 128.821892 173.489738 
L 138.527365 177.120941 
L 148.232839 180.843362 
L 157.938312 184.65531 
L 167.643785 188.554723 
L 177.349258 192.539199 
L 187.054731 196.60604 
L 196.760204 200.752296 
L 206.465677 204.974807 
L 216.17115 209.270254 
L 225.876623 213.635197 
L 235.582096 218.066123 
L 245.28757 222.559483 
L 254.993043 227.111727 
L 264.698516 231.719339 
L 274.403989 236.378866 
L 284.109462 241.086937 
L 293.814935 245.840287 
L 303.520408 250.635773 
L 313.225881 255.470383 
L 322.931354 260.341248 
L 332.636827 265.245646 
L 342.342301 270.181006 
L 352.047774 275.144908 
L 361.753247 280.135082 
L 371.45872 285.149406 
L 381.164193 290.185903 
L 390.869666 295.242731 
L 400.575139 300.318186 
L 410.280612 305.410686 
L 419.986085 310.518773 
L 429.691558 315.6411 
L 439.397032 320.776428 
L 449.102505 325.923617 
L 458.807978 331.081621 
L 468.513451 336.249481 
L 478.218924 341.426317 
L 487.924397 346.611325 
L 497.62987 351.80377 
L 507.335343 357.002979 
L 517.040816 362.20834 
L 526.746289 367.419293 
L 536.451763 372.635328 
L 546.157236 377.85598 
L 555.862709 383.080825 
L 565.568182 388.309479 
" style="fill:none;stroke:#4400bb;stroke-linecap:square;stroke-width:1.5;"/>
   </g>
   <g id="line2d_63">
    <path clip-path="url(#p28bad199fd)" d="M 90 140.488306 
L 99.705473 144.329631 
L 109.410946 148.215136 
L 119.116419 152.144917 
L 128.821892 156.11897 
L 138.527365 160.137187 
L 148.232839 164.199364 
L 157.938312 168.305194 
L 167.643785 172.454278 
L 177.349258 176.646124 
L 187.054731 180.880152 
L 196.760204 185.1557 
L 206.465677 189.472027 
L 216.17115 193.828323 
L 225.876623 198.223712 
L 235.582096 202.657261 
L 245.28757 207.127986 
L 254.993043 211.634857 
L 264.698516 216.176809 
L 274.403989 220.752746 
L 284.109462 225.361548 
L 293.814935 230.002079 
L 303.520408 234.673191 
L 313.225881 239.373731 
L 322.931354 244.102548 
L 332.636827 248.858495 
L 342.342301 253.640435 
L 352.047774 258.447245 
L 361.753247 263.277822 
L 371.45872 268.13108 
L 381.164193 273.005962 
L 390.869666 277.901434 
L 400.575139 282.816492 
L 410.280612 287.750161 
L 419.986085 292.701498 
L 429.691558 297.669593 
L 439.397032 302.653569 
L 449.102505 307.652582 
L 458.807978 312.665821 
L 468.513451 317.692512 
L 478.218924 322.731911 
L 487.924397 327.783308 
L 497.62987 332.846027 
L 507.335343 337.919422 
L 517.040816 343.002879 
L 526.746289 348.095816 
L 536.451763 353.197678 
L 546.157236 358.307939 
L 555.862709 363.426101 
L 565.568182 368.551694 
" style="fill:none;stroke:#4400bb;stroke-dasharray:5.55,2.4;stroke-dashoffset:0;stroke-width:1.5;"/>
   </g>
   <g id="line2d_64">
    <path clip-path="url(#p28bad199fd)" d="M 90 201.772139 
L 99.705473 205.029984 
L 109.410946 208.381557 
L 119.116419 211.826899 
L 128.821892 215.3656 
L 138.527365 218.996804 
L 148.232839 222.719224 
L 157.938312 226.531173 
L 167.643785 230.430586 
L 177.349258 234.415062 
L 187.054731 238.481903 
L 196.760204 242.628158 
L 206.465677 246.85067 
L 216.17115 251.146117 
L 225.876623 255.51106 
L 235.582096 259.941986 
L 245.28757 264.435345 
L 254.993043 268.987589 
L 264.698516 273.595202 
L 274.403989 278.254729 
L 284.109462 282.9628 
L 293.814935 287.71615 
L 303.520408 292.511635 
L 313.225881 297.346245 
L 322.931354 302.21711 
L 332.636827 307.121509 
L 342.342301 312.056869 
L 352.047774 317.02077 
L 361.753247 322.010945 
L 371.45872 327.025269 
L 381.164193 332.061765 
L 390.869666 337.118594 
L 400.575139 342.194049 
L 410.280612 347.286549 
L 419.986085 352.394636 
L 429.691558 357.516963 
L 439.397032 362.652291 
L 449.102505 367.79948 
L 458.807978 372.957484 
L 468.513451 378.125344 
L 478.218924 383.30218 
L 487.924397 388.487188 
L 497.62987 393.679633 
L 507.335343 398.878842 
L 517.040816 404.084203 
L 526.746289 409.295156 
L 536.451763 414.511191 
L 546.157236 419.731842 
L 555.862709 424.956688 
L 565.568182 430.185342 
" style="fill:none;stroke:#880088;stroke-linecap:square;stroke-width:1.5;"/>
   </g>
   <g id="line2d_65">
    <path clip-path="url(#p28bad199fd)" d="M 90 202.856612 
L 99.705473 206.697937 
L 109.410946 210.583442 
L 119.116419 214.513223 
L 128.821892 218.487276 
L 138.527365 222.505494 
L 148.232839 226.56767 
L 157.938312 230.6735 
L 167.643785 234.822584 
L 177.349258 239.01443 
L 187.054731 243.248458 
L 196.760204 247.524006 
L 206.465677 251.840333 
L 216.17115 256.196629 
L 225.876623 260.592018 
L 235.582096 265.025567 
L 245.28757 269.496292 
L 254.993043 274.003163 
L 264.698516 278.545115 
L 274.403989 283.121052 
L 284.109462 287.729854 
L 293.814935 292.370385 
L 303.520408 297.041497 
L 313.225881 301.742038 
L 322.931354 306.470855 
L 332.636827 311.226801 
L 342.342301 316.008741 
L 352.047774 320.815552 
L 361.753247 325.646128 
L 371.45872 330.499387 
L 381.164193 335.374268 
L 390.869666 340.26974 
L 400.575139 345.184798 
L 410.280612 350.118467 
L 419.986085 355.069804 
L 429.691558 360.037899 
L 439.397032 365.021875 
L 449.102505 370.020888 
L 458.807978 375.034128 
L 468.513451 380.060818 
L 478.218924 385.100217 
L 487.924397 390.151614 
L 497.62987 395.214333 
L 507.335343 400.287728 
L 517.040816 405.371185 
L 526.746289 410.464122 
L 536.451763 415.565984 
L 546.157236 420.676245 
L 555.862709 425.794408 
L 565.568182 430.92 
" style="fill:none;stroke:#880088;stroke-dasharray:5.55,2.4;stroke-dashoffset:0;stroke-width:1.5;"/>
   </g>
   <g id="line2d_66">
    <path clip-path="url(#p28bad199fd)" d="M 90 142.127068 
L 99.705473 145.011412 
L 109.410946 147.905906 
L 119.116419 150.812178 
L 128.821892 153.73211 
L 138.527365 156.667874 
L 148.232839 159.621971 
L 157.938312 162.59728 
L 167.643785 165.5971 
L 177.349258 168.625212 
L 187.054731 171.68593 
L 196.760204 174.784161 
L 206.465677 177.92547 
L 216.17115 181.116134 
L 225.876623 184.3632 
L 235.582096 187.674535 
L 245.28757 191.058859 
L 254.993043 194.525762 
L 264.698516 198.085692 
L 274.403989 201.749921 
L 284.109462 205.530452 
L 293.814935 209.439893 
L 303.520408 213.491269 
L 313.225881 217.697779 
L 322.931354 222.072495 
L 332.636827 226.628013 
L 342.342301 231.376066 
L 352.047774 236.327122 
L 361.753247 241.489989 
L 371.45872 246.871456 
L 381.164193 252.476002 
L 390.869666 258.305595 
L 400.575139 264.359602 
L 410.280612 270.63482 
L 419.986085 277.125618 
L 429.691558 283.824185 
L 439.397032 290.720863 
L 449.102505 297.804518 
L 458.807978 305.062948 
L 468.513451 312.483282 
L 478.218924 320.052344 
L 487.924397 327.756986 
L 497.62987 335.584358 
L 507.335343 343.522126 
L 517.040816 351.558628 
L 526.746289 359.682984 
L 536.451763 367.885159 
L 546.157236 376.155985 
L 555.862709 384.487161 
L 565.568182 392.871222 
" style="fill:none;stroke:#000000;stroke-linecap:square;stroke-width:1.5;"/>
   </g>
   <g id="patch_3">
    <path d="M 90 448.56 
L 90 60.48 
" style="fill:none;stroke:#000000;stroke-linecap:square;stroke-linejoin:miter;stroke-width:0.8;"/>
   </g>
   <g id="patch_4">
    <path d="M 565.568182 448.56 
L 565.568182 60.48 
" style="fill:none;stroke:#000000;stroke-linecap:square;stroke-linejoin:miter;stroke-width:0.8;"/>
   </g>
   <g id="patch_5">
    <path d="M 90 448.56 
L 565.568182 448.56 
" style="fill:none;stroke:#000000;stroke-linecap:square;stroke-linejoin:miter;stroke-width:0.8;"/>
   </g>
   <g id="patch_6">
    <path d="M 90 60.48 
L 565.568182 60.48 
" style="fill:none;stroke:#000000;stroke-linecap:square;stroke-linejoin:miter;stroke-width:0.8;"/>
   </g>
   <g id="legend_1">
    <g id="patch_7">
     <path d="M 224.983807 112.514375 
L 558.568182 112.514375 
Q 560.568182 112.514375 560.568182 110.514375 
L 560.568182 67.48 
Q 560.568182 65.48 558.568182 65.48 
L 224.983807 65.48 
Q 222.983807 65.48 222.983807 67.48 
L 222.983807 110.514375 
Q 222.983807 112.514375 224.983807 112.514375 
z
" style="fill:#ffffff;opacity:0.8;stroke:#cccccc;stroke-linejoin:miter;"/>
    </g>
    <g id="line2d_67">
     <path d="M 226.983807 73.578438 
L 246.983807 73.578438 
" style="fill:none;stroke:#0000ff;stroke-linecap:square;stroke-width:1.5;"/>
    </g>
    <g id="line2d_68"/>
    <g id="text_16">
     <!-- Willott+2018 QLF (-1.50, -2.81, -25.13, 1.14e-8, -0.47) -->
     <defs>
      <path d="M 3.328125 72.90625 
L 13.28125 72.90625 
L 28.609375 11.28125 
L 43.890625 72.90625 
L 54.984375 72.90625 
L 70.3125 11.28125 
L 85.59375 72.90625 
L 95.609375 72.90625 
L 77.296875 0 
L 64.890625 0 
L 49.515625 63.28125 
L 33.984375 0 
L 21.578125 0 
z
" id="DejaVuSans-57"/>
      <path d="M 9.421875 75.984375 
L 18.40625 75.984375 
L 18.40625 0 
L 9.421875 0 
z
" id="DejaVuSans-6c"/>
      <path d="M 30.609375 48.390625 
Q 23.390625 48.390625 19.1875 42.75 
Q 14.984375 37.109375 14.984375 27.296875 
Q 14.984375 17.484375 19.15625 11.84375 
Q 23.34375 6.203125 30.609375 6.203125 
Q 37.796875 6.203125 41.984375 11.859375 
Q 46.1875 17.53125 46.1875 27.296875 
Q 46.1875 37.015625 41.984375 42.703125 
Q 37.796875 48.390625 30.609375 48.390625 
z
M 30.609375 56 
Q 42.328125 56 49.015625 48.375 
Q 55.71875 40.765625 55.71875 27.296875 
Q 55.71875 13.875 49.015625 6.21875 
Q 42.328125 -1.421875 30.609375 -1.421875 
Q 18.84375 -1.421875 12.171875 6.21875 
Q 5.515625 13.875 5.515625 27.296875 
Q 5.515625 40.765625 12.171875 48.375 
Q 18.84375 56 30.609375 56 
z
" id="DejaVuSans-6f"/>
      <path d="M 18.3125 70.21875 
L 18.3125 54.6875 
L 36.8125 54.6875 
L 36.8125 47.703125 
L 18.3125 47.703125 
L 18.3125 18.015625 
Q 18.3125 11.328125 20.140625 9.421875 
Q 21.96875 7.515625 27.59375 7.515625 
L 36.8125 7.515625 
L 36.8125 0 
L 27.59375 0 
Q 17.1875 0 13.234375 3.875 
Q 9.28125 7.765625 9.28125 18.015625 
L 9.28125 47.703125 
L 2.6875 47.703125 
L 2.6875 54.6875 
L 9.28125 54.6875 
L 9.28125 70.21875 
z
" id="DejaVuSans-74"/>
      <path d="M 46 62.703125 
L 46 35.5 
L 73.1875 35.5 
L 73.1875 27.203125 
L 46 27.203125 
L 46 0 
L 37.796875 0 
L 37.796875 27.203125 
L 10.59375 27.203125 
L 10.59375 35.5 
L 37.796875 35.5 
L 37.796875 62.703125 
z
" id="DejaVuSans-2b"/>
      <path d="M 39.40625 66.21875 
Q 28.65625 66.21875 22.328125 58.203125 
Q 16.015625 50.203125 16.015625 36.375 
Q 16.015625 22.609375 22.328125 14.59375 
Q 28.65625 6.59375 39.40625 6.59375 
Q 50.140625 6.59375 56.421875 14.59375 
Q 62.703125 22.609375 62.703125 36.375 
Q 62.703125 50.203125 56.421875 58.203125 
Q 50.140625 66.21875 39.40625 66.21875 
z
M 53.21875 1.3125 
L 66.21875 -12.890625 
L 54.296875 -12.890625 
L 43.5 -1.21875 
Q 41.890625 -1.3125 41.03125 -1.359375 
Q 40.1875 -1.421875 39.40625 -1.421875 
Q 24.03125 -1.421875 14.8125 8.859375 
Q 5.609375 19.140625 5.609375 36.375 
Q 5.609375 53.65625 14.8125 63.9375 
Q 24.03125 74.21875 39.40625 74.21875 
Q 54.734375 74.21875 63.90625 63.9375 
Q 73.09375 53.65625 73.09375 36.375 
Q 73.09375 23.6875 67.984375 14.640625 
Q 62.890625 5.609375 53.21875 1.3125 
z
" id="DejaVuSans-51"/>
      <path d="M 9.8125 72.90625 
L 19.671875 72.90625 
L 19.671875 8.296875 
L 55.171875 8.296875 
L 55.171875 0 
L 9.8125 0 
z
" id="DejaVuSans-4c"/>
      <path d="M 9.8125 72.90625 
L 51.703125 72.90625 
L 51.703125 64.59375 
L 19.671875 64.59375 
L 19.671875 43.109375 
L 48.578125 43.109375 
L 48.578125 34.8125 
L 19.671875 34.8125 
L 19.671875 0 
L 9.8125 0 
z
" id="DejaVuSans-46"/>
      <path d="M 11.71875 12.40625 
L 22.015625 12.40625 
L 22.015625 4 
L 14.015625 -11.625 
L 7.71875 -11.625 
L 11.71875 4 
z
" id="DejaVuSans-2c"/>
      <path d="M 56.203125 29.59375 
L 56.203125 25.203125 
L 14.890625 25.203125 
Q 15.484375 15.921875 20.484375 11.0625 
Q 25.484375 6.203125 34.421875 6.203125 
Q 39.59375 6.203125 44.453125 7.46875 
Q 49.3125 8.734375 54.109375 11.28125 
L 54.109375 2.78125 
Q 49.265625 0.734375 44.1875 -0.34375 
Q 39.109375 -1.421875 33.890625 -1.421875 
Q 20.796875 -1.421875 13.15625 6.1875 
Q 5.515625 13.8125 5.515625 26.8125 
Q 5.515625 40.234375 12.765625 48.109375 
Q 20.015625 56 32.328125 56 
Q 43.359375 56 49.78125 48.890625 
Q 56.203125 41.796875 56.203125 29.59375 
z
M 47.21875 32.234375 
Q 47.125 39.59375 43.09375 43.984375 
Q 39.0625 48.390625 32.421875 48.390625 
Q 24.90625 48.390625 20.390625 44.140625 
Q 15.875 39.890625 15.1875 32.171875 
z
" id="DejaVuSans-65"/>
     </defs>
     <g transform="translate(254.983807 77.078438)scale(0.1 -0.1)">
      <use xlink:href="#DejaVuSans-57"/>
      <use x="98.845703" xlink:href="#DejaVuSans-69"/>
      <use x="126.628906" xlink:href="#DejaVuSans-6c"/>
      <use x="154.412109" xlink:href="#DejaVuSans-6c"/>
      <use x="182.195312" xlink:href="#DejaVuSans-6f"/>
      <use x="243.376953" xlink:href="#DejaVuSans-74"/>
      <use x="282.585938" xlink:href="#DejaVuSans-74"/>
      <use x="321.794922" xlink:href="#DejaVuSans-2b"/>
      <use x="405.583984" xlink:href="#DejaVuSans-32"/>
      <use x="469.207031" xlink:href="#DejaVuSans-30"/>
      <use x="532.830078" xlink:href="#DejaVuSans-31"/>
      <use x="596.453125" xlink:href="#DejaVuSans-38"/>
      <use x="660.076172" xlink:href="#DejaVuSans-20"/>
      <use x="691.863281" xlink:href="#DejaVuSans-51"/>
      <use x="770.574219" xlink:href="#DejaVuSans-4c"/>
      <use x="826.287109" xlink:href="#DejaVuSans-46"/>
      <use x="883.806641" xlink:href="#DejaVuSans-20"/>
      <use x="915.59375" xlink:href="#DejaVuSans-28"/>
      <use x="954.607422" xlink:href="#DejaVuSans-2d"/>
      <use x="990.691406" xlink:href="#DejaVuSans-31"/>
      <use x="1054.314453" xlink:href="#DejaVuSans-2e"/>
      <use x="1086.101562" xlink:href="#DejaVuSans-35"/>
      <use x="1149.724609" xlink:href="#DejaVuSans-30"/>
      <use x="1213.347656" xlink:href="#DejaVuSans-2c"/>
      <use x="1245.134766" xlink:href="#DejaVuSans-20"/>
      <use x="1276.921875" xlink:href="#DejaVuSans-2d"/>
      <use x="1313.005859" xlink:href="#DejaVuSans-32"/>
      <use x="1376.628906" xlink:href="#DejaVuSans-2e"/>
      <use x="1408.416016" xlink:href="#DejaVuSans-38"/>
      <use x="1472.039062" xlink:href="#DejaVuSans-31"/>
      <use x="1535.662109" xlink:href="#DejaVuSans-2c"/>
      <use x="1567.449219" xlink:href="#DejaVuSans-20"/>
      <use x="1599.236328" xlink:href="#DejaVuSans-2d"/>
      <use x="1635.320312" xlink:href="#DejaVuSans-32"/>
      <use x="1698.943359" xlink:href="#DejaVuSans-35"/>
      <use x="1762.566406" xlink:href="#DejaVuSans-2e"/>
      <use x="1794.353516" xlink:href="#DejaVuSans-31"/>
      <use x="1857.976562" xlink:href="#DejaVuSans-33"/>
      <use x="1921.599609" xlink:href="#DejaVuSans-2c"/>
      <use x="1953.386719" xlink:href="#DejaVuSans-20"/>
      <use x="1985.173828" xlink:href="#DejaVuSans-31"/>
      <use x="2048.796875" xlink:href="#DejaVuSans-2e"/>
      <use x="2080.583984" xlink:href="#DejaVuSans-31"/>
      <use x="2144.207031" xlink:href="#DejaVuSans-34"/>
      <use x="2207.830078" xlink:href="#DejaVuSans-65"/>
      <use x="2269.353516" xlink:href="#DejaVuSans-2d"/>
      <use x="2305.4375" xlink:href="#DejaVuSans-38"/>
      <use x="2369.060547" xlink:href="#DejaVuSans-2c"/>
      <use x="2400.847656" xlink:href="#DejaVuSans-20"/>
      <use x="2432.634766" xlink:href="#DejaVuSans-2d"/>
      <use x="2468.71875" xlink:href="#DejaVuSans-30"/>
      <use x="2532.341797" xlink:href="#DejaVuSans-2e"/>
      <use x="2564.128906" xlink:href="#DejaVuSans-34"/>
      <use x="2627.751953" xlink:href="#DejaVuSans-37"/>
      <use x="2691.375" xlink:href="#DejaVuSans-29"/>
     </g>
    </g>
    <g id="line2d_69">
     <path d="M 226.983807 88.256563 
L 246.983807 88.256563 
" style="fill:none;stroke:#0000ff;stroke-dasharray:5.55,2.4;stroke-dashoffset:0;stroke-width:1.5;"/>
    </g>
    <g id="line2d_70"/>
    <g id="text_17">
     <!-- Jiang+2016 QLF (-1.90, -2.80, -25.20, 9.93e-9, -0.70) -->
     <defs>
      <path d="M 9.8125 72.90625 
L 19.671875 72.90625 
L 19.671875 5.078125 
Q 19.671875 -8.109375 14.671875 -14.0625 
Q 9.671875 -20.015625 -1.421875 -20.015625 
L -5.171875 -20.015625 
L -5.171875 -11.71875 
L -2.09375 -11.71875 
Q 4.4375 -11.71875 7.125 -8.046875 
Q 9.8125 -4.390625 9.8125 5.078125 
z
" id="DejaVuSans-4a"/>
      <path d="M 54.890625 33.015625 
L 54.890625 0 
L 45.90625 0 
L 45.90625 32.71875 
Q 45.90625 40.484375 42.875 44.328125 
Q 39.84375 48.1875 33.796875 48.1875 
Q 26.515625 48.1875 22.3125 43.546875 
Q 18.109375 38.921875 18.109375 30.90625 
L 18.109375 0 
L 9.078125 0 
L 9.078125 54.6875 
L 18.109375 54.6875 
L 18.109375 46.1875 
Q 21.34375 51.125 25.703125 53.5625 
Q 30.078125 56 35.796875 56 
Q 45.21875 56 50.046875 50.171875 
Q 54.890625 44.34375 54.890625 33.015625 
z
" id="DejaVuSans-6e"/>
     </defs>
     <g transform="translate(254.983807 91.756563)scale(0.1 -0.1)">
      <use xlink:href="#DejaVuSans-4a"/>
      <use x="29.492188" xlink:href="#DejaVuSans-69"/>
      <use x="57.275391" xlink:href="#DejaVuSans-61"/>
      <use x="118.554688" xlink:href="#DejaVuSans-6e"/>
      <use x="181.933594" xlink:href="#DejaVuSans-67"/>
      <use x="245.410156" xlink:href="#DejaVuSans-2b"/>
      <use x="329.199219" xlink:href="#DejaVuSans-32"/>
      <use x="392.822266" xlink:href="#DejaVuSans-30"/>
      <use x="456.445312" xlink:href="#DejaVuSans-31"/>
      <use x="520.068359" xlink:href="#DejaVuSans-36"/>
      <use x="583.691406" xlink:href="#DejaVuSans-20"/>
      <use x="615.478516" xlink:href="#DejaVuSans-51"/>
      <use x="694.189453" xlink:href="#DejaVuSans-4c"/>
      <use x="749.902344" xlink:href="#DejaVuSans-46"/>
      <use x="807.421875" xlink:href="#DejaVuSans-20"/>
      <use x="839.208984" xlink:href="#DejaVuSans-28"/>
      <use x="878.222656" xlink:href="#DejaVuSans-2d"/>
      <use x="914.306641" xlink:href="#DejaVuSans-31"/>
      <use x="977.929688" xlink:href="#DejaVuSans-2e"/>
      <use x="1009.716797" xlink:href="#DejaVuSans-39"/>
      <use x="1073.339844" xlink:href="#DejaVuSans-30"/>
      <use x="1136.962891" xlink:href="#DejaVuSans-2c"/>
      <use x="1168.75" xlink:href="#DejaVuSans-20"/>
      <use x="1200.537109" xlink:href="#DejaVuSans-2d"/>
      <use x="1236.621094" xlink:href="#DejaVuSans-32"/>
      <use x="1300.244141" xlink:href="#DejaVuSans-2e"/>
      <use x="1332.03125" xlink:href="#DejaVuSans-38"/>
      <use x="1395.654297" xlink:href="#DejaVuSans-30"/>
      <use x="1459.277344" xlink:href="#DejaVuSans-2c"/>
      <use x="1491.064453" xlink:href="#DejaVuSans-20"/>
      <use x="1522.851562" xlink:href="#DejaVuSans-2d"/>
      <use x="1558.935547" xlink:href="#DejaVuSans-32"/>
      <use x="1622.558594" xlink:href="#DejaVuSans-35"/>
      <use x="1686.181641" xlink:href="#DejaVuSans-2e"/>
      <use x="1717.96875" xlink:href="#DejaVuSans-32"/>
      <use x="1781.591797" xlink:href="#DejaVuSans-30"/>
      <use x="1845.214844" xlink:href="#DejaVuSans-2c"/>
      <use x="1877.001953" xlink:href="#DejaVuSans-20"/>
      <use x="1908.789062" xlink:href="#DejaVuSans-39"/>
      <use x="1972.412109" xlink:href="#DejaVuSans-2e"/>
      <use x="2004.199219" xlink:href="#DejaVuSans-39"/>
      <use x="2067.822266" xlink:href="#DejaVuSans-33"/>
      <use x="2131.445312" xlink:href="#DejaVuSans-65"/>
      <use x="2192.96875" xlink:href="#DejaVuSans-2d"/>
      <use x="2229.052734" xlink:href="#DejaVuSans-39"/>
      <use x="2292.675781" xlink:href="#DejaVuSans-2c"/>
      <use x="2324.462891" xlink:href="#DejaVuSans-20"/>
      <use x="2356.25" xlink:href="#DejaVuSans-2d"/>
      <use x="2392.333984" xlink:href="#DejaVuSans-30"/>
      <use x="2455.957031" xlink:href="#DejaVuSans-2e"/>
      <use x="2487.744141" xlink:href="#DejaVuSans-37"/>
      <use x="2551.367188" xlink:href="#DejaVuSans-30"/>
      <use x="2614.990234" xlink:href="#DejaVuSans-29"/>
     </g>
    </g>
    <g id="line2d_71">
     <path d="M 226.983807 102.934687 
L 246.983807 102.934687 
" style="fill:none;stroke:#000000;stroke-linecap:square;stroke-width:1.5;"/>
    </g>
    <g id="line2d_72"/>
    <g id="text_18">
     <!-- z=5 (McGreer+2018): (-1.97, -4.00, -27.47, 1.148e-9, -0.47) -->
     <defs>
      <path d="M 5.515625 54.6875 
L 48.1875 54.6875 
L 48.1875 46.484375 
L 14.40625 7.171875 
L 48.1875 7.171875 
L 48.1875 0 
L 4.296875 0 
L 4.296875 8.203125 
L 38.09375 47.515625 
L 5.515625 47.515625 
z
" id="DejaVuSans-7a"/>
      <path d="M 10.59375 45.40625 
L 73.1875 45.40625 
L 73.1875 37.203125 
L 10.59375 37.203125 
z
M 10.59375 25.484375 
L 73.1875 25.484375 
L 73.1875 17.1875 
L 10.59375 17.1875 
z
" id="DejaVuSans-3d"/>
      <path d="M 59.515625 10.40625 
L 59.515625 29.984375 
L 43.40625 29.984375 
L 43.40625 38.09375 
L 69.28125 38.09375 
L 69.28125 6.78125 
Q 63.578125 2.734375 56.6875 0.65625 
Q 49.8125 -1.421875 42 -1.421875 
Q 24.90625 -1.421875 15.25 8.5625 
Q 5.609375 18.5625 5.609375 36.375 
Q 5.609375 54.25 15.25 64.234375 
Q 24.90625 74.21875 42 74.21875 
Q 49.125 74.21875 55.546875 72.453125 
Q 61.96875 70.703125 67.390625 67.28125 
L 67.390625 56.78125 
Q 61.921875 61.421875 55.765625 63.765625 
Q 49.609375 66.109375 42.828125 66.109375 
Q 29.4375 66.109375 22.71875 58.640625 
Q 16.015625 51.171875 16.015625 36.375 
Q 16.015625 21.625 22.71875 14.15625 
Q 29.4375 6.6875 42.828125 6.6875 
Q 48.046875 6.6875 52.140625 7.59375 
Q 56.25 8.5 59.515625 10.40625 
z
" id="DejaVuSans-47"/>
      <path d="M 41.109375 46.296875 
Q 39.59375 47.171875 37.8125 47.578125 
Q 36.03125 48 33.890625 48 
Q 26.265625 48 22.1875 43.046875 
Q 18.109375 38.09375 18.109375 28.8125 
L 18.109375 0 
L 9.078125 0 
L 9.078125 54.6875 
L 18.109375 54.6875 
L 18.109375 46.1875 
Q 20.953125 51.171875 25.484375 53.578125 
Q 30.03125 56 36.53125 56 
Q 37.453125 56 38.578125 55.875 
Q 39.703125 55.765625 41.0625 55.515625 
z
" id="DejaVuSans-72"/>
      <path d="M 11.71875 12.40625 
L 22.015625 12.40625 
L 22.015625 0 
L 11.71875 0 
z
M 11.71875 51.703125 
L 22.015625 51.703125 
L 22.015625 39.3125 
L 11.71875 39.3125 
z
" id="DejaVuSans-3a"/>
     </defs>
     <g transform="translate(254.983807 106.434687)scale(0.1 -0.1)">
      <use xlink:href="#DejaVuSans-7a"/>
      <use x="52.490234" xlink:href="#DejaVuSans-3d"/>
      <use x="136.279297" xlink:href="#DejaVuSans-35"/>
      <use x="199.902344" xlink:href="#DejaVuSans-20"/>
      <use x="231.689453" xlink:href="#DejaVuSans-28"/>
      <use x="270.703125" xlink:href="#DejaVuSans-4d"/>
      <use x="356.982422" xlink:href="#DejaVuSans-63"/>
      <use x="411.962891" xlink:href="#DejaVuSans-47"/>
      <use x="489.453125" xlink:href="#DejaVuSans-72"/>
      <use x="530.535156" xlink:href="#DejaVuSans-65"/>
      <use x="592.058594" xlink:href="#DejaVuSans-65"/>
      <use x="653.582031" xlink:href="#DejaVuSans-72"/>
      <use x="694.695312" xlink:href="#DejaVuSans-2b"/>
      <use x="778.484375" xlink:href="#DejaVuSans-32"/>
      <use x="842.107422" xlink:href="#DejaVuSans-30"/>
      <use x="905.730469" xlink:href="#DejaVuSans-31"/>
      <use x="969.353516" xlink:href="#DejaVuSans-38"/>
      <use x="1032.976562" xlink:href="#DejaVuSans-29"/>
      <use x="1071.990234" xlink:href="#DejaVuSans-3a"/>
      <use x="1105.681641" xlink:href="#DejaVuSans-20"/>
      <use x="1137.46875" xlink:href="#DejaVuSans-28"/>
      <use x="1176.482422" xlink:href="#DejaVuSans-2d"/>
      <use x="1212.566406" xlink:href="#DejaVuSans-31"/>
      <use x="1276.189453" xlink:href="#DejaVuSans-2e"/>
      <use x="1307.976562" xlink:href="#DejaVuSans-39"/>
      <use x="1371.599609" xlink:href="#DejaVuSans-37"/>
      <use x="1435.222656" xlink:href="#DejaVuSans-2c"/>
      <use x="1467.009766" xlink:href="#DejaVuSans-20"/>
      <use x="1498.796875" xlink:href="#DejaVuSans-2d"/>
      <use x="1534.880859" xlink:href="#DejaVuSans-34"/>
      <use x="1598.503906" xlink:href="#DejaVuSans-2e"/>
      <use x="1630.291016" xlink:href="#DejaVuSans-30"/>
      <use x="1693.914062" xlink:href="#DejaVuSans-30"/>
      <use x="1757.537109" xlink:href="#DejaVuSans-2c"/>
      <use x="1789.324219" xlink:href="#DejaVuSans-20"/>
      <use x="1821.111328" xlink:href="#DejaVuSans-2d"/>
      <use x="1857.195312" xlink:href="#DejaVuSans-32"/>
      <use x="1920.818359" xlink:href="#DejaVuSans-37"/>
      <use x="1984.441406" xlink:href="#DejaVuSans-2e"/>
      <use x="2016.228516" xlink:href="#DejaVuSans-34"/>
      <use x="2079.851562" xlink:href="#DejaVuSans-37"/>
      <use x="2143.474609" xlink:href="#DejaVuSans-2c"/>
      <use x="2175.261719" xlink:href="#DejaVuSans-20"/>
      <use x="2207.048828" xlink:href="#DejaVuSans-31"/>
      <use x="2270.671875" xlink:href="#DejaVuSans-2e"/>
      <use x="2302.458984" xlink:href="#DejaVuSans-31"/>
      <use x="2366.082031" xlink:href="#DejaVuSans-34"/>
      <use x="2429.705078" xlink:href="#DejaVuSans-38"/>
      <use x="2493.328125" xlink:href="#DejaVuSans-65"/>
      <use x="2554.851562" xlink:href="#DejaVuSans-2d"/>
      <use x="2590.935547" xlink:href="#DejaVuSans-39"/>
      <use x="2654.558594" xlink:href="#DejaVuSans-2c"/>
      <use x="2686.345703" xlink:href="#DejaVuSans-20"/>
      <use x="2718.132812" xlink:href="#DejaVuSans-2d"/>
      <use x="2754.216797" xlink:href="#DejaVuSans-30"/>
      <use x="2817.839844" xlink:href="#DejaVuSans-2e"/>
      <use x="2849.626953" xlink:href="#DejaVuSans-34"/>
      <use x="2913.25" xlink:href="#DejaVuSans-37"/>
      <use x="2976.873047" xlink:href="#DejaVuSans-29"/>
     </g>
    </g>
   </g>
  </g>
  <g id="axes_2">
   <g id="patch_8">
    <path clip-path="url(#p3196c8a4a3)" d="M 616.295455 448.56 
L 616.295455 319.2 
L 616.295455 189.84 
L 616.295455 60.48 
L 648 60.48 
L 648 189.84 
L 648 319.2 
L 648 448.56 
z
" style="fill:#ffffff;stroke:#ffffff;stroke-linejoin:miter;stroke-width:0.01;"/>
   </g>
   <g id="QuadMesh_1">
    <path clip-path="url(#p3196c8a4a3)" d="M 616.295455 448.56 
L 648 448.56 
L 648 319.2 
L 616.295455 319.2 
L 616.295455 448.56 
" style="fill:#0000ff;"/>
    <path clip-path="url(#p3196c8a4a3)" d="M 616.295455 319.2 
L 648 319.2 
L 648 189.84 
L 616.295455 189.84 
L 616.295455 319.2 
" style="fill:#4400bb;"/>
    <path clip-path="url(#p3196c8a4a3)" d="M 616.295455 189.84 
L 648 189.84 
L 648 60.48 
L 616.295455 60.48 
L 616.295455 189.84 
" style="fill:#880088;"/>
   </g>
   <g id="matplotlib.axis_3"/>
   <g id="matplotlib.axis_4">
    <g id="ytick_38">
     <g id="line2d_73">
      <defs>
       <path d="M 0 0 
L 3.5 0 
" id="mf86a85d044" style="stroke:#000000;stroke-width:0.8;"/>
      </defs>
      <g>
       <use style="stroke:#000000;stroke-width:0.8;" x="648" xlink:href="#mf86a85d044" y="383.88"/>
      </g>
     </g>
     <g id="text_19">
      <!-- 4 -->
      <g transform="translate(655 387.679219)scale(0.1 -0.1)">
       <use xlink:href="#DejaVuSans-34"/>
      </g>
     </g>
    </g>
    <g id="ytick_39">
     <g id="line2d_74">
      <g>
       <use style="stroke:#000000;stroke-width:0.8;" x="648" xlink:href="#mf86a85d044" y="254.52"/>
      </g>
     </g>
     <g id="text_20">
      <!-- 5 -->
      <g transform="translate(655 258.319219)scale(0.1 -0.1)">
       <use xlink:href="#DejaVuSans-35"/>
      </g>
     </g>
    </g>
    <g id="ytick_40">
     <g id="line2d_75">
      <g>
       <use style="stroke:#000000;stroke-width:0.8;" x="648" xlink:href="#mf86a85d044" y="125.16"/>
      </g>
     </g>
     <g id="text_21">
      <!-- 6 -->
      <g transform="translate(655 128.959219)scale(0.1 -0.1)">
       <use xlink:href="#DejaVuSans-36"/>
      </g>
     </g>
    </g>
   </g>
   <g id="patch_9">
    <path d="M 616.295455 448.56 
L 616.295455 319.2 
L 616.295455 189.84 
L 616.295455 60.48 
L 648 60.48 
L 648 189.84 
L 648 319.2 
L 648 448.56 
z
" style="fill:none;stroke:#000000;stroke-linejoin:miter;stroke-width:0.8;"/>
   </g>
   <g id="text_22">
    <!-- z -->
    <g transform="translate(628.998665 54.48)scale(0.12 -0.12)">
     <use xlink:href="#DejaVuSans-7a"/>
    </g>
   </g>
  </g>
  <g id="text_23">
   <!-- richardgmcmahon, f04f022 -->
   <defs>
    <path d="M 45.40625 46.390625 
L 45.40625 75.984375 
L 54.390625 75.984375 
L 54.390625 0 
L 45.40625 0 
L 45.40625 8.203125 
Q 42.578125 3.328125 38.25 0.953125 
Q 33.9375 -1.421875 27.875 -1.421875 
Q 17.96875 -1.421875 11.734375 6.484375 
Q 5.515625 14.40625 5.515625 27.296875 
Q 5.515625 40.1875 11.734375 48.09375 
Q 17.96875 56 27.875 56 
Q 33.9375 56 38.25 53.625 
Q 42.578125 51.265625 45.40625 46.390625 
z
M 14.796875 27.296875 
Q 14.796875 17.390625 18.875 11.75 
Q 22.953125 6.109375 30.078125 6.109375 
Q 37.203125 6.109375 41.296875 11.75 
Q 45.40625 17.390625 45.40625 27.296875 
Q 45.40625 37.203125 41.296875 42.84375 
Q 37.203125 48.484375 30.078125 48.484375 
Q 22.953125 48.484375 18.875 42.84375 
Q 14.796875 37.203125 14.796875 27.296875 
z
" id="DejaVuSans-64"/>
    <path d="M 37.109375 75.984375 
L 37.109375 68.5 
L 28.515625 68.5 
Q 23.6875 68.5 21.796875 66.546875 
Q 19.921875 64.59375 19.921875 59.515625 
L 19.921875 54.6875 
L 34.71875 54.6875 
L 34.71875 47.703125 
L 19.921875 47.703125 
L 19.921875 0 
L 10.890625 0 
L 10.890625 47.703125 
L 2.296875 47.703125 
L 2.296875 54.6875 
L 10.890625 54.6875 
L 10.890625 58.5 
Q 10.890625 67.625 15.140625 71.796875 
Q 19.390625 75.984375 28.609375 75.984375 
z
" id="DejaVuSans-66"/>
   </defs>
   <g style="opacity:0.7;" transform="translate(677.198438 336.619531)rotate(-90)scale(0.1 -0.1)">
    <use xlink:href="#DejaVuSans-72"/>
    <use x="41.113281" xlink:href="#DejaVuSans-69"/>
    <use x="68.896484" xlink:href="#DejaVuSans-63"/>
    <use x="123.876953" xlink:href="#DejaVuSans-68"/>
    <use x="187.255859" xlink:href="#DejaVuSans-61"/>
    <use x="248.535156" xlink:href="#DejaVuSans-72"/>
    <use x="289.632812" xlink:href="#DejaVuSans-64"/>
    <use x="353.109375" xlink:href="#DejaVuSans-67"/>
    <use x="416.585938" xlink:href="#DejaVuSans-6d"/>
    <use x="513.998047" xlink:href="#DejaVuSans-63"/>
    <use x="568.978516" xlink:href="#DejaVuSans-6d"/>
    <use x="666.390625" xlink:href="#DejaVuSans-61"/>
    <use x="727.669922" xlink:href="#DejaVuSans-68"/>
    <use x="791.048828" xlink:href="#DejaVuSans-6f"/>
    <use x="852.230469" xlink:href="#DejaVuSans-6e"/>
    <use x="915.609375" xlink:href="#DejaVuSans-2c"/>
    <use x="947.396484" xlink:href="#DejaVuSans-20"/>
    <use x="979.183594" xlink:href="#DejaVuSans-66"/>
    <use x="1014.388672" xlink:href="#DejaVuSans-30"/>
    <use x="1078.011719" xlink:href="#DejaVuSans-34"/>
    <use x="1141.634766" xlink:href="#DejaVuSans-66"/>
    <use x="1176.839844" xlink:href="#DejaVuSans-30"/>
    <use x="1240.462891" xlink:href="#DejaVuSans-32"/>
    <use x="1304.085938" xlink:href="#DejaVuSans-32"/>
   </g>
   <!--  Using Willott QLF with k=-0.4700 -->
   <defs>
    <path d="M 8.6875 72.90625 
L 18.609375 72.90625 
L 18.609375 28.609375 
Q 18.609375 16.890625 22.84375 11.734375 
Q 27.09375 6.59375 36.625 6.59375 
Q 46.09375 6.59375 50.34375 11.734375 
Q 54.59375 16.890625 54.59375 28.609375 
L 54.59375 72.90625 
L 64.5 72.90625 
L 64.5 27.390625 
Q 64.5 13.140625 57.4375 5.859375 
Q 50.390625 -1.421875 36.625 -1.421875 
Q 22.796875 -1.421875 15.734375 5.859375 
Q 8.6875 13.140625 8.6875 27.390625 
z
" id="DejaVuSans-55"/>
    <path d="M 44.28125 53.078125 
L 44.28125 44.578125 
Q 40.484375 46.53125 36.375 47.5 
Q 32.28125 48.484375 27.875 48.484375 
Q 21.1875 48.484375 17.84375 46.4375 
Q 14.5 44.390625 14.5 40.28125 
Q 14.5 37.15625 16.890625 35.375 
Q 19.28125 33.59375 26.515625 31.984375 
L 29.59375 31.296875 
Q 39.15625 29.25 43.1875 25.515625 
Q 47.21875 21.78125 47.21875 15.09375 
Q 47.21875 7.46875 41.1875 3.015625 
Q 35.15625 -1.421875 24.609375 -1.421875 
Q 20.21875 -1.421875 15.453125 -0.5625 
Q 10.6875 0.296875 5.421875 2 
L 5.421875 11.28125 
Q 10.40625 8.6875 15.234375 7.390625 
Q 20.0625 6.109375 24.8125 6.109375 
Q 31.15625 6.109375 34.5625 8.28125 
Q 37.984375 10.453125 37.984375 14.40625 
Q 37.984375 18.0625 35.515625 20.015625 
Q 33.0625 21.96875 24.703125 23.78125 
L 21.578125 24.515625 
Q 13.234375 26.265625 9.515625 29.90625 
Q 5.8125 33.546875 5.8125 39.890625 
Q 5.8125 47.609375 11.28125 51.796875 
Q 16.75 56 26.8125 56 
Q 31.78125 56 36.171875 55.265625 
Q 40.578125 54.546875 44.28125 53.078125 
z
" id="DejaVuSans-73"/>
    <path d="M 4.203125 54.6875 
L 13.1875 54.6875 
L 24.421875 12.015625 
L 35.59375 54.6875 
L 46.1875 54.6875 
L 57.421875 12.015625 
L 68.609375 54.6875 
L 77.59375 54.6875 
L 63.28125 0 
L 52.6875 0 
L 40.921875 44.828125 
L 29.109375 0 
L 18.5 0 
z
" id="DejaVuSans-77"/>
    <path d="M 9.078125 75.984375 
L 18.109375 75.984375 
L 18.109375 31.109375 
L 44.921875 54.6875 
L 56.390625 54.6875 
L 27.390625 29.109375 
L 57.625 0 
L 45.90625 0 
L 18.109375 26.703125 
L 18.109375 0 
L 9.078125 0 
z
" id="DejaVuSans-6b"/>
   </defs>
   <g style="opacity:0.7;" transform="translate(688.39625 336.619531)rotate(-90)scale(0.1 -0.1)">
    <use xlink:href="#DejaVuSans-20"/>
    <use x="31.787109" xlink:href="#DejaVuSans-55"/>
    <use x="104.980469" xlink:href="#DejaVuSans-73"/>
    <use x="157.080078" xlink:href="#DejaVuSans-69"/>
    <use x="184.863281" xlink:href="#DejaVuSans-6e"/>
    <use x="248.242188" xlink:href="#DejaVuSans-67"/>
    <use x="311.71875" xlink:href="#DejaVuSans-20"/>
    <use x="343.505859" xlink:href="#DejaVuSans-57"/>
    <use x="442.351562" xlink:href="#DejaVuSans-69"/>
    <use x="470.134766" xlink:href="#DejaVuSans-6c"/>
    <use x="497.917969" xlink:href="#DejaVuSans-6c"/>
    <use x="525.701172" xlink:href="#DejaVuSans-6f"/>
    <use x="586.882812" xlink:href="#DejaVuSans-74"/>
    <use x="626.091797" xlink:href="#DejaVuSans-74"/>
    <use x="665.300781" xlink:href="#DejaVuSans-20"/>
    <use x="697.087891" xlink:href="#DejaVuSans-51"/>
    <use x="775.798828" xlink:href="#DejaVuSans-4c"/>
    <use x="831.511719" xlink:href="#DejaVuSans-46"/>
    <use x="889.03125" xlink:href="#DejaVuSans-20"/>
    <use x="920.818359" xlink:href="#DejaVuSans-77"/>
    <use x="1002.605469" xlink:href="#DejaVuSans-69"/>
    <use x="1030.388672" xlink:href="#DejaVuSans-74"/>
    <use x="1069.597656" xlink:href="#DejaVuSans-68"/>
    <use x="1132.976562" xlink:href="#DejaVuSans-20"/>
    <use x="1164.763672" xlink:href="#DejaVuSans-6b"/>
    <use x="1222.673828" xlink:href="#DejaVuSans-3d"/>
    <use x="1306.462891" xlink:href="#DejaVuSans-2d"/>
    <use x="1342.546875" xlink:href="#DejaVuSans-30"/>
    <use x="1406.169922" xlink:href="#DejaVuSans-2e"/>
    <use x="1437.957031" xlink:href="#DejaVuSans-34"/>
    <use x="1501.580078" xlink:href="#DejaVuSans-37"/>
    <use x="1565.203125" xlink:href="#DejaVuSans-30"/>
    <use x="1628.826172" xlink:href="#DejaVuSans-30"/>
   </g>
  </g>
 </g>
 <defs>
  <clipPath id="p28bad199fd">
   <rect height="388.08" width="475.568182" x="90" y="60.48"/>
  </clipPath>
  <clipPath id="p3196c8a4a3">
   <rect height="388.08" width="31.704545" x="616.295455" y="60.48"/>
  </clipPath>
 </defs>
</svg>
