<?xml version="1.0" encoding="utf-8" standalone="no"?>
<!DOCTYPE svg PUBLIC "-//W3C//DTD SVG 1.1//EN"
  "http://www.w3.org/Graphics/SVG/1.1/DTD/svg11.dtd">
<!-- Created with matplotlib (http://matplotlib.org/) -->
<svg height="504pt" version="1.1" viewBox="0 0 720 504" width="720pt" xmlns="http://www.w3.org/2000/svg" xmlns:xlink="http://www.w3.org/1999/xlink">
 <defs>
  <style type="text/css">
*{stroke-linecap:butt;stroke-linejoin:round;stroke-miterlimit:100000;}
  </style>
 </defs>
 <g id="figure_1">
  <g id="patch_1">
   <path d="M 0 504 
L 720 504 
L 720 0 
L 0 0 
z
" style="fill:#ffffff;"/>
  </g>
  <g id="axes_1">
   <g id="patch_2">
    <path d="M 90 453.6 
L 565.568182 453.6 
L 565.568182 50.4 
L 90 50.4 
z
" style="fill:#ffffff;"/>
   </g>
   <g id="line2d_1">
    <path clip-path="url(#pd1797e2ebf)" d="M 90 113.991691 
L 99.705473 116.132332 
L 109.410946 118.273431 
L 119.116419 120.415159 
L 128.821892 122.557755 
L 138.527365 124.701545 
L 148.232839 126.846978 
L 157.938312 128.994673 
L 167.643785 131.14548 
L 177.349258 133.300568 
L 187.054731 135.461541 
L 196.760204 137.630599 
L 206.465677 139.810754 
L 216.17115 142.006119 
L 225.876623 144.222296 
L 235.582096 146.46688 
L 245.28757 148.750111 
L 254.993043 151.085681 
L 264.698516 153.491704 
L 274.403989 155.991784 
L 284.109462 158.616075 
L 293.814935 161.402045 
L 303.520408 164.394579 
L 313.225881 167.644815 
L 322.931354 171.207201 
L 332.636827 175.134461 
L 342.342301 179.470918 
L 352.047774 184.245512 
L 361.753247 189.466601 
L 371.45872 195.12035 
L 381.164193 201.173365 
L 390.869666 207.578542 
L 400.575139 214.282146 
L 410.280612 221.230166 
L 419.986085 228.372834 
L 429.691558 235.667076 
L 439.397032 243.077302 
L 449.102505 250.57509 
L 458.807978 258.138316 
L 468.513451 265.750072 
L 478.218924 273.397617 
L 487.924397 281.071445 
L 497.62987 288.764514 
L 507.335343 296.47164 
L 517.040816 304.189016 
L 526.746289 311.913859 
L 536.451763 319.644135 
L 546.157236 327.378364 
L 555.862709 335.115466 
L 565.568182 342.854655 
" style="fill:none;stroke:#0000ff;stroke-linecap:square;"/>
   </g>
   <g id="line2d_2">
    <path clip-path="url(#pd1797e2ebf)" d="M 90 50.890312 
L 99.705473 54.752272 
L 109.410946 58.616926 
L 119.116419 62.48493 
L 128.821892 66.357101 
L 138.527365 70.234451 
L 148.232839 74.118233 
L 157.938312 78.010001 
L 167.643785 81.91167 
L 177.349258 85.825606 
L 187.054731 89.754714 
L 196.760204 93.702556 
L 206.465677 97.673482 
L 216.17115 101.672773 
L 225.876623 105.706806 
L 235.582096 109.783223 
L 245.28757 113.911093 
L 254.993043 118.101057 
L 264.698516 122.365426 
L 274.403989 126.71819 
L 284.109462 131.174911 
L 293.814935 135.752443 
L 303.520408 140.468447 
L 313.225881 145.340672 
L 322.931354 150.386031 
L 332.636827 155.619523 
L 342.342301 161.053114 
L 352.047774 166.694748 
L 361.753247 172.547635 
L 371.45872 178.60995 
L 381.164193 184.875004 
L 390.869666 191.331854 
L 400.575139 197.96623 
L 410.280612 204.76164 
L 419.986085 211.700463 
L 429.691558 218.764933 
L 439.397032 225.937915 
L 449.102505 233.203453 
L 458.807978 240.547103 
L 468.513451 247.956087 
L 478.218924 255.419309 
L 487.924397 262.927276 
L 497.62987 270.471968 
L 507.335343 278.046674 
L 517.040816 285.645826 
L 526.746289 293.264832 
L 536.451763 300.899925 
L 546.157236 308.548031 
L 555.862709 316.206645 
L 565.568182 323.873735 
" style="fill:none;stroke:#0000ff;stroke-dasharray:6.000000,6.000000;stroke-dashoffset:0.0;"/>
   </g>
   <g id="line2d_3">
    <path clip-path="url(#pd1797e2ebf)" d="M 90 132.942091 
L 99.705473 135.082732 
L 109.410946 137.223831 
L 119.116419 139.365559 
L 128.821892 141.508155 
L 138.527365 143.651945 
L 148.232839 145.797378 
L 157.938312 147.945073 
L 167.643785 150.09588 
L 177.349258 152.250968 
L 187.054731 154.411941 
L 196.760204 156.580999 
L 206.465677 158.761154 
L 216.17115 160.956519 
L 225.876623 163.172696 
L 235.582096 165.41728 
L 245.28757 167.700511 
L 254.993043 170.036081 
L 264.698516 172.442104 
L 274.403989 174.942184 
L 284.109462 177.566475 
L 293.814935 180.352445 
L 303.520408 183.344979 
L 313.225881 186.595215 
L 322.931354 190.157601 
L 332.636827 194.084861 
L 342.342301 198.421318 
L 352.047774 203.195912 
L 361.753247 208.417001 
L 371.45872 214.07075 
L 381.164193 220.123765 
L 390.869666 226.528942 
L 400.575139 233.232546 
L 410.280612 240.180566 
L 419.986085 247.323234 
L 429.691558 254.617476 
L 439.397032 262.027702 
L 449.102505 269.52549 
L 458.807978 277.088716 
L 468.513451 284.700472 
L 478.218924 292.348017 
L 487.924397 300.021845 
L 497.62987 307.714914 
L 507.335343 315.42204 
L 517.040816 323.139416 
L 526.746289 330.864259 
L 536.451763 338.594535 
L 546.157236 346.328764 
L 555.862709 354.065866 
L 565.568182 361.805055 
" style="fill:none;stroke:#4400bb;stroke-linecap:square;"/>
   </g>
   <g id="line2d_4">
    <path clip-path="url(#pd1797e2ebf)" d="M 90 79.114312 
L 99.705473 82.976272 
L 109.410946 86.840926 
L 119.116419 90.70893 
L 128.821892 94.581101 
L 138.527365 98.458451 
L 148.232839 102.342233 
L 157.938312 106.234001 
L 167.643785 110.13567 
L 177.349258 114.049606 
L 187.054731 117.978714 
L 196.760204 121.926556 
L 206.465677 125.897482 
L 216.17115 129.896773 
L 225.876623 133.930806 
L 235.582096 138.007223 
L 245.28757 142.135093 
L 254.993043 146.325057 
L 264.698516 150.589426 
L 274.403989 154.94219 
L 284.109462 159.398911 
L 293.814935 163.976443 
L 303.520408 168.692447 
L 313.225881 173.564672 
L 322.931354 178.610031 
L 332.636827 183.843523 
L 342.342301 189.277114 
L 352.047774 194.918748 
L 361.753247 200.771635 
L 371.45872 206.83395 
L 381.164193 213.099004 
L 390.869666 219.555854 
L 400.575139 226.19023 
L 410.280612 232.98564 
L 419.986085 239.924463 
L 429.691558 246.988933 
L 439.397032 254.161915 
L 449.102505 261.427453 
L 458.807978 268.771103 
L 468.513451 276.180087 
L 478.218924 283.643309 
L 487.924397 291.151276 
L 497.62987 298.695968 
L 507.335343 306.270674 
L 517.040816 313.869826 
L 526.746289 321.488832 
L 536.451763 329.123925 
L 546.157236 336.772031 
L 555.862709 344.430645 
L 565.568182 352.097735 
" style="fill:none;stroke:#4400bb;stroke-dasharray:6.000000,6.000000;stroke-dashoffset:0.0;"/>
   </g>
   <g id="line2d_5">
    <path clip-path="url(#pd1797e2ebf)" d="M 90 151.892491 
L 99.705473 154.033132 
L 109.410946 156.174231 
L 119.116419 158.315959 
L 128.821892 160.458555 
L 138.527365 162.602345 
L 148.232839 164.747778 
L 157.938312 166.895473 
L 167.643785 169.04628 
L 177.349258 171.201368 
L 187.054731 173.362341 
L 196.760204 175.531399 
L 206.465677 177.711554 
L 216.17115 179.906919 
L 225.876623 182.123096 
L 235.582096 184.36768 
L 245.28757 186.650911 
L 254.993043 188.986481 
L 264.698516 191.392504 
L 274.403989 193.892584 
L 284.109462 196.516875 
L 293.814935 199.302845 
L 303.520408 202.295379 
L 313.225881 205.545615 
L 322.931354 209.108001 
L 332.636827 213.035261 
L 342.342301 217.371718 
L 352.047774 222.146312 
L 361.753247 227.367401 
L 371.45872 233.02115 
L 381.164193 239.074165 
L 390.869666 245.479342 
L 400.575139 252.182946 
L 410.280612 259.130966 
L 419.986085 266.273634 
L 429.691558 273.567876 
L 439.397032 280.978102 
L 449.102505 288.47589 
L 458.807978 296.039116 
L 468.513451 303.650872 
L 478.218924 311.298417 
L 487.924397 318.972245 
L 497.62987 326.665314 
L 507.335343 334.37244 
L 517.040816 342.089816 
L 526.746289 349.814659 
L 536.451763 357.544935 
L 546.157236 365.279164 
L 555.862709 373.016266 
L 565.568182 380.755455 
" style="fill:none;stroke:#880088;stroke-linecap:square;"/>
   </g>
   <g id="line2d_6">
    <path clip-path="url(#pd1797e2ebf)" d="M 90 107.338312 
L 99.705473 111.200272 
L 109.410946 115.064926 
L 119.116419 118.93293 
L 128.821892 122.805101 
L 138.527365 126.682451 
L 148.232839 130.566233 
L 157.938312 134.458001 
L 167.643785 138.35967 
L 177.349258 142.273606 
L 187.054731 146.202714 
L 196.760204 150.150556 
L 206.465677 154.121482 
L 216.17115 158.120773 
L 225.876623 162.154806 
L 235.582096 166.231223 
L 245.28757 170.359093 
L 254.993043 174.549057 
L 264.698516 178.813426 
L 274.403989 183.16619 
L 284.109462 187.622911 
L 293.814935 192.200443 
L 303.520408 196.916447 
L 313.225881 201.788672 
L 322.931354 206.834031 
L 332.636827 212.067523 
L 342.342301 217.501114 
L 352.047774 223.142748 
L 361.753247 228.995635 
L 371.45872 235.05795 
L 381.164193 241.323004 
L 390.869666 247.779854 
L 400.575139 254.41423 
L 410.280612 261.20964 
L 419.986085 268.148463 
L 429.691558 275.212933 
L 439.397032 282.385915 
L 449.102505 289.651453 
L 458.807978 296.995103 
L 468.513451 304.404087 
L 478.218924 311.867309 
L 487.924397 319.375276 
L 497.62987 326.919968 
L 507.335343 334.494674 
L 517.040816 342.093826 
L 526.746289 349.712832 
L 536.451763 357.347925 
L 546.157236 364.996031 
L 555.862709 372.654645 
L 565.568182 380.321735 
" style="fill:none;stroke:#880088;stroke-dasharray:6.000000,6.000000;stroke-dashoffset:0.0;"/>
   </g>
   <g id="line2d_7">
    <path clip-path="url(#pd1797e2ebf)" d="M 90 170.842891 
L 99.705473 172.983532 
L 109.410946 175.124631 
L 119.116419 177.266359 
L 128.821892 179.408955 
L 138.527365 181.552745 
L 148.232839 183.698178 
L 157.938312 185.845873 
L 167.643785 187.99668 
L 177.349258 190.151768 
L 187.054731 192.312741 
L 196.760204 194.481799 
L 206.465677 196.661954 
L 216.17115 198.857319 
L 225.876623 201.073496 
L 235.582096 203.31808 
L 245.28757 205.601311 
L 254.993043 207.936881 
L 264.698516 210.342904 
L 274.403989 212.842984 
L 284.109462 215.467275 
L 293.814935 218.253245 
L 303.520408 221.245779 
L 313.225881 224.496015 
L 322.931354 228.058401 
L 332.636827 231.985661 
L 342.342301 236.322118 
L 352.047774 241.096712 
L 361.753247 246.317801 
L 371.45872 251.97155 
L 381.164193 258.024565 
L 390.869666 264.429742 
L 400.575139 271.133346 
L 410.280612 278.081366 
L 419.986085 285.224034 
L 429.691558 292.518276 
L 439.397032 299.928502 
L 449.102505 307.42629 
L 458.807978 314.989516 
L 468.513451 322.601272 
L 478.218924 330.248817 
L 487.924397 337.922645 
L 497.62987 345.615714 
L 507.335343 353.32284 
L 517.040816 361.040216 
L 526.746289 368.765059 
L 536.451763 376.495335 
L 546.157236 384.229564 
L 555.862709 391.966666 
L 565.568182 399.705855 
" style="fill:none;stroke:#bb0044;stroke-linecap:square;"/>
   </g>
   <g id="line2d_8">
    <path clip-path="url(#pd1797e2ebf)" d="M 90 135.562312 
L 99.705473 139.424272 
L 109.410946 143.288926 
L 119.116419 147.15693 
L 128.821892 151.029101 
L 138.527365 154.906451 
L 148.232839 158.790233 
L 157.938312 162.682001 
L 167.643785 166.58367 
L 177.349258 170.497606 
L 187.054731 174.426714 
L 196.760204 178.374556 
L 206.465677 182.345482 
L 216.17115 186.344773 
L 225.876623 190.378806 
L 235.582096 194.455223 
L 245.28757 198.583093 
L 254.993043 202.773057 
L 264.698516 207.037426 
L 274.403989 211.39019 
L 284.109462 215.846911 
L 293.814935 220.424443 
L 303.520408 225.140447 
L 313.225881 230.012672 
L 322.931354 235.058031 
L 332.636827 240.291523 
L 342.342301 245.725114 
L 352.047774 251.366748 
L 361.753247 257.219635 
L 371.45872 263.28195 
L 381.164193 269.547004 
L 390.869666 276.003854 
L 400.575139 282.63823 
L 410.280612 289.43364 
L 419.986085 296.372463 
L 429.691558 303.436933 
L 439.397032 310.609915 
L 449.102505 317.875453 
L 458.807978 325.219103 
L 468.513451 332.628087 
L 478.218924 340.091309 
L 487.924397 347.599276 
L 497.62987 355.143968 
L 507.335343 362.718674 
L 517.040816 370.317826 
L 526.746289 377.936832 
L 536.451763 385.571925 
L 546.157236 393.220031 
L 555.862709 400.878645 
L 565.568182 408.545735 
" style="fill:none;stroke:#bb0044;stroke-dasharray:6.000000,6.000000;stroke-dashoffset:0.0;"/>
   </g>
   <g id="line2d_9">
    <path clip-path="url(#pd1797e2ebf)" d="M 90 189.793291 
L 99.705473 191.933932 
L 109.410946 194.075031 
L 119.116419 196.216759 
L 128.821892 198.359355 
L 138.527365 200.503145 
L 148.232839 202.648578 
L 157.938312 204.796273 
L 167.643785 206.94708 
L 177.349258 209.102168 
L 187.054731 211.263141 
L 196.760204 213.432199 
L 206.465677 215.612354 
L 216.17115 217.807719 
L 225.876623 220.023896 
L 235.582096 222.26848 
L 245.28757 224.551711 
L 254.993043 226.887281 
L 264.698516 229.293304 
L 274.403989 231.793384 
L 284.109462 234.417675 
L 293.814935 237.203645 
L 303.520408 240.196179 
L 313.225881 243.446415 
L 322.931354 247.008801 
L 332.636827 250.936061 
L 342.342301 255.272518 
L 352.047774 260.047112 
L 361.753247 265.268201 
L 371.45872 270.92195 
L 381.164193 276.974965 
L 390.869666 283.380142 
L 400.575139 290.083746 
L 410.280612 297.031766 
L 419.986085 304.174434 
L 429.691558 311.468676 
L 439.397032 318.878902 
L 449.102505 326.37669 
L 458.807978 333.939916 
L 468.513451 341.551672 
L 478.218924 349.199217 
L 487.924397 356.873045 
L 497.62987 364.566114 
L 507.335343 372.27324 
L 517.040816 379.990616 
L 526.746289 387.715459 
L 536.451763 395.445735 
L 546.157236 403.179964 
L 555.862709 410.917066 
L 565.568182 418.656255 
" style="fill:none;stroke:#ff0000;stroke-linecap:square;"/>
   </g>
   <g id="line2d_10">
    <path clip-path="url(#pd1797e2ebf)" d="M 90 163.786312 
L 99.705473 167.648272 
L 109.410946 171.512926 
L 119.116419 175.38093 
L 128.821892 179.253101 
L 138.527365 183.130451 
L 148.232839 187.014233 
L 157.938312 190.906001 
L 167.643785 194.80767 
L 177.349258 198.721606 
L 187.054731 202.650714 
L 196.760204 206.598556 
L 206.465677 210.569482 
L 216.17115 214.568773 
L 225.876623 218.602806 
L 235.582096 222.679223 
L 245.28757 226.807093 
L 254.993043 230.997057 
L 264.698516 235.261426 
L 274.403989 239.61419 
L 284.109462 244.070911 
L 293.814935 248.648443 
L 303.520408 253.364447 
L 313.225881 258.236672 
L 322.931354 263.282031 
L 332.636827 268.515523 
L 342.342301 273.949114 
L 352.047774 279.590748 
L 361.753247 285.443635 
L 371.45872 291.50595 
L 381.164193 297.771004 
L 390.869666 304.227854 
L 400.575139 310.86223 
L 410.280612 317.65764 
L 419.986085 324.596463 
L 429.691558 331.660933 
L 439.397032 338.833915 
L 449.102505 346.099453 
L 458.807978 353.443103 
L 468.513451 360.852087 
L 478.218924 368.315309 
L 487.924397 375.823276 
L 497.62987 383.367968 
L 507.335343 390.942674 
L 517.040816 398.541826 
L 526.746289 406.160832 
L 536.451763 413.795925 
L 546.157236 421.444031 
L 555.862709 429.102645 
L 565.568182 436.769735 
" style="fill:none;stroke:#ff0000;stroke-dasharray:6.000000,6.000000;stroke-dashoffset:0.0;"/>
   </g>
   <g id="patch_3">
    <path d="M 90 453.6 
L 565.568182 453.6 
" style="fill:none;stroke:#000000;stroke-linecap:square;stroke-linejoin:miter;"/>
   </g>
   <g id="patch_4">
    <path d="M 565.568182 453.6 
L 565.568182 50.4 
" style="fill:none;stroke:#000000;stroke-linecap:square;stroke-linejoin:miter;"/>
   </g>
   <g id="patch_5">
    <path d="M 90 50.4 
L 565.568182 50.4 
" style="fill:none;stroke:#000000;stroke-linecap:square;stroke-linejoin:miter;"/>
   </g>
   <g id="patch_6">
    <path d="M 90 453.6 
L 90 50.4 
" style="fill:none;stroke:#000000;stroke-linecap:square;stroke-linejoin:miter;"/>
   </g>
   <g id="matplotlib.axis_1">
    <g id="xtick_1">
     <g id="line2d_11">
      <path clip-path="url(#pd1797e2ebf)" d="M 528.986014 453.6 
L 528.986014 50.4 
" style="fill:none;stroke:#000000;stroke-dasharray:1.000000,3.000000;stroke-dashoffset:0.0;stroke-width:0.5;"/>
     </g>
     <g id="line2d_12">
      <defs>
       <path d="M 0 0 
L 0 -4 
" id="mae163d7d6a" style="stroke:#000000;stroke-width:0.5;"/>
      </defs>
      <g>
       <use style="stroke:#000000;stroke-width:0.5;" x="528.986013986" xlink:href="#mae163d7d6a" y="453.6"/>
      </g>
     </g>
     <g id="line2d_13">
      <defs>
       <path d="M 0 0 
L 0 4 
" id="mff7343a531" style="stroke:#000000;stroke-width:0.5;"/>
      </defs>
      <g>
       <use style="stroke:#000000;stroke-width:0.5;" x="528.986013986" xlink:href="#mff7343a531" y="50.4"/>
      </g>
     </g>
     <g id="text_1">
      <!-- −30 -->
      <defs>
       <path d="M 40.578125 39.3125 
Q 47.65625 37.796875 51.625 33 
Q 55.609375 28.21875 55.609375 21.1875 
Q 55.609375 10.40625 48.1875 4.484375 
Q 40.765625 -1.421875 27.09375 -1.421875 
Q 22.515625 -1.421875 17.65625 -0.515625 
Q 12.796875 0.390625 7.625 2.203125 
L 7.625 11.71875 
Q 11.71875 9.328125 16.59375 8.109375 
Q 21.484375 6.890625 26.8125 6.890625 
Q 36.078125 6.890625 40.9375 10.546875 
Q 45.796875 14.203125 45.796875 21.1875 
Q 45.796875 27.640625 41.28125 31.265625 
Q 36.765625 34.90625 28.71875 34.90625 
L 20.21875 34.90625 
L 20.21875 43.015625 
L 29.109375 43.015625 
Q 36.375 43.015625 40.234375 45.921875 
Q 44.09375 48.828125 44.09375 54.296875 
Q 44.09375 59.90625 40.109375 62.90625 
Q 36.140625 65.921875 28.71875 65.921875 
Q 24.65625 65.921875 20.015625 65.03125 
Q 15.375 64.15625 9.8125 62.3125 
L 9.8125 71.09375 
Q 15.4375 72.65625 20.34375 73.4375 
Q 25.25 74.21875 29.59375 74.21875 
Q 40.828125 74.21875 47.359375 69.109375 
Q 53.90625 64.015625 53.90625 55.328125 
Q 53.90625 49.265625 50.4375 45.09375 
Q 46.96875 40.921875 40.578125 39.3125 
" id="BitstreamVeraSans-Roman-33"/>
       <path d="M 10.59375 35.5 
L 73.1875 35.5 
L 73.1875 27.203125 
L 10.59375 27.203125 
z
" id="BitstreamVeraSans-Roman-2212"/>
       <path d="M 31.78125 66.40625 
Q 24.171875 66.40625 20.328125 58.90625 
Q 16.5 51.421875 16.5 36.375 
Q 16.5 21.390625 20.328125 13.890625 
Q 24.171875 6.390625 31.78125 6.390625 
Q 39.453125 6.390625 43.28125 13.890625 
Q 47.125 21.390625 47.125 36.375 
Q 47.125 51.421875 43.28125 58.90625 
Q 39.453125 66.40625 31.78125 66.40625 
M 31.78125 74.21875 
Q 44.046875 74.21875 50.515625 64.515625 
Q 56.984375 54.828125 56.984375 36.375 
Q 56.984375 17.96875 50.515625 8.265625 
Q 44.046875 -1.421875 31.78125 -1.421875 
Q 19.53125 -1.421875 13.0625 8.265625 
Q 6.59375 17.96875 6.59375 36.375 
Q 6.59375 54.828125 13.0625 64.515625 
Q 19.53125 74.21875 31.78125 74.21875 
" id="BitstreamVeraSans-Roman-30"/>
      </defs>
      <g transform="translate(516.323201486 466.718125)scale(0.12 -0.12)">
       <use xlink:href="#BitstreamVeraSans-Roman-2212"/>
       <use x="83.7890625" xlink:href="#BitstreamVeraSans-Roman-33"/>
       <use x="147.412109375" xlink:href="#BitstreamVeraSans-Roman-30"/>
      </g>
     </g>
    </g>
    <g id="xtick_2">
     <g id="line2d_14">
      <path clip-path="url(#pd1797e2ebf)" d="M 455.821678 453.6 
L 455.821678 50.4 
" style="fill:none;stroke:#000000;stroke-dasharray:1.000000,3.000000;stroke-dashoffset:0.0;stroke-width:0.5;"/>
     </g>
     <g id="line2d_15">
      <g>
       <use style="stroke:#000000;stroke-width:0.5;" x="455.821678322" xlink:href="#mae163d7d6a" y="453.6"/>
      </g>
     </g>
     <g id="line2d_16">
      <g>
       <use style="stroke:#000000;stroke-width:0.5;" x="455.821678322" xlink:href="#mff7343a531" y="50.4"/>
      </g>
     </g>
     <g id="text_2">
      <!-- −28 -->
      <defs>
       <path d="M 19.1875 8.296875 
L 53.609375 8.296875 
L 53.609375 0 
L 7.328125 0 
L 7.328125 8.296875 
Q 12.9375 14.109375 22.625 23.890625 
Q 32.328125 33.6875 34.8125 36.53125 
Q 39.546875 41.84375 41.421875 45.53125 
Q 43.3125 49.21875 43.3125 52.78125 
Q 43.3125 58.59375 39.234375 62.25 
Q 35.15625 65.921875 28.609375 65.921875 
Q 23.96875 65.921875 18.8125 64.3125 
Q 13.671875 62.703125 7.8125 59.421875 
L 7.8125 69.390625 
Q 13.765625 71.78125 18.9375 73 
Q 24.125 74.21875 28.421875 74.21875 
Q 39.75 74.21875 46.484375 68.546875 
Q 53.21875 62.890625 53.21875 53.421875 
Q 53.21875 48.921875 51.53125 44.890625 
Q 49.859375 40.875 45.40625 35.40625 
Q 44.1875 33.984375 37.640625 27.21875 
Q 31.109375 20.453125 19.1875 8.296875 
" id="BitstreamVeraSans-Roman-32"/>
       <path d="M 31.78125 34.625 
Q 24.75 34.625 20.71875 30.859375 
Q 16.703125 27.09375 16.703125 20.515625 
Q 16.703125 13.921875 20.71875 10.15625 
Q 24.75 6.390625 31.78125 6.390625 
Q 38.8125 6.390625 42.859375 10.171875 
Q 46.921875 13.96875 46.921875 20.515625 
Q 46.921875 27.09375 42.890625 30.859375 
Q 38.875 34.625 31.78125 34.625 
M 21.921875 38.8125 
Q 15.578125 40.375 12.03125 44.71875 
Q 8.5 49.078125 8.5 55.328125 
Q 8.5 64.0625 14.71875 69.140625 
Q 20.953125 74.21875 31.78125 74.21875 
Q 42.671875 74.21875 48.875 69.140625 
Q 55.078125 64.0625 55.078125 55.328125 
Q 55.078125 49.078125 51.53125 44.71875 
Q 48 40.375 41.703125 38.8125 
Q 48.828125 37.15625 52.796875 32.3125 
Q 56.78125 27.484375 56.78125 20.515625 
Q 56.78125 9.90625 50.3125 4.234375 
Q 43.84375 -1.421875 31.78125 -1.421875 
Q 19.734375 -1.421875 13.25 4.234375 
Q 6.78125 9.90625 6.78125 20.515625 
Q 6.78125 27.484375 10.78125 32.3125 
Q 14.796875 37.15625 21.921875 38.8125 
M 18.3125 54.390625 
Q 18.3125 48.734375 21.84375 45.5625 
Q 25.390625 42.390625 31.78125 42.390625 
Q 38.140625 42.390625 41.71875 45.5625 
Q 45.3125 48.734375 45.3125 54.390625 
Q 45.3125 60.0625 41.71875 63.234375 
Q 38.140625 66.40625 31.78125 66.40625 
Q 25.390625 66.40625 21.84375 63.234375 
Q 18.3125 60.0625 18.3125 54.390625 
" id="BitstreamVeraSans-Roman-38"/>
      </defs>
      <g transform="translate(443.158865822 466.718125)scale(0.12 -0.12)">
       <use xlink:href="#BitstreamVeraSans-Roman-2212"/>
       <use x="83.7890625" xlink:href="#BitstreamVeraSans-Roman-32"/>
       <use x="147.412109375" xlink:href="#BitstreamVeraSans-Roman-38"/>
      </g>
     </g>
    </g>
    <g id="xtick_3">
     <g id="line2d_17">
      <path clip-path="url(#pd1797e2ebf)" d="M 382.657343 453.6 
L 382.657343 50.4 
" style="fill:none;stroke:#000000;stroke-dasharray:1.000000,3.000000;stroke-dashoffset:0.0;stroke-width:0.5;"/>
     </g>
     <g id="line2d_18">
      <g>
       <use style="stroke:#000000;stroke-width:0.5;" x="382.657342657" xlink:href="#mae163d7d6a" y="453.6"/>
      </g>
     </g>
     <g id="line2d_19">
      <g>
       <use style="stroke:#000000;stroke-width:0.5;" x="382.657342657" xlink:href="#mff7343a531" y="50.4"/>
      </g>
     </g>
     <g id="text_3">
      <!-- −26 -->
      <defs>
       <path d="M 33.015625 40.375 
Q 26.375 40.375 22.484375 35.828125 
Q 18.609375 31.296875 18.609375 23.390625 
Q 18.609375 15.53125 22.484375 10.953125 
Q 26.375 6.390625 33.015625 6.390625 
Q 39.65625 6.390625 43.53125 10.953125 
Q 47.40625 15.53125 47.40625 23.390625 
Q 47.40625 31.296875 43.53125 35.828125 
Q 39.65625 40.375 33.015625 40.375 
M 52.59375 71.296875 
L 52.59375 62.3125 
Q 48.875 64.0625 45.09375 64.984375 
Q 41.3125 65.921875 37.59375 65.921875 
Q 27.828125 65.921875 22.671875 59.328125 
Q 17.53125 52.734375 16.796875 39.40625 
Q 19.671875 43.65625 24.015625 45.921875 
Q 28.375 48.1875 33.59375 48.1875 
Q 44.578125 48.1875 50.953125 41.515625 
Q 57.328125 34.859375 57.328125 23.390625 
Q 57.328125 12.15625 50.6875 5.359375 
Q 44.046875 -1.421875 33.015625 -1.421875 
Q 20.359375 -1.421875 13.671875 8.265625 
Q 6.984375 17.96875 6.984375 36.375 
Q 6.984375 53.65625 15.1875 63.9375 
Q 23.390625 74.21875 37.203125 74.21875 
Q 40.921875 74.21875 44.703125 73.484375 
Q 48.484375 72.75 52.59375 71.296875 
" id="BitstreamVeraSans-Roman-36"/>
      </defs>
      <g transform="translate(369.994530157 466.718125)scale(0.12 -0.12)">
       <use xlink:href="#BitstreamVeraSans-Roman-2212"/>
       <use x="83.7890625" xlink:href="#BitstreamVeraSans-Roman-32"/>
       <use x="147.412109375" xlink:href="#BitstreamVeraSans-Roman-36"/>
      </g>
     </g>
    </g>
    <g id="xtick_4">
     <g id="line2d_20">
      <path clip-path="url(#pd1797e2ebf)" d="M 309.493007 453.6 
L 309.493007 50.4 
" style="fill:none;stroke:#000000;stroke-dasharray:1.000000,3.000000;stroke-dashoffset:0.0;stroke-width:0.5;"/>
     </g>
     <g id="line2d_21">
      <g>
       <use style="stroke:#000000;stroke-width:0.5;" x="309.493006993" xlink:href="#mae163d7d6a" y="453.6"/>
      </g>
     </g>
     <g id="line2d_22">
      <g>
       <use style="stroke:#000000;stroke-width:0.5;" x="309.493006993" xlink:href="#mff7343a531" y="50.4"/>
      </g>
     </g>
     <g id="text_4">
      <!-- −24 -->
      <defs>
       <path d="M 37.796875 64.3125 
L 12.890625 25.390625 
L 37.796875 25.390625 
z
M 35.203125 72.90625 
L 47.609375 72.90625 
L 47.609375 25.390625 
L 58.015625 25.390625 
L 58.015625 17.1875 
L 47.609375 17.1875 
L 47.609375 0 
L 37.796875 0 
L 37.796875 17.1875 
L 4.890625 17.1875 
L 4.890625 26.703125 
z
" id="BitstreamVeraSans-Roman-34"/>
      </defs>
      <g transform="translate(296.830194493 466.718125)scale(0.12 -0.12)">
       <use xlink:href="#BitstreamVeraSans-Roman-2212"/>
       <use x="83.7890625" xlink:href="#BitstreamVeraSans-Roman-32"/>
       <use x="147.412109375" xlink:href="#BitstreamVeraSans-Roman-34"/>
      </g>
     </g>
    </g>
    <g id="xtick_5">
     <g id="line2d_23">
      <path clip-path="url(#pd1797e2ebf)" d="M 236.328671 453.6 
L 236.328671 50.4 
" style="fill:none;stroke:#000000;stroke-dasharray:1.000000,3.000000;stroke-dashoffset:0.0;stroke-width:0.5;"/>
     </g>
     <g id="line2d_24">
      <g>
       <use style="stroke:#000000;stroke-width:0.5;" x="236.328671329" xlink:href="#mae163d7d6a" y="453.6"/>
      </g>
     </g>
     <g id="line2d_25">
      <g>
       <use style="stroke:#000000;stroke-width:0.5;" x="236.328671329" xlink:href="#mff7343a531" y="50.4"/>
      </g>
     </g>
     <g id="text_5">
      <!-- −22 -->
      <g transform="translate(223.665858829 466.718125)scale(0.12 -0.12)">
       <use xlink:href="#BitstreamVeraSans-Roman-2212"/>
       <use x="83.7890625" xlink:href="#BitstreamVeraSans-Roman-32"/>
       <use x="147.412109375" xlink:href="#BitstreamVeraSans-Roman-32"/>
      </g>
     </g>
    </g>
    <g id="xtick_6">
     <g id="line2d_26">
      <path clip-path="url(#pd1797e2ebf)" d="M 163.164336 453.6 
L 163.164336 50.4 
" style="fill:none;stroke:#000000;stroke-dasharray:1.000000,3.000000;stroke-dashoffset:0.0;stroke-width:0.5;"/>
     </g>
     <g id="line2d_27">
      <g>
       <use style="stroke:#000000;stroke-width:0.5;" x="163.164335664" xlink:href="#mae163d7d6a" y="453.6"/>
      </g>
     </g>
     <g id="line2d_28">
      <g>
       <use style="stroke:#000000;stroke-width:0.5;" x="163.164335664" xlink:href="#mff7343a531" y="50.4"/>
      </g>
     </g>
     <g id="text_6">
      <!-- −20 -->
      <g transform="translate(150.501523164 466.718125)scale(0.12 -0.12)">
       <use xlink:href="#BitstreamVeraSans-Roman-2212"/>
       <use x="83.7890625" xlink:href="#BitstreamVeraSans-Roman-32"/>
       <use x="147.412109375" xlink:href="#BitstreamVeraSans-Roman-30"/>
      </g>
     </g>
    </g>
    <g id="xtick_7">
     <g id="line2d_29">
      <path clip-path="url(#pd1797e2ebf)" d="M 90 453.6 
L 90 50.4 
" style="fill:none;stroke:#000000;stroke-dasharray:1.000000,3.000000;stroke-dashoffset:0.0;stroke-width:0.5;"/>
     </g>
     <g id="line2d_30">
      <g>
       <use style="stroke:#000000;stroke-width:0.5;" x="90.0" xlink:href="#mae163d7d6a" y="453.6"/>
      </g>
     </g>
     <g id="line2d_31">
      <g>
       <use style="stroke:#000000;stroke-width:0.5;" x="90.0" xlink:href="#mff7343a531" y="50.4"/>
      </g>
     </g>
     <g id="text_7">
      <!-- −18 -->
      <defs>
       <path d="M 12.40625 8.296875 
L 28.515625 8.296875 
L 28.515625 63.921875 
L 10.984375 60.40625 
L 10.984375 69.390625 
L 28.421875 72.90625 
L 38.28125 72.90625 
L 38.28125 8.296875 
L 54.390625 8.296875 
L 54.390625 0 
L 12.40625 0 
z
" id="BitstreamVeraSans-Roman-31"/>
      </defs>
      <g transform="translate(77.3371875 466.718125)scale(0.12 -0.12)">
       <use xlink:href="#BitstreamVeraSans-Roman-2212"/>
       <use x="83.7890625" xlink:href="#BitstreamVeraSans-Roman-31"/>
       <use x="147.412109375" xlink:href="#BitstreamVeraSans-Roman-38"/>
      </g>
     </g>
    </g>
    <g id="text_8">
     <!-- M_1450 -->
     <defs>
      <path d="M 10.796875 72.90625 
L 49.515625 72.90625 
L 49.515625 64.59375 
L 19.828125 64.59375 
L 19.828125 46.734375 
Q 21.96875 47.46875 24.109375 47.828125 
Q 26.265625 48.1875 28.421875 48.1875 
Q 40.625 48.1875 47.75 41.5 
Q 54.890625 34.8125 54.890625 23.390625 
Q 54.890625 11.625 47.5625 5.09375 
Q 40.234375 -1.421875 26.90625 -1.421875 
Q 22.3125 -1.421875 17.546875 -0.640625 
Q 12.796875 0.140625 7.71875 1.703125 
L 7.71875 11.625 
Q 12.109375 9.234375 16.796875 8.0625 
Q 21.484375 6.890625 26.703125 6.890625 
Q 35.15625 6.890625 40.078125 11.328125 
Q 45.015625 15.765625 45.015625 23.390625 
Q 45.015625 31 40.078125 35.4375 
Q 35.15625 39.890625 26.703125 39.890625 
Q 22.75 39.890625 18.8125 39.015625 
Q 14.890625 38.140625 10.796875 36.28125 
z
" id="BitstreamVeraSans-Roman-35"/>
      <path d="M 50.984375 -16.609375 
L 50.984375 -23.578125 
L -0.984375 -23.578125 
L -0.984375 -16.609375 
z
" id="BitstreamVeraSans-Roman-5f"/>
      <path d="M 9.8125 72.90625 
L 24.515625 72.90625 
L 43.109375 23.296875 
L 61.8125 72.90625 
L 76.515625 72.90625 
L 76.515625 0 
L 66.890625 0 
L 66.890625 64.015625 
L 48.09375 14.015625 
L 38.1875 14.015625 
L 19.390625 64.015625 
L 19.390625 0 
L 9.8125 0 
z
" id="BitstreamVeraSans-Roman-4d"/>
     </defs>
     <g transform="translate(304.337215909 483.12)scale(0.12 -0.12)">
      <use xlink:href="#BitstreamVeraSans-Roman-4d"/>
      <use x="86.279296875" xlink:href="#BitstreamVeraSans-Roman-5f"/>
      <use x="136.279296875" xlink:href="#BitstreamVeraSans-Roman-31"/>
      <use x="199.90234375" xlink:href="#BitstreamVeraSans-Roman-34"/>
      <use x="263.525390625" xlink:href="#BitstreamVeraSans-Roman-35"/>
      <use x="327.1484375" xlink:href="#BitstreamVeraSans-Roman-30"/>
     </g>
    </g>
   </g>
   <g id="matplotlib.axis_2">
    <g id="ytick_1">
     <g id="line2d_32">
      <path clip-path="url(#pd1797e2ebf)" d="M 90 453.6 
L 565.568182 453.6 
" style="fill:none;stroke:#000000;stroke-dasharray:1.000000,3.000000;stroke-dashoffset:0.0;stroke-width:0.5;"/>
     </g>
     <g id="line2d_33">
      <defs>
       <path d="M 0 0 
L 4 0 
" id="mca5e01b3b9" style="stroke:#000000;stroke-width:0.5;"/>
      </defs>
      <g>
       <use style="stroke:#000000;stroke-width:0.5;" x="90.0" xlink:href="#mca5e01b3b9" y="453.6"/>
      </g>
     </g>
     <g id="line2d_34">
      <defs>
       <path d="M 0 0 
L -4 0 
" id="m3327b393ab" style="stroke:#000000;stroke-width:0.5;"/>
      </defs>
      <g>
       <use style="stroke:#000000;stroke-width:0.5;" x="565.568181818" xlink:href="#m3327b393ab" y="453.6"/>
      </g>
     </g>
     <g id="text_9">
      <!-- $\mathdefault{10^{-14}}$ -->
      <defs>
       <path d="M 4.890625 31.390625 
L 31.203125 31.390625 
L 31.203125 23.390625 
L 4.890625 23.390625 
z
" id="BitstreamVeraSans-Roman-2d"/>
      </defs>
      <g transform="translate(55.4 457.164375)scale(0.12 -0.12)">
       <use transform="translate(0.0 0.7156250000000028)" xlink:href="#BitstreamVeraSans-Roman-31"/>
       <use transform="translate(63.623046875 0.7156250000000028)" xlink:href="#BitstreamVeraSans-Roman-30"/>
       <use transform="translate(132.75859375 47.965625)scale(0.7)" xlink:href="#BitstreamVeraSans-Roman-2d"/>
       <use transform="translate(158.0173828125 47.965625)scale(0.7)" xlink:href="#BitstreamVeraSans-Roman-31"/>
       <use transform="translate(202.553515625 47.965625)scale(0.7)" xlink:href="#BitstreamVeraSans-Roman-34"/>
      </g>
     </g>
    </g>
    <g id="ytick_2">
     <g id="line2d_35">
      <path clip-path="url(#pd1797e2ebf)" d="M 90 413.28 
L 565.568182 413.28 
" style="fill:none;stroke:#000000;stroke-dasharray:1.000000,3.000000;stroke-dashoffset:0.0;stroke-width:0.5;"/>
     </g>
     <g id="line2d_36">
      <g>
       <use style="stroke:#000000;stroke-width:0.5;" x="90.0" xlink:href="#mca5e01b3b9" y="413.28"/>
      </g>
     </g>
     <g id="line2d_37">
      <g>
       <use style="stroke:#000000;stroke-width:0.5;" x="565.568181818" xlink:href="#m3327b393ab" y="413.28"/>
      </g>
     </g>
     <g id="text_10">
      <!-- $\mathdefault{10^{-13}}$ -->
      <g transform="translate(55.4 416.904375)scale(0.12 -0.12)">
       <use transform="translate(0.0 0.796875)" xlink:href="#BitstreamVeraSans-Roman-31"/>
       <use transform="translate(63.623046875 0.796875)" xlink:href="#BitstreamVeraSans-Roman-30"/>
       <use transform="translate(132.75859375 48.046875)scale(0.7)" xlink:href="#BitstreamVeraSans-Roman-2d"/>
       <use transform="translate(158.0173828125 48.046875)scale(0.7)" xlink:href="#BitstreamVeraSans-Roman-31"/>
       <use transform="translate(202.553515625 48.046875)scale(0.7)" xlink:href="#BitstreamVeraSans-Roman-33"/>
      </g>
     </g>
    </g>
    <g id="ytick_3">
     <g id="line2d_38">
      <path clip-path="url(#pd1797e2ebf)" d="M 90 372.96 
L 565.568182 372.96 
" style="fill:none;stroke:#000000;stroke-dasharray:1.000000,3.000000;stroke-dashoffset:0.0;stroke-width:0.5;"/>
     </g>
     <g id="line2d_39">
      <g>
       <use style="stroke:#000000;stroke-width:0.5;" x="90.0" xlink:href="#mca5e01b3b9" y="372.96"/>
      </g>
     </g>
     <g id="line2d_40">
      <g>
       <use style="stroke:#000000;stroke-width:0.5;" x="565.568181818" xlink:href="#m3327b393ab" y="372.96"/>
      </g>
     </g>
     <g id="text_11">
      <!-- $\mathdefault{10^{-12}}$ -->
      <g transform="translate(55.4 376.584375)scale(0.12 -0.12)">
       <use transform="translate(0.0 0.796875)" xlink:href="#BitstreamVeraSans-Roman-31"/>
       <use transform="translate(63.623046875 0.796875)" xlink:href="#BitstreamVeraSans-Roman-30"/>
       <use transform="translate(132.75859375 48.046875)scale(0.7)" xlink:href="#BitstreamVeraSans-Roman-2d"/>
       <use transform="translate(158.0173828125 48.046875)scale(0.7)" xlink:href="#BitstreamVeraSans-Roman-31"/>
       <use transform="translate(202.553515625 48.046875)scale(0.7)" xlink:href="#BitstreamVeraSans-Roman-32"/>
      </g>
     </g>
    </g>
    <g id="ytick_4">
     <g id="line2d_41">
      <path clip-path="url(#pd1797e2ebf)" d="M 90 332.64 
L 565.568182 332.64 
" style="fill:none;stroke:#000000;stroke-dasharray:1.000000,3.000000;stroke-dashoffset:0.0;stroke-width:0.5;"/>
     </g>
     <g id="line2d_42">
      <g>
       <use style="stroke:#000000;stroke-width:0.5;" x="90.0" xlink:href="#mca5e01b3b9" y="332.64"/>
      </g>
     </g>
     <g id="line2d_43">
      <g>
       <use style="stroke:#000000;stroke-width:0.5;" x="565.568181818" xlink:href="#m3327b393ab" y="332.64"/>
      </g>
     </g>
     <g id="text_12">
      <!-- $\mathdefault{10^{-11}}$ -->
      <g transform="translate(55.4 336.204375)scale(0.12 -0.12)">
       <use transform="translate(0.0 0.7156250000000028)" xlink:href="#BitstreamVeraSans-Roman-31"/>
       <use transform="translate(63.623046875 0.7156250000000028)" xlink:href="#BitstreamVeraSans-Roman-30"/>
       <use transform="translate(132.75859375 47.965625)scale(0.7)" xlink:href="#BitstreamVeraSans-Roman-2d"/>
       <use transform="translate(158.0173828125 47.965625)scale(0.7)" xlink:href="#BitstreamVeraSans-Roman-31"/>
       <use transform="translate(202.553515625 47.965625)scale(0.7)" xlink:href="#BitstreamVeraSans-Roman-31"/>
      </g>
     </g>
    </g>
    <g id="ytick_5">
     <g id="line2d_44">
      <path clip-path="url(#pd1797e2ebf)" d="M 90 292.32 
L 565.568182 292.32 
" style="fill:none;stroke:#000000;stroke-dasharray:1.000000,3.000000;stroke-dashoffset:0.0;stroke-width:0.5;"/>
     </g>
     <g id="line2d_45">
      <g>
       <use style="stroke:#000000;stroke-width:0.5;" x="90.0" xlink:href="#mca5e01b3b9" y="292.32"/>
      </g>
     </g>
     <g id="line2d_46">
      <g>
       <use style="stroke:#000000;stroke-width:0.5;" x="565.568181818" xlink:href="#m3327b393ab" y="292.32"/>
      </g>
     </g>
     <g id="text_13">
      <!-- $\mathdefault{10^{-10}}$ -->
      <g transform="translate(55.4 295.944375)scale(0.12 -0.12)">
       <use transform="translate(0.0 0.796875)" xlink:href="#BitstreamVeraSans-Roman-31"/>
       <use transform="translate(63.623046875 0.796875)" xlink:href="#BitstreamVeraSans-Roman-30"/>
       <use transform="translate(132.75859375 48.046875)scale(0.7)" xlink:href="#BitstreamVeraSans-Roman-2d"/>
       <use transform="translate(158.0173828125 48.046875)scale(0.7)" xlink:href="#BitstreamVeraSans-Roman-31"/>
       <use transform="translate(202.553515625 48.046875)scale(0.7)" xlink:href="#BitstreamVeraSans-Roman-30"/>
      </g>
     </g>
    </g>
    <g id="ytick_6">
     <g id="line2d_47">
      <path clip-path="url(#pd1797e2ebf)" d="M 90 252 
L 565.568182 252 
" style="fill:none;stroke:#000000;stroke-dasharray:1.000000,3.000000;stroke-dashoffset:0.0;stroke-width:0.5;"/>
     </g>
     <g id="line2d_48">
      <g>
       <use style="stroke:#000000;stroke-width:0.5;" x="90.0" xlink:href="#mca5e01b3b9" y="252.0"/>
      </g>
     </g>
     <g id="line2d_49">
      <g>
       <use style="stroke:#000000;stroke-width:0.5;" x="565.568181818" xlink:href="#m3327b393ab" y="252.0"/>
      </g>
     </g>
     <g id="text_14">
      <!-- $\mathdefault{10^{-9}}$ -->
      <defs>
       <path d="M 10.984375 1.515625 
L 10.984375 10.5 
Q 14.703125 8.734375 18.5 7.8125 
Q 22.3125 6.890625 25.984375 6.890625 
Q 35.75 6.890625 40.890625 13.453125 
Q 46.046875 20.015625 46.78125 33.40625 
Q 43.953125 29.203125 39.59375 26.953125 
Q 35.25 24.703125 29.984375 24.703125 
Q 19.046875 24.703125 12.671875 31.3125 
Q 6.296875 37.9375 6.296875 49.421875 
Q 6.296875 60.640625 12.9375 67.421875 
Q 19.578125 74.21875 30.609375 74.21875 
Q 43.265625 74.21875 49.921875 64.515625 
Q 56.59375 54.828125 56.59375 36.375 
Q 56.59375 19.140625 48.40625 8.859375 
Q 40.234375 -1.421875 26.421875 -1.421875 
Q 22.703125 -1.421875 18.890625 -0.6875 
Q 15.09375 0.046875 10.984375 1.515625 
M 30.609375 32.421875 
Q 37.25 32.421875 41.125 36.953125 
Q 45.015625 41.5 45.015625 49.421875 
Q 45.015625 57.28125 41.125 61.84375 
Q 37.25 66.40625 30.609375 66.40625 
Q 23.96875 66.40625 20.09375 61.84375 
Q 16.21875 57.28125 16.21875 49.421875 
Q 16.21875 41.5 20.09375 36.953125 
Q 23.96875 32.421875 30.609375 32.421875 
" id="BitstreamVeraSans-Roman-39"/>
      </defs>
      <g transform="translate(60.68 255.624375)scale(0.12 -0.12)">
       <use transform="translate(0.0 0.796875)" xlink:href="#BitstreamVeraSans-Roman-31"/>
       <use transform="translate(63.623046875 0.796875)" xlink:href="#BitstreamVeraSans-Roman-30"/>
       <use transform="translate(132.75859375 48.046875)scale(0.7)" xlink:href="#BitstreamVeraSans-Roman-2d"/>
       <use transform="translate(158.0173828125 48.046875)scale(0.7)" xlink:href="#BitstreamVeraSans-Roman-39"/>
      </g>
     </g>
    </g>
    <g id="ytick_7">
     <g id="line2d_50">
      <path clip-path="url(#pd1797e2ebf)" d="M 90 211.68 
L 565.568182 211.68 
" style="fill:none;stroke:#000000;stroke-dasharray:1.000000,3.000000;stroke-dashoffset:0.0;stroke-width:0.5;"/>
     </g>
     <g id="line2d_51">
      <g>
       <use style="stroke:#000000;stroke-width:0.5;" x="90.0" xlink:href="#mca5e01b3b9" y="211.68"/>
      </g>
     </g>
     <g id="line2d_52">
      <g>
       <use style="stroke:#000000;stroke-width:0.5;" x="565.568181818" xlink:href="#m3327b393ab" y="211.68"/>
      </g>
     </g>
     <g id="text_15">
      <!-- $\mathdefault{10^{-8}}$ -->
      <g transform="translate(60.68 215.304375)scale(0.12 -0.12)">
       <use transform="translate(0.0 0.796875)" xlink:href="#BitstreamVeraSans-Roman-31"/>
       <use transform="translate(63.623046875 0.796875)" xlink:href="#BitstreamVeraSans-Roman-30"/>
       <use transform="translate(132.75859375 48.046875)scale(0.7)" xlink:href="#BitstreamVeraSans-Roman-2d"/>
       <use transform="translate(158.0173828125 48.046875)scale(0.7)" xlink:href="#BitstreamVeraSans-Roman-38"/>
      </g>
     </g>
    </g>
    <g id="ytick_8">
     <g id="line2d_53">
      <path clip-path="url(#pd1797e2ebf)" d="M 90 171.36 
L 565.568182 171.36 
" style="fill:none;stroke:#000000;stroke-dasharray:1.000000,3.000000;stroke-dashoffset:0.0;stroke-width:0.5;"/>
     </g>
     <g id="line2d_54">
      <g>
       <use style="stroke:#000000;stroke-width:0.5;" x="90.0" xlink:href="#mca5e01b3b9" y="171.36"/>
      </g>
     </g>
     <g id="line2d_55">
      <g>
       <use style="stroke:#000000;stroke-width:0.5;" x="565.568181818" xlink:href="#m3327b393ab" y="171.36"/>
      </g>
     </g>
     <g id="text_16">
      <!-- $\mathdefault{10^{-7}}$ -->
      <defs>
       <path d="M 8.203125 72.90625 
L 55.078125 72.90625 
L 55.078125 68.703125 
L 28.609375 0 
L 18.3125 0 
L 43.21875 64.59375 
L 8.203125 64.59375 
z
" id="BitstreamVeraSans-Roman-37"/>
      </defs>
      <g transform="translate(60.68 174.924375)scale(0.12 -0.12)">
       <use transform="translate(0.0 0.7156250000000028)" xlink:href="#BitstreamVeraSans-Roman-31"/>
       <use transform="translate(63.623046875 0.7156250000000028)" xlink:href="#BitstreamVeraSans-Roman-30"/>
       <use transform="translate(132.75859375 47.965625)scale(0.7)" xlink:href="#BitstreamVeraSans-Roman-2d"/>
       <use transform="translate(158.0173828125 47.965625)scale(0.7)" xlink:href="#BitstreamVeraSans-Roman-37"/>
      </g>
     </g>
    </g>
    <g id="ytick_9">
     <g id="line2d_56">
      <path clip-path="url(#pd1797e2ebf)" d="M 90 131.04 
L 565.568182 131.04 
" style="fill:none;stroke:#000000;stroke-dasharray:1.000000,3.000000;stroke-dashoffset:0.0;stroke-width:0.5;"/>
     </g>
     <g id="line2d_57">
      <g>
       <use style="stroke:#000000;stroke-width:0.5;" x="90.0" xlink:href="#mca5e01b3b9" y="131.04"/>
      </g>
     </g>
     <g id="line2d_58">
      <g>
       <use style="stroke:#000000;stroke-width:0.5;" x="565.568181818" xlink:href="#m3327b393ab" y="131.04"/>
      </g>
     </g>
     <g id="text_17">
      <!-- $\mathdefault{10^{-6}}$ -->
      <g transform="translate(60.68 134.664375)scale(0.12 -0.12)">
       <use transform="translate(0.0 0.796875)" xlink:href="#BitstreamVeraSans-Roman-31"/>
       <use transform="translate(63.623046875 0.796875)" xlink:href="#BitstreamVeraSans-Roman-30"/>
       <use transform="translate(132.75859375 48.046875)scale(0.7)" xlink:href="#BitstreamVeraSans-Roman-2d"/>
       <use transform="translate(158.0173828125 48.046875)scale(0.7)" xlink:href="#BitstreamVeraSans-Roman-36"/>
      </g>
     </g>
    </g>
    <g id="ytick_10">
     <g id="line2d_59">
      <path clip-path="url(#pd1797e2ebf)" d="M 90 90.72 
L 565.568182 90.72 
" style="fill:none;stroke:#000000;stroke-dasharray:1.000000,3.000000;stroke-dashoffset:0.0;stroke-width:0.5;"/>
     </g>
     <g id="line2d_60">
      <g>
       <use style="stroke:#000000;stroke-width:0.5;" x="90.0" xlink:href="#mca5e01b3b9" y="90.72"/>
      </g>
     </g>
     <g id="line2d_61">
      <g>
       <use style="stroke:#000000;stroke-width:0.5;" x="565.568181818" xlink:href="#m3327b393ab" y="90.72"/>
      </g>
     </g>
     <g id="text_18">
      <!-- $\mathdefault{10^{-5}}$ -->
      <g transform="translate(60.68 94.284375)scale(0.12 -0.12)">
       <use transform="translate(0.0 0.7156250000000028)" xlink:href="#BitstreamVeraSans-Roman-31"/>
       <use transform="translate(63.623046875 0.7156250000000028)" xlink:href="#BitstreamVeraSans-Roman-30"/>
       <use transform="translate(132.75859375 47.965625)scale(0.7)" xlink:href="#BitstreamVeraSans-Roman-2d"/>
       <use transform="translate(158.0173828125 47.965625)scale(0.7)" xlink:href="#BitstreamVeraSans-Roman-35"/>
      </g>
     </g>
    </g>
    <g id="ytick_11">
     <g id="line2d_62">
      <path clip-path="url(#pd1797e2ebf)" d="M 90 50.4 
L 565.568182 50.4 
" style="fill:none;stroke:#000000;stroke-dasharray:1.000000,3.000000;stroke-dashoffset:0.0;stroke-width:0.5;"/>
     </g>
     <g id="line2d_63">
      <g>
       <use style="stroke:#000000;stroke-width:0.5;" x="90.0" xlink:href="#mca5e01b3b9" y="50.4"/>
      </g>
     </g>
     <g id="line2d_64">
      <g>
       <use style="stroke:#000000;stroke-width:0.5;" x="565.568181818" xlink:href="#m3327b393ab" y="50.4"/>
      </g>
     </g>
     <g id="text_19">
      <!-- $\mathdefault{10^{-4}}$ -->
      <g transform="translate(60.68 53.964375)scale(0.12 -0.12)">
       <use transform="translate(0.0 0.7156250000000028)" xlink:href="#BitstreamVeraSans-Roman-31"/>
       <use transform="translate(63.623046875 0.7156250000000028)" xlink:href="#BitstreamVeraSans-Roman-30"/>
       <use transform="translate(132.75859375 47.965625)scale(0.7)" xlink:href="#BitstreamVeraSans-Roman-2d"/>
       <use transform="translate(158.0173828125 47.965625)scale(0.7)" xlink:href="#BitstreamVeraSans-Roman-34"/>
      </g>
     </g>
    </g>
    <g id="ytick_12">
     <g id="line2d_65">
      <defs>
       <path d="M 0 0 
L 2 0 
" id="me3dece6314" style="stroke:#000000;stroke-width:0.5;"/>
      </defs>
      <g>
       <use style="stroke:#000000;stroke-width:0.5;" x="90.0" xlink:href="#me3dece6314" y="441.462470575"/>
      </g>
     </g>
     <g id="line2d_66">
      <defs>
       <path d="M 0 0 
L -2 0 
" id="m54e93d8e54" style="stroke:#000000;stroke-width:0.5;"/>
      </defs>
      <g>
       <use style="stroke:#000000;stroke-width:0.5;" x="565.568181818" xlink:href="#m54e93d8e54" y="441.462470575"/>
      </g>
     </g>
    </g>
    <g id="ytick_13">
     <g id="line2d_67">
      <g>
       <use style="stroke:#000000;stroke-width:0.5;" x="90.0" xlink:href="#me3dece6314" y="429.32494115"/>
      </g>
     </g>
     <g id="line2d_68">
      <g>
       <use style="stroke:#000000;stroke-width:0.5;" x="565.568181818" xlink:href="#m54e93d8e54" y="429.32494115"/>
      </g>
     </g>
    </g>
    <g id="ytick_14">
     <g id="line2d_69">
      <g>
       <use style="stroke:#000000;stroke-width:0.5;" x="90.0" xlink:href="#me3dece6314" y="422.224941585"/>
      </g>
     </g>
     <g id="line2d_70">
      <g>
       <use style="stroke:#000000;stroke-width:0.5;" x="565.568181818" xlink:href="#m54e93d8e54" y="422.224941585"/>
      </g>
     </g>
    </g>
    <g id="ytick_15">
     <g id="line2d_71">
      <g>
       <use style="stroke:#000000;stroke-width:0.5;" x="90.0" xlink:href="#me3dece6314" y="417.187411724"/>
      </g>
     </g>
     <g id="line2d_72">
      <g>
       <use style="stroke:#000000;stroke-width:0.5;" x="565.568181818" xlink:href="#m54e93d8e54" y="417.187411724"/>
      </g>
     </g>
    </g>
    <g id="ytick_16">
     <g id="line2d_73">
      <g>
       <use style="stroke:#000000;stroke-width:0.5;" x="90.0" xlink:href="#me3dece6314" y="401.142470575"/>
      </g>
     </g>
     <g id="line2d_74">
      <g>
       <use style="stroke:#000000;stroke-width:0.5;" x="565.568181818" xlink:href="#m54e93d8e54" y="401.142470575"/>
      </g>
     </g>
    </g>
    <g id="ytick_17">
     <g id="line2d_75">
      <g>
       <use style="stroke:#000000;stroke-width:0.5;" x="90.0" xlink:href="#me3dece6314" y="389.00494115"/>
      </g>
     </g>
     <g id="line2d_76">
      <g>
       <use style="stroke:#000000;stroke-width:0.5;" x="565.568181818" xlink:href="#m54e93d8e54" y="389.00494115"/>
      </g>
     </g>
    </g>
    <g id="ytick_18">
     <g id="line2d_77">
      <g>
       <use style="stroke:#000000;stroke-width:0.5;" x="90.0" xlink:href="#me3dece6314" y="381.904941585"/>
      </g>
     </g>
     <g id="line2d_78">
      <g>
       <use style="stroke:#000000;stroke-width:0.5;" x="565.568181818" xlink:href="#m54e93d8e54" y="381.904941585"/>
      </g>
     </g>
    </g>
    <g id="ytick_19">
     <g id="line2d_79">
      <g>
       <use style="stroke:#000000;stroke-width:0.5;" x="90.0" xlink:href="#me3dece6314" y="376.867411724"/>
      </g>
     </g>
     <g id="line2d_80">
      <g>
       <use style="stroke:#000000;stroke-width:0.5;" x="565.568181818" xlink:href="#m54e93d8e54" y="376.867411724"/>
      </g>
     </g>
    </g>
    <g id="ytick_20">
     <g id="line2d_81">
      <g>
       <use style="stroke:#000000;stroke-width:0.5;" x="90.0" xlink:href="#me3dece6314" y="360.822470575"/>
      </g>
     </g>
     <g id="line2d_82">
      <g>
       <use style="stroke:#000000;stroke-width:0.5;" x="565.568181818" xlink:href="#m54e93d8e54" y="360.822470575"/>
      </g>
     </g>
    </g>
    <g id="ytick_21">
     <g id="line2d_83">
      <g>
       <use style="stroke:#000000;stroke-width:0.5;" x="90.0" xlink:href="#me3dece6314" y="348.68494115"/>
      </g>
     </g>
     <g id="line2d_84">
      <g>
       <use style="stroke:#000000;stroke-width:0.5;" x="565.568181818" xlink:href="#m54e93d8e54" y="348.68494115"/>
      </g>
     </g>
    </g>
    <g id="ytick_22">
     <g id="line2d_85">
      <g>
       <use style="stroke:#000000;stroke-width:0.5;" x="90.0" xlink:href="#me3dece6314" y="341.584941585"/>
      </g>
     </g>
     <g id="line2d_86">
      <g>
       <use style="stroke:#000000;stroke-width:0.5;" x="565.568181818" xlink:href="#m54e93d8e54" y="341.584941585"/>
      </g>
     </g>
    </g>
    <g id="ytick_23">
     <g id="line2d_87">
      <g>
       <use style="stroke:#000000;stroke-width:0.5;" x="90.0" xlink:href="#me3dece6314" y="336.547411724"/>
      </g>
     </g>
     <g id="line2d_88">
      <g>
       <use style="stroke:#000000;stroke-width:0.5;" x="565.568181818" xlink:href="#m54e93d8e54" y="336.547411724"/>
      </g>
     </g>
    </g>
    <g id="ytick_24">
     <g id="line2d_89">
      <g>
       <use style="stroke:#000000;stroke-width:0.5;" x="90.0" xlink:href="#me3dece6314" y="320.502470575"/>
      </g>
     </g>
     <g id="line2d_90">
      <g>
       <use style="stroke:#000000;stroke-width:0.5;" x="565.568181818" xlink:href="#m54e93d8e54" y="320.502470575"/>
      </g>
     </g>
    </g>
    <g id="ytick_25">
     <g id="line2d_91">
      <g>
       <use style="stroke:#000000;stroke-width:0.5;" x="90.0" xlink:href="#me3dece6314" y="308.36494115"/>
      </g>
     </g>
     <g id="line2d_92">
      <g>
       <use style="stroke:#000000;stroke-width:0.5;" x="565.568181818" xlink:href="#m54e93d8e54" y="308.36494115"/>
      </g>
     </g>
    </g>
    <g id="ytick_26">
     <g id="line2d_93">
      <g>
       <use style="stroke:#000000;stroke-width:0.5;" x="90.0" xlink:href="#me3dece6314" y="301.264941585"/>
      </g>
     </g>
     <g id="line2d_94">
      <g>
       <use style="stroke:#000000;stroke-width:0.5;" x="565.568181818" xlink:href="#m54e93d8e54" y="301.264941585"/>
      </g>
     </g>
    </g>
    <g id="ytick_27">
     <g id="line2d_95">
      <g>
       <use style="stroke:#000000;stroke-width:0.5;" x="90.0" xlink:href="#me3dece6314" y="296.227411724"/>
      </g>
     </g>
     <g id="line2d_96">
      <g>
       <use style="stroke:#000000;stroke-width:0.5;" x="565.568181818" xlink:href="#m54e93d8e54" y="296.227411724"/>
      </g>
     </g>
    </g>
    <g id="ytick_28">
     <g id="line2d_97">
      <g>
       <use style="stroke:#000000;stroke-width:0.5;" x="90.0" xlink:href="#me3dece6314" y="280.182470575"/>
      </g>
     </g>
     <g id="line2d_98">
      <g>
       <use style="stroke:#000000;stroke-width:0.5;" x="565.568181818" xlink:href="#m54e93d8e54" y="280.182470575"/>
      </g>
     </g>
    </g>
    <g id="ytick_29">
     <g id="line2d_99">
      <g>
       <use style="stroke:#000000;stroke-width:0.5;" x="90.0" xlink:href="#me3dece6314" y="268.04494115"/>
      </g>
     </g>
     <g id="line2d_100">
      <g>
       <use style="stroke:#000000;stroke-width:0.5;" x="565.568181818" xlink:href="#m54e93d8e54" y="268.04494115"/>
      </g>
     </g>
    </g>
    <g id="ytick_30">
     <g id="line2d_101">
      <g>
       <use style="stroke:#000000;stroke-width:0.5;" x="90.0" xlink:href="#me3dece6314" y="260.944941585"/>
      </g>
     </g>
     <g id="line2d_102">
      <g>
       <use style="stroke:#000000;stroke-width:0.5;" x="565.568181818" xlink:href="#m54e93d8e54" y="260.944941585"/>
      </g>
     </g>
    </g>
    <g id="ytick_31">
     <g id="line2d_103">
      <g>
       <use style="stroke:#000000;stroke-width:0.5;" x="90.0" xlink:href="#me3dece6314" y="255.907411724"/>
      </g>
     </g>
     <g id="line2d_104">
      <g>
       <use style="stroke:#000000;stroke-width:0.5;" x="565.568181818" xlink:href="#m54e93d8e54" y="255.907411724"/>
      </g>
     </g>
    </g>
    <g id="ytick_32">
     <g id="line2d_105">
      <g>
       <use style="stroke:#000000;stroke-width:0.5;" x="90.0" xlink:href="#me3dece6314" y="239.862470575"/>
      </g>
     </g>
     <g id="line2d_106">
      <g>
       <use style="stroke:#000000;stroke-width:0.5;" x="565.568181818" xlink:href="#m54e93d8e54" y="239.862470575"/>
      </g>
     </g>
    </g>
    <g id="ytick_33">
     <g id="line2d_107">
      <g>
       <use style="stroke:#000000;stroke-width:0.5;" x="90.0" xlink:href="#me3dece6314" y="227.72494115"/>
      </g>
     </g>
     <g id="line2d_108">
      <g>
       <use style="stroke:#000000;stroke-width:0.5;" x="565.568181818" xlink:href="#m54e93d8e54" y="227.72494115"/>
      </g>
     </g>
    </g>
    <g id="ytick_34">
     <g id="line2d_109">
      <g>
       <use style="stroke:#000000;stroke-width:0.5;" x="90.0" xlink:href="#me3dece6314" y="220.624941585"/>
      </g>
     </g>
     <g id="line2d_110">
      <g>
       <use style="stroke:#000000;stroke-width:0.5;" x="565.568181818" xlink:href="#m54e93d8e54" y="220.624941585"/>
      </g>
     </g>
    </g>
    <g id="ytick_35">
     <g id="line2d_111">
      <g>
       <use style="stroke:#000000;stroke-width:0.5;" x="90.0" xlink:href="#me3dece6314" y="215.587411724"/>
      </g>
     </g>
     <g id="line2d_112">
      <g>
       <use style="stroke:#000000;stroke-width:0.5;" x="565.568181818" xlink:href="#m54e93d8e54" y="215.587411724"/>
      </g>
     </g>
    </g>
    <g id="ytick_36">
     <g id="line2d_113">
      <g>
       <use style="stroke:#000000;stroke-width:0.5;" x="90.0" xlink:href="#me3dece6314" y="199.542470575"/>
      </g>
     </g>
     <g id="line2d_114">
      <g>
       <use style="stroke:#000000;stroke-width:0.5;" x="565.568181818" xlink:href="#m54e93d8e54" y="199.542470575"/>
      </g>
     </g>
    </g>
    <g id="ytick_37">
     <g id="line2d_115">
      <g>
       <use style="stroke:#000000;stroke-width:0.5;" x="90.0" xlink:href="#me3dece6314" y="187.40494115"/>
      </g>
     </g>
     <g id="line2d_116">
      <g>
       <use style="stroke:#000000;stroke-width:0.5;" x="565.568181818" xlink:href="#m54e93d8e54" y="187.40494115"/>
      </g>
     </g>
    </g>
    <g id="ytick_38">
     <g id="line2d_117">
      <g>
       <use style="stroke:#000000;stroke-width:0.5;" x="90.0" xlink:href="#me3dece6314" y="180.304941585"/>
      </g>
     </g>
     <g id="line2d_118">
      <g>
       <use style="stroke:#000000;stroke-width:0.5;" x="565.568181818" xlink:href="#m54e93d8e54" y="180.304941585"/>
      </g>
     </g>
    </g>
    <g id="ytick_39">
     <g id="line2d_119">
      <g>
       <use style="stroke:#000000;stroke-width:0.5;" x="90.0" xlink:href="#me3dece6314" y="175.267411724"/>
      </g>
     </g>
     <g id="line2d_120">
      <g>
       <use style="stroke:#000000;stroke-width:0.5;" x="565.568181818" xlink:href="#m54e93d8e54" y="175.267411724"/>
      </g>
     </g>
    </g>
    <g id="ytick_40">
     <g id="line2d_121">
      <g>
       <use style="stroke:#000000;stroke-width:0.5;" x="90.0" xlink:href="#me3dece6314" y="159.222470575"/>
      </g>
     </g>
     <g id="line2d_122">
      <g>
       <use style="stroke:#000000;stroke-width:0.5;" x="565.568181818" xlink:href="#m54e93d8e54" y="159.222470575"/>
      </g>
     </g>
    </g>
    <g id="ytick_41">
     <g id="line2d_123">
      <g>
       <use style="stroke:#000000;stroke-width:0.5;" x="90.0" xlink:href="#me3dece6314" y="147.08494115"/>
      </g>
     </g>
     <g id="line2d_124">
      <g>
       <use style="stroke:#000000;stroke-width:0.5;" x="565.568181818" xlink:href="#m54e93d8e54" y="147.08494115"/>
      </g>
     </g>
    </g>
    <g id="ytick_42">
     <g id="line2d_125">
      <g>
       <use style="stroke:#000000;stroke-width:0.5;" x="90.0" xlink:href="#me3dece6314" y="139.984941585"/>
      </g>
     </g>
     <g id="line2d_126">
      <g>
       <use style="stroke:#000000;stroke-width:0.5;" x="565.568181818" xlink:href="#m54e93d8e54" y="139.984941585"/>
      </g>
     </g>
    </g>
    <g id="ytick_43">
     <g id="line2d_127">
      <g>
       <use style="stroke:#000000;stroke-width:0.5;" x="90.0" xlink:href="#me3dece6314" y="134.947411724"/>
      </g>
     </g>
     <g id="line2d_128">
      <g>
       <use style="stroke:#000000;stroke-width:0.5;" x="565.568181818" xlink:href="#m54e93d8e54" y="134.947411724"/>
      </g>
     </g>
    </g>
    <g id="ytick_44">
     <g id="line2d_129">
      <g>
       <use style="stroke:#000000;stroke-width:0.5;" x="90.0" xlink:href="#me3dece6314" y="118.902470575"/>
      </g>
     </g>
     <g id="line2d_130">
      <g>
       <use style="stroke:#000000;stroke-width:0.5;" x="565.568181818" xlink:href="#m54e93d8e54" y="118.902470575"/>
      </g>
     </g>
    </g>
    <g id="ytick_45">
     <g id="line2d_131">
      <g>
       <use style="stroke:#000000;stroke-width:0.5;" x="90.0" xlink:href="#me3dece6314" y="106.76494115"/>
      </g>
     </g>
     <g id="line2d_132">
      <g>
       <use style="stroke:#000000;stroke-width:0.5;" x="565.568181818" xlink:href="#m54e93d8e54" y="106.76494115"/>
      </g>
     </g>
    </g>
    <g id="ytick_46">
     <g id="line2d_133">
      <g>
       <use style="stroke:#000000;stroke-width:0.5;" x="90.0" xlink:href="#me3dece6314" y="99.6649415845"/>
      </g>
     </g>
     <g id="line2d_134">
      <g>
       <use style="stroke:#000000;stroke-width:0.5;" x="565.568181818" xlink:href="#m54e93d8e54" y="99.6649415845"/>
      </g>
     </g>
    </g>
    <g id="ytick_47">
     <g id="line2d_135">
      <g>
       <use style="stroke:#000000;stroke-width:0.5;" x="90.0" xlink:href="#me3dece6314" y="94.6274117245"/>
      </g>
     </g>
     <g id="line2d_136">
      <g>
       <use style="stroke:#000000;stroke-width:0.5;" x="565.568181818" xlink:href="#m54e93d8e54" y="94.6274117245"/>
      </g>
     </g>
    </g>
    <g id="ytick_48">
     <g id="line2d_137">
      <g>
       <use style="stroke:#000000;stroke-width:0.5;" x="90.0" xlink:href="#me3dece6314" y="78.5824705748"/>
      </g>
     </g>
     <g id="line2d_138">
      <g>
       <use style="stroke:#000000;stroke-width:0.5;" x="565.568181818" xlink:href="#m54e93d8e54" y="78.5824705748"/>
      </g>
     </g>
    </g>
    <g id="ytick_49">
     <g id="line2d_139">
      <g>
       <use style="stroke:#000000;stroke-width:0.5;" x="90.0" xlink:href="#me3dece6314" y="66.4449411497"/>
      </g>
     </g>
     <g id="line2d_140">
      <g>
       <use style="stroke:#000000;stroke-width:0.5;" x="565.568181818" xlink:href="#m54e93d8e54" y="66.4449411497"/>
      </g>
     </g>
    </g>
    <g id="ytick_50">
     <g id="line2d_141">
      <g>
       <use style="stroke:#000000;stroke-width:0.5;" x="90.0" xlink:href="#me3dece6314" y="59.3449415845"/>
      </g>
     </g>
     <g id="line2d_142">
      <g>
       <use style="stroke:#000000;stroke-width:0.5;" x="565.568181818" xlink:href="#m54e93d8e54" y="59.3449415845"/>
      </g>
     </g>
    </g>
    <g id="ytick_51">
     <g id="line2d_143">
      <g>
       <use style="stroke:#000000;stroke-width:0.5;" x="90.0" xlink:href="#me3dece6314" y="54.3074117245"/>
      </g>
     </g>
     <g id="line2d_144">
      <g>
       <use style="stroke:#000000;stroke-width:0.5;" x="565.568181818" xlink:href="#m54e93d8e54" y="54.3074117245"/>
      </g>
     </g>
    </g>
    <g id="text_20">
     <!-- Phi(M_1450) (Mpc^-3 mag^-1) -->
     <defs>
      <path d="M 34.28125 27.484375 
Q 23.390625 27.484375 19.1875 25 
Q 14.984375 22.515625 14.984375 16.5 
Q 14.984375 11.71875 18.140625 8.90625 
Q 21.296875 6.109375 26.703125 6.109375 
Q 34.1875 6.109375 38.703125 11.40625 
Q 43.21875 16.703125 43.21875 25.484375 
L 43.21875 27.484375 
z
M 52.203125 31.203125 
L 52.203125 0 
L 43.21875 0 
L 43.21875 8.296875 
Q 40.140625 3.328125 35.546875 0.953125 
Q 30.953125 -1.421875 24.3125 -1.421875 
Q 15.921875 -1.421875 10.953125 3.296875 
Q 6 8.015625 6 15.921875 
Q 6 25.140625 12.171875 29.828125 
Q 18.359375 34.515625 30.609375 34.515625 
L 43.21875 34.515625 
L 43.21875 35.40625 
Q 43.21875 41.609375 39.140625 45 
Q 35.0625 48.390625 27.6875 48.390625 
Q 23 48.390625 18.546875 47.265625 
Q 14.109375 46.140625 10.015625 43.890625 
L 10.015625 52.203125 
Q 14.9375 54.109375 19.578125 55.046875 
Q 24.21875 56 28.609375 56 
Q 40.484375 56 46.34375 49.84375 
Q 52.203125 43.703125 52.203125 31.203125 
" id="BitstreamVeraSans-Roman-61"/>
      <path d="M 45.40625 27.984375 
Q 45.40625 37.75 41.375 43.109375 
Q 37.359375 48.484375 30.078125 48.484375 
Q 22.859375 48.484375 18.828125 43.109375 
Q 14.796875 37.75 14.796875 27.984375 
Q 14.796875 18.265625 18.828125 12.890625 
Q 22.859375 7.515625 30.078125 7.515625 
Q 37.359375 7.515625 41.375 12.890625 
Q 45.40625 18.265625 45.40625 27.984375 
M 54.390625 6.78125 
Q 54.390625 -7.171875 48.1875 -13.984375 
Q 42 -20.796875 29.203125 -20.796875 
Q 24.46875 -20.796875 20.265625 -20.09375 
Q 16.0625 -19.390625 12.109375 -17.921875 
L 12.109375 -9.1875 
Q 16.0625 -11.328125 19.921875 -12.34375 
Q 23.78125 -13.375 27.78125 -13.375 
Q 36.625 -13.375 41.015625 -8.765625 
Q 45.40625 -4.15625 45.40625 5.171875 
L 45.40625 9.625 
Q 42.625 4.78125 38.28125 2.390625 
Q 33.9375 0 27.875 0 
Q 17.828125 0 11.671875 7.65625 
Q 5.515625 15.328125 5.515625 27.984375 
Q 5.515625 40.671875 11.671875 48.328125 
Q 17.828125 56 27.875 56 
Q 33.9375 56 38.28125 53.609375 
Q 42.625 51.21875 45.40625 46.390625 
L 45.40625 54.6875 
L 54.390625 54.6875 
z
" id="BitstreamVeraSans-Roman-67"/>
      <path d="M 31 75.875 
Q 24.46875 64.65625 21.28125 53.65625 
Q 18.109375 42.671875 18.109375 31.390625 
Q 18.109375 20.125 21.3125 9.0625 
Q 24.515625 -2 31 -13.1875 
L 23.1875 -13.1875 
Q 15.875 -1.703125 12.234375 9.375 
Q 8.59375 20.453125 8.59375 31.390625 
Q 8.59375 42.28125 12.203125 53.3125 
Q 15.828125 64.359375 23.1875 75.875 
z
" id="BitstreamVeraSans-Roman-28"/>
      <path d="M 48.78125 52.59375 
L 48.78125 44.1875 
Q 44.96875 46.296875 41.140625 47.34375 
Q 37.3125 48.390625 33.40625 48.390625 
Q 24.65625 48.390625 19.8125 42.84375 
Q 14.984375 37.3125 14.984375 27.296875 
Q 14.984375 17.28125 19.8125 11.734375 
Q 24.65625 6.203125 33.40625 6.203125 
Q 37.3125 6.203125 41.140625 7.25 
Q 44.96875 8.296875 48.78125 10.40625 
L 48.78125 2.09375 
Q 45.015625 0.34375 40.984375 -0.53125 
Q 36.96875 -1.421875 32.421875 -1.421875 
Q 20.0625 -1.421875 12.78125 6.34375 
Q 5.515625 14.109375 5.515625 27.296875 
Q 5.515625 40.671875 12.859375 48.328125 
Q 20.21875 56 33.015625 56 
Q 37.15625 56 41.109375 55.140625 
Q 45.0625 54.296875 48.78125 52.59375 
" id="BitstreamVeraSans-Roman-63"/>
      <path d="M 19.671875 64.796875 
L 19.671875 37.40625 
L 32.078125 37.40625 
Q 38.96875 37.40625 42.71875 40.96875 
Q 46.484375 44.53125 46.484375 51.125 
Q 46.484375 57.671875 42.71875 61.234375 
Q 38.96875 64.796875 32.078125 64.796875 
z
M 9.8125 72.90625 
L 32.078125 72.90625 
Q 44.34375 72.90625 50.609375 67.359375 
Q 56.890625 61.8125 56.890625 51.125 
Q 56.890625 40.328125 50.609375 34.8125 
Q 44.34375 29.296875 32.078125 29.296875 
L 19.671875 29.296875 
L 19.671875 0 
L 9.8125 0 
z
" id="BitstreamVeraSans-Roman-50"/>
      <path d="M 18.109375 8.203125 
L 18.109375 -20.796875 
L 9.078125 -20.796875 
L 9.078125 54.6875 
L 18.109375 54.6875 
L 18.109375 46.390625 
Q 20.953125 51.265625 25.265625 53.625 
Q 29.59375 56 35.59375 56 
Q 45.5625 56 51.78125 48.09375 
Q 58.015625 40.1875 58.015625 27.296875 
Q 58.015625 14.40625 51.78125 6.484375 
Q 45.5625 -1.421875 35.59375 -1.421875 
Q 29.59375 -1.421875 25.265625 0.953125 
Q 20.953125 3.328125 18.109375 8.203125 
M 48.6875 27.296875 
Q 48.6875 37.203125 44.609375 42.84375 
Q 40.53125 48.484375 33.40625 48.484375 
Q 26.265625 48.484375 22.1875 42.84375 
Q 18.109375 37.203125 18.109375 27.296875 
Q 18.109375 17.390625 22.1875 11.75 
Q 26.265625 6.109375 33.40625 6.109375 
Q 40.53125 6.109375 44.609375 11.75 
Q 48.6875 17.390625 48.6875 27.296875 
" id="BitstreamVeraSans-Roman-70"/>
      <path d="M 9.421875 54.6875 
L 18.40625 54.6875 
L 18.40625 0 
L 9.421875 0 
z
M 9.421875 75.984375 
L 18.40625 75.984375 
L 18.40625 64.59375 
L 9.421875 64.59375 
z
" id="BitstreamVeraSans-Roman-69"/>
      <path d="M 52 44.1875 
Q 55.375 50.25 60.0625 53.125 
Q 64.75 56 71.09375 56 
Q 79.640625 56 84.28125 50.015625 
Q 88.921875 44.046875 88.921875 33.015625 
L 88.921875 0 
L 79.890625 0 
L 79.890625 32.71875 
Q 79.890625 40.578125 77.09375 44.375 
Q 74.3125 48.1875 68.609375 48.1875 
Q 61.625 48.1875 57.5625 43.546875 
Q 53.515625 38.921875 53.515625 30.90625 
L 53.515625 0 
L 44.484375 0 
L 44.484375 32.71875 
Q 44.484375 40.625 41.703125 44.40625 
Q 38.921875 48.1875 33.109375 48.1875 
Q 26.21875 48.1875 22.15625 43.53125 
Q 18.109375 38.875 18.109375 30.90625 
L 18.109375 0 
L 9.078125 0 
L 9.078125 54.6875 
L 18.109375 54.6875 
L 18.109375 46.1875 
Q 21.1875 51.21875 25.484375 53.609375 
Q 29.78125 56 35.6875 56 
Q 41.65625 56 45.828125 52.96875 
Q 50 49.953125 52 44.1875 
" id="BitstreamVeraSans-Roman-6d"/>
      <path d="M 8.015625 75.875 
L 15.828125 75.875 
Q 23.140625 64.359375 26.78125 53.3125 
Q 30.421875 42.28125 30.421875 31.390625 
Q 30.421875 20.453125 26.78125 9.375 
Q 23.140625 -1.703125 15.828125 -13.1875 
L 8.015625 -13.1875 
Q 14.5 -2 17.703125 9.0625 
Q 20.90625 20.125 20.90625 31.390625 
Q 20.90625 42.671875 17.703125 53.65625 
Q 14.5 64.65625 8.015625 75.875 
" id="BitstreamVeraSans-Roman-29"/>
      <path id="BitstreamVeraSans-Roman-20"/>
      <path d="M 46.6875 72.90625 
L 73.1875 45.703125 
L 63.375 45.703125 
L 41.890625 64.984375 
L 20.40625 45.703125 
L 10.59375 45.703125 
L 37.109375 72.90625 
z
" id="BitstreamVeraSans-Roman-5e"/>
      <path d="M 54.890625 33.015625 
L 54.890625 0 
L 45.90625 0 
L 45.90625 32.71875 
Q 45.90625 40.484375 42.875 44.328125 
Q 39.84375 48.1875 33.796875 48.1875 
Q 26.515625 48.1875 22.3125 43.546875 
Q 18.109375 38.921875 18.109375 30.90625 
L 18.109375 0 
L 9.078125 0 
L 9.078125 75.984375 
L 18.109375 75.984375 
L 18.109375 46.1875 
Q 21.34375 51.125 25.703125 53.5625 
Q 30.078125 56 35.796875 56 
Q 45.21875 56 50.046875 50.171875 
Q 54.890625 44.34375 54.890625 33.015625 
" id="BitstreamVeraSans-Roman-68"/>
     </defs>
     <g transform="translate(47.570625 345.346875)rotate(-90.0)scale(0.12 -0.12)">
      <use xlink:href="#BitstreamVeraSans-Roman-50"/>
      <use x="60.302734375" xlink:href="#BitstreamVeraSans-Roman-68"/>
      <use x="123.681640625" xlink:href="#BitstreamVeraSans-Roman-69"/>
      <use x="151.46484375" xlink:href="#BitstreamVeraSans-Roman-28"/>
      <use x="190.478515625" xlink:href="#BitstreamVeraSans-Roman-4d"/>
      <use x="276.7578125" xlink:href="#BitstreamVeraSans-Roman-5f"/>
      <use x="326.7578125" xlink:href="#BitstreamVeraSans-Roman-31"/>
      <use x="390.380859375" xlink:href="#BitstreamVeraSans-Roman-34"/>
      <use x="454.00390625" xlink:href="#BitstreamVeraSans-Roman-35"/>
      <use x="517.626953125" xlink:href="#BitstreamVeraSans-Roman-30"/>
      <use x="581.25" xlink:href="#BitstreamVeraSans-Roman-29"/>
      <use x="620.263671875" xlink:href="#BitstreamVeraSans-Roman-20"/>
      <use x="652.05078125" xlink:href="#BitstreamVeraSans-Roman-28"/>
      <use x="691.064453125" xlink:href="#BitstreamVeraSans-Roman-4d"/>
      <use x="777.34375" xlink:href="#BitstreamVeraSans-Roman-70"/>
      <use x="840.8203125" xlink:href="#BitstreamVeraSans-Roman-63"/>
      <use x="895.80078125" xlink:href="#BitstreamVeraSans-Roman-5e"/>
      <use x="979.58984375" xlink:href="#BitstreamVeraSans-Roman-2d"/>
      <use x="1015.673828125" xlink:href="#BitstreamVeraSans-Roman-33"/>
      <use x="1079.296875" xlink:href="#BitstreamVeraSans-Roman-20"/>
      <use x="1111.083984375" xlink:href="#BitstreamVeraSans-Roman-6d"/>
      <use x="1208.49609375" xlink:href="#BitstreamVeraSans-Roman-61"/>
      <use x="1269.775390625" xlink:href="#BitstreamVeraSans-Roman-67"/>
      <use x="1333.251953125" xlink:href="#BitstreamVeraSans-Roman-5e"/>
      <use x="1417.041015625" xlink:href="#BitstreamVeraSans-Roman-2d"/>
      <use x="1453.125" xlink:href="#BitstreamVeraSans-Roman-31"/>
      <use x="1516.748046875" xlink:href="#BitstreamVeraSans-Roman-29"/>
     </g>
    </g>
   </g>
   <g id="legend_1">
    <g id="patch_7">
     <path d="M 386.913682 104.193 
L 558.368182 104.193 
L 558.368182 57.6 
L 386.913682 57.6 
z
" style="fill:#ffffff;stroke:#000000;stroke-linejoin:miter;"/>
    </g>
    <g id="line2d_145">
     <path d="M 396.993682 69.26175 
L 417.153682 69.26175 
" style="fill:none;stroke:#0000ff;stroke-linecap:square;"/>
    </g>
    <g id="line2d_146"/>
    <g id="text_21">
     <!-- Willott et al. QLF -->
     <defs>
      <path d="M 56.203125 29.59375 
L 56.203125 25.203125 
L 14.890625 25.203125 
Q 15.484375 15.921875 20.484375 11.0625 
Q 25.484375 6.203125 34.421875 6.203125 
Q 39.59375 6.203125 44.453125 7.46875 
Q 49.3125 8.734375 54.109375 11.28125 
L 54.109375 2.78125 
Q 49.265625 0.734375 44.1875 -0.34375 
Q 39.109375 -1.421875 33.890625 -1.421875 
Q 20.796875 -1.421875 13.15625 6.1875 
Q 5.515625 13.8125 5.515625 26.8125 
Q 5.515625 40.234375 12.765625 48.109375 
Q 20.015625 56 32.328125 56 
Q 43.359375 56 49.78125 48.890625 
Q 56.203125 41.796875 56.203125 29.59375 
M 47.21875 32.234375 
Q 47.125 39.59375 43.09375 43.984375 
Q 39.0625 48.390625 32.421875 48.390625 
Q 24.90625 48.390625 20.390625 44.140625 
Q 15.875 39.890625 15.1875 32.171875 
z
" id="BitstreamVeraSans-Roman-65"/>
      <path d="M 9.8125 72.90625 
L 19.671875 72.90625 
L 19.671875 8.296875 
L 55.171875 8.296875 
L 55.171875 0 
L 9.8125 0 
z
" id="BitstreamVeraSans-Roman-4c"/>
      <path d="M 9.421875 75.984375 
L 18.40625 75.984375 
L 18.40625 0 
L 9.421875 0 
z
" id="BitstreamVeraSans-Roman-6c"/>
      <path d="M 18.3125 70.21875 
L 18.3125 54.6875 
L 36.8125 54.6875 
L 36.8125 47.703125 
L 18.3125 47.703125 
L 18.3125 18.015625 
Q 18.3125 11.328125 20.140625 9.421875 
Q 21.96875 7.515625 27.59375 7.515625 
L 36.8125 7.515625 
L 36.8125 0 
L 27.59375 0 
Q 17.1875 0 13.234375 3.875 
Q 9.28125 7.765625 9.28125 18.015625 
L 9.28125 47.703125 
L 2.6875 47.703125 
L 2.6875 54.6875 
L 9.28125 54.6875 
L 9.28125 70.21875 
z
" id="BitstreamVeraSans-Roman-74"/>
      <path d="M 30.609375 48.390625 
Q 23.390625 48.390625 19.1875 42.75 
Q 14.984375 37.109375 14.984375 27.296875 
Q 14.984375 17.484375 19.15625 11.84375 
Q 23.34375 6.203125 30.609375 6.203125 
Q 37.796875 6.203125 41.984375 11.859375 
Q 46.1875 17.53125 46.1875 27.296875 
Q 46.1875 37.015625 41.984375 42.703125 
Q 37.796875 48.390625 30.609375 48.390625 
M 30.609375 56 
Q 42.328125 56 49.015625 48.375 
Q 55.71875 40.765625 55.71875 27.296875 
Q 55.71875 13.875 49.015625 6.21875 
Q 42.328125 -1.421875 30.609375 -1.421875 
Q 18.84375 -1.421875 12.171875 6.21875 
Q 5.515625 13.875 5.515625 27.296875 
Q 5.515625 40.765625 12.171875 48.375 
Q 18.84375 56 30.609375 56 
" id="BitstreamVeraSans-Roman-6f"/>
      <path d="M 39.40625 66.21875 
Q 28.65625 66.21875 22.328125 58.203125 
Q 16.015625 50.203125 16.015625 36.375 
Q 16.015625 22.609375 22.328125 14.59375 
Q 28.65625 6.59375 39.40625 6.59375 
Q 50.140625 6.59375 56.421875 14.59375 
Q 62.703125 22.609375 62.703125 36.375 
Q 62.703125 50.203125 56.421875 58.203125 
Q 50.140625 66.21875 39.40625 66.21875 
M 53.21875 1.3125 
L 66.21875 -12.890625 
L 54.296875 -12.890625 
L 43.5 -1.21875 
Q 41.890625 -1.3125 41.03125 -1.359375 
Q 40.1875 -1.421875 39.40625 -1.421875 
Q 24.03125 -1.421875 14.8125 8.859375 
Q 5.609375 19.140625 5.609375 36.375 
Q 5.609375 53.65625 14.8125 63.9375 
Q 24.03125 74.21875 39.40625 74.21875 
Q 54.734375 74.21875 63.90625 63.9375 
Q 73.09375 53.65625 73.09375 36.375 
Q 73.09375 23.6875 67.984375 14.640625 
Q 62.890625 5.609375 53.21875 1.3125 
" id="BitstreamVeraSans-Roman-51"/>
      <path d="M 9.8125 72.90625 
L 51.703125 72.90625 
L 51.703125 64.59375 
L 19.671875 64.59375 
L 19.671875 43.109375 
L 48.578125 43.109375 
L 48.578125 34.8125 
L 19.671875 34.8125 
L 19.671875 0 
L 9.8125 0 
z
" id="BitstreamVeraSans-Roman-46"/>
      <path d="M 3.328125 72.90625 
L 13.28125 72.90625 
L 28.609375 11.28125 
L 43.890625 72.90625 
L 54.984375 72.90625 
L 70.3125 11.28125 
L 85.59375 72.90625 
L 95.609375 72.90625 
L 77.296875 0 
L 64.890625 0 
L 49.515625 63.28125 
L 33.984375 0 
L 21.578125 0 
z
" id="BitstreamVeraSans-Roman-57"/>
      <path d="M 10.6875 12.40625 
L 21 12.40625 
L 21 0 
L 10.6875 0 
z
" id="BitstreamVeraSans-Roman-2e"/>
     </defs>
     <g transform="translate(432.993681818 74.30175)scale(0.144 -0.144)">
      <use xlink:href="#BitstreamVeraSans-Roman-57"/>
      <use x="98.845703125" xlink:href="#BitstreamVeraSans-Roman-69"/>
      <use x="126.62890625" xlink:href="#BitstreamVeraSans-Roman-6c"/>
      <use x="154.412109375" xlink:href="#BitstreamVeraSans-Roman-6c"/>
      <use x="182.1953125" xlink:href="#BitstreamVeraSans-Roman-6f"/>
      <use x="243.376953125" xlink:href="#BitstreamVeraSans-Roman-74"/>
      <use x="282.5859375" xlink:href="#BitstreamVeraSans-Roman-74"/>
      <use x="321.794921875" xlink:href="#BitstreamVeraSans-Roman-20"/>
      <use x="353.58203125" xlink:href="#BitstreamVeraSans-Roman-65"/>
      <use x="415.10546875" xlink:href="#BitstreamVeraSans-Roman-74"/>
      <use x="454.314453125" xlink:href="#BitstreamVeraSans-Roman-20"/>
      <use x="486.1015625" xlink:href="#BitstreamVeraSans-Roman-61"/>
      <use x="547.380859375" xlink:href="#BitstreamVeraSans-Roman-6c"/>
      <use x="575.1640625" xlink:href="#BitstreamVeraSans-Roman-2e"/>
      <use x="606.951171875" xlink:href="#BitstreamVeraSans-Roman-20"/>
      <use x="638.73828125" xlink:href="#BitstreamVeraSans-Roman-51"/>
      <use x="717.44921875" xlink:href="#BitstreamVeraSans-Roman-4c"/>
      <use x="773.162109375" xlink:href="#BitstreamVeraSans-Roman-46"/>
     </g>
    </g>
    <g id="line2d_147">
     <path d="M 396.993682 90.39825 
L 417.153682 90.39825 
" style="fill:none;stroke:#0000ff;stroke-dasharray:6.000000,6.000000;stroke-dashoffset:0.0;"/>
    </g>
    <g id="line2d_148"/>
    <g id="text_22">
     <!-- Jiang et al. QLF -->
     <defs>
      <path d="M 9.8125 72.90625 
L 19.671875 72.90625 
L 19.671875 5.078125 
Q 19.671875 -8.109375 14.671875 -14.0625 
Q 9.671875 -20.015625 -1.421875 -20.015625 
L -5.171875 -20.015625 
L -5.171875 -11.71875 
L -2.09375 -11.71875 
Q 4.4375 -11.71875 7.125 -8.046875 
Q 9.8125 -4.390625 9.8125 5.078125 
z
" id="BitstreamVeraSans-Roman-4a"/>
      <path d="M 54.890625 33.015625 
L 54.890625 0 
L 45.90625 0 
L 45.90625 32.71875 
Q 45.90625 40.484375 42.875 44.328125 
Q 39.84375 48.1875 33.796875 48.1875 
Q 26.515625 48.1875 22.3125 43.546875 
Q 18.109375 38.921875 18.109375 30.90625 
L 18.109375 0 
L 9.078125 0 
L 9.078125 54.6875 
L 18.109375 54.6875 
L 18.109375 46.1875 
Q 21.34375 51.125 25.703125 53.5625 
Q 30.078125 56 35.796875 56 
Q 45.21875 56 50.046875 50.171875 
Q 54.890625 44.34375 54.890625 33.015625 
" id="BitstreamVeraSans-Roman-6e"/>
     </defs>
     <g transform="translate(432.993681818 95.43825)scale(0.144 -0.144)">
      <use xlink:href="#BitstreamVeraSans-Roman-4a"/>
      <use x="29.4921875" xlink:href="#BitstreamVeraSans-Roman-69"/>
      <use x="57.275390625" xlink:href="#BitstreamVeraSans-Roman-61"/>
      <use x="118.5546875" xlink:href="#BitstreamVeraSans-Roman-6e"/>
      <use x="181.93359375" xlink:href="#BitstreamVeraSans-Roman-67"/>
      <use x="245.41015625" xlink:href="#BitstreamVeraSans-Roman-20"/>
      <use x="277.197265625" xlink:href="#BitstreamVeraSans-Roman-65"/>
      <use x="338.720703125" xlink:href="#BitstreamVeraSans-Roman-74"/>
      <use x="377.9296875" xlink:href="#BitstreamVeraSans-Roman-20"/>
      <use x="409.716796875" xlink:href="#BitstreamVeraSans-Roman-61"/>
      <use x="470.99609375" xlink:href="#BitstreamVeraSans-Roman-6c"/>
      <use x="498.779296875" xlink:href="#BitstreamVeraSans-Roman-2e"/>
      <use x="530.56640625" xlink:href="#BitstreamVeraSans-Roman-20"/>
      <use x="562.353515625" xlink:href="#BitstreamVeraSans-Roman-51"/>
      <use x="641.064453125" xlink:href="#BitstreamVeraSans-Roman-4c"/>
      <use x="696.77734375" xlink:href="#BitstreamVeraSans-Roman-46"/>
     </g>
    </g>
   </g>
  </g>
  <g id="axes_2">
   <g id="patch_8">
    <path clip-path="url(#pfb4a5819cd)" d="M 616.295455 453.6 
L 616.295455 372.96 
L 616.295455 131.04 
L 616.295455 50.4 
L 648 50.4 
L 648 131.04 
L 648 372.96 
L 648 453.6 
z
" style="fill:#ffffff;stroke:#ffffff;stroke-linejoin:miter;stroke-width:0.01;"/>
   </g>
   <g id="QuadMesh_1">
    <path clip-path="url(#pfb4a5819cd)" d="M 616.295455 453.6 
L 648 453.6 
L 648 372.96 
L 616.295455 372.96 
L 616.295455 453.6 
" style="fill:#0000ff;"/>
    <path clip-path="url(#pfb4a5819cd)" d="M 616.295455 372.96 
L 648 372.96 
L 648 292.32 
L 616.295455 292.32 
L 616.295455 372.96 
" style="fill:#4400bb;"/>
    <path clip-path="url(#pfb4a5819cd)" d="M 616.295455 292.32 
L 648 292.32 
L 648 211.68 
L 616.295455 211.68 
L 616.295455 292.32 
" style="fill:#880088;"/>
    <path clip-path="url(#pfb4a5819cd)" d="M 616.295455 211.68 
L 648 211.68 
L 648 131.04 
L 616.295455 131.04 
L 616.295455 211.68 
" style="fill:#bb0044;"/>
    <path clip-path="url(#pfb4a5819cd)" d="M 616.295455 131.04 
L 648 131.04 
L 648 50.4 
L 616.295455 50.4 
L 616.295455 131.04 
" style="fill:#ff0000;"/>
   </g>
   <g id="patch_9">
    <path d="M 616.295455 453.6 
L 616.295455 372.96 
L 616.295455 131.04 
L 616.295455 50.4 
L 648 50.4 
L 648 131.04 
L 648 372.96 
L 648 453.6 
L 616.295455 453.6 
z
" style="fill:none;stroke:#000000;stroke-linejoin:miter;"/>
   </g>
   <g id="matplotlib.axis_3"/>
   <g id="matplotlib.axis_4">
    <g id="ytick_52">
     <g id="line2d_149">
      <g>
       <use style="stroke:#000000;stroke-width:0.5;" x="648.0" xlink:href="#m3327b393ab" y="413.28"/>
      </g>
     </g>
     <g id="text_23">
      <!-- 4 -->
      <g transform="translate(652.0 416.59125)scale(0.12 -0.12)">
       <use xlink:href="#BitstreamVeraSans-Roman-34"/>
      </g>
     </g>
    </g>
    <g id="ytick_53">
     <g id="line2d_150">
      <g>
       <use style="stroke:#000000;stroke-width:0.5;" x="648.0" xlink:href="#m3327b393ab" y="332.64"/>
      </g>
     </g>
     <g id="text_24">
      <!-- 5 -->
      <g transform="translate(652.0 335.95125)scale(0.12 -0.12)">
       <use xlink:href="#BitstreamVeraSans-Roman-35"/>
      </g>
     </g>
    </g>
    <g id="ytick_54">
     <g id="line2d_151">
      <g>
       <use style="stroke:#000000;stroke-width:0.5;" x="648.0" xlink:href="#m3327b393ab" y="252.0"/>
      </g>
     </g>
     <g id="text_25">
      <!-- 6 -->
      <g transform="translate(652.0 255.31125)scale(0.12 -0.12)">
       <use xlink:href="#BitstreamVeraSans-Roman-36"/>
      </g>
     </g>
    </g>
    <g id="ytick_55">
     <g id="line2d_152">
      <g>
       <use style="stroke:#000000;stroke-width:0.5;" x="648.0" xlink:href="#m3327b393ab" y="171.36"/>
      </g>
     </g>
     <g id="text_26">
      <!-- 7 -->
      <g transform="translate(652.0 174.67125)scale(0.12 -0.12)">
       <use xlink:href="#BitstreamVeraSans-Roman-37"/>
      </g>
     </g>
    </g>
    <g id="ytick_56">
     <g id="line2d_153">
      <g>
       <use style="stroke:#000000;stroke-width:0.5;" x="648.0" xlink:href="#m3327b393ab" y="90.72"/>
      </g>
     </g>
     <g id="text_27">
      <!-- 8 -->
      <g transform="translate(652.0 94.03125)scale(0.12 -0.12)">
       <use xlink:href="#BitstreamVeraSans-Roman-38"/>
      </g>
     </g>
    </g>
   </g>
   <g id="text_28">
    <!-- z -->
    <defs>
     <path d="M 5.515625 54.6875 
L 48.1875 54.6875 
L 48.1875 46.484375 
L 14.40625 7.171875 
L 48.1875 7.171875 
L 48.1875 0 
L 4.296875 0 
L 4.296875 8.203125 
L 38.09375 47.515625 
L 5.515625 47.515625 
z
" id="BitstreamVeraSans-Roman-7a"/>
    </defs>
    <g transform="translate(628.368852273 45.4)scale(0.144 -0.144)">
     <use xlink:href="#BitstreamVeraSans-Roman-7a"/>
    </g>
   </g>
  </g>
 </g>
 <defs>
  <clipPath id="pfb4a5819cd">
   <rect height="403.2" width="31.7045454545" x="616.295454545" y="50.4"/>
  </clipPath>
  <clipPath id="pd1797e2ebf">
   <rect height="403.2" width="475.568181818" x="90.0" y="50.4"/>
  </clipPath>
 </defs>
</svg>
